M48
; DRILL file {KiCad 8.0.1-rc1} date 2024-04-13T22:40:56-0500
; FORMAT={-:-/ absolute / inch / decimal}
; #@! TF.CreationDate,2024-04-13T22:40:56-05:00
; #@! TF.GenerationSoftware,Kicad,Pcbnew,8.0.1-rc1
; #@! TF.FileFunction,Plated,1,2,PTH
FMAT,2
INCH
; #@! TA.AperFunction,Plated,PTH,ComponentDrill
T1C0.0300
; #@! TA.AperFunction,Plated,PTH,ComponentDrill
T2C0.0354
%
G90
G05
T1
X1.9685Y-1.3189
X1.9685Y-1.7717
X1.9685Y-2.1654
X2.1654Y-1.3189
X2.1654Y-1.7717
X2.1654Y-2.1654
X2.3622Y-1.3189
X2.3622Y-1.7717
X2.3622Y-2.1654
X2.5591Y-1.3189
X2.5591Y-1.7717
X2.5591Y-2.1654
X2.7559Y-1.3189
X2.7559Y-1.7717
X2.7559Y-2.1654
X2.9528Y-1.3189
X2.9528Y-1.7717
X2.9528Y-2.1654
X3.1496Y-1.3189
X3.1496Y-1.7717
X3.1496Y-2.1654
X3.3465Y-1.3189
T2
X1.9685Y-1.5043
X1.9685Y-1.6043
X2.1654Y-1.5043
X2.1654Y-1.6043
X2.3622Y-1.5043
X2.3622Y-1.6043
X2.5591Y-1.5043
X2.5591Y-1.6043
X2.7559Y-1.5043
X2.7559Y-1.6043
X2.9528Y-1.5043
X2.9528Y-1.6043
X3.1496Y-1.5043
X3.1496Y-1.6043
M30
