%TF.GenerationSoftware,KiCad,Pcbnew,8.0.1-rc1*%
%TF.CreationDate,2024-04-16T23:15:50-05:00*%
%TF.ProjectId,Emotion LED,456d6f74-696f-46e2-904c-45442e6b6963,rev?*%
%TF.SameCoordinates,Original*%
%TF.FileFunction,Copper,L1,Top*%
%TF.FilePolarity,Positive*%
%FSLAX46Y46*%
G04 Gerber Fmt 4.6, Leading zero omitted, Abs format (unit mm)*
G04 Created by KiCad (PCBNEW 8.0.1-rc1) date 2024-04-16 23:15:50*
%MOMM*%
%LPD*%
G01*
G04 APERTURE LIST*
%ADD10C,0.300000*%
%TA.AperFunction,NonConductor*%
%ADD11C,0.300000*%
%TD*%
%TA.AperFunction,ComponentPad*%
%ADD12C,1.524000*%
%TD*%
%TA.AperFunction,ComponentPad*%
%ADD13R,1.800000X1.800000*%
%TD*%
%TA.AperFunction,ComponentPad*%
%ADD14C,1.800000*%
%TD*%
%TA.AperFunction,Conductor*%
%ADD15C,0.304800*%
%TD*%
%TA.AperFunction,Conductor*%
%ADD16C,0.200000*%
%TD*%
G04 APERTURE END LIST*
D10*
D11*
X58483082Y-31229400D02*
X58697368Y-31300828D01*
X58697368Y-31300828D02*
X59054510Y-31300828D01*
X59054510Y-31300828D02*
X59197368Y-31229400D01*
X59197368Y-31229400D02*
X59268796Y-31157971D01*
X59268796Y-31157971D02*
X59340225Y-31015114D01*
X59340225Y-31015114D02*
X59340225Y-30872257D01*
X59340225Y-30872257D02*
X59268796Y-30729400D01*
X59268796Y-30729400D02*
X59197368Y-30657971D01*
X59197368Y-30657971D02*
X59054510Y-30586542D01*
X59054510Y-30586542D02*
X58768796Y-30515114D01*
X58768796Y-30515114D02*
X58625939Y-30443685D01*
X58625939Y-30443685D02*
X58554510Y-30372257D01*
X58554510Y-30372257D02*
X58483082Y-30229400D01*
X58483082Y-30229400D02*
X58483082Y-30086542D01*
X58483082Y-30086542D02*
X58554510Y-29943685D01*
X58554510Y-29943685D02*
X58625939Y-29872257D01*
X58625939Y-29872257D02*
X58768796Y-29800828D01*
X58768796Y-29800828D02*
X59125939Y-29800828D01*
X59125939Y-29800828D02*
X59340225Y-29872257D01*
X60625939Y-31300828D02*
X60625939Y-30515114D01*
X60625939Y-30515114D02*
X60554510Y-30372257D01*
X60554510Y-30372257D02*
X60411653Y-30300828D01*
X60411653Y-30300828D02*
X60125939Y-30300828D01*
X60125939Y-30300828D02*
X59983081Y-30372257D01*
X60625939Y-31229400D02*
X60483081Y-31300828D01*
X60483081Y-31300828D02*
X60125939Y-31300828D01*
X60125939Y-31300828D02*
X59983081Y-31229400D01*
X59983081Y-31229400D02*
X59911653Y-31086542D01*
X59911653Y-31086542D02*
X59911653Y-30943685D01*
X59911653Y-30943685D02*
X59983081Y-30800828D01*
X59983081Y-30800828D02*
X60125939Y-30729400D01*
X60125939Y-30729400D02*
X60483081Y-30729400D01*
X60483081Y-30729400D02*
X60625939Y-30657971D01*
X61983082Y-31300828D02*
X61983082Y-29800828D01*
X61983082Y-31229400D02*
X61840224Y-31300828D01*
X61840224Y-31300828D02*
X61554510Y-31300828D01*
X61554510Y-31300828D02*
X61411653Y-31229400D01*
X61411653Y-31229400D02*
X61340224Y-31157971D01*
X61340224Y-31157971D02*
X61268796Y-31015114D01*
X61268796Y-31015114D02*
X61268796Y-30586542D01*
X61268796Y-30586542D02*
X61340224Y-30443685D01*
X61340224Y-30443685D02*
X61411653Y-30372257D01*
X61411653Y-30372257D02*
X61554510Y-30300828D01*
X61554510Y-30300828D02*
X61840224Y-30300828D01*
X61840224Y-30300828D02*
X61983082Y-30372257D01*
D10*
D11*
X53054510Y-31300828D02*
X53054510Y-29800828D01*
X53054510Y-30515114D02*
X53911653Y-30515114D01*
X53911653Y-31300828D02*
X53911653Y-29800828D01*
X55268797Y-31300828D02*
X55268797Y-30515114D01*
X55268797Y-30515114D02*
X55197368Y-30372257D01*
X55197368Y-30372257D02*
X55054511Y-30300828D01*
X55054511Y-30300828D02*
X54768797Y-30300828D01*
X54768797Y-30300828D02*
X54625939Y-30372257D01*
X55268797Y-31229400D02*
X55125939Y-31300828D01*
X55125939Y-31300828D02*
X54768797Y-31300828D01*
X54768797Y-31300828D02*
X54625939Y-31229400D01*
X54625939Y-31229400D02*
X54554511Y-31086542D01*
X54554511Y-31086542D02*
X54554511Y-30943685D01*
X54554511Y-30943685D02*
X54625939Y-30800828D01*
X54625939Y-30800828D02*
X54768797Y-30729400D01*
X54768797Y-30729400D02*
X55125939Y-30729400D01*
X55125939Y-30729400D02*
X55268797Y-30657971D01*
X55983082Y-30300828D02*
X55983082Y-31800828D01*
X55983082Y-30372257D02*
X56125940Y-30300828D01*
X56125940Y-30300828D02*
X56411654Y-30300828D01*
X56411654Y-30300828D02*
X56554511Y-30372257D01*
X56554511Y-30372257D02*
X56625940Y-30443685D01*
X56625940Y-30443685D02*
X56697368Y-30586542D01*
X56697368Y-30586542D02*
X56697368Y-31015114D01*
X56697368Y-31015114D02*
X56625940Y-31157971D01*
X56625940Y-31157971D02*
X56554511Y-31229400D01*
X56554511Y-31229400D02*
X56411654Y-31300828D01*
X56411654Y-31300828D02*
X56125940Y-31300828D01*
X56125940Y-31300828D02*
X55983082Y-31229400D01*
D10*
D11*
X68554510Y-31385912D02*
X68554510Y-29885912D01*
X68554510Y-29885912D02*
X69411653Y-31385912D01*
X69411653Y-31385912D02*
X69411653Y-29885912D01*
X70697368Y-31314484D02*
X70554511Y-31385912D01*
X70554511Y-31385912D02*
X70268797Y-31385912D01*
X70268797Y-31385912D02*
X70125939Y-31314484D01*
X70125939Y-31314484D02*
X70054511Y-31171626D01*
X70054511Y-31171626D02*
X70054511Y-30600198D01*
X70054511Y-30600198D02*
X70125939Y-30457341D01*
X70125939Y-30457341D02*
X70268797Y-30385912D01*
X70268797Y-30385912D02*
X70554511Y-30385912D01*
X70554511Y-30385912D02*
X70697368Y-30457341D01*
X70697368Y-30457341D02*
X70768797Y-30600198D01*
X70768797Y-30600198D02*
X70768797Y-30743055D01*
X70768797Y-30743055D02*
X70054511Y-30885912D01*
X72054511Y-30385912D02*
X72054511Y-31385912D01*
X71411653Y-30385912D02*
X71411653Y-31171626D01*
X71411653Y-31171626D02*
X71483082Y-31314484D01*
X71483082Y-31314484D02*
X71625939Y-31385912D01*
X71625939Y-31385912D02*
X71840225Y-31385912D01*
X71840225Y-31385912D02*
X71983082Y-31314484D01*
X71983082Y-31314484D02*
X72054511Y-31243055D01*
D10*
D11*
X63483082Y-31314484D02*
X63697368Y-31385912D01*
X63697368Y-31385912D02*
X64054510Y-31385912D01*
X64054510Y-31385912D02*
X64197368Y-31314484D01*
X64197368Y-31314484D02*
X64268796Y-31243055D01*
X64268796Y-31243055D02*
X64340225Y-31100198D01*
X64340225Y-31100198D02*
X64340225Y-30957341D01*
X64340225Y-30957341D02*
X64268796Y-30814484D01*
X64268796Y-30814484D02*
X64197368Y-30743055D01*
X64197368Y-30743055D02*
X64054510Y-30671626D01*
X64054510Y-30671626D02*
X63768796Y-30600198D01*
X63768796Y-30600198D02*
X63625939Y-30528769D01*
X63625939Y-30528769D02*
X63554510Y-30457341D01*
X63554510Y-30457341D02*
X63483082Y-30314484D01*
X63483082Y-30314484D02*
X63483082Y-30171626D01*
X63483082Y-30171626D02*
X63554510Y-30028769D01*
X63554510Y-30028769D02*
X63625939Y-29957341D01*
X63625939Y-29957341D02*
X63768796Y-29885912D01*
X63768796Y-29885912D02*
X64125939Y-29885912D01*
X64125939Y-29885912D02*
X64340225Y-29957341D01*
X65625939Y-30385912D02*
X65625939Y-31385912D01*
X64983081Y-30385912D02*
X64983081Y-31171626D01*
X64983081Y-31171626D02*
X65054510Y-31314484D01*
X65054510Y-31314484D02*
X65197367Y-31385912D01*
X65197367Y-31385912D02*
X65411653Y-31385912D01*
X65411653Y-31385912D02*
X65554510Y-31314484D01*
X65554510Y-31314484D02*
X65625939Y-31243055D01*
X66340224Y-31385912D02*
X66340224Y-30385912D01*
X66340224Y-30671626D02*
X66411653Y-30528769D01*
X66411653Y-30528769D02*
X66483082Y-30457341D01*
X66483082Y-30457341D02*
X66625939Y-30385912D01*
X66625939Y-30385912D02*
X66768796Y-30385912D01*
D10*
D11*
X47983082Y-30872257D02*
X48697368Y-30872257D01*
X47840225Y-31300828D02*
X48340225Y-29800828D01*
X48340225Y-29800828D02*
X48840225Y-31300828D01*
X49340224Y-30300828D02*
X49340224Y-31300828D01*
X49340224Y-30443685D02*
X49411653Y-30372257D01*
X49411653Y-30372257D02*
X49554510Y-30300828D01*
X49554510Y-30300828D02*
X49768796Y-30300828D01*
X49768796Y-30300828D02*
X49911653Y-30372257D01*
X49911653Y-30372257D02*
X49983082Y-30515114D01*
X49983082Y-30515114D02*
X49983082Y-31300828D01*
X51340225Y-30300828D02*
X51340225Y-31515114D01*
X51340225Y-31515114D02*
X51268796Y-31657971D01*
X51268796Y-31657971D02*
X51197367Y-31729400D01*
X51197367Y-31729400D02*
X51054510Y-31800828D01*
X51054510Y-31800828D02*
X50840225Y-31800828D01*
X50840225Y-31800828D02*
X50697367Y-31729400D01*
X51340225Y-31229400D02*
X51197367Y-31300828D01*
X51197367Y-31300828D02*
X50911653Y-31300828D01*
X50911653Y-31300828D02*
X50768796Y-31229400D01*
X50768796Y-31229400D02*
X50697367Y-31157971D01*
X50697367Y-31157971D02*
X50625939Y-31015114D01*
X50625939Y-31015114D02*
X50625939Y-30586542D01*
X50625939Y-30586542D02*
X50697367Y-30443685D01*
X50697367Y-30443685D02*
X50768796Y-30372257D01*
X50768796Y-30372257D02*
X50911653Y-30300828D01*
X50911653Y-30300828D02*
X51197367Y-30300828D01*
X51197367Y-30300828D02*
X51340225Y-30372257D01*
D10*
D11*
X78554510Y-31300828D02*
X78554510Y-29800828D01*
X78554510Y-29800828D02*
X79054510Y-30872257D01*
X79054510Y-30872257D02*
X79554510Y-29800828D01*
X79554510Y-29800828D02*
X79554510Y-31300828D01*
X80054511Y-30300828D02*
X80625939Y-30300828D01*
X80268796Y-29800828D02*
X80268796Y-31086542D01*
X80268796Y-31086542D02*
X80340225Y-31229400D01*
X80340225Y-31229400D02*
X80483082Y-31300828D01*
X80483082Y-31300828D02*
X80625939Y-31300828D01*
X81125939Y-31300828D02*
X81125939Y-29800828D01*
X81768797Y-31300828D02*
X81768797Y-30515114D01*
X81768797Y-30515114D02*
X81697368Y-30372257D01*
X81697368Y-30372257D02*
X81554511Y-30300828D01*
X81554511Y-30300828D02*
X81340225Y-30300828D01*
X81340225Y-30300828D02*
X81197368Y-30372257D01*
X81197368Y-30372257D02*
X81125939Y-30443685D01*
D10*
D11*
X73554510Y-30515114D02*
X74054510Y-30515114D01*
X74268796Y-31300828D02*
X73554510Y-31300828D01*
X73554510Y-31300828D02*
X73554510Y-29800828D01*
X73554510Y-29800828D02*
X74268796Y-29800828D01*
X74768796Y-30300828D02*
X75125939Y-31300828D01*
X75483082Y-30300828D02*
X75125939Y-31300828D01*
X75125939Y-31300828D02*
X74983082Y-31657971D01*
X74983082Y-31657971D02*
X74911653Y-31729400D01*
X74911653Y-31729400D02*
X74768796Y-31800828D01*
X76625939Y-31229400D02*
X76483082Y-31300828D01*
X76483082Y-31300828D02*
X76197368Y-31300828D01*
X76197368Y-31300828D02*
X76054510Y-31229400D01*
X76054510Y-31229400D02*
X75983082Y-31086542D01*
X75983082Y-31086542D02*
X75983082Y-30515114D01*
X75983082Y-30515114D02*
X76054510Y-30372257D01*
X76054510Y-30372257D02*
X76197368Y-30300828D01*
X76197368Y-30300828D02*
X76483082Y-30300828D01*
X76483082Y-30300828D02*
X76625939Y-30372257D01*
X76625939Y-30372257D02*
X76697368Y-30515114D01*
X76697368Y-30515114D02*
X76697368Y-30657971D01*
X76697368Y-30657971D02*
X75983082Y-30800828D01*
D12*
%TO.P,REF\u002A\u002A,1*%
%TO.N,N/C*%
X50000000Y-45000000D03*
%TO.P,REF\u002A\u002A,2*%
X50000000Y-55000000D03*
%TD*%
D13*
%TO.P,REF\u002A\u002A,1*%
%TO.N,N/C*%
X70000000Y-40750000D03*
D14*
%TO.P,REF\u002A\u002A,2*%
X70000000Y-38210000D03*
%TD*%
D12*
%TO.P,REF\u002A\u002A,1*%
%TO.N,N/C*%
X75000000Y-45000000D03*
%TO.P,REF\u002A\u002A,2*%
X75000000Y-55000000D03*
%TD*%
%TO.P,REF\u002A\u002A,1*%
%TO.N,N/C*%
X65000000Y-45000000D03*
%TO.P,REF\u002A\u002A,2*%
X65000000Y-55000000D03*
%TD*%
D13*
%TO.P,REF\u002A\u002A,1*%
%TO.N,N/C*%
X75000000Y-40750000D03*
D14*
%TO.P,REF\u002A\u002A,2*%
X75000000Y-38210000D03*
%TD*%
D13*
%TO.P,REF\u002A\u002A,1*%
%TO.N,N/C*%
X50000000Y-40750000D03*
D14*
%TO.P,REF\u002A\u002A,2*%
X50000000Y-38210000D03*
%TD*%
D12*
%TO.P,REF\u002A\u002A,1*%
%TO.N,N/C*%
X60000000Y-45000000D03*
%TO.P,REF\u002A\u002A,2*%
X60000000Y-55000000D03*
%TD*%
%TO.P,,2*%
%TO.N,N/C*%
X85000000Y-33500000D03*
%TD*%
%TO.P,,1*%
%TO.N,N/C*%
X65000000Y-33500000D03*
%TD*%
%TO.P,,1*%
%TO.N,N/C*%
X60000000Y-33500000D03*
%TD*%
%TO.P,,1*%
%TO.N,N/C*%
X50000000Y-33500000D03*
%TD*%
D13*
%TO.P,REF\u002A\u002A,1*%
%TO.N,N/C*%
X60000000Y-40750000D03*
D14*
%TO.P,REF\u002A\u002A,2*%
X60000000Y-38210000D03*
%TD*%
D12*
%TO.P,,1*%
%TO.N,N/C*%
X75000000Y-33500000D03*
%TD*%
%TO.P,,1*%
%TO.N,N/C*%
X70000000Y-33500000D03*
%TD*%
%TO.P,,1*%
%TO.N,N/C*%
X55000000Y-33500000D03*
%TD*%
D13*
%TO.P,REF\u002A\u002A,1*%
%TO.N,N/C*%
X80000000Y-40750000D03*
D14*
%TO.P,REF\u002A\u002A,2*%
X80000000Y-38210000D03*
%TD*%
D13*
%TO.P,REF\u002A\u002A,1*%
%TO.N,N/C*%
X65000000Y-40750000D03*
D14*
%TO.P,REF\u002A\u002A,2*%
X65000000Y-38210000D03*
%TD*%
D12*
%TO.P,,1*%
%TO.N,N/C*%
X80000000Y-33500000D03*
%TD*%
D13*
%TO.P,REF\u002A\u002A,1*%
%TO.N,N/C*%
X55000000Y-40750000D03*
D14*
%TO.P,REF\u002A\u002A,2*%
X55000000Y-38210000D03*
%TD*%
D12*
%TO.P,REF\u002A\u002A,1*%
%TO.N,N/C*%
X70000000Y-45000000D03*
%TO.P,REF\u002A\u002A,2*%
X70000000Y-55000000D03*
%TD*%
%TO.P,REF\u002A\u002A,1*%
%TO.N,N/C*%
X55000000Y-45000000D03*
%TO.P,REF\u002A\u002A,2*%
X55000000Y-55000000D03*
%TD*%
%TO.P,REF\u002A\u002A,1*%
%TO.N,N/C*%
X80000000Y-45000000D03*
%TO.P,REF\u002A\u002A,2*%
X80000000Y-55000000D03*
%TD*%
D15*
%TO.N,*%
X50000000Y-40750000D02*
X50000000Y-45000000D01*
X65000000Y-40750000D02*
X65000000Y-45000000D01*
D16*
X70000000Y-38210000D02*
X70000000Y-33500000D01*
X80000000Y-38210000D02*
X80000000Y-33500000D01*
D15*
X70000000Y-40750000D02*
X70000000Y-45000000D01*
X50000000Y-55000000D02*
X85000000Y-55000000D01*
X75000000Y-40750000D02*
X75000000Y-45000000D01*
D16*
X55000000Y-38210000D02*
X55000000Y-33500000D01*
D15*
X55000000Y-40750000D02*
X55000000Y-45000000D01*
D16*
X60000000Y-38210000D02*
X60000000Y-33500000D01*
D15*
X60000000Y-40750000D02*
X60000000Y-45000000D01*
X80000000Y-40750000D02*
X80000000Y-45000000D01*
X85000000Y-55000000D02*
X85000000Y-33500000D01*
D16*
X50000000Y-38210000D02*
X50000000Y-33500000D01*
X75000000Y-38210000D02*
X75000000Y-33500000D01*
X65000000Y-38210000D02*
X65000000Y-33500000D01*
%TD*%
%TA.AperFunction,Conductor*%
%TO.N,GRD*%
G36*
X91922702Y-28000618D02*
G01*
X91935819Y-28001190D01*
X92313742Y-28017690D01*
X92324477Y-28018630D01*
X92709859Y-28069366D01*
X92720493Y-28071241D01*
X93099990Y-28155374D01*
X93110416Y-28158168D01*
X93481135Y-28275055D01*
X93491270Y-28278744D01*
X93850387Y-28427495D01*
X93860178Y-28432061D01*
X94204942Y-28611534D01*
X94214309Y-28616941D01*
X94484434Y-28789030D01*
X94542130Y-28825786D01*
X94550991Y-28831991D01*
X94859353Y-29068605D01*
X94867640Y-29075559D01*
X95154204Y-29338146D01*
X95161853Y-29345795D01*
X95424440Y-29632359D01*
X95431394Y-29640646D01*
X95668008Y-29949008D01*
X95674213Y-29957869D01*
X95883057Y-30285689D01*
X95888465Y-30295057D01*
X96067935Y-30639814D01*
X96072507Y-30649618D01*
X96221249Y-31008714D01*
X96224949Y-31018879D01*
X96341828Y-31389572D01*
X96344628Y-31400021D01*
X96428756Y-31779498D01*
X96430634Y-31790151D01*
X96481367Y-32175499D01*
X96482310Y-32186276D01*
X96499382Y-32577297D01*
X96499500Y-32582706D01*
X96499500Y-52917293D01*
X96499382Y-52922702D01*
X96482310Y-53313723D01*
X96481367Y-53324500D01*
X96430634Y-53709848D01*
X96428756Y-53720501D01*
X96344628Y-54099978D01*
X96341828Y-54110427D01*
X96224949Y-54481120D01*
X96221249Y-54491285D01*
X96072507Y-54850381D01*
X96067935Y-54860185D01*
X95888465Y-55204942D01*
X95883057Y-55214310D01*
X95674213Y-55542130D01*
X95668008Y-55550991D01*
X95431394Y-55859353D01*
X95424440Y-55867640D01*
X95161853Y-56154204D01*
X95154204Y-56161853D01*
X94867640Y-56424440D01*
X94859353Y-56431394D01*
X94550991Y-56668008D01*
X94542130Y-56674213D01*
X94214310Y-56883057D01*
X94204942Y-56888465D01*
X93860185Y-57067935D01*
X93850381Y-57072507D01*
X93491285Y-57221249D01*
X93481120Y-57224949D01*
X93110427Y-57341828D01*
X93099978Y-57344628D01*
X92720501Y-57428756D01*
X92709848Y-57430634D01*
X92324500Y-57481367D01*
X92313723Y-57482310D01*
X91922703Y-57499382D01*
X91917294Y-57499500D01*
X40582706Y-57499500D01*
X40577297Y-57499382D01*
X40186276Y-57482310D01*
X40175501Y-57481367D01*
X40086792Y-57469688D01*
X39790151Y-57430634D01*
X39779498Y-57428756D01*
X39400021Y-57344628D01*
X39389572Y-57341828D01*
X39018879Y-57224949D01*
X39008714Y-57221249D01*
X38649618Y-57072507D01*
X38639814Y-57067935D01*
X38295057Y-56888465D01*
X38285689Y-56883057D01*
X37957869Y-56674213D01*
X37949008Y-56668008D01*
X37640646Y-56431394D01*
X37632359Y-56424440D01*
X37345795Y-56161853D01*
X37338146Y-56154204D01*
X37075559Y-55867640D01*
X37068605Y-55859353D01*
X36831991Y-55550991D01*
X36825786Y-55542130D01*
X36616942Y-55214310D01*
X36611534Y-55204942D01*
X36538323Y-55064305D01*
X36504849Y-55000002D01*
X48732677Y-55000002D01*
X48751929Y-55220062D01*
X48751930Y-55220070D01*
X48809104Y-55433445D01*
X48809105Y-55433447D01*
X48809106Y-55433450D01*
X48843467Y-55507137D01*
X48902466Y-55633662D01*
X48902468Y-55633666D01*
X49029170Y-55814615D01*
X49029175Y-55814621D01*
X49185378Y-55970824D01*
X49185384Y-55970829D01*
X49366333Y-56097531D01*
X49366335Y-56097532D01*
X49366338Y-56097534D01*
X49566550Y-56190894D01*
X49779932Y-56248070D01*
X49937123Y-56261822D01*
X49999998Y-56267323D01*
X50000000Y-56267323D01*
X50000002Y-56267323D01*
X50055017Y-56262509D01*
X50220068Y-56248070D01*
X50433450Y-56190894D01*
X50633662Y-56097534D01*
X50814620Y-55970826D01*
X50970826Y-55814620D01*
X51047038Y-55705776D01*
X51101614Y-55662152D01*
X51148613Y-55652900D01*
X53851387Y-55652900D01*
X53918426Y-55672585D01*
X53952962Y-55705777D01*
X54029172Y-55814618D01*
X54029173Y-55814619D01*
X54029174Y-55814620D01*
X54185380Y-55970826D01*
X54185383Y-55970828D01*
X54185384Y-55970829D01*
X54366333Y-56097531D01*
X54366335Y-56097532D01*
X54366338Y-56097534D01*
X54566550Y-56190894D01*
X54779932Y-56248070D01*
X54937123Y-56261822D01*
X54999998Y-56267323D01*
X55000000Y-56267323D01*
X55000002Y-56267323D01*
X55055017Y-56262509D01*
X55220068Y-56248070D01*
X55433450Y-56190894D01*
X55633662Y-56097534D01*
X55814620Y-55970826D01*
X55970826Y-55814620D01*
X56047038Y-55705776D01*
X56101614Y-55662152D01*
X56148613Y-55652900D01*
X58851387Y-55652900D01*
X58918426Y-55672585D01*
X58952962Y-55705777D01*
X59029172Y-55814618D01*
X59029173Y-55814619D01*
X59029174Y-55814620D01*
X59185380Y-55970826D01*
X59185383Y-55970828D01*
X59185384Y-55970829D01*
X59366333Y-56097531D01*
X59366335Y-56097532D01*
X59366338Y-56097534D01*
X59566550Y-56190894D01*
X59779932Y-56248070D01*
X59937123Y-56261822D01*
X59999998Y-56267323D01*
X60000000Y-56267323D01*
X60000002Y-56267323D01*
X60055017Y-56262509D01*
X60220068Y-56248070D01*
X60433450Y-56190894D01*
X60633662Y-56097534D01*
X60814620Y-55970826D01*
X60970826Y-55814620D01*
X61047038Y-55705776D01*
X61101614Y-55662152D01*
X61148613Y-55652900D01*
X63851387Y-55652900D01*
X63918426Y-55672585D01*
X63952962Y-55705777D01*
X64029172Y-55814618D01*
X64029173Y-55814619D01*
X64029174Y-55814620D01*
X64185380Y-55970826D01*
X64185383Y-55970828D01*
X64185384Y-55970829D01*
X64366333Y-56097531D01*
X64366335Y-56097532D01*
X64366338Y-56097534D01*
X64566550Y-56190894D01*
X64779932Y-56248070D01*
X64937123Y-56261822D01*
X64999998Y-56267323D01*
X65000000Y-56267323D01*
X65000002Y-56267323D01*
X65055017Y-56262509D01*
X65220068Y-56248070D01*
X65433450Y-56190894D01*
X65633662Y-56097534D01*
X65814620Y-55970826D01*
X65970826Y-55814620D01*
X66047038Y-55705776D01*
X66101614Y-55662152D01*
X66148613Y-55652900D01*
X68851387Y-55652900D01*
X68918426Y-55672585D01*
X68952962Y-55705777D01*
X69029172Y-55814618D01*
X69029173Y-55814619D01*
X69029174Y-55814620D01*
X69185380Y-55970826D01*
X69185383Y-55970828D01*
X69185384Y-55970829D01*
X69366333Y-56097531D01*
X69366335Y-56097532D01*
X69366338Y-56097534D01*
X69566550Y-56190894D01*
X69779932Y-56248070D01*
X69937123Y-56261822D01*
X69999998Y-56267323D01*
X70000000Y-56267323D01*
X70000002Y-56267323D01*
X70055017Y-56262509D01*
X70220068Y-56248070D01*
X70433450Y-56190894D01*
X70633662Y-56097534D01*
X70814620Y-55970826D01*
X70970826Y-55814620D01*
X71047038Y-55705776D01*
X71101614Y-55662152D01*
X71148613Y-55652900D01*
X73851387Y-55652900D01*
X73918426Y-55672585D01*
X73952962Y-55705777D01*
X74029172Y-55814618D01*
X74029173Y-55814619D01*
X74029174Y-55814620D01*
X74185380Y-55970826D01*
X74185383Y-55970828D01*
X74185384Y-55970829D01*
X74366333Y-56097531D01*
X74366335Y-56097532D01*
X74366338Y-56097534D01*
X74566550Y-56190894D01*
X74779932Y-56248070D01*
X74937123Y-56261822D01*
X74999998Y-56267323D01*
X75000000Y-56267323D01*
X75000002Y-56267323D01*
X75055017Y-56262509D01*
X75220068Y-56248070D01*
X75433450Y-56190894D01*
X75633662Y-56097534D01*
X75814620Y-55970826D01*
X75970826Y-55814620D01*
X76047038Y-55705776D01*
X76101614Y-55662152D01*
X76148613Y-55652900D01*
X78851387Y-55652900D01*
X78918426Y-55672585D01*
X78952962Y-55705777D01*
X79029172Y-55814618D01*
X79029173Y-55814619D01*
X79029174Y-55814620D01*
X79185380Y-55970826D01*
X79185383Y-55970828D01*
X79185384Y-55970829D01*
X79366333Y-56097531D01*
X79366335Y-56097532D01*
X79366338Y-56097534D01*
X79566550Y-56190894D01*
X79779932Y-56248070D01*
X79937123Y-56261822D01*
X79999998Y-56267323D01*
X80000000Y-56267323D01*
X80000002Y-56267323D01*
X80055017Y-56262509D01*
X80220068Y-56248070D01*
X80433450Y-56190894D01*
X80633662Y-56097534D01*
X80814620Y-55970826D01*
X80970826Y-55814620D01*
X81047038Y-55705776D01*
X81101614Y-55662152D01*
X81148613Y-55652900D01*
X85064307Y-55652900D01*
X85161019Y-55633662D01*
X85190444Y-55627809D01*
X85309264Y-55578592D01*
X85416199Y-55507140D01*
X85507140Y-55416199D01*
X85578592Y-55309264D01*
X85627809Y-55190444D01*
X85652900Y-55064305D01*
X85652900Y-34648613D01*
X85672585Y-34581574D01*
X85705777Y-34547038D01*
X85814620Y-34470826D01*
X85970826Y-34314620D01*
X86097534Y-34133662D01*
X86190894Y-33933450D01*
X86248070Y-33720068D01*
X86267323Y-33500000D01*
X86248070Y-33279932D01*
X86190894Y-33066550D01*
X86097534Y-32866339D01*
X85970826Y-32685380D01*
X85814620Y-32529174D01*
X85814616Y-32529171D01*
X85814615Y-32529170D01*
X85633666Y-32402468D01*
X85633662Y-32402466D01*
X85544184Y-32360742D01*
X85433450Y-32309106D01*
X85433447Y-32309105D01*
X85433445Y-32309104D01*
X85220070Y-32251930D01*
X85220062Y-32251929D01*
X85000002Y-32232677D01*
X84999998Y-32232677D01*
X84779937Y-32251929D01*
X84779929Y-32251930D01*
X84566554Y-32309104D01*
X84566548Y-32309107D01*
X84366340Y-32402465D01*
X84366338Y-32402466D01*
X84185377Y-32529175D01*
X84029175Y-32685377D01*
X83902466Y-32866338D01*
X83902465Y-32866340D01*
X83809107Y-33066548D01*
X83809104Y-33066554D01*
X83751930Y-33279929D01*
X83751929Y-33279937D01*
X83732677Y-33499997D01*
X83732677Y-33500002D01*
X83751929Y-33720062D01*
X83751930Y-33720070D01*
X83809104Y-33933445D01*
X83809105Y-33933447D01*
X83809106Y-33933450D01*
X83902466Y-34133662D01*
X83902468Y-34133666D01*
X84029170Y-34314615D01*
X84029174Y-34314620D01*
X84185378Y-34470824D01*
X84185381Y-34470827D01*
X84294223Y-34547038D01*
X84337848Y-34601614D01*
X84347100Y-34648613D01*
X84347100Y-54223100D01*
X84327415Y-54290139D01*
X84274611Y-54335894D01*
X84223100Y-54347100D01*
X81148613Y-54347100D01*
X81081574Y-54327415D01*
X81047038Y-54294223D01*
X81044178Y-54290139D01*
X80970826Y-54185380D01*
X80814620Y-54029174D01*
X80814616Y-54029171D01*
X80814615Y-54029170D01*
X80633666Y-53902468D01*
X80633662Y-53902466D01*
X80633660Y-53902465D01*
X80433450Y-53809106D01*
X80433447Y-53809105D01*
X80433445Y-53809104D01*
X80220070Y-53751930D01*
X80220062Y-53751929D01*
X80000002Y-53732677D01*
X79999998Y-53732677D01*
X79779937Y-53751929D01*
X79779929Y-53751930D01*
X79566554Y-53809104D01*
X79566548Y-53809107D01*
X79366340Y-53902465D01*
X79366338Y-53902466D01*
X79185377Y-54029175D01*
X79029175Y-54185377D01*
X79002762Y-54223100D01*
X78955822Y-54290139D01*
X78952962Y-54294223D01*
X78898386Y-54337848D01*
X78851387Y-54347100D01*
X76148613Y-54347100D01*
X76081574Y-54327415D01*
X76047038Y-54294223D01*
X76044178Y-54290139D01*
X75970826Y-54185380D01*
X75814620Y-54029174D01*
X75814616Y-54029171D01*
X75814615Y-54029170D01*
X75633666Y-53902468D01*
X75633662Y-53902466D01*
X75633660Y-53902465D01*
X75433450Y-53809106D01*
X75433447Y-53809105D01*
X75433445Y-53809104D01*
X75220070Y-53751930D01*
X75220062Y-53751929D01*
X75000002Y-53732677D01*
X74999998Y-53732677D01*
X74779937Y-53751929D01*
X74779929Y-53751930D01*
X74566554Y-53809104D01*
X74566548Y-53809107D01*
X74366340Y-53902465D01*
X74366338Y-53902466D01*
X74185377Y-54029175D01*
X74029175Y-54185377D01*
X74002762Y-54223100D01*
X73955822Y-54290139D01*
X73952962Y-54294223D01*
X73898386Y-54337848D01*
X73851387Y-54347100D01*
X71148613Y-54347100D01*
X71081574Y-54327415D01*
X71047038Y-54294223D01*
X71044178Y-54290139D01*
X70970826Y-54185380D01*
X70814620Y-54029174D01*
X70814616Y-54029171D01*
X70814615Y-54029170D01*
X70633666Y-53902468D01*
X70633662Y-53902466D01*
X70633660Y-53902465D01*
X70433450Y-53809106D01*
X70433447Y-53809105D01*
X70433445Y-53809104D01*
X70220070Y-53751930D01*
X70220062Y-53751929D01*
X70000002Y-53732677D01*
X69999998Y-53732677D01*
X69779937Y-53751929D01*
X69779929Y-53751930D01*
X69566554Y-53809104D01*
X69566548Y-53809107D01*
X69366340Y-53902465D01*
X69366338Y-53902466D01*
X69185377Y-54029175D01*
X69029175Y-54185377D01*
X69002762Y-54223100D01*
X68955822Y-54290139D01*
X68952962Y-54294223D01*
X68898386Y-54337848D01*
X68851387Y-54347100D01*
X66148613Y-54347100D01*
X66081574Y-54327415D01*
X66047038Y-54294223D01*
X66044178Y-54290139D01*
X65970826Y-54185380D01*
X65814620Y-54029174D01*
X65814616Y-54029171D01*
X65814615Y-54029170D01*
X65633666Y-53902468D01*
X65633662Y-53902466D01*
X65633660Y-53902465D01*
X65433450Y-53809106D01*
X65433447Y-53809105D01*
X65433445Y-53809104D01*
X65220070Y-53751930D01*
X65220062Y-53751929D01*
X65000002Y-53732677D01*
X64999998Y-53732677D01*
X64779937Y-53751929D01*
X64779929Y-53751930D01*
X64566554Y-53809104D01*
X64566548Y-53809107D01*
X64366340Y-53902465D01*
X64366338Y-53902466D01*
X64185377Y-54029175D01*
X64029175Y-54185377D01*
X64002762Y-54223100D01*
X63955822Y-54290139D01*
X63952962Y-54294223D01*
X63898386Y-54337848D01*
X63851387Y-54347100D01*
X61148613Y-54347100D01*
X61081574Y-54327415D01*
X61047038Y-54294223D01*
X61044178Y-54290139D01*
X60970826Y-54185380D01*
X60814620Y-54029174D01*
X60814616Y-54029171D01*
X60814615Y-54029170D01*
X60633666Y-53902468D01*
X60633662Y-53902466D01*
X60633660Y-53902465D01*
X60433450Y-53809106D01*
X60433447Y-53809105D01*
X60433445Y-53809104D01*
X60220070Y-53751930D01*
X60220062Y-53751929D01*
X60000002Y-53732677D01*
X59999998Y-53732677D01*
X59779937Y-53751929D01*
X59779929Y-53751930D01*
X59566554Y-53809104D01*
X59566548Y-53809107D01*
X59366340Y-53902465D01*
X59366338Y-53902466D01*
X59185377Y-54029175D01*
X59029175Y-54185377D01*
X59002762Y-54223100D01*
X58955822Y-54290139D01*
X58952962Y-54294223D01*
X58898386Y-54337848D01*
X58851387Y-54347100D01*
X56148613Y-54347100D01*
X56081574Y-54327415D01*
X56047038Y-54294223D01*
X56044178Y-54290139D01*
X55970826Y-54185380D01*
X55814620Y-54029174D01*
X55814616Y-54029171D01*
X55814615Y-54029170D01*
X55633666Y-53902468D01*
X55633662Y-53902466D01*
X55633660Y-53902465D01*
X55433450Y-53809106D01*
X55433447Y-53809105D01*
X55433445Y-53809104D01*
X55220070Y-53751930D01*
X55220062Y-53751929D01*
X55000002Y-53732677D01*
X54999998Y-53732677D01*
X54779937Y-53751929D01*
X54779929Y-53751930D01*
X54566554Y-53809104D01*
X54566548Y-53809107D01*
X54366340Y-53902465D01*
X54366338Y-53902466D01*
X54185377Y-54029175D01*
X54029175Y-54185377D01*
X54002762Y-54223100D01*
X53955822Y-54290139D01*
X53952962Y-54294223D01*
X53898386Y-54337848D01*
X53851387Y-54347100D01*
X51148613Y-54347100D01*
X51081574Y-54327415D01*
X51047038Y-54294223D01*
X51044178Y-54290139D01*
X50970826Y-54185380D01*
X50814620Y-54029174D01*
X50814616Y-54029171D01*
X50814615Y-54029170D01*
X50633666Y-53902468D01*
X50633662Y-53902466D01*
X50633660Y-53902465D01*
X50433450Y-53809106D01*
X50433447Y-53809105D01*
X50433445Y-53809104D01*
X50220070Y-53751930D01*
X50220062Y-53751929D01*
X50000002Y-53732677D01*
X49999998Y-53732677D01*
X49779937Y-53751929D01*
X49779929Y-53751930D01*
X49566554Y-53809104D01*
X49566548Y-53809107D01*
X49366340Y-53902465D01*
X49366338Y-53902466D01*
X49185377Y-54029175D01*
X49029175Y-54185377D01*
X48902466Y-54366338D01*
X48902465Y-54366340D01*
X48809107Y-54566548D01*
X48809104Y-54566554D01*
X48751930Y-54779929D01*
X48751929Y-54779937D01*
X48732677Y-54999997D01*
X48732677Y-55000002D01*
X36504849Y-55000002D01*
X36432061Y-54860178D01*
X36427492Y-54850381D01*
X36278744Y-54491270D01*
X36275055Y-54481135D01*
X36158168Y-54110416D01*
X36155374Y-54099990D01*
X36071241Y-53720493D01*
X36069365Y-53709848D01*
X36018630Y-53324477D01*
X36017690Y-53313742D01*
X36000618Y-52922701D01*
X36000500Y-52917293D01*
X36000500Y-32582706D01*
X36000618Y-32577298D01*
X36004744Y-32482786D01*
X36017690Y-32186255D01*
X36018629Y-32175524D01*
X36069367Y-31790137D01*
X36071240Y-31779510D01*
X36155375Y-31400004D01*
X36158166Y-31389589D01*
X36275057Y-31018857D01*
X36278741Y-31008736D01*
X36427498Y-30649603D01*
X36432056Y-30639829D01*
X36611540Y-30295045D01*
X36616935Y-30285700D01*
X36825793Y-29957858D01*
X36831983Y-29949018D01*
X37068612Y-29640637D01*
X37075550Y-29632368D01*
X37338157Y-29345783D01*
X37345783Y-29338157D01*
X37558101Y-29143603D01*
X47183000Y-29143603D01*
X47183000Y-32458053D01*
X48957138Y-32458053D01*
X49024177Y-32477738D01*
X49069932Y-32530542D01*
X49079876Y-32599700D01*
X49050851Y-32663256D01*
X49044819Y-32669734D01*
X49029175Y-32685377D01*
X48902466Y-32866338D01*
X48902465Y-32866340D01*
X48809107Y-33066548D01*
X48809104Y-33066554D01*
X48751930Y-33279929D01*
X48751929Y-33279937D01*
X48732677Y-33499997D01*
X48732677Y-33500002D01*
X48751929Y-33720062D01*
X48751930Y-33720070D01*
X48809104Y-33933445D01*
X48809105Y-33933447D01*
X48809106Y-33933450D01*
X48902466Y-34133662D01*
X48902468Y-34133666D01*
X49029170Y-34314615D01*
X49029174Y-34314620D01*
X49185380Y-34470826D01*
X49346623Y-34583729D01*
X49390248Y-34638306D01*
X49399500Y-34685304D01*
X49399500Y-36868655D01*
X49379815Y-36935694D01*
X49334519Y-36977709D01*
X49231376Y-37033528D01*
X49231365Y-37033535D01*
X49048222Y-37176081D01*
X49048219Y-37176084D01*
X48891016Y-37346852D01*
X48764075Y-37541151D01*
X48670842Y-37753699D01*
X48613866Y-37978691D01*
X48613864Y-37978702D01*
X48594700Y-38209993D01*
X48594700Y-38210006D01*
X48613864Y-38441297D01*
X48613866Y-38441308D01*
X48670842Y-38666300D01*
X48764075Y-38878848D01*
X48891016Y-39073147D01*
X48891019Y-39073151D01*
X48891021Y-39073153D01*
X48985803Y-39176114D01*
X49016724Y-39238767D01*
X49008864Y-39308193D01*
X48964716Y-39362348D01*
X48937906Y-39376277D01*
X48857669Y-39406203D01*
X48857664Y-39406206D01*
X48742455Y-39492452D01*
X48742452Y-39492455D01*
X48656206Y-39607664D01*
X48656202Y-39607671D01*
X48605908Y-39742517D01*
X48599501Y-39802116D01*
X48599501Y-39802123D01*
X48599500Y-39802135D01*
X48599500Y-41697870D01*
X48599501Y-41697876D01*
X48605908Y-41757483D01*
X48656202Y-41892328D01*
X48656206Y-41892335D01*
X48742452Y-42007544D01*
X48742455Y-42007547D01*
X48857664Y-42093793D01*
X48857671Y-42093797D01*
X48902618Y-42110561D01*
X48992517Y-42144091D01*
X49052127Y-42150500D01*
X49223100Y-42150499D01*
X49290139Y-42170183D01*
X49335894Y-42222987D01*
X49347100Y-42274499D01*
X49347100Y-43851386D01*
X49327415Y-43918425D01*
X49294223Y-43952961D01*
X49185378Y-44029174D01*
X49029175Y-44185377D01*
X48902466Y-44366338D01*
X48902465Y-44366340D01*
X48809107Y-44566548D01*
X48809104Y-44566554D01*
X48751930Y-44779929D01*
X48751929Y-44779937D01*
X48732677Y-44999997D01*
X48732677Y-45000002D01*
X48751929Y-45220062D01*
X48751930Y-45220070D01*
X48809104Y-45433445D01*
X48809105Y-45433447D01*
X48809106Y-45433450D01*
X48902466Y-45633662D01*
X48902468Y-45633666D01*
X49029170Y-45814615D01*
X49029175Y-45814621D01*
X49185378Y-45970824D01*
X49185384Y-45970829D01*
X49366333Y-46097531D01*
X49366335Y-46097532D01*
X49366338Y-46097534D01*
X49566550Y-46190894D01*
X49779932Y-46248070D01*
X49937123Y-46261822D01*
X49999998Y-46267323D01*
X50000000Y-46267323D01*
X50000002Y-46267323D01*
X50055017Y-46262509D01*
X50220068Y-46248070D01*
X50433450Y-46190894D01*
X50633662Y-46097534D01*
X50814620Y-45970826D01*
X50970826Y-45814620D01*
X51097534Y-45633662D01*
X51190894Y-45433450D01*
X51248070Y-45220068D01*
X51267323Y-45000000D01*
X51248070Y-44779932D01*
X51190894Y-44566550D01*
X51097534Y-44366339D01*
X50970826Y-44185380D01*
X50814620Y-44029174D01*
X50756734Y-43988641D01*
X50705775Y-43952959D01*
X50662151Y-43898382D01*
X50652900Y-43851385D01*
X50652900Y-42274499D01*
X50672585Y-42207460D01*
X50725389Y-42161705D01*
X50776900Y-42150499D01*
X50947871Y-42150499D01*
X50947872Y-42150499D01*
X51007483Y-42144091D01*
X51142331Y-42093796D01*
X51257546Y-42007546D01*
X51343796Y-41892331D01*
X51394091Y-41757483D01*
X51400500Y-41697873D01*
X51400499Y-39802128D01*
X51394091Y-39742517D01*
X51343796Y-39607669D01*
X51343795Y-39607668D01*
X51343793Y-39607664D01*
X51257547Y-39492455D01*
X51257544Y-39492452D01*
X51142335Y-39406206D01*
X51142328Y-39406202D01*
X51062094Y-39376277D01*
X51006160Y-39334406D01*
X50981743Y-39268941D01*
X50996595Y-39200668D01*
X51014190Y-39176121D01*
X51108979Y-39073153D01*
X51235924Y-38878849D01*
X51329157Y-38666300D01*
X51386134Y-38441305D01*
X51405300Y-38210000D01*
X51405300Y-38209993D01*
X51386135Y-37978702D01*
X51386133Y-37978691D01*
X51329157Y-37753699D01*
X51235924Y-37541151D01*
X51108983Y-37346852D01*
X51108980Y-37346849D01*
X51108979Y-37346847D01*
X50951784Y-37176087D01*
X50951779Y-37176083D01*
X50951777Y-37176081D01*
X50768634Y-37033535D01*
X50768623Y-37033528D01*
X50665481Y-36977709D01*
X50615891Y-36928489D01*
X50600500Y-36868655D01*
X50600500Y-34685304D01*
X50620185Y-34618265D01*
X50653375Y-34583730D01*
X50814620Y-34470826D01*
X50970826Y-34314620D01*
X51097534Y-34133662D01*
X51190894Y-33933450D01*
X51248070Y-33720068D01*
X51267323Y-33500000D01*
X51248070Y-33279932D01*
X51190894Y-33066550D01*
X51097534Y-32866339D01*
X50970826Y-32685380D01*
X50970824Y-32685377D01*
X50955181Y-32669734D01*
X50921696Y-32608411D01*
X50926680Y-32538719D01*
X50968552Y-32482786D01*
X51034016Y-32458369D01*
X51042862Y-32458053D01*
X51997450Y-32458053D01*
X51997450Y-29145328D01*
X52399010Y-29145328D01*
X52399010Y-32456328D01*
X53958863Y-32456328D01*
X54025902Y-32476013D01*
X54071657Y-32528817D01*
X54081601Y-32597975D01*
X54052576Y-32661531D01*
X54046544Y-32668009D01*
X54029175Y-32685377D01*
X53902466Y-32866338D01*
X53902465Y-32866340D01*
X53809107Y-33066548D01*
X53809104Y-33066554D01*
X53751930Y-33279929D01*
X53751929Y-33279937D01*
X53732677Y-33499997D01*
X53732677Y-33500002D01*
X53751929Y-33720062D01*
X53751930Y-33720070D01*
X53809104Y-33933445D01*
X53809105Y-33933447D01*
X53809106Y-33933450D01*
X53902466Y-34133662D01*
X53902468Y-34133666D01*
X54029170Y-34314615D01*
X54029174Y-34314620D01*
X54185380Y-34470826D01*
X54346623Y-34583729D01*
X54390248Y-34638306D01*
X54399500Y-34685304D01*
X54399500Y-36868655D01*
X54379815Y-36935694D01*
X54334519Y-36977709D01*
X54231376Y-37033528D01*
X54231365Y-37033535D01*
X54048222Y-37176081D01*
X54048219Y-37176084D01*
X53891016Y-37346852D01*
X53764075Y-37541151D01*
X53670842Y-37753699D01*
X53613866Y-37978691D01*
X53613864Y-37978702D01*
X53594700Y-38209993D01*
X53594700Y-38210006D01*
X53613864Y-38441297D01*
X53613866Y-38441308D01*
X53670842Y-38666300D01*
X53764075Y-38878848D01*
X53891016Y-39073147D01*
X53891019Y-39073151D01*
X53891021Y-39073153D01*
X53985803Y-39176114D01*
X54016724Y-39238767D01*
X54008864Y-39308193D01*
X53964716Y-39362348D01*
X53937906Y-39376277D01*
X53857669Y-39406203D01*
X53857664Y-39406206D01*
X53742455Y-39492452D01*
X53742452Y-39492455D01*
X53656206Y-39607664D01*
X53656202Y-39607671D01*
X53605908Y-39742517D01*
X53599501Y-39802116D01*
X53599501Y-39802123D01*
X53599500Y-39802135D01*
X53599500Y-41697870D01*
X53599501Y-41697876D01*
X53605908Y-41757483D01*
X53656202Y-41892328D01*
X53656206Y-41892335D01*
X53742452Y-42007544D01*
X53742455Y-42007547D01*
X53857664Y-42093793D01*
X53857671Y-42093797D01*
X53902618Y-42110561D01*
X53992517Y-42144091D01*
X54052127Y-42150500D01*
X54223100Y-42150499D01*
X54290139Y-42170183D01*
X54335894Y-42222987D01*
X54347100Y-42274499D01*
X54347100Y-43851386D01*
X54327415Y-43918425D01*
X54294223Y-43952961D01*
X54185378Y-44029174D01*
X54029175Y-44185377D01*
X53902466Y-44366338D01*
X53902465Y-44366340D01*
X53809107Y-44566548D01*
X53809104Y-44566554D01*
X53751930Y-44779929D01*
X53751929Y-44779937D01*
X53732677Y-44999997D01*
X53732677Y-45000002D01*
X53751929Y-45220062D01*
X53751930Y-45220070D01*
X53809104Y-45433445D01*
X53809105Y-45433447D01*
X53809106Y-45433450D01*
X53902466Y-45633662D01*
X53902468Y-45633666D01*
X54029170Y-45814615D01*
X54029175Y-45814621D01*
X54185378Y-45970824D01*
X54185384Y-45970829D01*
X54366333Y-46097531D01*
X54366335Y-46097532D01*
X54366338Y-46097534D01*
X54566550Y-46190894D01*
X54779932Y-46248070D01*
X54937123Y-46261822D01*
X54999998Y-46267323D01*
X55000000Y-46267323D01*
X55000002Y-46267323D01*
X55055017Y-46262509D01*
X55220068Y-46248070D01*
X55433450Y-46190894D01*
X55633662Y-46097534D01*
X55814620Y-45970826D01*
X55970826Y-45814620D01*
X56097534Y-45633662D01*
X56190894Y-45433450D01*
X56248070Y-45220068D01*
X56267323Y-45000000D01*
X56248070Y-44779932D01*
X56190894Y-44566550D01*
X56097534Y-44366339D01*
X55970826Y-44185380D01*
X55814620Y-44029174D01*
X55756734Y-43988641D01*
X55705775Y-43952959D01*
X55662151Y-43898382D01*
X55652900Y-43851385D01*
X55652900Y-42274499D01*
X55672585Y-42207460D01*
X55725389Y-42161705D01*
X55776900Y-42150499D01*
X55947871Y-42150499D01*
X55947872Y-42150499D01*
X56007483Y-42144091D01*
X56142331Y-42093796D01*
X56257546Y-42007546D01*
X56343796Y-41892331D01*
X56394091Y-41757483D01*
X56400500Y-41697873D01*
X56400499Y-39802128D01*
X56394091Y-39742517D01*
X56343796Y-39607669D01*
X56343795Y-39607668D01*
X56343793Y-39607664D01*
X56257547Y-39492455D01*
X56257544Y-39492452D01*
X56142335Y-39406206D01*
X56142328Y-39406202D01*
X56062094Y-39376277D01*
X56006160Y-39334406D01*
X55981743Y-39268941D01*
X55996595Y-39200668D01*
X56014190Y-39176121D01*
X56108979Y-39073153D01*
X56235924Y-38878849D01*
X56329157Y-38666300D01*
X56386134Y-38441305D01*
X56405300Y-38210006D01*
X58594700Y-38210006D01*
X58613864Y-38441297D01*
X58613866Y-38441308D01*
X58670842Y-38666300D01*
X58764075Y-38878848D01*
X58891016Y-39073147D01*
X58891019Y-39073151D01*
X58891021Y-39073153D01*
X58985803Y-39176114D01*
X59016724Y-39238767D01*
X59008864Y-39308193D01*
X58964716Y-39362348D01*
X58937906Y-39376277D01*
X58857669Y-39406203D01*
X58857664Y-39406206D01*
X58742455Y-39492452D01*
X58742452Y-39492455D01*
X58656206Y-39607664D01*
X58656202Y-39607671D01*
X58605908Y-39742517D01*
X58599501Y-39802116D01*
X58599501Y-39802123D01*
X58599500Y-39802135D01*
X58599500Y-41697870D01*
X58599501Y-41697876D01*
X58605908Y-41757483D01*
X58656202Y-41892328D01*
X58656206Y-41892335D01*
X58742452Y-42007544D01*
X58742455Y-42007547D01*
X58857664Y-42093793D01*
X58857671Y-42093797D01*
X58902618Y-42110561D01*
X58992517Y-42144091D01*
X59052127Y-42150500D01*
X59223100Y-42150499D01*
X59290139Y-42170183D01*
X59335894Y-42222987D01*
X59347100Y-42274499D01*
X59347100Y-43851386D01*
X59327415Y-43918425D01*
X59294223Y-43952961D01*
X59185378Y-44029174D01*
X59029175Y-44185377D01*
X58902466Y-44366338D01*
X58902465Y-44366340D01*
X58809107Y-44566548D01*
X58809104Y-44566554D01*
X58751930Y-44779929D01*
X58751929Y-44779937D01*
X58732677Y-44999997D01*
X58732677Y-45000002D01*
X58751929Y-45220062D01*
X58751930Y-45220070D01*
X58809104Y-45433445D01*
X58809105Y-45433447D01*
X58809106Y-45433450D01*
X58902466Y-45633662D01*
X58902468Y-45633666D01*
X59029170Y-45814615D01*
X59029175Y-45814621D01*
X59185378Y-45970824D01*
X59185384Y-45970829D01*
X59366333Y-46097531D01*
X59366335Y-46097532D01*
X59366338Y-46097534D01*
X59566550Y-46190894D01*
X59779932Y-46248070D01*
X59937123Y-46261822D01*
X59999998Y-46267323D01*
X60000000Y-46267323D01*
X60000002Y-46267323D01*
X60055017Y-46262509D01*
X60220068Y-46248070D01*
X60433450Y-46190894D01*
X60633662Y-46097534D01*
X60814620Y-45970826D01*
X60970826Y-45814620D01*
X61097534Y-45633662D01*
X61190894Y-45433450D01*
X61248070Y-45220068D01*
X61267323Y-45000000D01*
X61248070Y-44779932D01*
X61190894Y-44566550D01*
X61097534Y-44366339D01*
X60970826Y-44185380D01*
X60814620Y-44029174D01*
X60756734Y-43988641D01*
X60705775Y-43952959D01*
X60662151Y-43898382D01*
X60652900Y-43851385D01*
X60652900Y-42274499D01*
X60672585Y-42207460D01*
X60725389Y-42161705D01*
X60776900Y-42150499D01*
X60947871Y-42150499D01*
X60947872Y-42150499D01*
X61007483Y-42144091D01*
X61142331Y-42093796D01*
X61257546Y-42007546D01*
X61343796Y-41892331D01*
X61394091Y-41757483D01*
X61400500Y-41697873D01*
X61400499Y-39802128D01*
X61394091Y-39742517D01*
X61343796Y-39607669D01*
X61343795Y-39607668D01*
X61343793Y-39607664D01*
X61257547Y-39492455D01*
X61257544Y-39492452D01*
X61142335Y-39406206D01*
X61142328Y-39406202D01*
X61062094Y-39376277D01*
X61006160Y-39334406D01*
X60981743Y-39268941D01*
X60996595Y-39200668D01*
X61014190Y-39176121D01*
X61108979Y-39073153D01*
X61235924Y-38878849D01*
X61329157Y-38666300D01*
X61386134Y-38441305D01*
X61405300Y-38210000D01*
X61405300Y-38209993D01*
X61386135Y-37978702D01*
X61386133Y-37978691D01*
X61329157Y-37753699D01*
X61235924Y-37541151D01*
X61108983Y-37346852D01*
X61108980Y-37346849D01*
X61108979Y-37346847D01*
X60951784Y-37176087D01*
X60951779Y-37176083D01*
X60951777Y-37176081D01*
X60768634Y-37033535D01*
X60768623Y-37033528D01*
X60665481Y-36977709D01*
X60615891Y-36928489D01*
X60600500Y-36868655D01*
X60600500Y-34685304D01*
X60620185Y-34618265D01*
X60653375Y-34583730D01*
X60814620Y-34470826D01*
X60970826Y-34314620D01*
X61097534Y-34133662D01*
X61190894Y-33933450D01*
X61248070Y-33720068D01*
X61267323Y-33500000D01*
X61248070Y-33279932D01*
X61190894Y-33066550D01*
X61097534Y-32866339D01*
X60970826Y-32685380D01*
X60814620Y-32529174D01*
X60814616Y-32529171D01*
X60814615Y-32529170D01*
X60633666Y-32402468D01*
X60633662Y-32402466D01*
X60544184Y-32360742D01*
X60433450Y-32309106D01*
X60433447Y-32309105D01*
X60433445Y-32309104D01*
X60220070Y-32251930D01*
X60220062Y-32251929D01*
X60000002Y-32232677D01*
X59999998Y-32232677D01*
X59779937Y-32251929D01*
X59779929Y-32251930D01*
X59566554Y-32309104D01*
X59566548Y-32309107D01*
X59366340Y-32402465D01*
X59366338Y-32402466D01*
X59185377Y-32529175D01*
X59029175Y-32685377D01*
X58902466Y-32866338D01*
X58902465Y-32866340D01*
X58809107Y-33066548D01*
X58809104Y-33066554D01*
X58751930Y-33279929D01*
X58751929Y-33279937D01*
X58732677Y-33499997D01*
X58732677Y-33500002D01*
X58751929Y-33720062D01*
X58751930Y-33720070D01*
X58809104Y-33933445D01*
X58809105Y-33933447D01*
X58809106Y-33933450D01*
X58902466Y-34133662D01*
X58902468Y-34133666D01*
X59029170Y-34314615D01*
X59029174Y-34314620D01*
X59185380Y-34470826D01*
X59346623Y-34583729D01*
X59390248Y-34638306D01*
X59399500Y-34685304D01*
X59399500Y-36868655D01*
X59379815Y-36935694D01*
X59334519Y-36977709D01*
X59231376Y-37033528D01*
X59231365Y-37033535D01*
X59048222Y-37176081D01*
X59048219Y-37176084D01*
X58891016Y-37346852D01*
X58764075Y-37541151D01*
X58670842Y-37753699D01*
X58613866Y-37978691D01*
X58613864Y-37978702D01*
X58594700Y-38209993D01*
X58594700Y-38210006D01*
X56405300Y-38210006D01*
X56405300Y-38210000D01*
X56405300Y-38209993D01*
X56386135Y-37978702D01*
X56386133Y-37978691D01*
X56329157Y-37753699D01*
X56235924Y-37541151D01*
X56108983Y-37346852D01*
X56108980Y-37346849D01*
X56108979Y-37346847D01*
X55951784Y-37176087D01*
X55951779Y-37176083D01*
X55951777Y-37176081D01*
X55768634Y-37033535D01*
X55768623Y-37033528D01*
X55665481Y-36977709D01*
X55615891Y-36928489D01*
X55600500Y-36868655D01*
X55600500Y-34685304D01*
X55620185Y-34618265D01*
X55653375Y-34583730D01*
X55814620Y-34470826D01*
X55970826Y-34314620D01*
X56097534Y-34133662D01*
X56190894Y-33933450D01*
X56248070Y-33720068D01*
X56267323Y-33500000D01*
X56248070Y-33279932D01*
X56190894Y-33066550D01*
X56097534Y-32866339D01*
X55970826Y-32685380D01*
X55970824Y-32685377D01*
X55953456Y-32668009D01*
X55919971Y-32606686D01*
X55924955Y-32536994D01*
X55966827Y-32481061D01*
X56032291Y-32456644D01*
X56041137Y-32456328D01*
X57354593Y-32456328D01*
X57354593Y-29145328D01*
X52399010Y-29145328D01*
X51997450Y-29145328D01*
X51997450Y-29143603D01*
X57825857Y-29143603D01*
X57825857Y-31958053D01*
X62662031Y-31958053D01*
X62675499Y-31950699D01*
X62745191Y-31955683D01*
X62801124Y-31997555D01*
X62813526Y-32030806D01*
X62825857Y-32043137D01*
X64617285Y-32043137D01*
X64684324Y-32062822D01*
X64730079Y-32115626D01*
X64740023Y-32184784D01*
X64710998Y-32248340D01*
X64652220Y-32286114D01*
X64649378Y-32286912D01*
X64566557Y-32309103D01*
X64566548Y-32309107D01*
X64366340Y-32402465D01*
X64366338Y-32402466D01*
X64185377Y-32529175D01*
X64029175Y-32685377D01*
X63902466Y-32866338D01*
X63902465Y-32866340D01*
X63809107Y-33066548D01*
X63809104Y-33066554D01*
X63751930Y-33279929D01*
X63751929Y-33279937D01*
X63732677Y-33499997D01*
X63732677Y-33500002D01*
X63751929Y-33720062D01*
X63751930Y-33720070D01*
X63809104Y-33933445D01*
X63809105Y-33933447D01*
X63809106Y-33933450D01*
X63902466Y-34133662D01*
X63902468Y-34133666D01*
X64029170Y-34314615D01*
X64029174Y-34314620D01*
X64185380Y-34470826D01*
X64346623Y-34583729D01*
X64390248Y-34638306D01*
X64399500Y-34685304D01*
X64399500Y-36868655D01*
X64379815Y-36935694D01*
X64334519Y-36977709D01*
X64231376Y-37033528D01*
X64231365Y-37033535D01*
X64048222Y-37176081D01*
X64048219Y-37176084D01*
X63891016Y-37346852D01*
X63764075Y-37541151D01*
X63670842Y-37753699D01*
X63613866Y-37978691D01*
X63613864Y-37978702D01*
X63594700Y-38209993D01*
X63594700Y-38210006D01*
X63613864Y-38441297D01*
X63613866Y-38441308D01*
X63670842Y-38666300D01*
X63764075Y-38878848D01*
X63891016Y-39073147D01*
X63891019Y-39073151D01*
X63891021Y-39073153D01*
X63985803Y-39176114D01*
X64016724Y-39238767D01*
X64008864Y-39308193D01*
X63964716Y-39362348D01*
X63937906Y-39376277D01*
X63857669Y-39406203D01*
X63857664Y-39406206D01*
X63742455Y-39492452D01*
X63742452Y-39492455D01*
X63656206Y-39607664D01*
X63656202Y-39607671D01*
X63605908Y-39742517D01*
X63599501Y-39802116D01*
X63599501Y-39802123D01*
X63599500Y-39802135D01*
X63599500Y-41697870D01*
X63599501Y-41697876D01*
X63605908Y-41757483D01*
X63656202Y-41892328D01*
X63656206Y-41892335D01*
X63742452Y-42007544D01*
X63742455Y-42007547D01*
X63857664Y-42093793D01*
X63857671Y-42093797D01*
X63902618Y-42110561D01*
X63992517Y-42144091D01*
X64052127Y-42150500D01*
X64223100Y-42150499D01*
X64290139Y-42170183D01*
X64335894Y-42222987D01*
X64347100Y-42274499D01*
X64347100Y-43851386D01*
X64327415Y-43918425D01*
X64294223Y-43952961D01*
X64185378Y-44029174D01*
X64029175Y-44185377D01*
X63902466Y-44366338D01*
X63902465Y-44366340D01*
X63809107Y-44566548D01*
X63809104Y-44566554D01*
X63751930Y-44779929D01*
X63751929Y-44779937D01*
X63732677Y-44999997D01*
X63732677Y-45000002D01*
X63751929Y-45220062D01*
X63751930Y-45220070D01*
X63809104Y-45433445D01*
X63809105Y-45433447D01*
X63809106Y-45433450D01*
X63902466Y-45633662D01*
X63902468Y-45633666D01*
X64029170Y-45814615D01*
X64029175Y-45814621D01*
X64185378Y-45970824D01*
X64185384Y-45970829D01*
X64366333Y-46097531D01*
X64366335Y-46097532D01*
X64366338Y-46097534D01*
X64566550Y-46190894D01*
X64779932Y-46248070D01*
X64937123Y-46261822D01*
X64999998Y-46267323D01*
X65000000Y-46267323D01*
X65000002Y-46267323D01*
X65055017Y-46262509D01*
X65220068Y-46248070D01*
X65433450Y-46190894D01*
X65633662Y-46097534D01*
X65814620Y-45970826D01*
X65970826Y-45814620D01*
X66097534Y-45633662D01*
X66190894Y-45433450D01*
X66248070Y-45220068D01*
X66267323Y-45000000D01*
X66248070Y-44779932D01*
X66190894Y-44566550D01*
X66097534Y-44366339D01*
X65970826Y-44185380D01*
X65814620Y-44029174D01*
X65756734Y-43988641D01*
X65705775Y-43952959D01*
X65662151Y-43898382D01*
X65652900Y-43851385D01*
X65652900Y-42274499D01*
X65672585Y-42207460D01*
X65725389Y-42161705D01*
X65776900Y-42150499D01*
X65947871Y-42150499D01*
X65947872Y-42150499D01*
X66007483Y-42144091D01*
X66142331Y-42093796D01*
X66257546Y-42007546D01*
X66343796Y-41892331D01*
X66394091Y-41757483D01*
X66400500Y-41697873D01*
X66400499Y-39802128D01*
X66394091Y-39742517D01*
X66343796Y-39607669D01*
X66343795Y-39607668D01*
X66343793Y-39607664D01*
X66257547Y-39492455D01*
X66257544Y-39492452D01*
X66142335Y-39406206D01*
X66142328Y-39406202D01*
X66062094Y-39376277D01*
X66006160Y-39334406D01*
X65981743Y-39268941D01*
X65996595Y-39200668D01*
X66014190Y-39176121D01*
X66108979Y-39073153D01*
X66235924Y-38878849D01*
X66329157Y-38666300D01*
X66386134Y-38441305D01*
X66405300Y-38210000D01*
X66405300Y-38209993D01*
X66386135Y-37978702D01*
X66386133Y-37978691D01*
X66329157Y-37753699D01*
X66235924Y-37541151D01*
X66108983Y-37346852D01*
X66108980Y-37346849D01*
X66108979Y-37346847D01*
X65951784Y-37176087D01*
X65951779Y-37176083D01*
X65951777Y-37176081D01*
X65768634Y-37033535D01*
X65768623Y-37033528D01*
X65665481Y-36977709D01*
X65615891Y-36928489D01*
X65600500Y-36868655D01*
X65600500Y-34685304D01*
X65620185Y-34618265D01*
X65653375Y-34583730D01*
X65814620Y-34470826D01*
X65970826Y-34314620D01*
X66097534Y-34133662D01*
X66190894Y-33933450D01*
X66248070Y-33720068D01*
X66267323Y-33500000D01*
X66248070Y-33279932D01*
X66190894Y-33066550D01*
X66097534Y-32866339D01*
X65970826Y-32685380D01*
X65814620Y-32529174D01*
X65814616Y-32529171D01*
X65814615Y-32529170D01*
X65633666Y-32402468D01*
X65633662Y-32402466D01*
X65544184Y-32360742D01*
X65433450Y-32309106D01*
X65433446Y-32309105D01*
X65433442Y-32309103D01*
X65350622Y-32286912D01*
X65290961Y-32250547D01*
X65260432Y-32187700D01*
X65268727Y-32118324D01*
X65313212Y-32064447D01*
X65377371Y-32043937D01*
X67896485Y-32043937D01*
X69614299Y-32043937D01*
X69681338Y-32063622D01*
X69727093Y-32116426D01*
X69737037Y-32185584D01*
X69708012Y-32249140D01*
X69649234Y-32286914D01*
X69646393Y-32287712D01*
X69566554Y-32309104D01*
X69566548Y-32309107D01*
X69366340Y-32402465D01*
X69366338Y-32402466D01*
X69185377Y-32529175D01*
X69029175Y-32685377D01*
X68902466Y-32866338D01*
X68902465Y-32866340D01*
X68809107Y-33066548D01*
X68809104Y-33066554D01*
X68751930Y-33279929D01*
X68751929Y-33279937D01*
X68732677Y-33499997D01*
X68732677Y-33500002D01*
X68751929Y-33720062D01*
X68751930Y-33720070D01*
X68809104Y-33933445D01*
X68809105Y-33933447D01*
X68809106Y-33933450D01*
X68902466Y-34133662D01*
X68902468Y-34133666D01*
X69029170Y-34314615D01*
X69029174Y-34314620D01*
X69185380Y-34470826D01*
X69346623Y-34583729D01*
X69390248Y-34638306D01*
X69399500Y-34685304D01*
X69399500Y-36868655D01*
X69379815Y-36935694D01*
X69334519Y-36977709D01*
X69231376Y-37033528D01*
X69231365Y-37033535D01*
X69048222Y-37176081D01*
X69048219Y-37176084D01*
X68891016Y-37346852D01*
X68764075Y-37541151D01*
X68670842Y-37753699D01*
X68613866Y-37978691D01*
X68613864Y-37978702D01*
X68594700Y-38209993D01*
X68594700Y-38210006D01*
X68613864Y-38441297D01*
X68613866Y-38441308D01*
X68670842Y-38666300D01*
X68764075Y-38878848D01*
X68891016Y-39073147D01*
X68891019Y-39073151D01*
X68891021Y-39073153D01*
X68985803Y-39176114D01*
X69016724Y-39238767D01*
X69008864Y-39308193D01*
X68964716Y-39362348D01*
X68937906Y-39376277D01*
X68857669Y-39406203D01*
X68857664Y-39406206D01*
X68742455Y-39492452D01*
X68742452Y-39492455D01*
X68656206Y-39607664D01*
X68656202Y-39607671D01*
X68605908Y-39742517D01*
X68599501Y-39802116D01*
X68599501Y-39802123D01*
X68599500Y-39802135D01*
X68599500Y-41697870D01*
X68599501Y-41697876D01*
X68605908Y-41757483D01*
X68656202Y-41892328D01*
X68656206Y-41892335D01*
X68742452Y-42007544D01*
X68742455Y-42007547D01*
X68857664Y-42093793D01*
X68857671Y-42093797D01*
X68902618Y-42110561D01*
X68992517Y-42144091D01*
X69052127Y-42150500D01*
X69223100Y-42150499D01*
X69290139Y-42170183D01*
X69335894Y-42222987D01*
X69347100Y-42274499D01*
X69347100Y-43851386D01*
X69327415Y-43918425D01*
X69294223Y-43952961D01*
X69185378Y-44029174D01*
X69029175Y-44185377D01*
X68902466Y-44366338D01*
X68902465Y-44366340D01*
X68809107Y-44566548D01*
X68809104Y-44566554D01*
X68751930Y-44779929D01*
X68751929Y-44779937D01*
X68732677Y-44999997D01*
X68732677Y-45000002D01*
X68751929Y-45220062D01*
X68751930Y-45220070D01*
X68809104Y-45433445D01*
X68809105Y-45433447D01*
X68809106Y-45433450D01*
X68902466Y-45633662D01*
X68902468Y-45633666D01*
X69029170Y-45814615D01*
X69029175Y-45814621D01*
X69185378Y-45970824D01*
X69185384Y-45970829D01*
X69366333Y-46097531D01*
X69366335Y-46097532D01*
X69366338Y-46097534D01*
X69566550Y-46190894D01*
X69779932Y-46248070D01*
X69937123Y-46261822D01*
X69999998Y-46267323D01*
X70000000Y-46267323D01*
X70000002Y-46267323D01*
X70055017Y-46262509D01*
X70220068Y-46248070D01*
X70433450Y-46190894D01*
X70633662Y-46097534D01*
X70814620Y-45970826D01*
X70970826Y-45814620D01*
X71097534Y-45633662D01*
X71190894Y-45433450D01*
X71248070Y-45220068D01*
X71267323Y-45000000D01*
X71248070Y-44779932D01*
X71190894Y-44566550D01*
X71097534Y-44366339D01*
X70970826Y-44185380D01*
X70814620Y-44029174D01*
X70756734Y-43988641D01*
X70705775Y-43952959D01*
X70662151Y-43898382D01*
X70652900Y-43851385D01*
X70652900Y-42274499D01*
X70672585Y-42207460D01*
X70725389Y-42161705D01*
X70776900Y-42150499D01*
X70947871Y-42150499D01*
X70947872Y-42150499D01*
X71007483Y-42144091D01*
X71142331Y-42093796D01*
X71257546Y-42007546D01*
X71343796Y-41892331D01*
X71394091Y-41757483D01*
X71400500Y-41697873D01*
X71400499Y-39802128D01*
X71394091Y-39742517D01*
X71343796Y-39607669D01*
X71343795Y-39607668D01*
X71343793Y-39607664D01*
X71257547Y-39492455D01*
X71257544Y-39492452D01*
X71142335Y-39406206D01*
X71142328Y-39406202D01*
X71062094Y-39376277D01*
X71006160Y-39334406D01*
X70981743Y-39268941D01*
X70996595Y-39200668D01*
X71014190Y-39176121D01*
X71108979Y-39073153D01*
X71235924Y-38878849D01*
X71329157Y-38666300D01*
X71386134Y-38441305D01*
X71405300Y-38210000D01*
X71405300Y-38209993D01*
X71386135Y-37978702D01*
X71386133Y-37978691D01*
X71329157Y-37753699D01*
X71235924Y-37541151D01*
X71108983Y-37346852D01*
X71108980Y-37346849D01*
X71108979Y-37346847D01*
X70951784Y-37176087D01*
X70951779Y-37176083D01*
X70951777Y-37176081D01*
X70768634Y-37033535D01*
X70768623Y-37033528D01*
X70665481Y-36977709D01*
X70615891Y-36928489D01*
X70600500Y-36868655D01*
X70600500Y-34685304D01*
X70620185Y-34618265D01*
X70653375Y-34583730D01*
X70814620Y-34470826D01*
X70970826Y-34314620D01*
X71097534Y-34133662D01*
X71190894Y-33933450D01*
X71248070Y-33720068D01*
X71267323Y-33500000D01*
X71248070Y-33279932D01*
X71190894Y-33066550D01*
X71097534Y-32866339D01*
X70970826Y-32685380D01*
X70814620Y-32529174D01*
X70814616Y-32529171D01*
X70814615Y-32529170D01*
X70633666Y-32402468D01*
X70633662Y-32402466D01*
X70544184Y-32360742D01*
X70433450Y-32309106D01*
X70433447Y-32309105D01*
X70433445Y-32309104D01*
X70353607Y-32287712D01*
X70293947Y-32251347D01*
X70263418Y-32188500D01*
X70271713Y-32119124D01*
X70316198Y-32065246D01*
X70382750Y-32043972D01*
X70385701Y-32043937D01*
X72728868Y-32043937D01*
X72748652Y-32033134D01*
X72818344Y-32038118D01*
X72874277Y-32079990D01*
X72898694Y-32145454D01*
X72899010Y-32154300D01*
X72899010Y-32458053D01*
X73957138Y-32458053D01*
X74024177Y-32477738D01*
X74069932Y-32530542D01*
X74079876Y-32599700D01*
X74050851Y-32663256D01*
X74044819Y-32669734D01*
X74029175Y-32685377D01*
X73902466Y-32866338D01*
X73902465Y-32866340D01*
X73809107Y-33066548D01*
X73809104Y-33066554D01*
X73751930Y-33279929D01*
X73751929Y-33279937D01*
X73732677Y-33499997D01*
X73732677Y-33500002D01*
X73751929Y-33720062D01*
X73751930Y-33720070D01*
X73809104Y-33933445D01*
X73809105Y-33933447D01*
X73809106Y-33933450D01*
X73902466Y-34133662D01*
X73902468Y-34133666D01*
X74029170Y-34314615D01*
X74029174Y-34314620D01*
X74185380Y-34470826D01*
X74346623Y-34583729D01*
X74390248Y-34638306D01*
X74399500Y-34685304D01*
X74399500Y-36868655D01*
X74379815Y-36935694D01*
X74334519Y-36977709D01*
X74231376Y-37033528D01*
X74231365Y-37033535D01*
X74048222Y-37176081D01*
X74048219Y-37176084D01*
X73891016Y-37346852D01*
X73764075Y-37541151D01*
X73670842Y-37753699D01*
X73613866Y-37978691D01*
X73613864Y-37978702D01*
X73594700Y-38209993D01*
X73594700Y-38210006D01*
X73613864Y-38441297D01*
X73613866Y-38441308D01*
X73670842Y-38666300D01*
X73764075Y-38878848D01*
X73891016Y-39073147D01*
X73891019Y-39073151D01*
X73891021Y-39073153D01*
X73985803Y-39176114D01*
X74016724Y-39238767D01*
X74008864Y-39308193D01*
X73964716Y-39362348D01*
X73937906Y-39376277D01*
X73857669Y-39406203D01*
X73857664Y-39406206D01*
X73742455Y-39492452D01*
X73742452Y-39492455D01*
X73656206Y-39607664D01*
X73656202Y-39607671D01*
X73605908Y-39742517D01*
X73599501Y-39802116D01*
X73599501Y-39802123D01*
X73599500Y-39802135D01*
X73599500Y-41697870D01*
X73599501Y-41697876D01*
X73605908Y-41757483D01*
X73656202Y-41892328D01*
X73656206Y-41892335D01*
X73742452Y-42007544D01*
X73742455Y-42007547D01*
X73857664Y-42093793D01*
X73857671Y-42093797D01*
X73902618Y-42110561D01*
X73992517Y-42144091D01*
X74052127Y-42150500D01*
X74223100Y-42150499D01*
X74290139Y-42170183D01*
X74335894Y-42222987D01*
X74347100Y-42274499D01*
X74347100Y-43851386D01*
X74327415Y-43918425D01*
X74294223Y-43952961D01*
X74185378Y-44029174D01*
X74029175Y-44185377D01*
X73902466Y-44366338D01*
X73902465Y-44366340D01*
X73809107Y-44566548D01*
X73809104Y-44566554D01*
X73751930Y-44779929D01*
X73751929Y-44779937D01*
X73732677Y-44999997D01*
X73732677Y-45000002D01*
X73751929Y-45220062D01*
X73751930Y-45220070D01*
X73809104Y-45433445D01*
X73809105Y-45433447D01*
X73809106Y-45433450D01*
X73902466Y-45633662D01*
X73902468Y-45633666D01*
X74029170Y-45814615D01*
X74029175Y-45814621D01*
X74185378Y-45970824D01*
X74185384Y-45970829D01*
X74366333Y-46097531D01*
X74366335Y-46097532D01*
X74366338Y-46097534D01*
X74566550Y-46190894D01*
X74779932Y-46248070D01*
X74937123Y-46261822D01*
X74999998Y-46267323D01*
X75000000Y-46267323D01*
X75000002Y-46267323D01*
X75055017Y-46262509D01*
X75220068Y-46248070D01*
X75433450Y-46190894D01*
X75633662Y-46097534D01*
X75814620Y-45970826D01*
X75970826Y-45814620D01*
X76097534Y-45633662D01*
X76190894Y-45433450D01*
X76248070Y-45220068D01*
X76267323Y-45000000D01*
X76248070Y-44779932D01*
X76190894Y-44566550D01*
X76097534Y-44366339D01*
X75970826Y-44185380D01*
X75814620Y-44029174D01*
X75756734Y-43988641D01*
X75705775Y-43952959D01*
X75662151Y-43898382D01*
X75652900Y-43851385D01*
X75652900Y-42274499D01*
X75672585Y-42207460D01*
X75725389Y-42161705D01*
X75776900Y-42150499D01*
X75947871Y-42150499D01*
X75947872Y-42150499D01*
X76007483Y-42144091D01*
X76142331Y-42093796D01*
X76257546Y-42007546D01*
X76343796Y-41892331D01*
X76394091Y-41757483D01*
X76400500Y-41697873D01*
X76400499Y-39802128D01*
X76394091Y-39742517D01*
X76343796Y-39607669D01*
X76343795Y-39607668D01*
X76343793Y-39607664D01*
X76257547Y-39492455D01*
X76257544Y-39492452D01*
X76142335Y-39406206D01*
X76142328Y-39406202D01*
X76062094Y-39376277D01*
X76006160Y-39334406D01*
X75981743Y-39268941D01*
X75996595Y-39200668D01*
X76014190Y-39176121D01*
X76108979Y-39073153D01*
X76235924Y-38878849D01*
X76329157Y-38666300D01*
X76386134Y-38441305D01*
X76405300Y-38210006D01*
X78594700Y-38210006D01*
X78613864Y-38441297D01*
X78613866Y-38441308D01*
X78670842Y-38666300D01*
X78764075Y-38878848D01*
X78891016Y-39073147D01*
X78891019Y-39073151D01*
X78891021Y-39073153D01*
X78985803Y-39176114D01*
X79016724Y-39238767D01*
X79008864Y-39308193D01*
X78964716Y-39362348D01*
X78937906Y-39376277D01*
X78857669Y-39406203D01*
X78857664Y-39406206D01*
X78742455Y-39492452D01*
X78742452Y-39492455D01*
X78656206Y-39607664D01*
X78656202Y-39607671D01*
X78605908Y-39742517D01*
X78599501Y-39802116D01*
X78599501Y-39802123D01*
X78599500Y-39802135D01*
X78599500Y-41697870D01*
X78599501Y-41697876D01*
X78605908Y-41757483D01*
X78656202Y-41892328D01*
X78656206Y-41892335D01*
X78742452Y-42007544D01*
X78742455Y-42007547D01*
X78857664Y-42093793D01*
X78857671Y-42093797D01*
X78902618Y-42110561D01*
X78992517Y-42144091D01*
X79052127Y-42150500D01*
X79223100Y-42150499D01*
X79290139Y-42170183D01*
X79335894Y-42222987D01*
X79347100Y-42274499D01*
X79347100Y-43851386D01*
X79327415Y-43918425D01*
X79294223Y-43952961D01*
X79185378Y-44029174D01*
X79029175Y-44185377D01*
X78902466Y-44366338D01*
X78902465Y-44366340D01*
X78809107Y-44566548D01*
X78809104Y-44566554D01*
X78751930Y-44779929D01*
X78751929Y-44779937D01*
X78732677Y-44999997D01*
X78732677Y-45000002D01*
X78751929Y-45220062D01*
X78751930Y-45220070D01*
X78809104Y-45433445D01*
X78809105Y-45433447D01*
X78809106Y-45433450D01*
X78902466Y-45633662D01*
X78902468Y-45633666D01*
X79029170Y-45814615D01*
X79029175Y-45814621D01*
X79185378Y-45970824D01*
X79185384Y-45970829D01*
X79366333Y-46097531D01*
X79366335Y-46097532D01*
X79366338Y-46097534D01*
X79566550Y-46190894D01*
X79779932Y-46248070D01*
X79937123Y-46261822D01*
X79999998Y-46267323D01*
X80000000Y-46267323D01*
X80000002Y-46267323D01*
X80055017Y-46262509D01*
X80220068Y-46248070D01*
X80433450Y-46190894D01*
X80633662Y-46097534D01*
X80814620Y-45970826D01*
X80970826Y-45814620D01*
X81097534Y-45633662D01*
X81190894Y-45433450D01*
X81248070Y-45220068D01*
X81267323Y-45000000D01*
X81248070Y-44779932D01*
X81190894Y-44566550D01*
X81097534Y-44366339D01*
X80970826Y-44185380D01*
X80814620Y-44029174D01*
X80756734Y-43988641D01*
X80705775Y-43952959D01*
X80662151Y-43898382D01*
X80652900Y-43851385D01*
X80652900Y-42274499D01*
X80672585Y-42207460D01*
X80725389Y-42161705D01*
X80776900Y-42150499D01*
X80947871Y-42150499D01*
X80947872Y-42150499D01*
X81007483Y-42144091D01*
X81142331Y-42093796D01*
X81257546Y-42007546D01*
X81343796Y-41892331D01*
X81394091Y-41757483D01*
X81400500Y-41697873D01*
X81400499Y-39802128D01*
X81394091Y-39742517D01*
X81343796Y-39607669D01*
X81343795Y-39607668D01*
X81343793Y-39607664D01*
X81257547Y-39492455D01*
X81257544Y-39492452D01*
X81142335Y-39406206D01*
X81142328Y-39406202D01*
X81062094Y-39376277D01*
X81006160Y-39334406D01*
X80981743Y-39268941D01*
X80996595Y-39200668D01*
X81014190Y-39176121D01*
X81108979Y-39073153D01*
X81235924Y-38878849D01*
X81329157Y-38666300D01*
X81386134Y-38441305D01*
X81405300Y-38210000D01*
X81405300Y-38209993D01*
X81386135Y-37978702D01*
X81386133Y-37978691D01*
X81329157Y-37753699D01*
X81235924Y-37541151D01*
X81108983Y-37346852D01*
X81108980Y-37346849D01*
X81108979Y-37346847D01*
X80951784Y-37176087D01*
X80951779Y-37176083D01*
X80951777Y-37176081D01*
X80768634Y-37033535D01*
X80768623Y-37033528D01*
X80665481Y-36977709D01*
X80615891Y-36928489D01*
X80600500Y-36868655D01*
X80600500Y-34685304D01*
X80620185Y-34618265D01*
X80653375Y-34583730D01*
X80814620Y-34470826D01*
X80970826Y-34314620D01*
X81097534Y-34133662D01*
X81190894Y-33933450D01*
X81248070Y-33720068D01*
X81267323Y-33500000D01*
X81248070Y-33279932D01*
X81190894Y-33066550D01*
X81097534Y-32866339D01*
X80970826Y-32685380D01*
X80814620Y-32529174D01*
X80814616Y-32529171D01*
X80814615Y-32529170D01*
X80633666Y-32402468D01*
X80633662Y-32402466D01*
X80544184Y-32360742D01*
X80433450Y-32309106D01*
X80433447Y-32309105D01*
X80433445Y-32309104D01*
X80220070Y-32251930D01*
X80220062Y-32251929D01*
X80000002Y-32232677D01*
X79999998Y-32232677D01*
X79779937Y-32251929D01*
X79779929Y-32251930D01*
X79566554Y-32309104D01*
X79566548Y-32309107D01*
X79366340Y-32402465D01*
X79366338Y-32402466D01*
X79185377Y-32529175D01*
X79029175Y-32685377D01*
X78902466Y-32866338D01*
X78902465Y-32866340D01*
X78809107Y-33066548D01*
X78809104Y-33066554D01*
X78751930Y-33279929D01*
X78751929Y-33279937D01*
X78732677Y-33499997D01*
X78732677Y-33500002D01*
X78751929Y-33720062D01*
X78751930Y-33720070D01*
X78809104Y-33933445D01*
X78809105Y-33933447D01*
X78809106Y-33933450D01*
X78902466Y-34133662D01*
X78902468Y-34133666D01*
X79029170Y-34314615D01*
X79029174Y-34314620D01*
X79185380Y-34470826D01*
X79346623Y-34583729D01*
X79390248Y-34638306D01*
X79399500Y-34685304D01*
X79399500Y-36868655D01*
X79379815Y-36935694D01*
X79334519Y-36977709D01*
X79231376Y-37033528D01*
X79231365Y-37033535D01*
X79048222Y-37176081D01*
X79048219Y-37176084D01*
X78891016Y-37346852D01*
X78764075Y-37541151D01*
X78670842Y-37753699D01*
X78613866Y-37978691D01*
X78613864Y-37978702D01*
X78594700Y-38209993D01*
X78594700Y-38210006D01*
X76405300Y-38210006D01*
X76405300Y-38210000D01*
X76405300Y-38209993D01*
X76386135Y-37978702D01*
X76386133Y-37978691D01*
X76329157Y-37753699D01*
X76235924Y-37541151D01*
X76108983Y-37346852D01*
X76108980Y-37346849D01*
X76108979Y-37346847D01*
X75951784Y-37176087D01*
X75951779Y-37176083D01*
X75951777Y-37176081D01*
X75768634Y-37033535D01*
X75768623Y-37033528D01*
X75665481Y-36977709D01*
X75615891Y-36928489D01*
X75600500Y-36868655D01*
X75600500Y-34685304D01*
X75620185Y-34618265D01*
X75653375Y-34583730D01*
X75814620Y-34470826D01*
X75970826Y-34314620D01*
X76097534Y-34133662D01*
X76190894Y-33933450D01*
X76248070Y-33720068D01*
X76267323Y-33500000D01*
X76248070Y-33279932D01*
X76190894Y-33066550D01*
X76097534Y-32866339D01*
X75970826Y-32685380D01*
X75970824Y-32685377D01*
X75955181Y-32669734D01*
X75921696Y-32608411D01*
X75926680Y-32538719D01*
X75968552Y-32482786D01*
X76034016Y-32458369D01*
X76042862Y-32458053D01*
X77355712Y-32458053D01*
X77355712Y-29145328D01*
X72899010Y-29145328D01*
X72887451Y-29156886D01*
X72879325Y-29184563D01*
X72826521Y-29230318D01*
X72757363Y-29240262D01*
X72730265Y-29227887D01*
X72710011Y-29227887D01*
X67896485Y-29227887D01*
X67896485Y-32043937D01*
X65377371Y-32043937D01*
X65379764Y-32043172D01*
X65382715Y-32043137D01*
X67424296Y-32043137D01*
X67424296Y-29228687D01*
X62825857Y-29228687D01*
X62804133Y-29228687D01*
X62790665Y-29236041D01*
X62720973Y-29231057D01*
X62665040Y-29189185D01*
X62652637Y-29155933D01*
X62640871Y-29144167D01*
X77897849Y-29144167D01*
X77897849Y-31958053D01*
X82426022Y-31958053D01*
X82426022Y-29144167D01*
X77897849Y-29144167D01*
X62640871Y-29144167D01*
X62640307Y-29143603D01*
X57825857Y-29143603D01*
X51997450Y-29143603D01*
X47183000Y-29143603D01*
X37558101Y-29143603D01*
X37632368Y-29075550D01*
X37640637Y-29068612D01*
X37949018Y-28831983D01*
X37957858Y-28825793D01*
X38285700Y-28616935D01*
X38295045Y-28611540D01*
X38639829Y-28432056D01*
X38649603Y-28427498D01*
X39008736Y-28278741D01*
X39018857Y-28275057D01*
X39389589Y-28158166D01*
X39400004Y-28155375D01*
X39779510Y-28071240D01*
X39790137Y-28069367D01*
X40175524Y-28018629D01*
X40186255Y-28017690D01*
X40564776Y-28001164D01*
X40577298Y-28000618D01*
X40582706Y-28000500D01*
X40645892Y-28000500D01*
X91854108Y-28000500D01*
X91917294Y-28000500D01*
X91922702Y-28000618D01*
G37*
%TD.AperFunction*%
%TD*%
M02*
