%TF.GenerationSoftware,KiCad,Pcbnew,8.0.1-rc1*%
%TF.CreationDate,2024-04-16T23:15:51-05:00*%
%TF.ProjectId,Emotion LED,456d6f74-696f-46e2-904c-45442e6b6963,rev?*%
%TF.SameCoordinates,Original*%
%TF.FileFunction,Legend,Top*%
%TF.FilePolarity,Positive*%
%FSLAX46Y46*%
G04 Gerber Fmt 4.6, Leading zero omitted, Abs format (unit mm)*
G04 Created by KiCad (PCBNEW 8.0.1-rc1) date 2024-04-16 23:15:51*
%MOMM*%
%LPD*%
G01*
G04 APERTURE LIST*
%ADD10C,0.120000*%
G04 APERTURE END LIST*
D10*
%TO.C,REF\u002A\u002A*%
X68764000Y-41040000D02*
X68920000Y-41040000D01*
X71080000Y-41040000D02*
X71236000Y-41040000D01*
X68764485Y-41039999D02*
G75*
G02*
X68921392Y-37807666I1235515J1559999D01*
G01*
X68920001Y-40520960D02*
G75*
G02*
X68920164Y-38438871I1079999J1040960D01*
G01*
X71078608Y-37807666D02*
G75*
G02*
X71235515Y-41039999I-1078608J-1672334D01*
G01*
X71079836Y-38438871D02*
G75*
G02*
X71079999Y-40520960I-1079836J-1041129D01*
G01*
X73764000Y-41040000D02*
X73920000Y-41040000D01*
X76080000Y-41040000D02*
X76236000Y-41040000D01*
X73764485Y-41039999D02*
G75*
G02*
X73921392Y-37807666I1235515J1559999D01*
G01*
X73920001Y-40520960D02*
G75*
G02*
X73920164Y-38438871I1079999J1040960D01*
G01*
X76078608Y-37807666D02*
G75*
G02*
X76235515Y-41039999I-1078608J-1672334D01*
G01*
X76079836Y-38438871D02*
G75*
G02*
X76079999Y-40520960I-1079836J-1041129D01*
G01*
X48764000Y-41040000D02*
X48920000Y-41040000D01*
X51080000Y-41040000D02*
X51236000Y-41040000D01*
X48764485Y-41039999D02*
G75*
G02*
X48921392Y-37807666I1235515J1559999D01*
G01*
X48920001Y-40520960D02*
G75*
G02*
X48920164Y-38438871I1079999J1040960D01*
G01*
X51078608Y-37807666D02*
G75*
G02*
X51235515Y-41039999I-1078608J-1672334D01*
G01*
X51079836Y-38438871D02*
G75*
G02*
X51079999Y-40520960I-1079836J-1041129D01*
G01*
X58764000Y-41040000D02*
X58920000Y-41040000D01*
X61080000Y-41040000D02*
X61236000Y-41040000D01*
X58764485Y-41039999D02*
G75*
G02*
X58921392Y-37807666I1235515J1559999D01*
G01*
X58920001Y-40520960D02*
G75*
G02*
X58920164Y-38438871I1079999J1040960D01*
G01*
X61078608Y-37807666D02*
G75*
G02*
X61235515Y-41039999I-1078608J-1672334D01*
G01*
X61079836Y-38438871D02*
G75*
G02*
X61079999Y-40520960I-1079836J-1041129D01*
G01*
X78764000Y-41040000D02*
X78920000Y-41040000D01*
X81080000Y-41040000D02*
X81236000Y-41040000D01*
X78764485Y-41039999D02*
G75*
G02*
X78921392Y-37807666I1235515J1559999D01*
G01*
X78920001Y-40520960D02*
G75*
G02*
X78920164Y-38438871I1079999J1040960D01*
G01*
X81078608Y-37807666D02*
G75*
G02*
X81235515Y-41039999I-1078608J-1672334D01*
G01*
X81079836Y-38438871D02*
G75*
G02*
X81079999Y-40520960I-1079836J-1041129D01*
G01*
X63764000Y-41040000D02*
X63920000Y-41040000D01*
X66080000Y-41040000D02*
X66236000Y-41040000D01*
X63764485Y-41039999D02*
G75*
G02*
X63921392Y-37807666I1235515J1559999D01*
G01*
X63920001Y-40520960D02*
G75*
G02*
X63920164Y-38438871I1079999J1040960D01*
G01*
X66078608Y-37807666D02*
G75*
G02*
X66235515Y-41039999I-1078608J-1672334D01*
G01*
X66079836Y-38438871D02*
G75*
G02*
X66079999Y-40520960I-1079836J-1041129D01*
G01*
X53764000Y-41040000D02*
X53920000Y-41040000D01*
X56080000Y-41040000D02*
X56236000Y-41040000D01*
X53764485Y-41039999D02*
G75*
G02*
X53921392Y-37807666I1235515J1559999D01*
G01*
X53920001Y-40520960D02*
G75*
G02*
X53920164Y-38438871I1079999J1040960D01*
G01*
X56078608Y-37807666D02*
G75*
G02*
X56235515Y-41039999I-1078608J-1672334D01*
G01*
X56079836Y-38438871D02*
G75*
G02*
X56079999Y-40520960I-1079836J-1041129D01*
G01*
%TD*%
M02*
