%TF.GenerationSoftware,KiCad,Pcbnew,8.0.1-rc1*%
%TF.CreationDate,2024-04-18T22:38:42-05:00*%
%TF.ProjectId,Emotion LED,456d6f74-696f-46e2-904c-45442e6b6963,rev?*%
%TF.SameCoordinates,Original*%
%TF.FileFunction,Drillmap*%
%TF.FilePolarity,Positive*%
%FSLAX45Y45*%
G04 Gerber Fmt 4.5, Leading zero omitted, Abs format (unit mm)*
G04 Created by KiCad (PCBNEW 8.0.1-rc1) date 2024-04-18 22:38:42*
%MOMM*%
%LPD*%
G01*
G04 APERTURE LIST*
%ADD10C,0.050000*%
%ADD11C,0.200000*%
G04 APERTURE END LIST*
D10*
X10542000Y-5800000D02*
X4058000Y-5800000D01*
X11050000Y-3058000D02*
X11050000Y-5292000D01*
X4058000Y-2550000D02*
X10542000Y-2550000D01*
X3550000Y-5292000D02*
X3550000Y-3058000D01*
X11050000Y-5292000D02*
G75*
G02*
X10542000Y-5800000I-508000J0D01*
G01*
X10542000Y-2550000D02*
G75*
G02*
X11050000Y-3058000I0J-508000D01*
G01*
X4058000Y-5800000D02*
G75*
G02*
X3550000Y-5292000I0J508000D01*
G01*
X3550000Y-3058000D02*
G75*
G02*
X4058000Y-2550000I508000J0D01*
G01*
D11*
X3808277Y-6113984D02*
X3808277Y-5913984D01*
X3808277Y-5913984D02*
X3855896Y-5913984D01*
X3855896Y-5913984D02*
X3884467Y-5923508D01*
X3884467Y-5923508D02*
X3903515Y-5942555D01*
X3903515Y-5942555D02*
X3913039Y-5961603D01*
X3913039Y-5961603D02*
X3922562Y-5999698D01*
X3922562Y-5999698D02*
X3922562Y-6028269D01*
X3922562Y-6028269D02*
X3913039Y-6066365D01*
X3913039Y-6066365D02*
X3903515Y-6085412D01*
X3903515Y-6085412D02*
X3884467Y-6104460D01*
X3884467Y-6104460D02*
X3855896Y-6113984D01*
X3855896Y-6113984D02*
X3808277Y-6113984D01*
X4008277Y-6113984D02*
X4008277Y-5980650D01*
X4008277Y-6018746D02*
X4017801Y-5999698D01*
X4017801Y-5999698D02*
X4027324Y-5990174D01*
X4027324Y-5990174D02*
X4046372Y-5980650D01*
X4046372Y-5980650D02*
X4065420Y-5980650D01*
X4132086Y-6113984D02*
X4132086Y-5980650D01*
X4132086Y-5913984D02*
X4122562Y-5923508D01*
X4122562Y-5923508D02*
X4132086Y-5933031D01*
X4132086Y-5933031D02*
X4141610Y-5923508D01*
X4141610Y-5923508D02*
X4132086Y-5913984D01*
X4132086Y-5913984D02*
X4132086Y-5933031D01*
X4255896Y-6113984D02*
X4236848Y-6104460D01*
X4236848Y-6104460D02*
X4227324Y-6085412D01*
X4227324Y-6085412D02*
X4227324Y-5913984D01*
X4360658Y-6113984D02*
X4341610Y-6104460D01*
X4341610Y-6104460D02*
X4332086Y-6085412D01*
X4332086Y-6085412D02*
X4332086Y-5913984D01*
X4589229Y-6113984D02*
X4589229Y-5913984D01*
X4589229Y-5913984D02*
X4655896Y-6056841D01*
X4655896Y-6056841D02*
X4722563Y-5913984D01*
X4722563Y-5913984D02*
X4722563Y-6113984D01*
X4903515Y-6113984D02*
X4903515Y-6009222D01*
X4903515Y-6009222D02*
X4893991Y-5990174D01*
X4893991Y-5990174D02*
X4874944Y-5980650D01*
X4874944Y-5980650D02*
X4836848Y-5980650D01*
X4836848Y-5980650D02*
X4817801Y-5990174D01*
X4903515Y-6104460D02*
X4884467Y-6113984D01*
X4884467Y-6113984D02*
X4836848Y-6113984D01*
X4836848Y-6113984D02*
X4817801Y-6104460D01*
X4817801Y-6104460D02*
X4808277Y-6085412D01*
X4808277Y-6085412D02*
X4808277Y-6066365D01*
X4808277Y-6066365D02*
X4817801Y-6047317D01*
X4817801Y-6047317D02*
X4836848Y-6037793D01*
X4836848Y-6037793D02*
X4884467Y-6037793D01*
X4884467Y-6037793D02*
X4903515Y-6028269D01*
X4998753Y-5980650D02*
X4998753Y-6180650D01*
X4998753Y-5990174D02*
X5017801Y-5980650D01*
X5017801Y-5980650D02*
X5055896Y-5980650D01*
X5055896Y-5980650D02*
X5074944Y-5990174D01*
X5074944Y-5990174D02*
X5084467Y-5999698D01*
X5084467Y-5999698D02*
X5093991Y-6018746D01*
X5093991Y-6018746D02*
X5093991Y-6075888D01*
X5093991Y-6075888D02*
X5084467Y-6094936D01*
X5084467Y-6094936D02*
X5074944Y-6104460D01*
X5074944Y-6104460D02*
X5055896Y-6113984D01*
X5055896Y-6113984D02*
X5017801Y-6113984D01*
X5017801Y-6113984D02*
X4998753Y-6104460D01*
X5179705Y-6094936D02*
X5189229Y-6104460D01*
X5189229Y-6104460D02*
X5179705Y-6113984D01*
X5179705Y-6113984D02*
X5170182Y-6104460D01*
X5170182Y-6104460D02*
X5179705Y-6094936D01*
X5179705Y-6094936D02*
X5179705Y-6113984D01*
X5179705Y-5990174D02*
X5189229Y-5999698D01*
X5189229Y-5999698D02*
X5179705Y-6009222D01*
X5179705Y-6009222D02*
X5170182Y-5999698D01*
X5170182Y-5999698D02*
X5179705Y-5990174D01*
X5179705Y-5990174D02*
X5179705Y-6009222D01*
M02*
