M48
; DRILL file {KiCad 8.0.1-rc1} date 2024-04-18T22:38:40-0500
; FORMAT={-:-/ absolute / inch / decimal}
; #@! TF.CreationDate,2024-04-18T22:38:40-05:00
; #@! TF.GenerationSoftware,Kicad,Pcbnew,8.0.1-rc1
; #@! TF.FileFunction,Plated,1,2,PTH
FMAT,2
INCH
; #@! TA.AperFunction,Plated,PTH,ComponentDrill
T1C0.0300
; #@! TA.AperFunction,Plated,PTH,ComponentDrill
T2C0.0354
%
G90
G05
T1
X1.8504Y-1.3189
X1.8504Y-1.7717
X1.8504Y-2.1654
X2.1457Y-1.3189
X2.1457Y-1.7717
X2.1457Y-2.1654
X2.4409Y-1.3189
X2.4409Y-1.7717
X2.4409Y-2.1654
X2.7362Y-1.3189
X2.7362Y-1.7717
X2.7362Y-2.1654
X3.0315Y-1.3199
X3.0315Y-1.7726
X3.0315Y-2.1663
X3.3268Y-1.3199
X3.3268Y-1.7726
X3.3268Y-2.1663
X3.622Y-1.3189
X3.622Y-1.7717
X3.622Y-2.1654
X3.9173Y-1.3189
X3.9173Y-1.6535
X3.9173Y-1.9685
T2
X1.8504Y-1.5043
X1.8504Y-1.6043
X2.1457Y-1.5043
X2.1457Y-1.6043
X2.4409Y-1.5043
X2.4409Y-1.6043
X2.7362Y-1.5043
X2.7362Y-1.6043
X3.0315Y-1.5053
X3.0315Y-1.6053
X3.3268Y-1.5053
X3.3268Y-1.6053
X3.622Y-1.5043
X3.622Y-1.6043
M30
