%TF.GenerationSoftware,KiCad,Pcbnew,8.0.1-rc1*%
%TF.CreationDate,2024-04-18T22:38:37-05:00*%
%TF.ProjectId,Emotion LED,456d6f74-696f-46e2-904c-45442e6b6963,rev?*%
%TF.SameCoordinates,Original*%
%TF.FileFunction,Copper,L2,Bot*%
%TF.FilePolarity,Positive*%
%FSLAX46Y46*%
G04 Gerber Fmt 4.6, Leading zero omitted, Abs format (unit mm)*
G04 Created by KiCad (PCBNEW 8.0.1-rc1) date 2024-04-18 22:38:37*
%MOMM*%
%LPD*%
G01*
G04 APERTURE LIST*
%TA.AperFunction,ComponentPad*%
%ADD10C,1.524000*%
%TD*%
%TA.AperFunction,ComponentPad*%
%ADD11C,1.800000*%
%TD*%
%TA.AperFunction,ComponentPad*%
%ADD12R,1.800000X1.800000*%
%TD*%
%TA.AperFunction,Conductor*%
%ADD13C,0.508000*%
%TD*%
G04 APERTURE END LIST*
D10*
%TO.P,,1*%
%TO.N,N/C*%
X99500000Y-42000000D03*
%TD*%
%TO.P,,1*%
%TO.N,N/C*%
X99500000Y-50000000D03*
%TD*%
%TO.P,REF\u002A\u002A,1*%
%TO.N,N/C*%
X47000000Y-45000000D03*
%TO.P,REF\u002A\u002A,2*%
X47000000Y-55000000D03*
%TD*%
D11*
%TO.P,REF\u002A\u002A,2*%
%TO.N,N/C*%
X77000000Y-38235000D03*
D12*
%TO.P,REF\u002A\u002A,1*%
X77000000Y-40775000D03*
%TD*%
D10*
%TO.P,REF\u002A\u002A,2*%
%TO.N,N/C*%
X84500000Y-55025000D03*
%TO.P,REF\u002A\u002A,1*%
X84500000Y-45025000D03*
%TD*%
%TO.P,REF\u002A\u002A,2*%
%TO.N,N/C*%
X69500000Y-55000000D03*
%TO.P,REF\u002A\u002A,1*%
X69500000Y-45000000D03*
%TD*%
D11*
%TO.P,REF\u002A\u002A,2*%
%TO.N,N/C*%
X84500000Y-38235000D03*
D12*
%TO.P,REF\u002A\u002A,1*%
X84500000Y-40775000D03*
%TD*%
%TO.P,REF\u002A\u002A,1*%
%TO.N,N/C*%
X47000000Y-40750000D03*
D11*
%TO.P,REF\u002A\u002A,2*%
X47000000Y-38210000D03*
%TD*%
D10*
%TO.P,REF\u002A\u002A,2*%
%TO.N,N/C*%
X62000000Y-55000000D03*
%TO.P,REF\u002A\u002A,1*%
X62000000Y-45000000D03*
%TD*%
%TO.P,,2*%
%TO.N,N/C*%
X99500000Y-33500000D03*
%TD*%
%TO.P,,1*%
%TO.N,N/C*%
X69500000Y-33500000D03*
%TD*%
%TO.P,,1*%
%TO.N,N/C*%
X62000000Y-33500000D03*
%TD*%
%TO.P,,1*%
%TO.N,N/C*%
X47000000Y-33500000D03*
%TD*%
D12*
%TO.P,REF\u002A\u002A,1*%
%TO.N,N/C*%
X62000000Y-40750000D03*
D11*
%TO.P,REF\u002A\u002A,2*%
X62000000Y-38210000D03*
%TD*%
D10*
%TO.P,,1*%
%TO.N,N/C*%
X84500000Y-33525000D03*
%TD*%
%TO.P,,1*%
%TO.N,N/C*%
X77000000Y-33525000D03*
%TD*%
%TO.P,,1*%
%TO.N,N/C*%
X54500000Y-33500000D03*
%TD*%
D11*
%TO.P,REF\u002A\u002A,2*%
%TO.N,N/C*%
X92000000Y-38210000D03*
D12*
%TO.P,REF\u002A\u002A,1*%
X92000000Y-40750000D03*
%TD*%
D11*
%TO.P,REF\u002A\u002A,2*%
%TO.N,N/C*%
X69500000Y-38210000D03*
D12*
%TO.P,REF\u002A\u002A,1*%
X69500000Y-40750000D03*
%TD*%
D10*
%TO.P,,1*%
%TO.N,N/C*%
X92000000Y-33500000D03*
%TD*%
D12*
%TO.P,REF\u002A\u002A,1*%
%TO.N,N/C*%
X54500000Y-40750000D03*
D11*
%TO.P,REF\u002A\u002A,2*%
X54500000Y-38210000D03*
%TD*%
D10*
%TO.P,REF\u002A\u002A,2*%
%TO.N,N/C*%
X77000000Y-55025000D03*
%TO.P,REF\u002A\u002A,1*%
X77000000Y-45025000D03*
%TD*%
%TO.P,REF\u002A\u002A,1*%
%TO.N,N/C*%
X54500000Y-45000000D03*
%TO.P,REF\u002A\u002A,2*%
X54500000Y-55000000D03*
%TD*%
%TO.P,REF\u002A\u002A,2*%
%TO.N,N/C*%
X92000000Y-55000000D03*
%TO.P,REF\u002A\u002A,1*%
X92000000Y-45000000D03*
%TD*%
D13*
%TO.N,*%
X77000000Y-33525000D02*
X77000000Y-38235000D01*
X99500000Y-33500000D02*
X99500000Y-42000000D01*
X94500000Y-55000000D02*
X99500000Y-50000000D01*
X92000000Y-55000000D02*
X94500000Y-55000000D01*
X47000000Y-55000000D02*
X92000000Y-55000000D01*
X77000000Y-40775000D02*
X77000000Y-45025000D01*
X47000000Y-40750000D02*
X47000000Y-45000000D01*
X69500000Y-40750000D02*
X69500000Y-45000000D01*
X92000000Y-38210000D02*
X92000000Y-33500000D01*
X84500000Y-40775000D02*
X84500000Y-45025000D01*
X54500000Y-38210000D02*
X54500000Y-33500000D01*
X54500000Y-40750000D02*
X54500000Y-45000000D01*
X62000000Y-38210000D02*
X62000000Y-33500000D01*
X62000000Y-40750000D02*
X62000000Y-45000000D01*
X92000000Y-40750000D02*
X92000000Y-45000000D01*
X47000000Y-38210000D02*
X47000000Y-33500000D01*
X84500000Y-38235000D02*
X84500000Y-33525000D01*
X69500000Y-38210000D02*
X69500000Y-33500000D01*
%TD*%
%TA.AperFunction,Conductor*%
%TO.N,GRD*%
G36*
X105422702Y-26000618D02*
G01*
X105435819Y-26001190D01*
X105813742Y-26017690D01*
X105824477Y-26018630D01*
X106209859Y-26069366D01*
X106220493Y-26071241D01*
X106599990Y-26155374D01*
X106610416Y-26158168D01*
X106981135Y-26275055D01*
X106991270Y-26278744D01*
X107350387Y-26427495D01*
X107360178Y-26432061D01*
X107704942Y-26611534D01*
X107714309Y-26616941D01*
X107984434Y-26789030D01*
X108042130Y-26825786D01*
X108050991Y-26831991D01*
X108359353Y-27068605D01*
X108367640Y-27075559D01*
X108654204Y-27338146D01*
X108661853Y-27345795D01*
X108924440Y-27632359D01*
X108931394Y-27640646D01*
X109168008Y-27949008D01*
X109174213Y-27957869D01*
X109383057Y-28285689D01*
X109388465Y-28295057D01*
X109567935Y-28639814D01*
X109572507Y-28649618D01*
X109721249Y-29008714D01*
X109724949Y-29018879D01*
X109841828Y-29389572D01*
X109844628Y-29400021D01*
X109928756Y-29779498D01*
X109930634Y-29790151D01*
X109981367Y-30175499D01*
X109982310Y-30186276D01*
X109999382Y-30577297D01*
X109999500Y-30582706D01*
X109999500Y-52917293D01*
X109999382Y-52922702D01*
X109982310Y-53313723D01*
X109981367Y-53324500D01*
X109930634Y-53709848D01*
X109928756Y-53720501D01*
X109844628Y-54099978D01*
X109841828Y-54110427D01*
X109724949Y-54481120D01*
X109721249Y-54491285D01*
X109572507Y-54850381D01*
X109567935Y-54860185D01*
X109388465Y-55204942D01*
X109383057Y-55214310D01*
X109174213Y-55542130D01*
X109168008Y-55550991D01*
X108931394Y-55859353D01*
X108924440Y-55867640D01*
X108661853Y-56154204D01*
X108654204Y-56161853D01*
X108367640Y-56424440D01*
X108359353Y-56431394D01*
X108050991Y-56668008D01*
X108042130Y-56674213D01*
X107714310Y-56883057D01*
X107704942Y-56888465D01*
X107360185Y-57067935D01*
X107350381Y-57072507D01*
X106991285Y-57221249D01*
X106981120Y-57224949D01*
X106610427Y-57341828D01*
X106599978Y-57344628D01*
X106220501Y-57428756D01*
X106209848Y-57430634D01*
X105824500Y-57481367D01*
X105813723Y-57482310D01*
X105422703Y-57499382D01*
X105417294Y-57499500D01*
X94923840Y-57499500D01*
X94856801Y-57479815D01*
X94811046Y-57427011D01*
X94801102Y-57357853D01*
X94830127Y-57294297D01*
X94888905Y-57256523D01*
X94907652Y-57252561D01*
X94947031Y-57247377D01*
X95236549Y-57169802D01*
X95398761Y-57102610D01*
X95513463Y-57055100D01*
X95773037Y-56905234D01*
X96010829Y-56722770D01*
X96222770Y-56510829D01*
X99949168Y-52784429D01*
X100008248Y-52751455D01*
X100302830Y-52681639D01*
X100608721Y-52570304D01*
X100608724Y-52570302D01*
X100608728Y-52570301D01*
X100899610Y-52424213D01*
X100899612Y-52424212D01*
X100899611Y-52424212D01*
X100899618Y-52424209D01*
X101171588Y-52245332D01*
X101174021Y-52243291D01*
X101269431Y-52163230D01*
X101420952Y-52036090D01*
X101644339Y-51799314D01*
X101838728Y-51538205D01*
X102001489Y-51256295D01*
X102130421Y-50957395D01*
X102223782Y-50645548D01*
X102280309Y-50324971D01*
X102299236Y-50000000D01*
X102280309Y-49675029D01*
X102223785Y-49354467D01*
X102223785Y-49354466D01*
X102223783Y-49354460D01*
X102223782Y-49354452D01*
X102130421Y-49042605D01*
X102001489Y-48743705D01*
X101838728Y-48461795D01*
X101838727Y-48461793D01*
X101644342Y-48200689D01*
X101644337Y-48200683D01*
X101536322Y-48086195D01*
X101420952Y-47963910D01*
X101420945Y-47963904D01*
X101420943Y-47963902D01*
X101171592Y-47754670D01*
X100899612Y-47575787D01*
X100899610Y-47575786D01*
X100608728Y-47429698D01*
X100608722Y-47429696D01*
X100302831Y-47318361D01*
X100302829Y-47318360D01*
X100061151Y-47261082D01*
X99986082Y-47243291D01*
X99662761Y-47205500D01*
X99337239Y-47205500D01*
X99013918Y-47243291D01*
X98697170Y-47318360D01*
X98697168Y-47318361D01*
X98391277Y-47429696D01*
X98391271Y-47429698D01*
X98100389Y-47575786D01*
X98100387Y-47575787D01*
X97828407Y-47754670D01*
X97579056Y-47963902D01*
X97579046Y-47963912D01*
X97355662Y-48200683D01*
X97355657Y-48200689D01*
X97161272Y-48461793D01*
X96998513Y-48743700D01*
X96998507Y-48743713D01*
X96869578Y-49042605D01*
X96776217Y-49354455D01*
X96776214Y-49354467D01*
X96753949Y-49480737D01*
X96722922Y-49543340D01*
X96719514Y-49546885D01*
X93646582Y-52619817D01*
X93585259Y-52653302D01*
X93515567Y-52648318D01*
X93490762Y-52635737D01*
X93399612Y-52575787D01*
X93399610Y-52575786D01*
X93108728Y-52429698D01*
X93108722Y-52429696D01*
X92802831Y-52318361D01*
X92802829Y-52318360D01*
X92561151Y-52261082D01*
X92486082Y-52243291D01*
X92162761Y-52205500D01*
X91837239Y-52205500D01*
X91513918Y-52243291D01*
X91197170Y-52318360D01*
X91197168Y-52318361D01*
X90891277Y-52429696D01*
X90891271Y-52429698D01*
X90600389Y-52575786D01*
X90600387Y-52575787D01*
X90422020Y-52693101D01*
X90355192Y-52713493D01*
X90353881Y-52713500D01*
X86108108Y-52713500D01*
X86041069Y-52693815D01*
X86039969Y-52693101D01*
X85899612Y-52600787D01*
X85899610Y-52600786D01*
X85608728Y-52454698D01*
X85608722Y-52454696D01*
X85302831Y-52343361D01*
X85302829Y-52343360D01*
X85061151Y-52286082D01*
X84986082Y-52268291D01*
X84662761Y-52230500D01*
X84337239Y-52230500D01*
X84013918Y-52268291D01*
X83697170Y-52343360D01*
X83697168Y-52343361D01*
X83391277Y-52454696D01*
X83391271Y-52454698D01*
X83100389Y-52600786D01*
X83100387Y-52600787D01*
X82960031Y-52693101D01*
X82893203Y-52713493D01*
X82891892Y-52713500D01*
X78608108Y-52713500D01*
X78541069Y-52693815D01*
X78539969Y-52693101D01*
X78399612Y-52600787D01*
X78399610Y-52600786D01*
X78108728Y-52454698D01*
X78108722Y-52454696D01*
X77802831Y-52343361D01*
X77802829Y-52343360D01*
X77561151Y-52286082D01*
X77486082Y-52268291D01*
X77162761Y-52230500D01*
X76837239Y-52230500D01*
X76513918Y-52268291D01*
X76197170Y-52343360D01*
X76197168Y-52343361D01*
X75891277Y-52454696D01*
X75891271Y-52454698D01*
X75600389Y-52600786D01*
X75600387Y-52600787D01*
X75460031Y-52693101D01*
X75393203Y-52713493D01*
X75391892Y-52713500D01*
X71146119Y-52713500D01*
X71079080Y-52693815D01*
X71077980Y-52693101D01*
X70899612Y-52575787D01*
X70899610Y-52575786D01*
X70608728Y-52429698D01*
X70608722Y-52429696D01*
X70302831Y-52318361D01*
X70302829Y-52318360D01*
X70061151Y-52261082D01*
X69986082Y-52243291D01*
X69662761Y-52205500D01*
X69337239Y-52205500D01*
X69013918Y-52243291D01*
X68697170Y-52318360D01*
X68697168Y-52318361D01*
X68391277Y-52429696D01*
X68391271Y-52429698D01*
X68100389Y-52575786D01*
X68100387Y-52575787D01*
X67922020Y-52693101D01*
X67855192Y-52713493D01*
X67853881Y-52713500D01*
X63646119Y-52713500D01*
X63579080Y-52693815D01*
X63577980Y-52693101D01*
X63399612Y-52575787D01*
X63399610Y-52575786D01*
X63108728Y-52429698D01*
X63108722Y-52429696D01*
X62802831Y-52318361D01*
X62802829Y-52318360D01*
X62561151Y-52261082D01*
X62486082Y-52243291D01*
X62162761Y-52205500D01*
X61837239Y-52205500D01*
X61513918Y-52243291D01*
X61197170Y-52318360D01*
X61197168Y-52318361D01*
X60891277Y-52429696D01*
X60891271Y-52429698D01*
X60600389Y-52575786D01*
X60600387Y-52575787D01*
X60422020Y-52693101D01*
X60355192Y-52713493D01*
X60353881Y-52713500D01*
X56146119Y-52713500D01*
X56079080Y-52693815D01*
X56077980Y-52693101D01*
X55899612Y-52575787D01*
X55899610Y-52575786D01*
X55608728Y-52429698D01*
X55608722Y-52429696D01*
X55302831Y-52318361D01*
X55302829Y-52318360D01*
X55061151Y-52261082D01*
X54986082Y-52243291D01*
X54662761Y-52205500D01*
X54337239Y-52205500D01*
X54013918Y-52243291D01*
X53697170Y-52318360D01*
X53697168Y-52318361D01*
X53391277Y-52429696D01*
X53391271Y-52429698D01*
X53100389Y-52575786D01*
X53100387Y-52575787D01*
X52922020Y-52693101D01*
X52855192Y-52713493D01*
X52853881Y-52713500D01*
X48646119Y-52713500D01*
X48579080Y-52693815D01*
X48577980Y-52693101D01*
X48399612Y-52575787D01*
X48399610Y-52575786D01*
X48108728Y-52429698D01*
X48108722Y-52429696D01*
X47802831Y-52318361D01*
X47802829Y-52318360D01*
X47561151Y-52261082D01*
X47486082Y-52243291D01*
X47162761Y-52205500D01*
X46837239Y-52205500D01*
X46513918Y-52243291D01*
X46197170Y-52318360D01*
X46197168Y-52318361D01*
X45891277Y-52429696D01*
X45891271Y-52429698D01*
X45600389Y-52575786D01*
X45600387Y-52575787D01*
X45328407Y-52754670D01*
X45079056Y-52963902D01*
X45079046Y-52963912D01*
X44855662Y-53200683D01*
X44855657Y-53200689D01*
X44661272Y-53461793D01*
X44498513Y-53743700D01*
X44498507Y-53743713D01*
X44369578Y-54042605D01*
X44276217Y-54354455D01*
X44276214Y-54354466D01*
X44219692Y-54675020D01*
X44219691Y-54675028D01*
X44200764Y-54999996D01*
X44200764Y-55000003D01*
X44219691Y-55324971D01*
X44219692Y-55324979D01*
X44276214Y-55645533D01*
X44276217Y-55645544D01*
X44369578Y-55957394D01*
X44498507Y-56256286D01*
X44498513Y-56256299D01*
X44661272Y-56538206D01*
X44855657Y-56799310D01*
X44855662Y-56799316D01*
X44955595Y-56905238D01*
X45079048Y-57036090D01*
X45079054Y-57036095D01*
X45079056Y-57036097D01*
X45328409Y-57245330D01*
X45328417Y-57245336D01*
X45368805Y-57271900D01*
X45413999Y-57325185D01*
X45423210Y-57394445D01*
X45393515Y-57457690D01*
X45334340Y-57494840D01*
X45300666Y-57499500D01*
X40582706Y-57499500D01*
X40577297Y-57499382D01*
X40186276Y-57482310D01*
X40175501Y-57481367D01*
X40086792Y-57469688D01*
X39790151Y-57430634D01*
X39779498Y-57428756D01*
X39400021Y-57344628D01*
X39389572Y-57341828D01*
X39018879Y-57224949D01*
X39008714Y-57221249D01*
X38649618Y-57072507D01*
X38639814Y-57067935D01*
X38295057Y-56888465D01*
X38285689Y-56883057D01*
X37957869Y-56674213D01*
X37949008Y-56668008D01*
X37640646Y-56431394D01*
X37632359Y-56424440D01*
X37345795Y-56161853D01*
X37338146Y-56154204D01*
X37075559Y-55867640D01*
X37068605Y-55859353D01*
X36831991Y-55550991D01*
X36825786Y-55542130D01*
X36616942Y-55214310D01*
X36611534Y-55204942D01*
X36504849Y-55000003D01*
X36432061Y-54860178D01*
X36427492Y-54850381D01*
X36278744Y-54491270D01*
X36275055Y-54481135D01*
X36158168Y-54110416D01*
X36155374Y-54099990D01*
X36071241Y-53720493D01*
X36069365Y-53709848D01*
X36018630Y-53324477D01*
X36017690Y-53313742D01*
X36000618Y-52922701D01*
X36000500Y-52917293D01*
X36000500Y-38210003D01*
X44062530Y-38210003D01*
X44082392Y-38551019D01*
X44082393Y-38551030D01*
X44141707Y-38887417D01*
X44141709Y-38887425D01*
X44193887Y-39061711D01*
X44194256Y-39131580D01*
X44193678Y-39133529D01*
X44114756Y-39391673D01*
X44070290Y-39672415D01*
X44070289Y-39672427D01*
X44067500Y-39736324D01*
X44067500Y-41763675D01*
X44070289Y-41827572D01*
X44070290Y-41827584D01*
X44114756Y-42108326D01*
X44197863Y-42380159D01*
X44317994Y-42637780D01*
X44317997Y-42637785D01*
X44472805Y-42876169D01*
X44472811Y-42876177D01*
X44659298Y-43090707D01*
X44670850Y-43100748D01*
X44708532Y-43159585D01*
X44713500Y-43194333D01*
X44713500Y-43350551D01*
X44693815Y-43417590D01*
X44688964Y-43424598D01*
X44661269Y-43461798D01*
X44661269Y-43461799D01*
X44498513Y-43743700D01*
X44498507Y-43743713D01*
X44369578Y-44042605D01*
X44276217Y-44354455D01*
X44276214Y-44354466D01*
X44219692Y-44675020D01*
X44219691Y-44675028D01*
X44200764Y-44999996D01*
X44200764Y-45000003D01*
X44219691Y-45324971D01*
X44219692Y-45324979D01*
X44276214Y-45645533D01*
X44276217Y-45645544D01*
X44369578Y-45957394D01*
X44498507Y-46256286D01*
X44498513Y-46256299D01*
X44661272Y-46538206D01*
X44855657Y-46799310D01*
X44855662Y-46799316D01*
X44879247Y-46824314D01*
X45079048Y-47036090D01*
X45079054Y-47036095D01*
X45079056Y-47036097D01*
X45328407Y-47245329D01*
X45600387Y-47424212D01*
X45600389Y-47424213D01*
X45891271Y-47570301D01*
X45891277Y-47570303D01*
X45891279Y-47570304D01*
X46197170Y-47681639D01*
X46513918Y-47756709D01*
X46837239Y-47794500D01*
X46837246Y-47794500D01*
X47162754Y-47794500D01*
X47162761Y-47794500D01*
X47486082Y-47756709D01*
X47802830Y-47681639D01*
X48108721Y-47570304D01*
X48108724Y-47570302D01*
X48108728Y-47570301D01*
X48399610Y-47424213D01*
X48399612Y-47424212D01*
X48399611Y-47424212D01*
X48399618Y-47424209D01*
X48671588Y-47245332D01*
X48674021Y-47243291D01*
X48769431Y-47163230D01*
X48920952Y-47036090D01*
X49144339Y-46799314D01*
X49338728Y-46538205D01*
X49501489Y-46256295D01*
X49630421Y-45957395D01*
X49723782Y-45645548D01*
X49780309Y-45324971D01*
X49799236Y-45000000D01*
X49780309Y-44675029D01*
X49736083Y-44424212D01*
X49723785Y-44354466D01*
X49723783Y-44354460D01*
X49723782Y-44354452D01*
X49630421Y-44042605D01*
X49501489Y-43743705D01*
X49338728Y-43461795D01*
X49311035Y-43424597D01*
X49286793Y-43359069D01*
X49286500Y-43350551D01*
X49286500Y-43194333D01*
X49306185Y-43127294D01*
X49329150Y-43100748D01*
X49340701Y-43090707D01*
X49340704Y-43090704D01*
X49527190Y-42876176D01*
X49682005Y-42637782D01*
X49802136Y-42380161D01*
X49885243Y-42108329D01*
X49929710Y-41827577D01*
X49932500Y-41763674D01*
X49932500Y-39736326D01*
X49929710Y-39672423D01*
X49889203Y-39416676D01*
X49885244Y-39391676D01*
X49885243Y-39391673D01*
X49885243Y-39391671D01*
X49806319Y-39133524D01*
X49805544Y-39063664D01*
X49806072Y-39061842D01*
X49858290Y-38887427D01*
X49917608Y-38551019D01*
X49937470Y-38210003D01*
X51562530Y-38210003D01*
X51582392Y-38551019D01*
X51582393Y-38551030D01*
X51641707Y-38887417D01*
X51641709Y-38887425D01*
X51693887Y-39061711D01*
X51694256Y-39131580D01*
X51693678Y-39133529D01*
X51614756Y-39391673D01*
X51570290Y-39672415D01*
X51570289Y-39672427D01*
X51567500Y-39736324D01*
X51567500Y-41763675D01*
X51570289Y-41827572D01*
X51570290Y-41827584D01*
X51614756Y-42108326D01*
X51697863Y-42380159D01*
X51817994Y-42637780D01*
X51817997Y-42637785D01*
X51972805Y-42876169D01*
X51972811Y-42876177D01*
X52159298Y-43090707D01*
X52170850Y-43100748D01*
X52208532Y-43159585D01*
X52213500Y-43194333D01*
X52213500Y-43350551D01*
X52193815Y-43417590D01*
X52188964Y-43424598D01*
X52161269Y-43461798D01*
X52161269Y-43461799D01*
X51998513Y-43743700D01*
X51998507Y-43743713D01*
X51869578Y-44042605D01*
X51776217Y-44354455D01*
X51776214Y-44354466D01*
X51719692Y-44675020D01*
X51719691Y-44675028D01*
X51700764Y-44999996D01*
X51700764Y-45000003D01*
X51719691Y-45324971D01*
X51719692Y-45324979D01*
X51776214Y-45645533D01*
X51776217Y-45645544D01*
X51869578Y-45957394D01*
X51998507Y-46256286D01*
X51998513Y-46256299D01*
X52161272Y-46538206D01*
X52355657Y-46799310D01*
X52355662Y-46799316D01*
X52379247Y-46824314D01*
X52579048Y-47036090D01*
X52579054Y-47036095D01*
X52579056Y-47036097D01*
X52828407Y-47245329D01*
X53100387Y-47424212D01*
X53100389Y-47424213D01*
X53391271Y-47570301D01*
X53391277Y-47570303D01*
X53391279Y-47570304D01*
X53697170Y-47681639D01*
X54013918Y-47756709D01*
X54337239Y-47794500D01*
X54337246Y-47794500D01*
X54662754Y-47794500D01*
X54662761Y-47794500D01*
X54986082Y-47756709D01*
X55302830Y-47681639D01*
X55608721Y-47570304D01*
X55608724Y-47570302D01*
X55608728Y-47570301D01*
X55899610Y-47424213D01*
X55899612Y-47424212D01*
X55899611Y-47424212D01*
X55899618Y-47424209D01*
X56171588Y-47245332D01*
X56174021Y-47243291D01*
X56269431Y-47163230D01*
X56420952Y-47036090D01*
X56644339Y-46799314D01*
X56838728Y-46538205D01*
X57001489Y-46256295D01*
X57130421Y-45957395D01*
X57223782Y-45645548D01*
X57280309Y-45324971D01*
X57299236Y-45000000D01*
X57280309Y-44675029D01*
X57236083Y-44424212D01*
X57223785Y-44354466D01*
X57223783Y-44354460D01*
X57223782Y-44354452D01*
X57130421Y-44042605D01*
X57001489Y-43743705D01*
X56838728Y-43461795D01*
X56811035Y-43424597D01*
X56786793Y-43359069D01*
X56786500Y-43350551D01*
X56786500Y-43194333D01*
X56806185Y-43127294D01*
X56829150Y-43100748D01*
X56840701Y-43090707D01*
X56840704Y-43090704D01*
X57027190Y-42876176D01*
X57182005Y-42637782D01*
X57302136Y-42380161D01*
X57385243Y-42108329D01*
X57429710Y-41827577D01*
X57432500Y-41763674D01*
X57432500Y-39736326D01*
X57429710Y-39672423D01*
X57389203Y-39416676D01*
X57385244Y-39391676D01*
X57385243Y-39391673D01*
X57385243Y-39391671D01*
X57306319Y-39133524D01*
X57305544Y-39063664D01*
X57306072Y-39061842D01*
X57358290Y-38887427D01*
X57417608Y-38551019D01*
X57437470Y-38210003D01*
X59062530Y-38210003D01*
X59082392Y-38551019D01*
X59082393Y-38551030D01*
X59141707Y-38887417D01*
X59141709Y-38887425D01*
X59193887Y-39061711D01*
X59194256Y-39131580D01*
X59193678Y-39133529D01*
X59114756Y-39391673D01*
X59070290Y-39672415D01*
X59070289Y-39672427D01*
X59067500Y-39736324D01*
X59067500Y-41763675D01*
X59070289Y-41827572D01*
X59070290Y-41827584D01*
X59114756Y-42108326D01*
X59197863Y-42380159D01*
X59317994Y-42637780D01*
X59317997Y-42637785D01*
X59472805Y-42876169D01*
X59472811Y-42876177D01*
X59659298Y-43090707D01*
X59670850Y-43100748D01*
X59708532Y-43159585D01*
X59713500Y-43194333D01*
X59713500Y-43350551D01*
X59693815Y-43417590D01*
X59688964Y-43424598D01*
X59661269Y-43461798D01*
X59661269Y-43461799D01*
X59498513Y-43743700D01*
X59498507Y-43743713D01*
X59369578Y-44042605D01*
X59276217Y-44354455D01*
X59276214Y-44354466D01*
X59219692Y-44675020D01*
X59219691Y-44675028D01*
X59200764Y-44999996D01*
X59200764Y-45000003D01*
X59219691Y-45324971D01*
X59219692Y-45324979D01*
X59276214Y-45645533D01*
X59276217Y-45645544D01*
X59369578Y-45957394D01*
X59498507Y-46256286D01*
X59498513Y-46256299D01*
X59661272Y-46538206D01*
X59855657Y-46799310D01*
X59855662Y-46799316D01*
X59879247Y-46824314D01*
X60079048Y-47036090D01*
X60079054Y-47036095D01*
X60079056Y-47036097D01*
X60328407Y-47245329D01*
X60600387Y-47424212D01*
X60600389Y-47424213D01*
X60891271Y-47570301D01*
X60891277Y-47570303D01*
X60891279Y-47570304D01*
X61197170Y-47681639D01*
X61513918Y-47756709D01*
X61837239Y-47794500D01*
X61837246Y-47794500D01*
X62162754Y-47794500D01*
X62162761Y-47794500D01*
X62486082Y-47756709D01*
X62802830Y-47681639D01*
X63108721Y-47570304D01*
X63108724Y-47570302D01*
X63108728Y-47570301D01*
X63399610Y-47424213D01*
X63399612Y-47424212D01*
X63399611Y-47424212D01*
X63399618Y-47424209D01*
X63671588Y-47245332D01*
X63674021Y-47243291D01*
X63769431Y-47163230D01*
X63920952Y-47036090D01*
X64144339Y-46799314D01*
X64338728Y-46538205D01*
X64501489Y-46256295D01*
X64630421Y-45957395D01*
X64723782Y-45645548D01*
X64780309Y-45324971D01*
X64799236Y-45000000D01*
X64780309Y-44675029D01*
X64736083Y-44424212D01*
X64723785Y-44354466D01*
X64723783Y-44354460D01*
X64723782Y-44354452D01*
X64630421Y-44042605D01*
X64501489Y-43743705D01*
X64338728Y-43461795D01*
X64311035Y-43424597D01*
X64286793Y-43359069D01*
X64286500Y-43350551D01*
X64286500Y-43194333D01*
X64306185Y-43127294D01*
X64329150Y-43100748D01*
X64340701Y-43090707D01*
X64340704Y-43090704D01*
X64527190Y-42876176D01*
X64682005Y-42637782D01*
X64802136Y-42380161D01*
X64885243Y-42108329D01*
X64929710Y-41827577D01*
X64932500Y-41763674D01*
X64932500Y-39736326D01*
X64929710Y-39672423D01*
X64889203Y-39416676D01*
X64885244Y-39391676D01*
X64885243Y-39391673D01*
X64885243Y-39391671D01*
X64806319Y-39133524D01*
X64805544Y-39063664D01*
X64806072Y-39061842D01*
X64858290Y-38887427D01*
X64917608Y-38551019D01*
X64937470Y-38210003D01*
X66562530Y-38210003D01*
X66582392Y-38551019D01*
X66582393Y-38551030D01*
X66641707Y-38887417D01*
X66641709Y-38887425D01*
X66693887Y-39061711D01*
X66694256Y-39131580D01*
X66693678Y-39133529D01*
X66614756Y-39391673D01*
X66570290Y-39672415D01*
X66570289Y-39672427D01*
X66567500Y-39736324D01*
X66567500Y-41763675D01*
X66570289Y-41827572D01*
X66570290Y-41827584D01*
X66614756Y-42108326D01*
X66697863Y-42380159D01*
X66817994Y-42637780D01*
X66817997Y-42637785D01*
X66972805Y-42876169D01*
X66972811Y-42876177D01*
X67159298Y-43090707D01*
X67170850Y-43100748D01*
X67208532Y-43159585D01*
X67213500Y-43194333D01*
X67213500Y-43350551D01*
X67193815Y-43417590D01*
X67188964Y-43424598D01*
X67161269Y-43461798D01*
X67161269Y-43461799D01*
X66998513Y-43743700D01*
X66998507Y-43743713D01*
X66869578Y-44042605D01*
X66776217Y-44354455D01*
X66776214Y-44354466D01*
X66719692Y-44675020D01*
X66719691Y-44675028D01*
X66700764Y-44999996D01*
X66700764Y-45000003D01*
X66719691Y-45324971D01*
X66719692Y-45324979D01*
X66776214Y-45645533D01*
X66776217Y-45645544D01*
X66869578Y-45957394D01*
X66998507Y-46256286D01*
X66998513Y-46256299D01*
X67161272Y-46538206D01*
X67355657Y-46799310D01*
X67355662Y-46799316D01*
X67379247Y-46824314D01*
X67579048Y-47036090D01*
X67579054Y-47036095D01*
X67579056Y-47036097D01*
X67828407Y-47245329D01*
X68100387Y-47424212D01*
X68100389Y-47424213D01*
X68391271Y-47570301D01*
X68391277Y-47570303D01*
X68391279Y-47570304D01*
X68697170Y-47681639D01*
X69013918Y-47756709D01*
X69337239Y-47794500D01*
X69337246Y-47794500D01*
X69662754Y-47794500D01*
X69662761Y-47794500D01*
X69986082Y-47756709D01*
X70302830Y-47681639D01*
X70608721Y-47570304D01*
X70608724Y-47570302D01*
X70608728Y-47570301D01*
X70899610Y-47424213D01*
X70899612Y-47424212D01*
X70899611Y-47424212D01*
X70899618Y-47424209D01*
X71171588Y-47245332D01*
X71174021Y-47243291D01*
X71269431Y-47163230D01*
X71420952Y-47036090D01*
X71644339Y-46799314D01*
X71838728Y-46538205D01*
X72001489Y-46256295D01*
X72130421Y-45957395D01*
X72223782Y-45645548D01*
X72280309Y-45324971D01*
X72299236Y-45000000D01*
X72280309Y-44675029D01*
X72236083Y-44424212D01*
X72223785Y-44354466D01*
X72223783Y-44354460D01*
X72223782Y-44354452D01*
X72130421Y-44042605D01*
X72001489Y-43743705D01*
X71838728Y-43461795D01*
X71811035Y-43424597D01*
X71786793Y-43359069D01*
X71786500Y-43350551D01*
X71786500Y-43194333D01*
X71806185Y-43127294D01*
X71829150Y-43100748D01*
X71840701Y-43090707D01*
X71840704Y-43090704D01*
X72027190Y-42876176D01*
X72182005Y-42637782D01*
X72302136Y-42380161D01*
X72385243Y-42108329D01*
X72429710Y-41827577D01*
X72432500Y-41763674D01*
X72432500Y-39736326D01*
X72429710Y-39672423D01*
X72389203Y-39416676D01*
X72385244Y-39391676D01*
X72385243Y-39391673D01*
X72385243Y-39391671D01*
X72306319Y-39133524D01*
X72305544Y-39063664D01*
X72306072Y-39061842D01*
X72358290Y-38887427D01*
X72417608Y-38551019D01*
X72436014Y-38235003D01*
X74062530Y-38235003D01*
X74082392Y-38576019D01*
X74082393Y-38576030D01*
X74141707Y-38912417D01*
X74141709Y-38912425D01*
X74193887Y-39086711D01*
X74194256Y-39156580D01*
X74193678Y-39158529D01*
X74114756Y-39416673D01*
X74070290Y-39697415D01*
X74070289Y-39697427D01*
X74067500Y-39761324D01*
X74067500Y-41788675D01*
X74070289Y-41852572D01*
X74070290Y-41852584D01*
X74114756Y-42133326D01*
X74197863Y-42405159D01*
X74317994Y-42662780D01*
X74317997Y-42662785D01*
X74472805Y-42901169D01*
X74472811Y-42901177D01*
X74659298Y-43115707D01*
X74670850Y-43125748D01*
X74708532Y-43184585D01*
X74713500Y-43219333D01*
X74713500Y-43375551D01*
X74693815Y-43442590D01*
X74688964Y-43449598D01*
X74661269Y-43486798D01*
X74661269Y-43486799D01*
X74498513Y-43768700D01*
X74498507Y-43768713D01*
X74369578Y-44067605D01*
X74276217Y-44379455D01*
X74276214Y-44379466D01*
X74219692Y-44700020D01*
X74219691Y-44700028D01*
X74200764Y-45024996D01*
X74200764Y-45025003D01*
X74219691Y-45349971D01*
X74219692Y-45349979D01*
X74276214Y-45670533D01*
X74276217Y-45670544D01*
X74369578Y-45982394D01*
X74498507Y-46281286D01*
X74498513Y-46281299D01*
X74661272Y-46563206D01*
X74855657Y-46824310D01*
X74855662Y-46824316D01*
X74971031Y-46946599D01*
X75079048Y-47061090D01*
X75079054Y-47061095D01*
X75079056Y-47061097D01*
X75328407Y-47270329D01*
X75328412Y-47270332D01*
X75562377Y-47424213D01*
X75600387Y-47449212D01*
X75600389Y-47449213D01*
X75891271Y-47595301D01*
X75891277Y-47595303D01*
X75891279Y-47595304D01*
X76197170Y-47706639D01*
X76513918Y-47781709D01*
X76837239Y-47819500D01*
X76837246Y-47819500D01*
X77162754Y-47819500D01*
X77162761Y-47819500D01*
X77486082Y-47781709D01*
X77802830Y-47706639D01*
X78108721Y-47595304D01*
X78108724Y-47595302D01*
X78108728Y-47595301D01*
X78399610Y-47449213D01*
X78399612Y-47449212D01*
X78399611Y-47449212D01*
X78399618Y-47449209D01*
X78671588Y-47270332D01*
X78701386Y-47245329D01*
X78769431Y-47188230D01*
X78920952Y-47061090D01*
X79144339Y-46824314D01*
X79338728Y-46563205D01*
X79501489Y-46281295D01*
X79630421Y-45982395D01*
X79723782Y-45670548D01*
X79728191Y-45645548D01*
X79745034Y-45550018D01*
X79780309Y-45349971D01*
X79799236Y-45025000D01*
X79780309Y-44700029D01*
X79731675Y-44424213D01*
X79723785Y-44379466D01*
X79723783Y-44379460D01*
X79723782Y-44379452D01*
X79630421Y-44067605D01*
X79501489Y-43768705D01*
X79338728Y-43486795D01*
X79311035Y-43449597D01*
X79286793Y-43384069D01*
X79286500Y-43375551D01*
X79286500Y-43219333D01*
X79306185Y-43152294D01*
X79329150Y-43125748D01*
X79340701Y-43115707D01*
X79353705Y-43100748D01*
X79527190Y-42901176D01*
X79682005Y-42662782D01*
X79802136Y-42405161D01*
X79885243Y-42133329D01*
X79929710Y-41852577D01*
X79932500Y-41788674D01*
X79932500Y-39761326D01*
X79929710Y-39697423D01*
X79925750Y-39672423D01*
X79885244Y-39416676D01*
X79885243Y-39416673D01*
X79885243Y-39416671D01*
X79806319Y-39158524D01*
X79805544Y-39088664D01*
X79806072Y-39086842D01*
X79858290Y-38912427D01*
X79917608Y-38576019D01*
X79937470Y-38235003D01*
X81562530Y-38235003D01*
X81582392Y-38576019D01*
X81582393Y-38576030D01*
X81641707Y-38912417D01*
X81641709Y-38912425D01*
X81693887Y-39086711D01*
X81694256Y-39156580D01*
X81693678Y-39158529D01*
X81614756Y-39416673D01*
X81570290Y-39697415D01*
X81570289Y-39697427D01*
X81567500Y-39761324D01*
X81567500Y-41788675D01*
X81570289Y-41852572D01*
X81570290Y-41852584D01*
X81614756Y-42133326D01*
X81697863Y-42405159D01*
X81817994Y-42662780D01*
X81817997Y-42662785D01*
X81972805Y-42901169D01*
X81972811Y-42901177D01*
X82159298Y-43115707D01*
X82170850Y-43125748D01*
X82208532Y-43184585D01*
X82213500Y-43219333D01*
X82213500Y-43375551D01*
X82193815Y-43442590D01*
X82188964Y-43449598D01*
X82161269Y-43486798D01*
X82161269Y-43486799D01*
X81998513Y-43768700D01*
X81998507Y-43768713D01*
X81869578Y-44067605D01*
X81776217Y-44379455D01*
X81776214Y-44379466D01*
X81719692Y-44700020D01*
X81719691Y-44700028D01*
X81700764Y-45024996D01*
X81700764Y-45025003D01*
X81719691Y-45349971D01*
X81719692Y-45349979D01*
X81776214Y-45670533D01*
X81776217Y-45670544D01*
X81869578Y-45982394D01*
X81998507Y-46281286D01*
X81998513Y-46281299D01*
X82161272Y-46563206D01*
X82355657Y-46824310D01*
X82355662Y-46824316D01*
X82471031Y-46946599D01*
X82579048Y-47061090D01*
X82579054Y-47061095D01*
X82579056Y-47061097D01*
X82828407Y-47270329D01*
X82828412Y-47270332D01*
X83062377Y-47424213D01*
X83100387Y-47449212D01*
X83100389Y-47449213D01*
X83391271Y-47595301D01*
X83391277Y-47595303D01*
X83391279Y-47595304D01*
X83697170Y-47706639D01*
X84013918Y-47781709D01*
X84337239Y-47819500D01*
X84337246Y-47819500D01*
X84662754Y-47819500D01*
X84662761Y-47819500D01*
X84986082Y-47781709D01*
X85302830Y-47706639D01*
X85608721Y-47595304D01*
X85608724Y-47595302D01*
X85608728Y-47595301D01*
X85899610Y-47449213D01*
X85899612Y-47449212D01*
X85899611Y-47449212D01*
X85899618Y-47449209D01*
X86171588Y-47270332D01*
X86201386Y-47245329D01*
X86269431Y-47188230D01*
X86420952Y-47061090D01*
X86644339Y-46824314D01*
X86838728Y-46563205D01*
X87001489Y-46281295D01*
X87130421Y-45982395D01*
X87223782Y-45670548D01*
X87228191Y-45645548D01*
X87245034Y-45550018D01*
X87280309Y-45349971D01*
X87299236Y-45025000D01*
X87280309Y-44700029D01*
X87231675Y-44424213D01*
X87223785Y-44379466D01*
X87223783Y-44379460D01*
X87223782Y-44379452D01*
X87130421Y-44067605D01*
X87001489Y-43768705D01*
X86838728Y-43486795D01*
X86811035Y-43449597D01*
X86786793Y-43384069D01*
X86786500Y-43375551D01*
X86786500Y-43219333D01*
X86806185Y-43152294D01*
X86829150Y-43125748D01*
X86840701Y-43115707D01*
X86853705Y-43100748D01*
X87027190Y-42901176D01*
X87182005Y-42662782D01*
X87302136Y-42405161D01*
X87385243Y-42133329D01*
X87429710Y-41852577D01*
X87432500Y-41788674D01*
X87432500Y-39761326D01*
X87429710Y-39697423D01*
X87425750Y-39672423D01*
X87385244Y-39416676D01*
X87385243Y-39416673D01*
X87385243Y-39416671D01*
X87306319Y-39158524D01*
X87305544Y-39088664D01*
X87306072Y-39086842D01*
X87358290Y-38912427D01*
X87417608Y-38576019D01*
X87437470Y-38235000D01*
X87436014Y-38210003D01*
X89062530Y-38210003D01*
X89082392Y-38551019D01*
X89082393Y-38551030D01*
X89141707Y-38887417D01*
X89141709Y-38887425D01*
X89193887Y-39061711D01*
X89194256Y-39131580D01*
X89193678Y-39133529D01*
X89114756Y-39391673D01*
X89070290Y-39672415D01*
X89070289Y-39672427D01*
X89067500Y-39736324D01*
X89067500Y-41763675D01*
X89070289Y-41827572D01*
X89070290Y-41827584D01*
X89114756Y-42108326D01*
X89197863Y-42380159D01*
X89317994Y-42637780D01*
X89317997Y-42637785D01*
X89472805Y-42876169D01*
X89472811Y-42876177D01*
X89659298Y-43090707D01*
X89670850Y-43100748D01*
X89708532Y-43159585D01*
X89713500Y-43194333D01*
X89713500Y-43350551D01*
X89693815Y-43417590D01*
X89688964Y-43424598D01*
X89661269Y-43461798D01*
X89661269Y-43461799D01*
X89498513Y-43743700D01*
X89498507Y-43743713D01*
X89369578Y-44042605D01*
X89276217Y-44354455D01*
X89276214Y-44354466D01*
X89219692Y-44675020D01*
X89219691Y-44675028D01*
X89200764Y-44999996D01*
X89200764Y-45000003D01*
X89219691Y-45324971D01*
X89219692Y-45324979D01*
X89276214Y-45645533D01*
X89276217Y-45645544D01*
X89369578Y-45957394D01*
X89498507Y-46256286D01*
X89498513Y-46256299D01*
X89661272Y-46538206D01*
X89855657Y-46799310D01*
X89855662Y-46799316D01*
X89879247Y-46824314D01*
X90079048Y-47036090D01*
X90079054Y-47036095D01*
X90079056Y-47036097D01*
X90328407Y-47245329D01*
X90600387Y-47424212D01*
X90600389Y-47424213D01*
X90891271Y-47570301D01*
X90891277Y-47570303D01*
X90891279Y-47570304D01*
X91197170Y-47681639D01*
X91513918Y-47756709D01*
X91837239Y-47794500D01*
X91837246Y-47794500D01*
X92162754Y-47794500D01*
X92162761Y-47794500D01*
X92486082Y-47756709D01*
X92802830Y-47681639D01*
X93108721Y-47570304D01*
X93108724Y-47570302D01*
X93108728Y-47570301D01*
X93399610Y-47424213D01*
X93399612Y-47424212D01*
X93399611Y-47424212D01*
X93399618Y-47424209D01*
X93671588Y-47245332D01*
X93674021Y-47243291D01*
X93769431Y-47163230D01*
X93920952Y-47036090D01*
X94144339Y-46799314D01*
X94338728Y-46538205D01*
X94501489Y-46256295D01*
X94630421Y-45957395D01*
X94723782Y-45645548D01*
X94780309Y-45324971D01*
X94799236Y-45000000D01*
X94780309Y-44675029D01*
X94736083Y-44424212D01*
X94723785Y-44354466D01*
X94723783Y-44354460D01*
X94723782Y-44354452D01*
X94630421Y-44042605D01*
X94501489Y-43743705D01*
X94338728Y-43461795D01*
X94311035Y-43424597D01*
X94286793Y-43359069D01*
X94286500Y-43350551D01*
X94286500Y-43194333D01*
X94306185Y-43127294D01*
X94329150Y-43100748D01*
X94340701Y-43090707D01*
X94340704Y-43090704D01*
X94527190Y-42876176D01*
X94682005Y-42637782D01*
X94802136Y-42380161D01*
X94885243Y-42108329D01*
X94902400Y-42000003D01*
X96700764Y-42000003D01*
X96719691Y-42324971D01*
X96719692Y-42324979D01*
X96776214Y-42645533D01*
X96776217Y-42645544D01*
X96776218Y-42645548D01*
X96796749Y-42714127D01*
X96869578Y-42957394D01*
X96998507Y-43256286D01*
X96998513Y-43256299D01*
X97161272Y-43538206D01*
X97355657Y-43799310D01*
X97355662Y-43799316D01*
X97471031Y-43921599D01*
X97579048Y-44036090D01*
X97579054Y-44036095D01*
X97579056Y-44036097D01*
X97828407Y-44245329D01*
X97828412Y-44245332D01*
X98032353Y-44379466D01*
X98100387Y-44424212D01*
X98100389Y-44424213D01*
X98391271Y-44570301D01*
X98391277Y-44570303D01*
X98391279Y-44570304D01*
X98697170Y-44681639D01*
X99013918Y-44756709D01*
X99337239Y-44794500D01*
X99337246Y-44794500D01*
X99662754Y-44794500D01*
X99662761Y-44794500D01*
X99986082Y-44756709D01*
X100302830Y-44681639D01*
X100608721Y-44570304D01*
X100608724Y-44570302D01*
X100608728Y-44570301D01*
X100899610Y-44424213D01*
X100899612Y-44424212D01*
X100899611Y-44424212D01*
X100899618Y-44424209D01*
X101171588Y-44245332D01*
X101420952Y-44036090D01*
X101644339Y-43799314D01*
X101838728Y-43538205D01*
X102001489Y-43256295D01*
X102130421Y-42957395D01*
X102223782Y-42645548D01*
X102225152Y-42637782D01*
X102266169Y-42405161D01*
X102280309Y-42324971D01*
X102299236Y-42000000D01*
X102280309Y-41675029D01*
X102255587Y-41534828D01*
X102223785Y-41354466D01*
X102223783Y-41354460D01*
X102223782Y-41354452D01*
X102130421Y-41042605D01*
X102001489Y-40743705D01*
X101838728Y-40461795D01*
X101811035Y-40424597D01*
X101786793Y-40359069D01*
X101786500Y-40350551D01*
X101786500Y-35149448D01*
X101806185Y-35082409D01*
X101811038Y-35075399D01*
X101813799Y-35071689D01*
X101838728Y-35038205D01*
X102001489Y-34756295D01*
X102130421Y-34457395D01*
X102223782Y-34145548D01*
X102280309Y-33824971D01*
X102299236Y-33500000D01*
X102280309Y-33175029D01*
X102228191Y-32879455D01*
X102223785Y-32854466D01*
X102223783Y-32854460D01*
X102223782Y-32854452D01*
X102130421Y-32542605D01*
X102001489Y-32243705D01*
X101838728Y-31961795D01*
X101838727Y-31961793D01*
X101644342Y-31700689D01*
X101644337Y-31700683D01*
X101444538Y-31488910D01*
X101420952Y-31463910D01*
X101420945Y-31463904D01*
X101420943Y-31463902D01*
X101171592Y-31254670D01*
X100899612Y-31075787D01*
X100899610Y-31075786D01*
X100608728Y-30929698D01*
X100608722Y-30929696D01*
X100302831Y-30818361D01*
X100302829Y-30818360D01*
X100061151Y-30761082D01*
X99986082Y-30743291D01*
X99662761Y-30705500D01*
X99337239Y-30705500D01*
X99013918Y-30743291D01*
X98697170Y-30818360D01*
X98697168Y-30818361D01*
X98391277Y-30929696D01*
X98391271Y-30929698D01*
X98100389Y-31075786D01*
X98100387Y-31075787D01*
X97828407Y-31254670D01*
X97579056Y-31463902D01*
X97579046Y-31463912D01*
X97355662Y-31700683D01*
X97355657Y-31700689D01*
X97161272Y-31961793D01*
X96998513Y-32243700D01*
X96998507Y-32243713D01*
X96869578Y-32542605D01*
X96776217Y-32854455D01*
X96776214Y-32854466D01*
X96719692Y-33175020D01*
X96719691Y-33175028D01*
X96700764Y-33499996D01*
X96700764Y-33500003D01*
X96719691Y-33824971D01*
X96719692Y-33824979D01*
X96776214Y-34145533D01*
X96776217Y-34145544D01*
X96869578Y-34457394D01*
X96998507Y-34756286D01*
X96998513Y-34756299D01*
X97161273Y-35038207D01*
X97188962Y-35075399D01*
X97213207Y-35140927D01*
X97213500Y-35149448D01*
X97213500Y-40350551D01*
X97193815Y-40417590D01*
X97188964Y-40424598D01*
X97161269Y-40461798D01*
X97161269Y-40461799D01*
X96998513Y-40743700D01*
X96998507Y-40743713D01*
X96869578Y-41042605D01*
X96776217Y-41354455D01*
X96776214Y-41354466D01*
X96719692Y-41675020D01*
X96719691Y-41675028D01*
X96700764Y-41999996D01*
X96700764Y-42000003D01*
X94902400Y-42000003D01*
X94929710Y-41827577D01*
X94932500Y-41763674D01*
X94932500Y-39736326D01*
X94929710Y-39672423D01*
X94889203Y-39416676D01*
X94885244Y-39391676D01*
X94885243Y-39391673D01*
X94885243Y-39391671D01*
X94806319Y-39133524D01*
X94805544Y-39063664D01*
X94806072Y-39061842D01*
X94858290Y-38887427D01*
X94917608Y-38551019D01*
X94937470Y-38210000D01*
X94917608Y-37868981D01*
X94862700Y-37557582D01*
X94858292Y-37532582D01*
X94858290Y-37532574D01*
X94767803Y-37230326D01*
X94760319Y-37205326D01*
X94625019Y-36891666D01*
X94454220Y-36595834D01*
X94454218Y-36595831D01*
X94454215Y-36595826D01*
X94311037Y-36403504D01*
X94286793Y-36337976D01*
X94286500Y-36329457D01*
X94286500Y-35149448D01*
X94306185Y-35082409D01*
X94311038Y-35075399D01*
X94313799Y-35071689D01*
X94338728Y-35038205D01*
X94501489Y-34756295D01*
X94630421Y-34457395D01*
X94723782Y-34145548D01*
X94780309Y-33824971D01*
X94799236Y-33500000D01*
X94780309Y-33175029D01*
X94728191Y-32879455D01*
X94723785Y-32854466D01*
X94723783Y-32854460D01*
X94723782Y-32854452D01*
X94630421Y-32542605D01*
X94501489Y-32243705D01*
X94338728Y-31961795D01*
X94338727Y-31961793D01*
X94144342Y-31700689D01*
X94144337Y-31700683D01*
X93944538Y-31488910D01*
X93920952Y-31463910D01*
X93920945Y-31463904D01*
X93920943Y-31463902D01*
X93671592Y-31254670D01*
X93399612Y-31075787D01*
X93399610Y-31075786D01*
X93108728Y-30929698D01*
X93108722Y-30929696D01*
X92802831Y-30818361D01*
X92802829Y-30818360D01*
X92561151Y-30761082D01*
X92486082Y-30743291D01*
X92162761Y-30705500D01*
X91837239Y-30705500D01*
X91513918Y-30743291D01*
X91197170Y-30818360D01*
X91197168Y-30818361D01*
X90891277Y-30929696D01*
X90891271Y-30929698D01*
X90600389Y-31075786D01*
X90600387Y-31075787D01*
X90328407Y-31254670D01*
X90079056Y-31463902D01*
X90079046Y-31463912D01*
X89855662Y-31700683D01*
X89855657Y-31700689D01*
X89661272Y-31961793D01*
X89498513Y-32243700D01*
X89498507Y-32243713D01*
X89369578Y-32542605D01*
X89276217Y-32854455D01*
X89276214Y-32854466D01*
X89219692Y-33175020D01*
X89219691Y-33175028D01*
X89200764Y-33499996D01*
X89200764Y-33500003D01*
X89219691Y-33824971D01*
X89219692Y-33824979D01*
X89276214Y-34145533D01*
X89276217Y-34145544D01*
X89369578Y-34457394D01*
X89498507Y-34756286D01*
X89498513Y-34756299D01*
X89661273Y-35038207D01*
X89688962Y-35075399D01*
X89713207Y-35140927D01*
X89713500Y-35149448D01*
X89713500Y-36329457D01*
X89693815Y-36396496D01*
X89688963Y-36403504D01*
X89545784Y-36595826D01*
X89545777Y-36595838D01*
X89374983Y-36891661D01*
X89374977Y-36891674D01*
X89239681Y-37205324D01*
X89141709Y-37532574D01*
X89141707Y-37532582D01*
X89082393Y-37868969D01*
X89082392Y-37868980D01*
X89062530Y-38209996D01*
X89062530Y-38210003D01*
X87436014Y-38210003D01*
X87417608Y-37893981D01*
X87358290Y-37557573D01*
X87260319Y-37230326D01*
X87125019Y-36916666D01*
X86954220Y-36620834D01*
X86954218Y-36620831D01*
X86954215Y-36620826D01*
X86811037Y-36428504D01*
X86786793Y-36362976D01*
X86786500Y-36354457D01*
X86786500Y-35174448D01*
X86806185Y-35107409D01*
X86811038Y-35100399D01*
X86829650Y-35075399D01*
X86838728Y-35063205D01*
X87001489Y-34781295D01*
X87130421Y-34482395D01*
X87223782Y-34170548D01*
X87228191Y-34145548D01*
X87245034Y-34050018D01*
X87280309Y-33849971D01*
X87299236Y-33525000D01*
X87280309Y-33200029D01*
X87255587Y-33059828D01*
X87223785Y-32879466D01*
X87223783Y-32879460D01*
X87223782Y-32879452D01*
X87130421Y-32567605D01*
X87001489Y-32268705D01*
X86838728Y-31986795D01*
X86838727Y-31986793D01*
X86644342Y-31725689D01*
X86644337Y-31725683D01*
X86536322Y-31611195D01*
X86420952Y-31488910D01*
X86420945Y-31488904D01*
X86420943Y-31488902D01*
X86171592Y-31279670D01*
X85899612Y-31100787D01*
X85899610Y-31100786D01*
X85608728Y-30954698D01*
X85608722Y-30954696D01*
X85302831Y-30843361D01*
X85302829Y-30843360D01*
X85061151Y-30786082D01*
X84986082Y-30768291D01*
X84662761Y-30730500D01*
X84337239Y-30730500D01*
X84013918Y-30768291D01*
X83697170Y-30843360D01*
X83697168Y-30843361D01*
X83391277Y-30954696D01*
X83391271Y-30954698D01*
X83100389Y-31100786D01*
X83100387Y-31100787D01*
X82828407Y-31279670D01*
X82579056Y-31488902D01*
X82579046Y-31488912D01*
X82355662Y-31725683D01*
X82355657Y-31725689D01*
X82161272Y-31986793D01*
X81998513Y-32268700D01*
X81998507Y-32268713D01*
X81869578Y-32567605D01*
X81776217Y-32879455D01*
X81776214Y-32879466D01*
X81719692Y-33200020D01*
X81719691Y-33200028D01*
X81700764Y-33524996D01*
X81700764Y-33525003D01*
X81719691Y-33849971D01*
X81719692Y-33849979D01*
X81776214Y-34170533D01*
X81776217Y-34170544D01*
X81869578Y-34482394D01*
X81998507Y-34781286D01*
X81998513Y-34781299D01*
X82161273Y-35063207D01*
X82188962Y-35100399D01*
X82213207Y-35165927D01*
X82213500Y-35174448D01*
X82213500Y-36354457D01*
X82193815Y-36421496D01*
X82188963Y-36428504D01*
X82045784Y-36620826D01*
X82045777Y-36620838D01*
X81874983Y-36916661D01*
X81874977Y-36916674D01*
X81739681Y-37230324D01*
X81641709Y-37557574D01*
X81641707Y-37557582D01*
X81582393Y-37893969D01*
X81582392Y-37893980D01*
X81562530Y-38234996D01*
X81562530Y-38235003D01*
X79937470Y-38235003D01*
X79937470Y-38235000D01*
X79917608Y-37893981D01*
X79858290Y-37557573D01*
X79760319Y-37230326D01*
X79625019Y-36916666D01*
X79454220Y-36620834D01*
X79454218Y-36620831D01*
X79454215Y-36620826D01*
X79311037Y-36428504D01*
X79286793Y-36362976D01*
X79286500Y-36354457D01*
X79286500Y-35174448D01*
X79306185Y-35107409D01*
X79311038Y-35100399D01*
X79329650Y-35075399D01*
X79338728Y-35063205D01*
X79501489Y-34781295D01*
X79630421Y-34482395D01*
X79723782Y-34170548D01*
X79728191Y-34145548D01*
X79745034Y-34050018D01*
X79780309Y-33849971D01*
X79799236Y-33525000D01*
X79780309Y-33200029D01*
X79755587Y-33059828D01*
X79723785Y-32879466D01*
X79723783Y-32879460D01*
X79723782Y-32879452D01*
X79630421Y-32567605D01*
X79501489Y-32268705D01*
X79338728Y-31986795D01*
X79338727Y-31986793D01*
X79144342Y-31725689D01*
X79144337Y-31725683D01*
X79036322Y-31611195D01*
X78920952Y-31488910D01*
X78920945Y-31488904D01*
X78920943Y-31488902D01*
X78671592Y-31279670D01*
X78399612Y-31100787D01*
X78399610Y-31100786D01*
X78108728Y-30954698D01*
X78108722Y-30954696D01*
X77802831Y-30843361D01*
X77802829Y-30843360D01*
X77561151Y-30786082D01*
X77486082Y-30768291D01*
X77162761Y-30730500D01*
X76837239Y-30730500D01*
X76513918Y-30768291D01*
X76197170Y-30843360D01*
X76197168Y-30843361D01*
X75891277Y-30954696D01*
X75891271Y-30954698D01*
X75600389Y-31100786D01*
X75600387Y-31100787D01*
X75328407Y-31279670D01*
X75079056Y-31488902D01*
X75079046Y-31488912D01*
X74855662Y-31725683D01*
X74855657Y-31725689D01*
X74661272Y-31986793D01*
X74498513Y-32268700D01*
X74498507Y-32268713D01*
X74369578Y-32567605D01*
X74276217Y-32879455D01*
X74276214Y-32879466D01*
X74219692Y-33200020D01*
X74219691Y-33200028D01*
X74200764Y-33524996D01*
X74200764Y-33525003D01*
X74219691Y-33849971D01*
X74219692Y-33849979D01*
X74276214Y-34170533D01*
X74276217Y-34170544D01*
X74369578Y-34482394D01*
X74498507Y-34781286D01*
X74498513Y-34781299D01*
X74661273Y-35063207D01*
X74688962Y-35100399D01*
X74713207Y-35165927D01*
X74713500Y-35174448D01*
X74713500Y-36354457D01*
X74693815Y-36421496D01*
X74688963Y-36428504D01*
X74545784Y-36620826D01*
X74545777Y-36620838D01*
X74374983Y-36916661D01*
X74374977Y-36916674D01*
X74239681Y-37230324D01*
X74141709Y-37557574D01*
X74141707Y-37557582D01*
X74082393Y-37893969D01*
X74082392Y-37893980D01*
X74062530Y-38234996D01*
X74062530Y-38235003D01*
X72436014Y-38235003D01*
X72437470Y-38210000D01*
X72417608Y-37868981D01*
X72362700Y-37557582D01*
X72358292Y-37532582D01*
X72358290Y-37532574D01*
X72267803Y-37230326D01*
X72260319Y-37205326D01*
X72125019Y-36891666D01*
X71954220Y-36595834D01*
X71954218Y-36595831D01*
X71954215Y-36595826D01*
X71811037Y-36403504D01*
X71786793Y-36337976D01*
X71786500Y-36329457D01*
X71786500Y-35149448D01*
X71806185Y-35082409D01*
X71811038Y-35075399D01*
X71813799Y-35071689D01*
X71838728Y-35038205D01*
X72001489Y-34756295D01*
X72130421Y-34457395D01*
X72223782Y-34145548D01*
X72280309Y-33824971D01*
X72299236Y-33500000D01*
X72280309Y-33175029D01*
X72228191Y-32879455D01*
X72223785Y-32854466D01*
X72223783Y-32854460D01*
X72223782Y-32854452D01*
X72130421Y-32542605D01*
X72001489Y-32243705D01*
X71838728Y-31961795D01*
X71838727Y-31961793D01*
X71644342Y-31700689D01*
X71644337Y-31700683D01*
X71444538Y-31488910D01*
X71420952Y-31463910D01*
X71420945Y-31463904D01*
X71420943Y-31463902D01*
X71171592Y-31254670D01*
X70899612Y-31075787D01*
X70899610Y-31075786D01*
X70608728Y-30929698D01*
X70608722Y-30929696D01*
X70302831Y-30818361D01*
X70302829Y-30818360D01*
X70061151Y-30761082D01*
X69986082Y-30743291D01*
X69662761Y-30705500D01*
X69337239Y-30705500D01*
X69013918Y-30743291D01*
X68697170Y-30818360D01*
X68697168Y-30818361D01*
X68391277Y-30929696D01*
X68391271Y-30929698D01*
X68100389Y-31075786D01*
X68100387Y-31075787D01*
X67828407Y-31254670D01*
X67579056Y-31463902D01*
X67579046Y-31463912D01*
X67355662Y-31700683D01*
X67355657Y-31700689D01*
X67161272Y-31961793D01*
X66998513Y-32243700D01*
X66998507Y-32243713D01*
X66869578Y-32542605D01*
X66776217Y-32854455D01*
X66776214Y-32854466D01*
X66719692Y-33175020D01*
X66719691Y-33175028D01*
X66700764Y-33499996D01*
X66700764Y-33500003D01*
X66719691Y-33824971D01*
X66719692Y-33824979D01*
X66776214Y-34145533D01*
X66776217Y-34145544D01*
X66869578Y-34457394D01*
X66998507Y-34756286D01*
X66998513Y-34756299D01*
X67161273Y-35038207D01*
X67188962Y-35075399D01*
X67213207Y-35140927D01*
X67213500Y-35149448D01*
X67213500Y-36329457D01*
X67193815Y-36396496D01*
X67188963Y-36403504D01*
X67045784Y-36595826D01*
X67045777Y-36595838D01*
X66874983Y-36891661D01*
X66874977Y-36891674D01*
X66739681Y-37205324D01*
X66641709Y-37532574D01*
X66641707Y-37532582D01*
X66582393Y-37868969D01*
X66582392Y-37868980D01*
X66562530Y-38209996D01*
X66562530Y-38210003D01*
X64937470Y-38210003D01*
X64937470Y-38210000D01*
X64917608Y-37868981D01*
X64862700Y-37557582D01*
X64858292Y-37532582D01*
X64858290Y-37532574D01*
X64767803Y-37230326D01*
X64760319Y-37205326D01*
X64625019Y-36891666D01*
X64454220Y-36595834D01*
X64454218Y-36595831D01*
X64454215Y-36595826D01*
X64311037Y-36403504D01*
X64286793Y-36337976D01*
X64286500Y-36329457D01*
X64286500Y-35149448D01*
X64306185Y-35082409D01*
X64311038Y-35075399D01*
X64313799Y-35071689D01*
X64338728Y-35038205D01*
X64501489Y-34756295D01*
X64630421Y-34457395D01*
X64723782Y-34145548D01*
X64780309Y-33824971D01*
X64799236Y-33500000D01*
X64780309Y-33175029D01*
X64728191Y-32879455D01*
X64723785Y-32854466D01*
X64723783Y-32854460D01*
X64723782Y-32854452D01*
X64630421Y-32542605D01*
X64501489Y-32243705D01*
X64338728Y-31961795D01*
X64338727Y-31961793D01*
X64144342Y-31700689D01*
X64144337Y-31700683D01*
X63944538Y-31488910D01*
X63920952Y-31463910D01*
X63920945Y-31463904D01*
X63920943Y-31463902D01*
X63671592Y-31254670D01*
X63399612Y-31075787D01*
X63399610Y-31075786D01*
X63108728Y-30929698D01*
X63108722Y-30929696D01*
X62802831Y-30818361D01*
X62802829Y-30818360D01*
X62561151Y-30761082D01*
X62486082Y-30743291D01*
X62162761Y-30705500D01*
X61837239Y-30705500D01*
X61513918Y-30743291D01*
X61197170Y-30818360D01*
X61197168Y-30818361D01*
X60891277Y-30929696D01*
X60891271Y-30929698D01*
X60600389Y-31075786D01*
X60600387Y-31075787D01*
X60328407Y-31254670D01*
X60079056Y-31463902D01*
X60079046Y-31463912D01*
X59855662Y-31700683D01*
X59855657Y-31700689D01*
X59661272Y-31961793D01*
X59498513Y-32243700D01*
X59498507Y-32243713D01*
X59369578Y-32542605D01*
X59276217Y-32854455D01*
X59276214Y-32854466D01*
X59219692Y-33175020D01*
X59219691Y-33175028D01*
X59200764Y-33499996D01*
X59200764Y-33500003D01*
X59219691Y-33824971D01*
X59219692Y-33824979D01*
X59276214Y-34145533D01*
X59276217Y-34145544D01*
X59369578Y-34457394D01*
X59498507Y-34756286D01*
X59498513Y-34756299D01*
X59661273Y-35038207D01*
X59688962Y-35075399D01*
X59713207Y-35140927D01*
X59713500Y-35149448D01*
X59713500Y-36329457D01*
X59693815Y-36396496D01*
X59688963Y-36403504D01*
X59545784Y-36595826D01*
X59545777Y-36595838D01*
X59374983Y-36891661D01*
X59374977Y-36891674D01*
X59239681Y-37205324D01*
X59141709Y-37532574D01*
X59141707Y-37532582D01*
X59082393Y-37868969D01*
X59082392Y-37868980D01*
X59062530Y-38209996D01*
X59062530Y-38210003D01*
X57437470Y-38210003D01*
X57437470Y-38210000D01*
X57417608Y-37868981D01*
X57362700Y-37557582D01*
X57358292Y-37532582D01*
X57358290Y-37532574D01*
X57267803Y-37230326D01*
X57260319Y-37205326D01*
X57125019Y-36891666D01*
X56954220Y-36595834D01*
X56954218Y-36595831D01*
X56954215Y-36595826D01*
X56811037Y-36403504D01*
X56786793Y-36337976D01*
X56786500Y-36329457D01*
X56786500Y-35149448D01*
X56806185Y-35082409D01*
X56811038Y-35075399D01*
X56813799Y-35071689D01*
X56838728Y-35038205D01*
X57001489Y-34756295D01*
X57130421Y-34457395D01*
X57223782Y-34145548D01*
X57280309Y-33824971D01*
X57299236Y-33500000D01*
X57280309Y-33175029D01*
X57228191Y-32879455D01*
X57223785Y-32854466D01*
X57223783Y-32854460D01*
X57223782Y-32854452D01*
X57130421Y-32542605D01*
X57001489Y-32243705D01*
X56838728Y-31961795D01*
X56838727Y-31961793D01*
X56644342Y-31700689D01*
X56644337Y-31700683D01*
X56444538Y-31488910D01*
X56420952Y-31463910D01*
X56420945Y-31463904D01*
X56420943Y-31463902D01*
X56171592Y-31254670D01*
X55899612Y-31075787D01*
X55899610Y-31075786D01*
X55608728Y-30929698D01*
X55608722Y-30929696D01*
X55302831Y-30818361D01*
X55302829Y-30818360D01*
X55061151Y-30761082D01*
X54986082Y-30743291D01*
X54662761Y-30705500D01*
X54337239Y-30705500D01*
X54013918Y-30743291D01*
X53697170Y-30818360D01*
X53697168Y-30818361D01*
X53391277Y-30929696D01*
X53391271Y-30929698D01*
X53100389Y-31075786D01*
X53100387Y-31075787D01*
X52828407Y-31254670D01*
X52579056Y-31463902D01*
X52579046Y-31463912D01*
X52355662Y-31700683D01*
X52355657Y-31700689D01*
X52161272Y-31961793D01*
X51998513Y-32243700D01*
X51998507Y-32243713D01*
X51869578Y-32542605D01*
X51776217Y-32854455D01*
X51776214Y-32854466D01*
X51719692Y-33175020D01*
X51719691Y-33175028D01*
X51700764Y-33499996D01*
X51700764Y-33500003D01*
X51719691Y-33824971D01*
X51719692Y-33824979D01*
X51776214Y-34145533D01*
X51776217Y-34145544D01*
X51869578Y-34457394D01*
X51998507Y-34756286D01*
X51998513Y-34756299D01*
X52161273Y-35038207D01*
X52188962Y-35075399D01*
X52213207Y-35140927D01*
X52213500Y-35149448D01*
X52213500Y-36329457D01*
X52193815Y-36396496D01*
X52188963Y-36403504D01*
X52045784Y-36595826D01*
X52045777Y-36595838D01*
X51874983Y-36891661D01*
X51874977Y-36891674D01*
X51739681Y-37205324D01*
X51641709Y-37532574D01*
X51641707Y-37532582D01*
X51582393Y-37868969D01*
X51582392Y-37868980D01*
X51562530Y-38209996D01*
X51562530Y-38210003D01*
X49937470Y-38210003D01*
X49937470Y-38210000D01*
X49917608Y-37868981D01*
X49862700Y-37557582D01*
X49858292Y-37532582D01*
X49858290Y-37532574D01*
X49767803Y-37230326D01*
X49760319Y-37205326D01*
X49625019Y-36891666D01*
X49454220Y-36595834D01*
X49454218Y-36595831D01*
X49454215Y-36595826D01*
X49311037Y-36403504D01*
X49286793Y-36337976D01*
X49286500Y-36329457D01*
X49286500Y-35149448D01*
X49306185Y-35082409D01*
X49311038Y-35075399D01*
X49313799Y-35071689D01*
X49338728Y-35038205D01*
X49501489Y-34756295D01*
X49630421Y-34457395D01*
X49723782Y-34145548D01*
X49780309Y-33824971D01*
X49799236Y-33500000D01*
X49780309Y-33175029D01*
X49728191Y-32879455D01*
X49723785Y-32854466D01*
X49723783Y-32854460D01*
X49723782Y-32854452D01*
X49630421Y-32542605D01*
X49501489Y-32243705D01*
X49338728Y-31961795D01*
X49338727Y-31961793D01*
X49144342Y-31700689D01*
X49144337Y-31700683D01*
X48944538Y-31488910D01*
X48920952Y-31463910D01*
X48920945Y-31463904D01*
X48920943Y-31463902D01*
X48671592Y-31254670D01*
X48399612Y-31075787D01*
X48399610Y-31075786D01*
X48108728Y-30929698D01*
X48108722Y-30929696D01*
X47802831Y-30818361D01*
X47802829Y-30818360D01*
X47561151Y-30761082D01*
X47486082Y-30743291D01*
X47162761Y-30705500D01*
X46837239Y-30705500D01*
X46513918Y-30743291D01*
X46197170Y-30818360D01*
X46197168Y-30818361D01*
X45891277Y-30929696D01*
X45891271Y-30929698D01*
X45600389Y-31075786D01*
X45600387Y-31075787D01*
X45328407Y-31254670D01*
X45079056Y-31463902D01*
X45079046Y-31463912D01*
X44855662Y-31700683D01*
X44855657Y-31700689D01*
X44661272Y-31961793D01*
X44498513Y-32243700D01*
X44498507Y-32243713D01*
X44369578Y-32542605D01*
X44276217Y-32854455D01*
X44276214Y-32854466D01*
X44219692Y-33175020D01*
X44219691Y-33175028D01*
X44200764Y-33499996D01*
X44200764Y-33500003D01*
X44219691Y-33824971D01*
X44219692Y-33824979D01*
X44276214Y-34145533D01*
X44276217Y-34145544D01*
X44369578Y-34457394D01*
X44498507Y-34756286D01*
X44498513Y-34756299D01*
X44661273Y-35038207D01*
X44688962Y-35075399D01*
X44713207Y-35140927D01*
X44713500Y-35149448D01*
X44713500Y-36329457D01*
X44693815Y-36396496D01*
X44688963Y-36403504D01*
X44545784Y-36595826D01*
X44545777Y-36595838D01*
X44374983Y-36891661D01*
X44374977Y-36891674D01*
X44239681Y-37205324D01*
X44141709Y-37532574D01*
X44141707Y-37532582D01*
X44082393Y-37868969D01*
X44082392Y-37868980D01*
X44062530Y-38209996D01*
X44062530Y-38210003D01*
X36000500Y-38210003D01*
X36000500Y-30582706D01*
X36000618Y-30577298D01*
X36003377Y-30514108D01*
X36017690Y-30186255D01*
X36018629Y-30175524D01*
X36069367Y-29790137D01*
X36071240Y-29779510D01*
X36155375Y-29400004D01*
X36158166Y-29389589D01*
X36275057Y-29018857D01*
X36278741Y-29008736D01*
X36427498Y-28649603D01*
X36432056Y-28639829D01*
X36611540Y-28295045D01*
X36616935Y-28285700D01*
X36825793Y-27957858D01*
X36831983Y-27949018D01*
X37068612Y-27640637D01*
X37075550Y-27632368D01*
X37338157Y-27345783D01*
X37345783Y-27338157D01*
X37632368Y-27075550D01*
X37640637Y-27068612D01*
X37949018Y-26831983D01*
X37957858Y-26825793D01*
X38285700Y-26616935D01*
X38295045Y-26611540D01*
X38639829Y-26432056D01*
X38649603Y-26427498D01*
X39008736Y-26278741D01*
X39018857Y-26275057D01*
X39389589Y-26158166D01*
X39400004Y-26155375D01*
X39779510Y-26071240D01*
X39790137Y-26069367D01*
X40175524Y-26018629D01*
X40186255Y-26017690D01*
X40564776Y-26001164D01*
X40577298Y-26000618D01*
X40582706Y-26000500D01*
X40645892Y-26000500D01*
X105354108Y-26000500D01*
X105417294Y-26000500D01*
X105422702Y-26000618D01*
G37*
%TD.AperFunction*%
%TD*%
M02*
