%TF.GenerationSoftware,KiCad,Pcbnew,8.0.1-rc1*%
%TF.CreationDate,2024-04-18T22:24:46-05:00*%
%TF.ProjectId,Emotion LED,456d6f74-696f-46e2-904c-45442e6b6963,rev?*%
%TF.SameCoordinates,Original*%
%TF.FileFunction,Copper,L2,Bot*%
%TF.FilePolarity,Positive*%
%FSLAX46Y46*%
G04 Gerber Fmt 4.6, Leading zero omitted, Abs format (unit mm)*
G04 Created by KiCad (PCBNEW 8.0.1-rc1) date 2024-04-18 22:24:46*
%MOMM*%
%LPD*%
G01*
G04 APERTURE LIST*
%TA.AperFunction,ComponentPad*%
%ADD10C,1.524000*%
%TD*%
%TA.AperFunction,ComponentPad*%
%ADD11C,1.800000*%
%TD*%
%TA.AperFunction,ComponentPad*%
%ADD12R,1.800000X1.800000*%
%TD*%
G04 APERTURE END LIST*
D10*
%TO.P,,1*%
%TO.N,N/C*%
X99500000Y-42000000D03*
%TD*%
%TO.P,,1*%
%TO.N,N/C*%
X99500000Y-50000000D03*
%TD*%
%TO.P,REF\u002A\u002A,1*%
%TO.N,N/C*%
X47000000Y-45000000D03*
%TO.P,REF\u002A\u002A,2*%
X47000000Y-55000000D03*
%TD*%
D11*
%TO.P,REF\u002A\u002A,2*%
%TO.N,N/C*%
X77000000Y-38235000D03*
D12*
%TO.P,REF\u002A\u002A,1*%
X77000000Y-40775000D03*
%TD*%
D10*
%TO.P,REF\u002A\u002A,2*%
%TO.N,N/C*%
X84500000Y-55025000D03*
%TO.P,REF\u002A\u002A,1*%
X84500000Y-45025000D03*
%TD*%
%TO.P,REF\u002A\u002A,2*%
%TO.N,N/C*%
X69500000Y-55000000D03*
%TO.P,REF\u002A\u002A,1*%
X69500000Y-45000000D03*
%TD*%
D11*
%TO.P,REF\u002A\u002A,2*%
%TO.N,N/C*%
X84500000Y-38235000D03*
D12*
%TO.P,REF\u002A\u002A,1*%
X84500000Y-40775000D03*
%TD*%
%TO.P,REF\u002A\u002A,1*%
%TO.N,N/C*%
X47000000Y-40750000D03*
D11*
%TO.P,REF\u002A\u002A,2*%
X47000000Y-38210000D03*
%TD*%
D10*
%TO.P,REF\u002A\u002A,2*%
%TO.N,N/C*%
X62000000Y-55000000D03*
%TO.P,REF\u002A\u002A,1*%
X62000000Y-45000000D03*
%TD*%
%TO.P,,2*%
%TO.N,N/C*%
X99500000Y-33500000D03*
%TD*%
%TO.P,,1*%
%TO.N,N/C*%
X69500000Y-33500000D03*
%TD*%
%TO.P,,1*%
%TO.N,N/C*%
X62000000Y-33500000D03*
%TD*%
%TO.P,,1*%
%TO.N,N/C*%
X47000000Y-33500000D03*
%TD*%
D12*
%TO.P,REF\u002A\u002A,1*%
%TO.N,N/C*%
X62000000Y-40750000D03*
D11*
%TO.P,REF\u002A\u002A,2*%
X62000000Y-38210000D03*
%TD*%
D10*
%TO.P,,1*%
%TO.N,N/C*%
X84500000Y-33525000D03*
%TD*%
%TO.P,,1*%
%TO.N,N/C*%
X77000000Y-33525000D03*
%TD*%
%TO.P,,1*%
%TO.N,N/C*%
X54500000Y-33500000D03*
%TD*%
D11*
%TO.P,REF\u002A\u002A,2*%
%TO.N,N/C*%
X92000000Y-38210000D03*
D12*
%TO.P,REF\u002A\u002A,1*%
X92000000Y-40750000D03*
%TD*%
D11*
%TO.P,REF\u002A\u002A,2*%
%TO.N,N/C*%
X69500000Y-38210000D03*
D12*
%TO.P,REF\u002A\u002A,1*%
X69500000Y-40750000D03*
%TD*%
D10*
%TO.P,,1*%
%TO.N,N/C*%
X92000000Y-33500000D03*
%TD*%
D12*
%TO.P,REF\u002A\u002A,1*%
%TO.N,N/C*%
X54500000Y-40750000D03*
D11*
%TO.P,REF\u002A\u002A,2*%
X54500000Y-38210000D03*
%TD*%
D10*
%TO.P,REF\u002A\u002A,2*%
%TO.N,N/C*%
X77000000Y-55025000D03*
%TO.P,REF\u002A\u002A,1*%
X77000000Y-45025000D03*
%TD*%
%TO.P,REF\u002A\u002A,1*%
%TO.N,N/C*%
X54500000Y-45000000D03*
%TO.P,REF\u002A\u002A,2*%
X54500000Y-55000000D03*
%TD*%
%TO.P,REF\u002A\u002A,2*%
%TO.N,N/C*%
X92000000Y-55000000D03*
%TO.P,REF\u002A\u002A,1*%
X92000000Y-45000000D03*
%TD*%
%TA.AperFunction,Conductor*%
%TO.N,GRD*%
G36*
X105422702Y-26000618D02*
G01*
X105435819Y-26001190D01*
X105813742Y-26017690D01*
X105824477Y-26018630D01*
X106209859Y-26069366D01*
X106220493Y-26071241D01*
X106599990Y-26155374D01*
X106610416Y-26158168D01*
X106981135Y-26275055D01*
X106991270Y-26278744D01*
X107350387Y-26427495D01*
X107360178Y-26432061D01*
X107704942Y-26611534D01*
X107714309Y-26616941D01*
X107984434Y-26789030D01*
X108042130Y-26825786D01*
X108050991Y-26831991D01*
X108359353Y-27068605D01*
X108367640Y-27075559D01*
X108654204Y-27338146D01*
X108661853Y-27345795D01*
X108924440Y-27632359D01*
X108931394Y-27640646D01*
X109168008Y-27949008D01*
X109174213Y-27957869D01*
X109383057Y-28285689D01*
X109388465Y-28295057D01*
X109567935Y-28639814D01*
X109572507Y-28649618D01*
X109721249Y-29008714D01*
X109724949Y-29018879D01*
X109841828Y-29389572D01*
X109844628Y-29400021D01*
X109928756Y-29779498D01*
X109930634Y-29790151D01*
X109981367Y-30175499D01*
X109982310Y-30186276D01*
X109999382Y-30577297D01*
X109999500Y-30582706D01*
X109999500Y-52917293D01*
X109999382Y-52922702D01*
X109982310Y-53313723D01*
X109981367Y-53324500D01*
X109930634Y-53709848D01*
X109928756Y-53720501D01*
X109844628Y-54099978D01*
X109841828Y-54110427D01*
X109724949Y-54481120D01*
X109721249Y-54491285D01*
X109572507Y-54850381D01*
X109567935Y-54860185D01*
X109388465Y-55204942D01*
X109383057Y-55214310D01*
X109174213Y-55542130D01*
X109168008Y-55550991D01*
X108931394Y-55859353D01*
X108924440Y-55867640D01*
X108661853Y-56154204D01*
X108654204Y-56161853D01*
X108367640Y-56424440D01*
X108359353Y-56431394D01*
X108050991Y-56668008D01*
X108042130Y-56674213D01*
X107714310Y-56883057D01*
X107704942Y-56888465D01*
X107360185Y-57067935D01*
X107350381Y-57072507D01*
X106991285Y-57221249D01*
X106981120Y-57224949D01*
X106610427Y-57341828D01*
X106599978Y-57344628D01*
X106220501Y-57428756D01*
X106209848Y-57430634D01*
X105824500Y-57481367D01*
X105813723Y-57482310D01*
X105422703Y-57499382D01*
X105417294Y-57499500D01*
X40582706Y-57499500D01*
X40577297Y-57499382D01*
X40186276Y-57482310D01*
X40175501Y-57481367D01*
X40086792Y-57469688D01*
X39790151Y-57430634D01*
X39779498Y-57428756D01*
X39400021Y-57344628D01*
X39389572Y-57341828D01*
X39018879Y-57224949D01*
X39008714Y-57221249D01*
X38649618Y-57072507D01*
X38639814Y-57067935D01*
X38295057Y-56888465D01*
X38285689Y-56883057D01*
X37957869Y-56674213D01*
X37949008Y-56668008D01*
X37640646Y-56431394D01*
X37632359Y-56424440D01*
X37345795Y-56161853D01*
X37338146Y-56154204D01*
X37075559Y-55867640D01*
X37068605Y-55859353D01*
X36831991Y-55550991D01*
X36825786Y-55542130D01*
X36616942Y-55214310D01*
X36611534Y-55204942D01*
X36517862Y-55025000D01*
X36504848Y-55000000D01*
X44962751Y-55000000D01*
X44981725Y-55277405D01*
X44981726Y-55277407D01*
X45038294Y-55549631D01*
X45038299Y-55549648D01*
X45131411Y-55811640D01*
X45131412Y-55811642D01*
X45259335Y-56058522D01*
X45419683Y-56285683D01*
X45609469Y-56488895D01*
X45609474Y-56488899D01*
X45609476Y-56488901D01*
X45825152Y-56664366D01*
X45825155Y-56664368D01*
X45825159Y-56664371D01*
X45866262Y-56689366D01*
X46062734Y-56808844D01*
X46233591Y-56883057D01*
X46317767Y-56919620D01*
X46585509Y-56994638D01*
X46827685Y-57027924D01*
X46860972Y-57032500D01*
X46860973Y-57032500D01*
X47139028Y-57032500D01*
X47168725Y-57028417D01*
X47414491Y-56994638D01*
X47682233Y-56919620D01*
X47937267Y-56808843D01*
X48174841Y-56664371D01*
X48390531Y-56488895D01*
X48580317Y-56285683D01*
X48740665Y-56058522D01*
X48868588Y-55811642D01*
X48961702Y-55549643D01*
X48961703Y-55549636D01*
X48961705Y-55549631D01*
X49013078Y-55302407D01*
X49018274Y-55277405D01*
X49037249Y-55000000D01*
X52462751Y-55000000D01*
X52481725Y-55277405D01*
X52481726Y-55277407D01*
X52538294Y-55549631D01*
X52538299Y-55549648D01*
X52631411Y-55811640D01*
X52631412Y-55811642D01*
X52759335Y-56058522D01*
X52919683Y-56285683D01*
X53109469Y-56488895D01*
X53109474Y-56488899D01*
X53109476Y-56488901D01*
X53325152Y-56664366D01*
X53325155Y-56664368D01*
X53325159Y-56664371D01*
X53366262Y-56689366D01*
X53562734Y-56808844D01*
X53733591Y-56883057D01*
X53817767Y-56919620D01*
X54085509Y-56994638D01*
X54327685Y-57027924D01*
X54360972Y-57032500D01*
X54360973Y-57032500D01*
X54639028Y-57032500D01*
X54668725Y-57028417D01*
X54914491Y-56994638D01*
X55182233Y-56919620D01*
X55437267Y-56808843D01*
X55674841Y-56664371D01*
X55890531Y-56488895D01*
X56080317Y-56285683D01*
X56240665Y-56058522D01*
X56368588Y-55811642D01*
X56461702Y-55549643D01*
X56461703Y-55549636D01*
X56461705Y-55549631D01*
X56513078Y-55302407D01*
X56518274Y-55277405D01*
X56537249Y-55000000D01*
X59962751Y-55000000D01*
X59981725Y-55277405D01*
X59981726Y-55277407D01*
X60038294Y-55549631D01*
X60038299Y-55549648D01*
X60131411Y-55811640D01*
X60131412Y-55811642D01*
X60259335Y-56058522D01*
X60419683Y-56285683D01*
X60609469Y-56488895D01*
X60609474Y-56488899D01*
X60609476Y-56488901D01*
X60825152Y-56664366D01*
X60825155Y-56664368D01*
X60825159Y-56664371D01*
X60866262Y-56689366D01*
X61062734Y-56808844D01*
X61233591Y-56883057D01*
X61317767Y-56919620D01*
X61585509Y-56994638D01*
X61827685Y-57027924D01*
X61860972Y-57032500D01*
X61860973Y-57032500D01*
X62139028Y-57032500D01*
X62168725Y-57028417D01*
X62414491Y-56994638D01*
X62682233Y-56919620D01*
X62937267Y-56808843D01*
X63174841Y-56664371D01*
X63390531Y-56488895D01*
X63580317Y-56285683D01*
X63740665Y-56058522D01*
X63868588Y-55811642D01*
X63961702Y-55549643D01*
X63961703Y-55549636D01*
X63961705Y-55549631D01*
X64013078Y-55302407D01*
X64018274Y-55277405D01*
X64037249Y-55000000D01*
X67462751Y-55000000D01*
X67481725Y-55277405D01*
X67481726Y-55277407D01*
X67538294Y-55549631D01*
X67538299Y-55549648D01*
X67631411Y-55811640D01*
X67631412Y-55811642D01*
X67759335Y-56058522D01*
X67919683Y-56285683D01*
X68109469Y-56488895D01*
X68109474Y-56488899D01*
X68109476Y-56488901D01*
X68325152Y-56664366D01*
X68325155Y-56664368D01*
X68325159Y-56664371D01*
X68366262Y-56689366D01*
X68562734Y-56808844D01*
X68733591Y-56883057D01*
X68817767Y-56919620D01*
X69085509Y-56994638D01*
X69327685Y-57027924D01*
X69360972Y-57032500D01*
X69360973Y-57032500D01*
X69639028Y-57032500D01*
X69668725Y-57028417D01*
X69914491Y-56994638D01*
X70182233Y-56919620D01*
X70437267Y-56808843D01*
X70674841Y-56664371D01*
X70890531Y-56488895D01*
X71080317Y-56285683D01*
X71240665Y-56058522D01*
X71368588Y-55811642D01*
X71461702Y-55549643D01*
X71461703Y-55549636D01*
X71461705Y-55549631D01*
X71513078Y-55302407D01*
X71518274Y-55277405D01*
X71535539Y-55025000D01*
X74962751Y-55025000D01*
X74981725Y-55302405D01*
X74981726Y-55302407D01*
X75038294Y-55574631D01*
X75038299Y-55574648D01*
X75122526Y-55811640D01*
X75131412Y-55836642D01*
X75259335Y-56083522D01*
X75419683Y-56310683D01*
X75609469Y-56513895D01*
X75609474Y-56513899D01*
X75609476Y-56513901D01*
X75825152Y-56689366D01*
X75825155Y-56689368D01*
X75825159Y-56689371D01*
X75949794Y-56765163D01*
X76062734Y-56833844D01*
X76182725Y-56885963D01*
X76317767Y-56944620D01*
X76585509Y-57019638D01*
X76827685Y-57052924D01*
X76860972Y-57057500D01*
X76860973Y-57057500D01*
X77139028Y-57057500D01*
X77168725Y-57053417D01*
X77414491Y-57019638D01*
X77682233Y-56944620D01*
X77937267Y-56833843D01*
X78174841Y-56689371D01*
X78390531Y-56513895D01*
X78580317Y-56310683D01*
X78740665Y-56083522D01*
X78868588Y-55836642D01*
X78961702Y-55574643D01*
X78961703Y-55574636D01*
X78961705Y-55574631D01*
X78987965Y-55448256D01*
X79018274Y-55302405D01*
X79037249Y-55025000D01*
X82462751Y-55025000D01*
X82481725Y-55302405D01*
X82481726Y-55302407D01*
X82538294Y-55574631D01*
X82538299Y-55574648D01*
X82622526Y-55811640D01*
X82631412Y-55836642D01*
X82759335Y-56083522D01*
X82919683Y-56310683D01*
X83109469Y-56513895D01*
X83109474Y-56513899D01*
X83109476Y-56513901D01*
X83325152Y-56689366D01*
X83325155Y-56689368D01*
X83325159Y-56689371D01*
X83449794Y-56765163D01*
X83562734Y-56833844D01*
X83682725Y-56885963D01*
X83817767Y-56944620D01*
X84085509Y-57019638D01*
X84327685Y-57052924D01*
X84360972Y-57057500D01*
X84360973Y-57057500D01*
X84639028Y-57057500D01*
X84668725Y-57053417D01*
X84914491Y-57019638D01*
X85182233Y-56944620D01*
X85437267Y-56833843D01*
X85674841Y-56689371D01*
X85890531Y-56513895D01*
X86080317Y-56310683D01*
X86240665Y-56083522D01*
X86368588Y-55836642D01*
X86461702Y-55574643D01*
X86461703Y-55574636D01*
X86461705Y-55574631D01*
X86487965Y-55448256D01*
X86518274Y-55302405D01*
X86537249Y-55025000D01*
X86535539Y-55000000D01*
X89962751Y-55000000D01*
X89981725Y-55277405D01*
X89981726Y-55277407D01*
X90038294Y-55549631D01*
X90038299Y-55549648D01*
X90131411Y-55811640D01*
X90131412Y-55811642D01*
X90259335Y-56058522D01*
X90419683Y-56285683D01*
X90609469Y-56488895D01*
X90609474Y-56488899D01*
X90609476Y-56488901D01*
X90825152Y-56664366D01*
X90825155Y-56664368D01*
X90825159Y-56664371D01*
X90866262Y-56689366D01*
X91062734Y-56808844D01*
X91233591Y-56883057D01*
X91317767Y-56919620D01*
X91585509Y-56994638D01*
X91827685Y-57027924D01*
X91860972Y-57032500D01*
X91860973Y-57032500D01*
X92139028Y-57032500D01*
X92168725Y-57028417D01*
X92414491Y-56994638D01*
X92682233Y-56919620D01*
X92937267Y-56808843D01*
X93174841Y-56664371D01*
X93390531Y-56488895D01*
X93580317Y-56285683D01*
X93740665Y-56058522D01*
X93868588Y-55811642D01*
X93961702Y-55549643D01*
X93961703Y-55549636D01*
X93961705Y-55549631D01*
X94013078Y-55302407D01*
X94018274Y-55277405D01*
X94037249Y-55000000D01*
X94018274Y-54722595D01*
X93998742Y-54628604D01*
X93961705Y-54450368D01*
X93961700Y-54450351D01*
X93868588Y-54188359D01*
X93868588Y-54188358D01*
X93740665Y-53941478D01*
X93580317Y-53714317D01*
X93390531Y-53511105D01*
X93390524Y-53511100D01*
X93390523Y-53511098D01*
X93174847Y-53335633D01*
X93174836Y-53335626D01*
X92937265Y-53191155D01*
X92682236Y-53080381D01*
X92682234Y-53080380D01*
X92682233Y-53080380D01*
X92606059Y-53059037D01*
X92414496Y-53005363D01*
X92414492Y-53005362D01*
X92414491Y-53005362D01*
X92276759Y-52986431D01*
X92139028Y-52967500D01*
X92139027Y-52967500D01*
X91860973Y-52967500D01*
X91860972Y-52967500D01*
X91585509Y-53005362D01*
X91585503Y-53005363D01*
X91317763Y-53080381D01*
X91062734Y-53191155D01*
X90825163Y-53335626D01*
X90825152Y-53335633D01*
X90609476Y-53511098D01*
X90609470Y-53511103D01*
X90609469Y-53511105D01*
X90586121Y-53536105D01*
X90419684Y-53714316D01*
X90259335Y-53941477D01*
X90131411Y-54188359D01*
X90038299Y-54450351D01*
X90038294Y-54450368D01*
X89981726Y-54722592D01*
X89981725Y-54722594D01*
X89962751Y-55000000D01*
X86535539Y-55000000D01*
X86518274Y-54747595D01*
X86498742Y-54653604D01*
X86461705Y-54475368D01*
X86461700Y-54475351D01*
X86368588Y-54213359D01*
X86368588Y-54213358D01*
X86240665Y-53966478D01*
X86080317Y-53739317D01*
X85890531Y-53536105D01*
X85890524Y-53536100D01*
X85890523Y-53536098D01*
X85674847Y-53360633D01*
X85674836Y-53360626D01*
X85437265Y-53216155D01*
X85182236Y-53105381D01*
X85182234Y-53105380D01*
X85182233Y-53105380D01*
X85093007Y-53080380D01*
X84914496Y-53030363D01*
X84914492Y-53030362D01*
X84914491Y-53030362D01*
X84776759Y-53011431D01*
X84639028Y-52992500D01*
X84639027Y-52992500D01*
X84360973Y-52992500D01*
X84360972Y-52992500D01*
X84085509Y-53030362D01*
X84085503Y-53030363D01*
X83817763Y-53105381D01*
X83562734Y-53216155D01*
X83325163Y-53360626D01*
X83325152Y-53360633D01*
X83109476Y-53536098D01*
X82919684Y-53739316D01*
X82759335Y-53966477D01*
X82631411Y-54213359D01*
X82538299Y-54475351D01*
X82538294Y-54475368D01*
X82481726Y-54747592D01*
X82481725Y-54747594D01*
X82462751Y-55025000D01*
X79037249Y-55025000D01*
X79018274Y-54747595D01*
X78998742Y-54653604D01*
X78961705Y-54475368D01*
X78961700Y-54475351D01*
X78868588Y-54213359D01*
X78868588Y-54213358D01*
X78740665Y-53966478D01*
X78580317Y-53739317D01*
X78390531Y-53536105D01*
X78390524Y-53536100D01*
X78390523Y-53536098D01*
X78174847Y-53360633D01*
X78174836Y-53360626D01*
X77937265Y-53216155D01*
X77682236Y-53105381D01*
X77682234Y-53105380D01*
X77682233Y-53105380D01*
X77593007Y-53080380D01*
X77414496Y-53030363D01*
X77414492Y-53030362D01*
X77414491Y-53030362D01*
X77276759Y-53011431D01*
X77139028Y-52992500D01*
X77139027Y-52992500D01*
X76860973Y-52992500D01*
X76860972Y-52992500D01*
X76585509Y-53030362D01*
X76585503Y-53030363D01*
X76317763Y-53105381D01*
X76062734Y-53216155D01*
X75825163Y-53360626D01*
X75825152Y-53360633D01*
X75609476Y-53536098D01*
X75419684Y-53739316D01*
X75259335Y-53966477D01*
X75131411Y-54213359D01*
X75038299Y-54475351D01*
X75038294Y-54475368D01*
X74981726Y-54747592D01*
X74981725Y-54747594D01*
X74962751Y-55025000D01*
X71535539Y-55025000D01*
X71537249Y-55000000D01*
X71518274Y-54722595D01*
X71498742Y-54628604D01*
X71461705Y-54450368D01*
X71461700Y-54450351D01*
X71368588Y-54188359D01*
X71368588Y-54188358D01*
X71240665Y-53941478D01*
X71080317Y-53714317D01*
X70890531Y-53511105D01*
X70890524Y-53511100D01*
X70890523Y-53511098D01*
X70674847Y-53335633D01*
X70674836Y-53335626D01*
X70437265Y-53191155D01*
X70182236Y-53080381D01*
X70182234Y-53080380D01*
X70182233Y-53080380D01*
X70106059Y-53059037D01*
X69914496Y-53005363D01*
X69914492Y-53005362D01*
X69914491Y-53005362D01*
X69776759Y-52986431D01*
X69639028Y-52967500D01*
X69639027Y-52967500D01*
X69360973Y-52967500D01*
X69360972Y-52967500D01*
X69085509Y-53005362D01*
X69085503Y-53005363D01*
X68817763Y-53080381D01*
X68562734Y-53191155D01*
X68325163Y-53335626D01*
X68325152Y-53335633D01*
X68109476Y-53511098D01*
X68109470Y-53511103D01*
X68109469Y-53511105D01*
X68086121Y-53536105D01*
X67919684Y-53714316D01*
X67759335Y-53941477D01*
X67631411Y-54188359D01*
X67538299Y-54450351D01*
X67538294Y-54450368D01*
X67481726Y-54722592D01*
X67481725Y-54722594D01*
X67462751Y-55000000D01*
X64037249Y-55000000D01*
X64018274Y-54722595D01*
X63998742Y-54628604D01*
X63961705Y-54450368D01*
X63961700Y-54450351D01*
X63868588Y-54188359D01*
X63868588Y-54188358D01*
X63740665Y-53941478D01*
X63580317Y-53714317D01*
X63390531Y-53511105D01*
X63390524Y-53511100D01*
X63390523Y-53511098D01*
X63174847Y-53335633D01*
X63174836Y-53335626D01*
X62937265Y-53191155D01*
X62682236Y-53080381D01*
X62682234Y-53080380D01*
X62682233Y-53080380D01*
X62606059Y-53059037D01*
X62414496Y-53005363D01*
X62414492Y-53005362D01*
X62414491Y-53005362D01*
X62276759Y-52986431D01*
X62139028Y-52967500D01*
X62139027Y-52967500D01*
X61860973Y-52967500D01*
X61860972Y-52967500D01*
X61585509Y-53005362D01*
X61585503Y-53005363D01*
X61317763Y-53080381D01*
X61062734Y-53191155D01*
X60825163Y-53335626D01*
X60825152Y-53335633D01*
X60609476Y-53511098D01*
X60609470Y-53511103D01*
X60609469Y-53511105D01*
X60586121Y-53536105D01*
X60419684Y-53714316D01*
X60259335Y-53941477D01*
X60131411Y-54188359D01*
X60038299Y-54450351D01*
X60038294Y-54450368D01*
X59981726Y-54722592D01*
X59981725Y-54722594D01*
X59962751Y-55000000D01*
X56537249Y-55000000D01*
X56518274Y-54722595D01*
X56498742Y-54628604D01*
X56461705Y-54450368D01*
X56461700Y-54450351D01*
X56368588Y-54188359D01*
X56368588Y-54188358D01*
X56240665Y-53941478D01*
X56080317Y-53714317D01*
X55890531Y-53511105D01*
X55890524Y-53511100D01*
X55890523Y-53511098D01*
X55674847Y-53335633D01*
X55674836Y-53335626D01*
X55437265Y-53191155D01*
X55182236Y-53080381D01*
X55182234Y-53080380D01*
X55182233Y-53080380D01*
X55106059Y-53059037D01*
X54914496Y-53005363D01*
X54914492Y-53005362D01*
X54914491Y-53005362D01*
X54776759Y-52986431D01*
X54639028Y-52967500D01*
X54639027Y-52967500D01*
X54360973Y-52967500D01*
X54360972Y-52967500D01*
X54085509Y-53005362D01*
X54085503Y-53005363D01*
X53817763Y-53080381D01*
X53562734Y-53191155D01*
X53325163Y-53335626D01*
X53325152Y-53335633D01*
X53109476Y-53511098D01*
X53109470Y-53511103D01*
X53109469Y-53511105D01*
X53086121Y-53536105D01*
X52919684Y-53714316D01*
X52759335Y-53941477D01*
X52631411Y-54188359D01*
X52538299Y-54450351D01*
X52538294Y-54450368D01*
X52481726Y-54722592D01*
X52481725Y-54722594D01*
X52462751Y-55000000D01*
X49037249Y-55000000D01*
X49018274Y-54722595D01*
X48998742Y-54628604D01*
X48961705Y-54450368D01*
X48961700Y-54450351D01*
X48868588Y-54188359D01*
X48868588Y-54188358D01*
X48740665Y-53941478D01*
X48580317Y-53714317D01*
X48390531Y-53511105D01*
X48390524Y-53511100D01*
X48390523Y-53511098D01*
X48174847Y-53335633D01*
X48174836Y-53335626D01*
X47937265Y-53191155D01*
X47682236Y-53080381D01*
X47682234Y-53080380D01*
X47682233Y-53080380D01*
X47606059Y-53059037D01*
X47414496Y-53005363D01*
X47414492Y-53005362D01*
X47414491Y-53005362D01*
X47276759Y-52986431D01*
X47139028Y-52967500D01*
X47139027Y-52967500D01*
X46860973Y-52967500D01*
X46860972Y-52967500D01*
X46585509Y-53005362D01*
X46585503Y-53005363D01*
X46317763Y-53080381D01*
X46062734Y-53191155D01*
X45825163Y-53335626D01*
X45825152Y-53335633D01*
X45609476Y-53511098D01*
X45609470Y-53511103D01*
X45609469Y-53511105D01*
X45586121Y-53536105D01*
X45419684Y-53714316D01*
X45259335Y-53941477D01*
X45131411Y-54188359D01*
X45038299Y-54450351D01*
X45038294Y-54450368D01*
X44981726Y-54722592D01*
X44981725Y-54722594D01*
X44962751Y-55000000D01*
X36504848Y-55000000D01*
X36432061Y-54860178D01*
X36427492Y-54850381D01*
X36384917Y-54747595D01*
X36278744Y-54491270D01*
X36275055Y-54481135D01*
X36158168Y-54110416D01*
X36155374Y-54099990D01*
X36071241Y-53720493D01*
X36069365Y-53709848D01*
X36018630Y-53324477D01*
X36017690Y-53313742D01*
X36000618Y-52922701D01*
X36000500Y-52917293D01*
X36000500Y-50000000D01*
X97462751Y-50000000D01*
X97481725Y-50277405D01*
X97481726Y-50277407D01*
X97538294Y-50549631D01*
X97538299Y-50549648D01*
X97631411Y-50811640D01*
X97631412Y-50811642D01*
X97759335Y-51058522D01*
X97919683Y-51285683D01*
X98109469Y-51488895D01*
X98109474Y-51488899D01*
X98109476Y-51488901D01*
X98325152Y-51664366D01*
X98325155Y-51664368D01*
X98325159Y-51664371D01*
X98449794Y-51740163D01*
X98562734Y-51808844D01*
X98736913Y-51884500D01*
X98817767Y-51919620D01*
X99085509Y-51994638D01*
X99327685Y-52027924D01*
X99360972Y-52032500D01*
X99360973Y-52032500D01*
X99639028Y-52032500D01*
X99668725Y-52028417D01*
X99914491Y-51994638D01*
X100182233Y-51919620D01*
X100437267Y-51808843D01*
X100674841Y-51664371D01*
X100890531Y-51488895D01*
X101080317Y-51285683D01*
X101240665Y-51058522D01*
X101368588Y-50811642D01*
X101461702Y-50549643D01*
X101461703Y-50549636D01*
X101461705Y-50549631D01*
X101487965Y-50423256D01*
X101518274Y-50277405D01*
X101537249Y-50000000D01*
X101518274Y-49722595D01*
X101498742Y-49628604D01*
X101461705Y-49450368D01*
X101461700Y-49450351D01*
X101368588Y-49188359D01*
X101368588Y-49188358D01*
X101240665Y-48941478D01*
X101080317Y-48714317D01*
X100890531Y-48511105D01*
X100890524Y-48511100D01*
X100890523Y-48511098D01*
X100674847Y-48335633D01*
X100674836Y-48335626D01*
X100437265Y-48191155D01*
X100182236Y-48080381D01*
X100182234Y-48080380D01*
X100182233Y-48080380D01*
X100106059Y-48059037D01*
X99914496Y-48005363D01*
X99914492Y-48005362D01*
X99914491Y-48005362D01*
X99776759Y-47986431D01*
X99639028Y-47967500D01*
X99639027Y-47967500D01*
X99360973Y-47967500D01*
X99360972Y-47967500D01*
X99085509Y-48005362D01*
X99085503Y-48005363D01*
X98817763Y-48080381D01*
X98562734Y-48191155D01*
X98325163Y-48335626D01*
X98325152Y-48335633D01*
X98109476Y-48511098D01*
X97919684Y-48714316D01*
X97759335Y-48941477D01*
X97631411Y-49188359D01*
X97538299Y-49450351D01*
X97538294Y-49450368D01*
X97481726Y-49722592D01*
X97481725Y-49722594D01*
X97462751Y-50000000D01*
X36000500Y-50000000D01*
X36000500Y-38210000D01*
X44824428Y-38210000D01*
X44844690Y-38506240D01*
X44844691Y-38506242D01*
X44905100Y-38796950D01*
X44905105Y-38796967D01*
X45004539Y-39076746D01*
X45004540Y-39076749D01*
X45006800Y-39081111D01*
X45020162Y-39149691D01*
X44998630Y-39208769D01*
X44990528Y-39220464D01*
X44895949Y-39428684D01*
X44840070Y-39650447D01*
X44829500Y-39784747D01*
X44829500Y-41715238D01*
X44829501Y-41715253D01*
X44838748Y-41832764D01*
X44840070Y-41849553D01*
X44895949Y-42071316D01*
X44907305Y-42096316D01*
X44990528Y-42279537D01*
X44990531Y-42279543D01*
X45120759Y-42467514D01*
X45120763Y-42467519D01*
X45120766Y-42467523D01*
X45282477Y-42629234D01*
X45282481Y-42629237D01*
X45282485Y-42629240D01*
X45470456Y-42759468D01*
X45470462Y-42759471D01*
X45470463Y-42759471D01*
X45470464Y-42759472D01*
X45678684Y-42854051D01*
X45900447Y-42909930D01*
X46034753Y-42920500D01*
X46089127Y-42920499D01*
X46156164Y-42940182D01*
X46201919Y-42992986D01*
X46211864Y-43062144D01*
X46182840Y-43125700D01*
X46138529Y-43158233D01*
X46062732Y-43191157D01*
X45825163Y-43335626D01*
X45825152Y-43335633D01*
X45609476Y-43511098D01*
X45609470Y-43511103D01*
X45609469Y-43511105D01*
X45586121Y-43536105D01*
X45419684Y-43714316D01*
X45259335Y-43941477D01*
X45131411Y-44188359D01*
X45038299Y-44450351D01*
X45038294Y-44450368D01*
X44981726Y-44722592D01*
X44981725Y-44722594D01*
X44962751Y-45000000D01*
X44981725Y-45277405D01*
X44981726Y-45277407D01*
X45038294Y-45549631D01*
X45038299Y-45549648D01*
X45131411Y-45811640D01*
X45131412Y-45811642D01*
X45259335Y-46058522D01*
X45419683Y-46285683D01*
X45609469Y-46488895D01*
X45609474Y-46488899D01*
X45609476Y-46488901D01*
X45825152Y-46664366D01*
X45825155Y-46664368D01*
X45825159Y-46664371D01*
X45866262Y-46689366D01*
X46062734Y-46808844D01*
X46236913Y-46884500D01*
X46317767Y-46919620D01*
X46585509Y-46994638D01*
X46827685Y-47027924D01*
X46860972Y-47032500D01*
X46860973Y-47032500D01*
X47139028Y-47032500D01*
X47168725Y-47028417D01*
X47414491Y-46994638D01*
X47682233Y-46919620D01*
X47937267Y-46808843D01*
X48174841Y-46664371D01*
X48390531Y-46488895D01*
X48580317Y-46285683D01*
X48740665Y-46058522D01*
X48868588Y-45811642D01*
X48961702Y-45549643D01*
X48961703Y-45549636D01*
X48961705Y-45549631D01*
X49013078Y-45302407D01*
X49018274Y-45277405D01*
X49037249Y-45000000D01*
X49018274Y-44722595D01*
X48998742Y-44628604D01*
X48961705Y-44450368D01*
X48961700Y-44450351D01*
X48868588Y-44188359D01*
X48868588Y-44188358D01*
X48740665Y-43941478D01*
X48580317Y-43714317D01*
X48390531Y-43511105D01*
X48390524Y-43511100D01*
X48390523Y-43511098D01*
X48174847Y-43335633D01*
X48174836Y-43335626D01*
X47937265Y-43191155D01*
X47937260Y-43191153D01*
X47861470Y-43158233D01*
X47807822Y-43113470D01*
X47786893Y-43046809D01*
X47805325Y-42979414D01*
X47857267Y-42932684D01*
X47910870Y-42920499D01*
X47965246Y-42920499D01*
X48099553Y-42909930D01*
X48321316Y-42854051D01*
X48529536Y-42759472D01*
X48529538Y-42759470D01*
X48529543Y-42759468D01*
X48717514Y-42629240D01*
X48717523Y-42629234D01*
X48879234Y-42467523D01*
X48907477Y-42426756D01*
X49009468Y-42279543D01*
X49009471Y-42279537D01*
X49009472Y-42279536D01*
X49104051Y-42071316D01*
X49159930Y-41849553D01*
X49170500Y-41715247D01*
X49170499Y-39784754D01*
X49159930Y-39650447D01*
X49104051Y-39428684D01*
X49009472Y-39220464D01*
X49001369Y-39208768D01*
X48979373Y-39142450D01*
X48993205Y-39081099D01*
X48995459Y-39076750D01*
X49094896Y-38796962D01*
X49094897Y-38796955D01*
X49094899Y-38796950D01*
X49122942Y-38661994D01*
X49155309Y-38506240D01*
X49175572Y-38210000D01*
X52324428Y-38210000D01*
X52344690Y-38506240D01*
X52344691Y-38506242D01*
X52405100Y-38796950D01*
X52405105Y-38796967D01*
X52504539Y-39076746D01*
X52504540Y-39076749D01*
X52506800Y-39081111D01*
X52520162Y-39149691D01*
X52498630Y-39208769D01*
X52490528Y-39220464D01*
X52395949Y-39428684D01*
X52340070Y-39650447D01*
X52329500Y-39784747D01*
X52329500Y-41715238D01*
X52329501Y-41715253D01*
X52338748Y-41832764D01*
X52340070Y-41849553D01*
X52395949Y-42071316D01*
X52407305Y-42096316D01*
X52490528Y-42279537D01*
X52490531Y-42279543D01*
X52620759Y-42467514D01*
X52620763Y-42467519D01*
X52620766Y-42467523D01*
X52782477Y-42629234D01*
X52782481Y-42629237D01*
X52782485Y-42629240D01*
X52970456Y-42759468D01*
X52970462Y-42759471D01*
X52970463Y-42759471D01*
X52970464Y-42759472D01*
X53178684Y-42854051D01*
X53400447Y-42909930D01*
X53534753Y-42920500D01*
X53589127Y-42920499D01*
X53656164Y-42940182D01*
X53701919Y-42992986D01*
X53711864Y-43062144D01*
X53682840Y-43125700D01*
X53638529Y-43158233D01*
X53562732Y-43191157D01*
X53325163Y-43335626D01*
X53325152Y-43335633D01*
X53109476Y-43511098D01*
X53109470Y-43511103D01*
X53109469Y-43511105D01*
X53086121Y-43536105D01*
X52919684Y-43714316D01*
X52759335Y-43941477D01*
X52631411Y-44188359D01*
X52538299Y-44450351D01*
X52538294Y-44450368D01*
X52481726Y-44722592D01*
X52481725Y-44722594D01*
X52462751Y-45000000D01*
X52481725Y-45277405D01*
X52481726Y-45277407D01*
X52538294Y-45549631D01*
X52538299Y-45549648D01*
X52631411Y-45811640D01*
X52631412Y-45811642D01*
X52759335Y-46058522D01*
X52919683Y-46285683D01*
X53109469Y-46488895D01*
X53109474Y-46488899D01*
X53109476Y-46488901D01*
X53325152Y-46664366D01*
X53325155Y-46664368D01*
X53325159Y-46664371D01*
X53366262Y-46689366D01*
X53562734Y-46808844D01*
X53736913Y-46884500D01*
X53817767Y-46919620D01*
X54085509Y-46994638D01*
X54327685Y-47027924D01*
X54360972Y-47032500D01*
X54360973Y-47032500D01*
X54639028Y-47032500D01*
X54668725Y-47028417D01*
X54914491Y-46994638D01*
X55182233Y-46919620D01*
X55437267Y-46808843D01*
X55674841Y-46664371D01*
X55890531Y-46488895D01*
X56080317Y-46285683D01*
X56240665Y-46058522D01*
X56368588Y-45811642D01*
X56461702Y-45549643D01*
X56461703Y-45549636D01*
X56461705Y-45549631D01*
X56513078Y-45302407D01*
X56518274Y-45277405D01*
X56537249Y-45000000D01*
X56518274Y-44722595D01*
X56498742Y-44628604D01*
X56461705Y-44450368D01*
X56461700Y-44450351D01*
X56368588Y-44188359D01*
X56368588Y-44188358D01*
X56240665Y-43941478D01*
X56080317Y-43714317D01*
X55890531Y-43511105D01*
X55890524Y-43511100D01*
X55890523Y-43511098D01*
X55674847Y-43335633D01*
X55674836Y-43335626D01*
X55437265Y-43191155D01*
X55437260Y-43191153D01*
X55361470Y-43158233D01*
X55307822Y-43113470D01*
X55286893Y-43046809D01*
X55305325Y-42979414D01*
X55357267Y-42932684D01*
X55410870Y-42920499D01*
X55465246Y-42920499D01*
X55599553Y-42909930D01*
X55821316Y-42854051D01*
X56029536Y-42759472D01*
X56029538Y-42759470D01*
X56029543Y-42759468D01*
X56217514Y-42629240D01*
X56217523Y-42629234D01*
X56379234Y-42467523D01*
X56407477Y-42426756D01*
X56509468Y-42279543D01*
X56509471Y-42279537D01*
X56509472Y-42279536D01*
X56604051Y-42071316D01*
X56659930Y-41849553D01*
X56670500Y-41715247D01*
X56670499Y-39784754D01*
X56659930Y-39650447D01*
X56604051Y-39428684D01*
X56509472Y-39220464D01*
X56501369Y-39208768D01*
X56479373Y-39142450D01*
X56493205Y-39081099D01*
X56495459Y-39076750D01*
X56594896Y-38796962D01*
X56594897Y-38796955D01*
X56594899Y-38796950D01*
X56622942Y-38661994D01*
X56655309Y-38506240D01*
X56675572Y-38210000D01*
X59824428Y-38210000D01*
X59844690Y-38506240D01*
X59844691Y-38506242D01*
X59905100Y-38796950D01*
X59905105Y-38796967D01*
X60004539Y-39076746D01*
X60004540Y-39076749D01*
X60006800Y-39081111D01*
X60020162Y-39149691D01*
X59998630Y-39208769D01*
X59990528Y-39220464D01*
X59895949Y-39428684D01*
X59840070Y-39650447D01*
X59829500Y-39784747D01*
X59829500Y-41715238D01*
X59829501Y-41715253D01*
X59838748Y-41832764D01*
X59840070Y-41849553D01*
X59895949Y-42071316D01*
X59907305Y-42096316D01*
X59990528Y-42279537D01*
X59990531Y-42279543D01*
X60120759Y-42467514D01*
X60120763Y-42467519D01*
X60120766Y-42467523D01*
X60282477Y-42629234D01*
X60282481Y-42629237D01*
X60282485Y-42629240D01*
X60470456Y-42759468D01*
X60470462Y-42759471D01*
X60470463Y-42759471D01*
X60470464Y-42759472D01*
X60678684Y-42854051D01*
X60900447Y-42909930D01*
X61034753Y-42920500D01*
X61089127Y-42920499D01*
X61156164Y-42940182D01*
X61201919Y-42992986D01*
X61211864Y-43062144D01*
X61182840Y-43125700D01*
X61138529Y-43158233D01*
X61062732Y-43191157D01*
X60825163Y-43335626D01*
X60825152Y-43335633D01*
X60609476Y-43511098D01*
X60609470Y-43511103D01*
X60609469Y-43511105D01*
X60586121Y-43536105D01*
X60419684Y-43714316D01*
X60259335Y-43941477D01*
X60131411Y-44188359D01*
X60038299Y-44450351D01*
X60038294Y-44450368D01*
X59981726Y-44722592D01*
X59981725Y-44722594D01*
X59962751Y-45000000D01*
X59981725Y-45277405D01*
X59981726Y-45277407D01*
X60038294Y-45549631D01*
X60038299Y-45549648D01*
X60131411Y-45811640D01*
X60131412Y-45811642D01*
X60259335Y-46058522D01*
X60419683Y-46285683D01*
X60609469Y-46488895D01*
X60609474Y-46488899D01*
X60609476Y-46488901D01*
X60825152Y-46664366D01*
X60825155Y-46664368D01*
X60825159Y-46664371D01*
X60866262Y-46689366D01*
X61062734Y-46808844D01*
X61236913Y-46884500D01*
X61317767Y-46919620D01*
X61585509Y-46994638D01*
X61827685Y-47027924D01*
X61860972Y-47032500D01*
X61860973Y-47032500D01*
X62139028Y-47032500D01*
X62168725Y-47028417D01*
X62414491Y-46994638D01*
X62682233Y-46919620D01*
X62937267Y-46808843D01*
X63174841Y-46664371D01*
X63390531Y-46488895D01*
X63580317Y-46285683D01*
X63740665Y-46058522D01*
X63868588Y-45811642D01*
X63961702Y-45549643D01*
X63961703Y-45549636D01*
X63961705Y-45549631D01*
X64013078Y-45302407D01*
X64018274Y-45277405D01*
X64037249Y-45000000D01*
X64018274Y-44722595D01*
X63998742Y-44628604D01*
X63961705Y-44450368D01*
X63961700Y-44450351D01*
X63868588Y-44188359D01*
X63868588Y-44188358D01*
X63740665Y-43941478D01*
X63580317Y-43714317D01*
X63390531Y-43511105D01*
X63390524Y-43511100D01*
X63390523Y-43511098D01*
X63174847Y-43335633D01*
X63174836Y-43335626D01*
X62937265Y-43191155D01*
X62937260Y-43191153D01*
X62861470Y-43158233D01*
X62807822Y-43113470D01*
X62786893Y-43046809D01*
X62805325Y-42979414D01*
X62857267Y-42932684D01*
X62910870Y-42920499D01*
X62965246Y-42920499D01*
X63099553Y-42909930D01*
X63321316Y-42854051D01*
X63529536Y-42759472D01*
X63529538Y-42759470D01*
X63529543Y-42759468D01*
X63717514Y-42629240D01*
X63717523Y-42629234D01*
X63879234Y-42467523D01*
X63907477Y-42426756D01*
X64009468Y-42279543D01*
X64009471Y-42279537D01*
X64009472Y-42279536D01*
X64104051Y-42071316D01*
X64159930Y-41849553D01*
X64170500Y-41715247D01*
X64170499Y-39784754D01*
X64159930Y-39650447D01*
X64104051Y-39428684D01*
X64009472Y-39220464D01*
X64001369Y-39208768D01*
X63979373Y-39142450D01*
X63993205Y-39081099D01*
X63995459Y-39076750D01*
X64094896Y-38796962D01*
X64094897Y-38796955D01*
X64094899Y-38796950D01*
X64122942Y-38661994D01*
X64155309Y-38506240D01*
X64175572Y-38210000D01*
X67324428Y-38210000D01*
X67344690Y-38506240D01*
X67344691Y-38506242D01*
X67405100Y-38796950D01*
X67405105Y-38796967D01*
X67504539Y-39076746D01*
X67504540Y-39076749D01*
X67506800Y-39081111D01*
X67520162Y-39149691D01*
X67498630Y-39208769D01*
X67490528Y-39220464D01*
X67395949Y-39428684D01*
X67340070Y-39650447D01*
X67329500Y-39784747D01*
X67329500Y-41715238D01*
X67329501Y-41715253D01*
X67338748Y-41832764D01*
X67340070Y-41849553D01*
X67395949Y-42071316D01*
X67407305Y-42096316D01*
X67490528Y-42279537D01*
X67490531Y-42279543D01*
X67620759Y-42467514D01*
X67620763Y-42467519D01*
X67620766Y-42467523D01*
X67782477Y-42629234D01*
X67782481Y-42629237D01*
X67782485Y-42629240D01*
X67970456Y-42759468D01*
X67970462Y-42759471D01*
X67970463Y-42759471D01*
X67970464Y-42759472D01*
X68178684Y-42854051D01*
X68400447Y-42909930D01*
X68534753Y-42920500D01*
X68589127Y-42920499D01*
X68656164Y-42940182D01*
X68701919Y-42992986D01*
X68711864Y-43062144D01*
X68682840Y-43125700D01*
X68638529Y-43158233D01*
X68562732Y-43191157D01*
X68325163Y-43335626D01*
X68325152Y-43335633D01*
X68109476Y-43511098D01*
X68109470Y-43511103D01*
X68109469Y-43511105D01*
X68086121Y-43536105D01*
X67919684Y-43714316D01*
X67759335Y-43941477D01*
X67631411Y-44188359D01*
X67538299Y-44450351D01*
X67538294Y-44450368D01*
X67481726Y-44722592D01*
X67481725Y-44722594D01*
X67462751Y-45000000D01*
X67481725Y-45277405D01*
X67481726Y-45277407D01*
X67538294Y-45549631D01*
X67538299Y-45549648D01*
X67631411Y-45811640D01*
X67631412Y-45811642D01*
X67759335Y-46058522D01*
X67919683Y-46285683D01*
X68109469Y-46488895D01*
X68109474Y-46488899D01*
X68109476Y-46488901D01*
X68325152Y-46664366D01*
X68325155Y-46664368D01*
X68325159Y-46664371D01*
X68366262Y-46689366D01*
X68562734Y-46808844D01*
X68736913Y-46884500D01*
X68817767Y-46919620D01*
X69085509Y-46994638D01*
X69327685Y-47027924D01*
X69360972Y-47032500D01*
X69360973Y-47032500D01*
X69639028Y-47032500D01*
X69668725Y-47028417D01*
X69914491Y-46994638D01*
X70182233Y-46919620D01*
X70437267Y-46808843D01*
X70674841Y-46664371D01*
X70890531Y-46488895D01*
X71080317Y-46285683D01*
X71240665Y-46058522D01*
X71368588Y-45811642D01*
X71461702Y-45549643D01*
X71461703Y-45549636D01*
X71461705Y-45549631D01*
X71513078Y-45302407D01*
X71518274Y-45277405D01*
X71537249Y-45000000D01*
X71518274Y-44722595D01*
X71498742Y-44628604D01*
X71461705Y-44450368D01*
X71461700Y-44450351D01*
X71368588Y-44188359D01*
X71368588Y-44188358D01*
X71240665Y-43941478D01*
X71080317Y-43714317D01*
X70890531Y-43511105D01*
X70890524Y-43511100D01*
X70890523Y-43511098D01*
X70674847Y-43335633D01*
X70674836Y-43335626D01*
X70437265Y-43191155D01*
X70437260Y-43191153D01*
X70361470Y-43158233D01*
X70307822Y-43113470D01*
X70286893Y-43046809D01*
X70305325Y-42979414D01*
X70357267Y-42932684D01*
X70410870Y-42920499D01*
X70465246Y-42920499D01*
X70599553Y-42909930D01*
X70821316Y-42854051D01*
X71029536Y-42759472D01*
X71029538Y-42759470D01*
X71029543Y-42759468D01*
X71217514Y-42629240D01*
X71217523Y-42629234D01*
X71379234Y-42467523D01*
X71407477Y-42426756D01*
X71509468Y-42279543D01*
X71509471Y-42279537D01*
X71509472Y-42279536D01*
X71604051Y-42071316D01*
X71659930Y-41849553D01*
X71670500Y-41715247D01*
X71670499Y-39784754D01*
X71659930Y-39650447D01*
X71604051Y-39428684D01*
X71509472Y-39220464D01*
X71501369Y-39208768D01*
X71479373Y-39142450D01*
X71493205Y-39081099D01*
X71495459Y-39076750D01*
X71594896Y-38796962D01*
X71594897Y-38796955D01*
X71594899Y-38796950D01*
X71622942Y-38661994D01*
X71655309Y-38506240D01*
X71673862Y-38235000D01*
X74824428Y-38235000D01*
X74844690Y-38531240D01*
X74844691Y-38531242D01*
X74905100Y-38821950D01*
X74905105Y-38821967D01*
X75004539Y-39101746D01*
X75004540Y-39101749D01*
X75006800Y-39106111D01*
X75020162Y-39174691D01*
X74998630Y-39233769D01*
X74990528Y-39245464D01*
X74895949Y-39453684D01*
X74840070Y-39675447D01*
X74829500Y-39809747D01*
X74829500Y-41740238D01*
X74829501Y-41740253D01*
X74838103Y-41849552D01*
X74840070Y-41874553D01*
X74889650Y-42071315D01*
X74895949Y-42096315D01*
X74990528Y-42304537D01*
X74990531Y-42304543D01*
X75120759Y-42492514D01*
X75120763Y-42492519D01*
X75120766Y-42492523D01*
X75282477Y-42654234D01*
X75282481Y-42654237D01*
X75282485Y-42654240D01*
X75470456Y-42784468D01*
X75470462Y-42784471D01*
X75470463Y-42784471D01*
X75470464Y-42784472D01*
X75678684Y-42879051D01*
X75900447Y-42934930D01*
X76034753Y-42945500D01*
X76089127Y-42945499D01*
X76156164Y-42965182D01*
X76201919Y-43017986D01*
X76211864Y-43087144D01*
X76182840Y-43150700D01*
X76138529Y-43183233D01*
X76062732Y-43216157D01*
X75825163Y-43360626D01*
X75825152Y-43360633D01*
X75609476Y-43536098D01*
X75609470Y-43536103D01*
X75609469Y-43536105D01*
X75489676Y-43664373D01*
X75419684Y-43739316D01*
X75259335Y-43966477D01*
X75131411Y-44213359D01*
X75038299Y-44475351D01*
X75038294Y-44475368D01*
X74981726Y-44747592D01*
X74981725Y-44747594D01*
X74962751Y-45025000D01*
X74981725Y-45302405D01*
X74981726Y-45302407D01*
X75038294Y-45574631D01*
X75038299Y-45574648D01*
X75122526Y-45811640D01*
X75131412Y-45836642D01*
X75259335Y-46083522D01*
X75419683Y-46310683D01*
X75609469Y-46513895D01*
X75609474Y-46513899D01*
X75609476Y-46513901D01*
X75825152Y-46689366D01*
X75825155Y-46689368D01*
X75825159Y-46689371D01*
X75949794Y-46765163D01*
X76062734Y-46833844D01*
X76236913Y-46909500D01*
X76317767Y-46944620D01*
X76585509Y-47019638D01*
X76827685Y-47052924D01*
X76860972Y-47057500D01*
X76860973Y-47057500D01*
X77139028Y-47057500D01*
X77168725Y-47053417D01*
X77414491Y-47019638D01*
X77682233Y-46944620D01*
X77937267Y-46833843D01*
X78174841Y-46689371D01*
X78390531Y-46513895D01*
X78580317Y-46310683D01*
X78740665Y-46083522D01*
X78868588Y-45836642D01*
X78961702Y-45574643D01*
X78961703Y-45574636D01*
X78961705Y-45574631D01*
X78987965Y-45448256D01*
X79018274Y-45302405D01*
X79037249Y-45025000D01*
X79018274Y-44747595D01*
X78998742Y-44653604D01*
X78961705Y-44475368D01*
X78961700Y-44475351D01*
X78868588Y-44213359D01*
X78868588Y-44213358D01*
X78740665Y-43966478D01*
X78580317Y-43739317D01*
X78390531Y-43536105D01*
X78390524Y-43536100D01*
X78390523Y-43536098D01*
X78174847Y-43360633D01*
X78174836Y-43360626D01*
X77937265Y-43216155D01*
X77937260Y-43216153D01*
X77861470Y-43183233D01*
X77807822Y-43138470D01*
X77786893Y-43071809D01*
X77805325Y-43004414D01*
X77857267Y-42957684D01*
X77910870Y-42945499D01*
X77965246Y-42945499D01*
X78099553Y-42934930D01*
X78321316Y-42879051D01*
X78529536Y-42784472D01*
X78529538Y-42784470D01*
X78529543Y-42784468D01*
X78717514Y-42654240D01*
X78717523Y-42654234D01*
X78879234Y-42492523D01*
X78907477Y-42451756D01*
X79009468Y-42304543D01*
X79009471Y-42304537D01*
X79009472Y-42304536D01*
X79104051Y-42096316D01*
X79159930Y-41874553D01*
X79170500Y-41740247D01*
X79170499Y-39809754D01*
X79159930Y-39675447D01*
X79104051Y-39453684D01*
X79009472Y-39245464D01*
X79001369Y-39233768D01*
X78979373Y-39167450D01*
X78993205Y-39106099D01*
X78995459Y-39101750D01*
X79002799Y-39081099D01*
X79094894Y-38821967D01*
X79094896Y-38821962D01*
X79094897Y-38821955D01*
X79094899Y-38821950D01*
X79122942Y-38686994D01*
X79155309Y-38531240D01*
X79175572Y-38235000D01*
X82324428Y-38235000D01*
X82344690Y-38531240D01*
X82344691Y-38531242D01*
X82405100Y-38821950D01*
X82405105Y-38821967D01*
X82504539Y-39101746D01*
X82504540Y-39101749D01*
X82506800Y-39106111D01*
X82520162Y-39174691D01*
X82498630Y-39233769D01*
X82490528Y-39245464D01*
X82395949Y-39453684D01*
X82340070Y-39675447D01*
X82329500Y-39809747D01*
X82329500Y-41740238D01*
X82329501Y-41740253D01*
X82338103Y-41849552D01*
X82340070Y-41874553D01*
X82389650Y-42071315D01*
X82395949Y-42096315D01*
X82490528Y-42304537D01*
X82490531Y-42304543D01*
X82620759Y-42492514D01*
X82620763Y-42492519D01*
X82620766Y-42492523D01*
X82782477Y-42654234D01*
X82782481Y-42654237D01*
X82782485Y-42654240D01*
X82970456Y-42784468D01*
X82970462Y-42784471D01*
X82970463Y-42784471D01*
X82970464Y-42784472D01*
X83178684Y-42879051D01*
X83400447Y-42934930D01*
X83534753Y-42945500D01*
X83589127Y-42945499D01*
X83656164Y-42965182D01*
X83701919Y-43017986D01*
X83711864Y-43087144D01*
X83682840Y-43150700D01*
X83638529Y-43183233D01*
X83562732Y-43216157D01*
X83325163Y-43360626D01*
X83325152Y-43360633D01*
X83109476Y-43536098D01*
X83109470Y-43536103D01*
X83109469Y-43536105D01*
X82989676Y-43664373D01*
X82919684Y-43739316D01*
X82759335Y-43966477D01*
X82631411Y-44213359D01*
X82538299Y-44475351D01*
X82538294Y-44475368D01*
X82481726Y-44747592D01*
X82481725Y-44747594D01*
X82462751Y-45025000D01*
X82481725Y-45302405D01*
X82481726Y-45302407D01*
X82538294Y-45574631D01*
X82538299Y-45574648D01*
X82622526Y-45811640D01*
X82631412Y-45836642D01*
X82759335Y-46083522D01*
X82919683Y-46310683D01*
X83109469Y-46513895D01*
X83109474Y-46513899D01*
X83109476Y-46513901D01*
X83325152Y-46689366D01*
X83325155Y-46689368D01*
X83325159Y-46689371D01*
X83449794Y-46765163D01*
X83562734Y-46833844D01*
X83736913Y-46909500D01*
X83817767Y-46944620D01*
X84085509Y-47019638D01*
X84327685Y-47052924D01*
X84360972Y-47057500D01*
X84360973Y-47057500D01*
X84639028Y-47057500D01*
X84668725Y-47053417D01*
X84914491Y-47019638D01*
X85182233Y-46944620D01*
X85437267Y-46833843D01*
X85674841Y-46689371D01*
X85890531Y-46513895D01*
X86080317Y-46310683D01*
X86240665Y-46083522D01*
X86368588Y-45836642D01*
X86461702Y-45574643D01*
X86461703Y-45574636D01*
X86461705Y-45574631D01*
X86487965Y-45448256D01*
X86518274Y-45302405D01*
X86537249Y-45025000D01*
X86518274Y-44747595D01*
X86498742Y-44653604D01*
X86461705Y-44475368D01*
X86461700Y-44475351D01*
X86368588Y-44213359D01*
X86368588Y-44213358D01*
X86240665Y-43966478D01*
X86080317Y-43739317D01*
X85890531Y-43536105D01*
X85890524Y-43536100D01*
X85890523Y-43536098D01*
X85674847Y-43360633D01*
X85674836Y-43360626D01*
X85437265Y-43216155D01*
X85437260Y-43216153D01*
X85361470Y-43183233D01*
X85307822Y-43138470D01*
X85286893Y-43071809D01*
X85305325Y-43004414D01*
X85357267Y-42957684D01*
X85410870Y-42945499D01*
X85465246Y-42945499D01*
X85599553Y-42934930D01*
X85821316Y-42879051D01*
X86029536Y-42784472D01*
X86029538Y-42784470D01*
X86029543Y-42784468D01*
X86217514Y-42654240D01*
X86217523Y-42654234D01*
X86379234Y-42492523D01*
X86407477Y-42451756D01*
X86509468Y-42304543D01*
X86509471Y-42304537D01*
X86509472Y-42304536D01*
X86604051Y-42096316D01*
X86659930Y-41874553D01*
X86670500Y-41740247D01*
X86670499Y-39809754D01*
X86659930Y-39675447D01*
X86604051Y-39453684D01*
X86509472Y-39245464D01*
X86501369Y-39233768D01*
X86479373Y-39167450D01*
X86493205Y-39106099D01*
X86495459Y-39101750D01*
X86502799Y-39081099D01*
X86594894Y-38821967D01*
X86594896Y-38821962D01*
X86594897Y-38821955D01*
X86594899Y-38821950D01*
X86622942Y-38686994D01*
X86655309Y-38531240D01*
X86675572Y-38235000D01*
X86673862Y-38210000D01*
X89824428Y-38210000D01*
X89844690Y-38506240D01*
X89844691Y-38506242D01*
X89905100Y-38796950D01*
X89905105Y-38796967D01*
X90004539Y-39076746D01*
X90004540Y-39076749D01*
X90006800Y-39081111D01*
X90020162Y-39149691D01*
X89998630Y-39208769D01*
X89990528Y-39220464D01*
X89895949Y-39428684D01*
X89840070Y-39650447D01*
X89829500Y-39784747D01*
X89829500Y-41715238D01*
X89829501Y-41715253D01*
X89838748Y-41832764D01*
X89840070Y-41849553D01*
X89895949Y-42071316D01*
X89907305Y-42096316D01*
X89990528Y-42279537D01*
X89990531Y-42279543D01*
X90120759Y-42467514D01*
X90120763Y-42467519D01*
X90120766Y-42467523D01*
X90282477Y-42629234D01*
X90282481Y-42629237D01*
X90282485Y-42629240D01*
X90470456Y-42759468D01*
X90470462Y-42759471D01*
X90470463Y-42759471D01*
X90470464Y-42759472D01*
X90678684Y-42854051D01*
X90900447Y-42909930D01*
X91034753Y-42920500D01*
X91089127Y-42920499D01*
X91156164Y-42940182D01*
X91201919Y-42992986D01*
X91211864Y-43062144D01*
X91182840Y-43125700D01*
X91138529Y-43158233D01*
X91062732Y-43191157D01*
X90825163Y-43335626D01*
X90825152Y-43335633D01*
X90609476Y-43511098D01*
X90609470Y-43511103D01*
X90609469Y-43511105D01*
X90586121Y-43536105D01*
X90419684Y-43714316D01*
X90259335Y-43941477D01*
X90131411Y-44188359D01*
X90038299Y-44450351D01*
X90038294Y-44450368D01*
X89981726Y-44722592D01*
X89981725Y-44722594D01*
X89962751Y-45000000D01*
X89981725Y-45277405D01*
X89981726Y-45277407D01*
X90038294Y-45549631D01*
X90038299Y-45549648D01*
X90131411Y-45811640D01*
X90131412Y-45811642D01*
X90259335Y-46058522D01*
X90419683Y-46285683D01*
X90609469Y-46488895D01*
X90609474Y-46488899D01*
X90609476Y-46488901D01*
X90825152Y-46664366D01*
X90825155Y-46664368D01*
X90825159Y-46664371D01*
X90866262Y-46689366D01*
X91062734Y-46808844D01*
X91236913Y-46884500D01*
X91317767Y-46919620D01*
X91585509Y-46994638D01*
X91827685Y-47027924D01*
X91860972Y-47032500D01*
X91860973Y-47032500D01*
X92139028Y-47032500D01*
X92168725Y-47028417D01*
X92414491Y-46994638D01*
X92682233Y-46919620D01*
X92937267Y-46808843D01*
X93174841Y-46664371D01*
X93390531Y-46488895D01*
X93580317Y-46285683D01*
X93740665Y-46058522D01*
X93868588Y-45811642D01*
X93961702Y-45549643D01*
X93961703Y-45549636D01*
X93961705Y-45549631D01*
X94013078Y-45302407D01*
X94018274Y-45277405D01*
X94037249Y-45000000D01*
X94018274Y-44722595D01*
X93998742Y-44628604D01*
X93961705Y-44450368D01*
X93961700Y-44450351D01*
X93868588Y-44188359D01*
X93868588Y-44188358D01*
X93740665Y-43941478D01*
X93580317Y-43714317D01*
X93390531Y-43511105D01*
X93390524Y-43511100D01*
X93390523Y-43511098D01*
X93174847Y-43335633D01*
X93174836Y-43335626D01*
X92937265Y-43191155D01*
X92937260Y-43191153D01*
X92861470Y-43158233D01*
X92807822Y-43113470D01*
X92786893Y-43046809D01*
X92805325Y-42979414D01*
X92857267Y-42932684D01*
X92910870Y-42920499D01*
X92965246Y-42920499D01*
X93099553Y-42909930D01*
X93321316Y-42854051D01*
X93529536Y-42759472D01*
X93529538Y-42759470D01*
X93529543Y-42759468D01*
X93717514Y-42629240D01*
X93717523Y-42629234D01*
X93879234Y-42467523D01*
X93907477Y-42426756D01*
X94009468Y-42279543D01*
X94009471Y-42279537D01*
X94009472Y-42279536D01*
X94104051Y-42071316D01*
X94122021Y-42000000D01*
X97462751Y-42000000D01*
X97481725Y-42277405D01*
X97481726Y-42277407D01*
X97538294Y-42549631D01*
X97538299Y-42549648D01*
X97631411Y-42811640D01*
X97631412Y-42811642D01*
X97759335Y-43058522D01*
X97919683Y-43285683D01*
X98109469Y-43488895D01*
X98109474Y-43488899D01*
X98109476Y-43488901D01*
X98325152Y-43664366D01*
X98325155Y-43664368D01*
X98325159Y-43664371D01*
X98407290Y-43714316D01*
X98562734Y-43808844D01*
X98736913Y-43884500D01*
X98817767Y-43919620D01*
X99085509Y-43994638D01*
X99327685Y-44027924D01*
X99360972Y-44032500D01*
X99360973Y-44032500D01*
X99639028Y-44032500D01*
X99668725Y-44028417D01*
X99914491Y-43994638D01*
X100182233Y-43919620D01*
X100437267Y-43808843D01*
X100674841Y-43664371D01*
X100890531Y-43488895D01*
X101080317Y-43285683D01*
X101240665Y-43058522D01*
X101368588Y-42811642D01*
X101461702Y-42549643D01*
X101461703Y-42549636D01*
X101461705Y-42549631D01*
X101487965Y-42423256D01*
X101518274Y-42277405D01*
X101537249Y-42000000D01*
X101518274Y-41722595D01*
X101498742Y-41628604D01*
X101461705Y-41450368D01*
X101461700Y-41450351D01*
X101368588Y-41188359D01*
X101368588Y-41188358D01*
X101240665Y-40941478D01*
X101080317Y-40714317D01*
X100890531Y-40511105D01*
X100890524Y-40511100D01*
X100890523Y-40511098D01*
X100674847Y-40335633D01*
X100674836Y-40335626D01*
X100437265Y-40191155D01*
X100182236Y-40080381D01*
X100182234Y-40080380D01*
X100182233Y-40080380D01*
X100106059Y-40059037D01*
X99914496Y-40005363D01*
X99914492Y-40005362D01*
X99914491Y-40005362D01*
X99776759Y-39986431D01*
X99639028Y-39967500D01*
X99639027Y-39967500D01*
X99360973Y-39967500D01*
X99360972Y-39967500D01*
X99085509Y-40005362D01*
X99085503Y-40005363D01*
X98817763Y-40080381D01*
X98562734Y-40191155D01*
X98325163Y-40335626D01*
X98325152Y-40335633D01*
X98109476Y-40511098D01*
X97919684Y-40714316D01*
X97759335Y-40941477D01*
X97631411Y-41188359D01*
X97538299Y-41450351D01*
X97538294Y-41450368D01*
X97481726Y-41722592D01*
X97481725Y-41722594D01*
X97462751Y-42000000D01*
X94122021Y-42000000D01*
X94159930Y-41849553D01*
X94170500Y-41715247D01*
X94170499Y-39784754D01*
X94159930Y-39650447D01*
X94104051Y-39428684D01*
X94009472Y-39220464D01*
X94001369Y-39208768D01*
X93979373Y-39142450D01*
X93993205Y-39081099D01*
X93995459Y-39076750D01*
X94094896Y-38796962D01*
X94094897Y-38796955D01*
X94094899Y-38796950D01*
X94122942Y-38661994D01*
X94155309Y-38506240D01*
X94175572Y-38210000D01*
X94155309Y-37913760D01*
X94134451Y-37813388D01*
X94094899Y-37623049D01*
X94094894Y-37623032D01*
X93995460Y-37343253D01*
X93995461Y-37343253D01*
X93858850Y-37079606D01*
X93858846Y-37079600D01*
X93687621Y-36837029D01*
X93687617Y-36837025D01*
X93687616Y-36837023D01*
X93484944Y-36620014D01*
X93484937Y-36620009D01*
X93484936Y-36620007D01*
X93254606Y-36432620D01*
X93000903Y-36278340D01*
X93000898Y-36278338D01*
X92728559Y-36160045D01*
X92442638Y-36079933D01*
X92442634Y-36079932D01*
X92442633Y-36079932D01*
X92295549Y-36059716D01*
X92148467Y-36039500D01*
X92148466Y-36039500D01*
X91851534Y-36039500D01*
X91851533Y-36039500D01*
X91557367Y-36079932D01*
X91557361Y-36079933D01*
X91271440Y-36160045D01*
X90999101Y-36278338D01*
X90999096Y-36278340D01*
X90745393Y-36432620D01*
X90515063Y-36620007D01*
X90515057Y-36620012D01*
X90515056Y-36620014D01*
X90491708Y-36645014D01*
X90312378Y-36837029D01*
X90141153Y-37079600D01*
X90141149Y-37079606D01*
X90004539Y-37343253D01*
X89905105Y-37623032D01*
X89905100Y-37623049D01*
X89844691Y-37913757D01*
X89844690Y-37913759D01*
X89824428Y-38210000D01*
X86673862Y-38210000D01*
X86655309Y-37938760D01*
X86634451Y-37838388D01*
X86594899Y-37648049D01*
X86594894Y-37648032D01*
X86495460Y-37368253D01*
X86495461Y-37368253D01*
X86358850Y-37104606D01*
X86358846Y-37104600D01*
X86187621Y-36862029D01*
X86187617Y-36862025D01*
X86187616Y-36862023D01*
X85984944Y-36645014D01*
X85984937Y-36645009D01*
X85984936Y-36645007D01*
X85754606Y-36457620D01*
X85500903Y-36303340D01*
X85500898Y-36303338D01*
X85228559Y-36185045D01*
X84942638Y-36104933D01*
X84942634Y-36104932D01*
X84942633Y-36104932D01*
X84795549Y-36084716D01*
X84648467Y-36064500D01*
X84648466Y-36064500D01*
X84351534Y-36064500D01*
X84351533Y-36064500D01*
X84057367Y-36104932D01*
X84057361Y-36104933D01*
X83771440Y-36185045D01*
X83499101Y-36303338D01*
X83499096Y-36303340D01*
X83245393Y-36457620D01*
X83015063Y-36645007D01*
X82812378Y-36862029D01*
X82641153Y-37104600D01*
X82641149Y-37104606D01*
X82504539Y-37368253D01*
X82405105Y-37648032D01*
X82405100Y-37648049D01*
X82344691Y-37938757D01*
X82344690Y-37938759D01*
X82324428Y-38235000D01*
X79175572Y-38235000D01*
X79155309Y-37938760D01*
X79134451Y-37838388D01*
X79094899Y-37648049D01*
X79094894Y-37648032D01*
X78995460Y-37368253D01*
X78995461Y-37368253D01*
X78858850Y-37104606D01*
X78858846Y-37104600D01*
X78687621Y-36862029D01*
X78687617Y-36862025D01*
X78687616Y-36862023D01*
X78484944Y-36645014D01*
X78484937Y-36645009D01*
X78484936Y-36645007D01*
X78254606Y-36457620D01*
X78000903Y-36303340D01*
X78000898Y-36303338D01*
X77728559Y-36185045D01*
X77442638Y-36104933D01*
X77442634Y-36104932D01*
X77442633Y-36104932D01*
X77295549Y-36084716D01*
X77148467Y-36064500D01*
X77148466Y-36064500D01*
X76851534Y-36064500D01*
X76851533Y-36064500D01*
X76557367Y-36104932D01*
X76557361Y-36104933D01*
X76271440Y-36185045D01*
X75999101Y-36303338D01*
X75999096Y-36303340D01*
X75745393Y-36457620D01*
X75515063Y-36645007D01*
X75312378Y-36862029D01*
X75141153Y-37104600D01*
X75141149Y-37104606D01*
X75004539Y-37368253D01*
X74905105Y-37648032D01*
X74905100Y-37648049D01*
X74844691Y-37938757D01*
X74844690Y-37938759D01*
X74824428Y-38235000D01*
X71673862Y-38235000D01*
X71675572Y-38210000D01*
X71655309Y-37913760D01*
X71634451Y-37813388D01*
X71594899Y-37623049D01*
X71594894Y-37623032D01*
X71495460Y-37343253D01*
X71495461Y-37343253D01*
X71358850Y-37079606D01*
X71358846Y-37079600D01*
X71187621Y-36837029D01*
X71187617Y-36837025D01*
X71187616Y-36837023D01*
X70984944Y-36620014D01*
X70984937Y-36620009D01*
X70984936Y-36620007D01*
X70754606Y-36432620D01*
X70500903Y-36278340D01*
X70500898Y-36278338D01*
X70228559Y-36160045D01*
X69942638Y-36079933D01*
X69942634Y-36079932D01*
X69942633Y-36079932D01*
X69795549Y-36059716D01*
X69648467Y-36039500D01*
X69648466Y-36039500D01*
X69351534Y-36039500D01*
X69351533Y-36039500D01*
X69057367Y-36079932D01*
X69057361Y-36079933D01*
X68771440Y-36160045D01*
X68499101Y-36278338D01*
X68499096Y-36278340D01*
X68245393Y-36432620D01*
X68015063Y-36620007D01*
X68015057Y-36620012D01*
X68015056Y-36620014D01*
X67991708Y-36645014D01*
X67812378Y-36837029D01*
X67641153Y-37079600D01*
X67641149Y-37079606D01*
X67504539Y-37343253D01*
X67405105Y-37623032D01*
X67405100Y-37623049D01*
X67344691Y-37913757D01*
X67344690Y-37913759D01*
X67324428Y-38210000D01*
X64175572Y-38210000D01*
X64155309Y-37913760D01*
X64134451Y-37813388D01*
X64094899Y-37623049D01*
X64094894Y-37623032D01*
X63995460Y-37343253D01*
X63995461Y-37343253D01*
X63858850Y-37079606D01*
X63858846Y-37079600D01*
X63687621Y-36837029D01*
X63687617Y-36837025D01*
X63687616Y-36837023D01*
X63484944Y-36620014D01*
X63484937Y-36620009D01*
X63484936Y-36620007D01*
X63254606Y-36432620D01*
X63000903Y-36278340D01*
X63000898Y-36278338D01*
X62728559Y-36160045D01*
X62442638Y-36079933D01*
X62442634Y-36079932D01*
X62442633Y-36079932D01*
X62295549Y-36059716D01*
X62148467Y-36039500D01*
X62148466Y-36039500D01*
X61851534Y-36039500D01*
X61851533Y-36039500D01*
X61557367Y-36079932D01*
X61557361Y-36079933D01*
X61271440Y-36160045D01*
X60999101Y-36278338D01*
X60999096Y-36278340D01*
X60745393Y-36432620D01*
X60515063Y-36620007D01*
X60515057Y-36620012D01*
X60515056Y-36620014D01*
X60491708Y-36645014D01*
X60312378Y-36837029D01*
X60141153Y-37079600D01*
X60141149Y-37079606D01*
X60004539Y-37343253D01*
X59905105Y-37623032D01*
X59905100Y-37623049D01*
X59844691Y-37913757D01*
X59844690Y-37913759D01*
X59824428Y-38210000D01*
X56675572Y-38210000D01*
X56655309Y-37913760D01*
X56634451Y-37813388D01*
X56594899Y-37623049D01*
X56594894Y-37623032D01*
X56495460Y-37343253D01*
X56495461Y-37343253D01*
X56358850Y-37079606D01*
X56358846Y-37079600D01*
X56187621Y-36837029D01*
X56187617Y-36837025D01*
X56187616Y-36837023D01*
X55984944Y-36620014D01*
X55984937Y-36620009D01*
X55984936Y-36620007D01*
X55754606Y-36432620D01*
X55500903Y-36278340D01*
X55500898Y-36278338D01*
X55228559Y-36160045D01*
X54942638Y-36079933D01*
X54942634Y-36079932D01*
X54942633Y-36079932D01*
X54795549Y-36059716D01*
X54648467Y-36039500D01*
X54648466Y-36039500D01*
X54351534Y-36039500D01*
X54351533Y-36039500D01*
X54057367Y-36079932D01*
X54057361Y-36079933D01*
X53771440Y-36160045D01*
X53499101Y-36278338D01*
X53499096Y-36278340D01*
X53245393Y-36432620D01*
X53015063Y-36620007D01*
X53015057Y-36620012D01*
X53015056Y-36620014D01*
X52991708Y-36645014D01*
X52812378Y-36837029D01*
X52641153Y-37079600D01*
X52641149Y-37079606D01*
X52504539Y-37343253D01*
X52405105Y-37623032D01*
X52405100Y-37623049D01*
X52344691Y-37913757D01*
X52344690Y-37913759D01*
X52324428Y-38210000D01*
X49175572Y-38210000D01*
X49155309Y-37913760D01*
X49134451Y-37813388D01*
X49094899Y-37623049D01*
X49094894Y-37623032D01*
X48995460Y-37343253D01*
X48995461Y-37343253D01*
X48858850Y-37079606D01*
X48858846Y-37079600D01*
X48687621Y-36837029D01*
X48687617Y-36837025D01*
X48687616Y-36837023D01*
X48484944Y-36620014D01*
X48484937Y-36620009D01*
X48484936Y-36620007D01*
X48254606Y-36432620D01*
X48000903Y-36278340D01*
X48000898Y-36278338D01*
X47728559Y-36160045D01*
X47442638Y-36079933D01*
X47442634Y-36079932D01*
X47442633Y-36079932D01*
X47295549Y-36059716D01*
X47148467Y-36039500D01*
X47148466Y-36039500D01*
X46851534Y-36039500D01*
X46851533Y-36039500D01*
X46557367Y-36079932D01*
X46557361Y-36079933D01*
X46271440Y-36160045D01*
X45999101Y-36278338D01*
X45999096Y-36278340D01*
X45745393Y-36432620D01*
X45515063Y-36620007D01*
X45515057Y-36620012D01*
X45515056Y-36620014D01*
X45491708Y-36645014D01*
X45312378Y-36837029D01*
X45141153Y-37079600D01*
X45141149Y-37079606D01*
X45004539Y-37343253D01*
X44905105Y-37623032D01*
X44905100Y-37623049D01*
X44844691Y-37913757D01*
X44844690Y-37913759D01*
X44824428Y-38210000D01*
X36000500Y-38210000D01*
X36000500Y-33500000D01*
X44962751Y-33500000D01*
X44981725Y-33777405D01*
X44981726Y-33777407D01*
X45038294Y-34049631D01*
X45038299Y-34049648D01*
X45131411Y-34311640D01*
X45131412Y-34311642D01*
X45259335Y-34558522D01*
X45419683Y-34785683D01*
X45609469Y-34988895D01*
X45609474Y-34988899D01*
X45609476Y-34988901D01*
X45825152Y-35164366D01*
X45825155Y-35164368D01*
X45825159Y-35164371D01*
X45866262Y-35189366D01*
X46062734Y-35308844D01*
X46236913Y-35384500D01*
X46317767Y-35419620D01*
X46585509Y-35494638D01*
X46827685Y-35527924D01*
X46860972Y-35532500D01*
X46860973Y-35532500D01*
X47139028Y-35532500D01*
X47168725Y-35528417D01*
X47414491Y-35494638D01*
X47682233Y-35419620D01*
X47937267Y-35308843D01*
X48174841Y-35164371D01*
X48390531Y-34988895D01*
X48580317Y-34785683D01*
X48740665Y-34558522D01*
X48868588Y-34311642D01*
X48961702Y-34049643D01*
X48961703Y-34049636D01*
X48961705Y-34049631D01*
X49013078Y-33802407D01*
X49018274Y-33777405D01*
X49037249Y-33500000D01*
X52462751Y-33500000D01*
X52481725Y-33777405D01*
X52481726Y-33777407D01*
X52538294Y-34049631D01*
X52538299Y-34049648D01*
X52631411Y-34311640D01*
X52631412Y-34311642D01*
X52759335Y-34558522D01*
X52919683Y-34785683D01*
X53109469Y-34988895D01*
X53109474Y-34988899D01*
X53109476Y-34988901D01*
X53325152Y-35164366D01*
X53325155Y-35164368D01*
X53325159Y-35164371D01*
X53366262Y-35189366D01*
X53562734Y-35308844D01*
X53736913Y-35384500D01*
X53817767Y-35419620D01*
X54085509Y-35494638D01*
X54327685Y-35527924D01*
X54360972Y-35532500D01*
X54360973Y-35532500D01*
X54639028Y-35532500D01*
X54668725Y-35528417D01*
X54914491Y-35494638D01*
X55182233Y-35419620D01*
X55437267Y-35308843D01*
X55674841Y-35164371D01*
X55890531Y-34988895D01*
X56080317Y-34785683D01*
X56240665Y-34558522D01*
X56368588Y-34311642D01*
X56461702Y-34049643D01*
X56461703Y-34049636D01*
X56461705Y-34049631D01*
X56513078Y-33802407D01*
X56518274Y-33777405D01*
X56537249Y-33500000D01*
X59962751Y-33500000D01*
X59981725Y-33777405D01*
X59981726Y-33777407D01*
X60038294Y-34049631D01*
X60038299Y-34049648D01*
X60131411Y-34311640D01*
X60131412Y-34311642D01*
X60259335Y-34558522D01*
X60419683Y-34785683D01*
X60609469Y-34988895D01*
X60609474Y-34988899D01*
X60609476Y-34988901D01*
X60825152Y-35164366D01*
X60825155Y-35164368D01*
X60825159Y-35164371D01*
X60866262Y-35189366D01*
X61062734Y-35308844D01*
X61236913Y-35384500D01*
X61317767Y-35419620D01*
X61585509Y-35494638D01*
X61827685Y-35527924D01*
X61860972Y-35532500D01*
X61860973Y-35532500D01*
X62139028Y-35532500D01*
X62168725Y-35528417D01*
X62414491Y-35494638D01*
X62682233Y-35419620D01*
X62937267Y-35308843D01*
X63174841Y-35164371D01*
X63390531Y-34988895D01*
X63580317Y-34785683D01*
X63740665Y-34558522D01*
X63868588Y-34311642D01*
X63961702Y-34049643D01*
X63961703Y-34049636D01*
X63961705Y-34049631D01*
X64013078Y-33802407D01*
X64018274Y-33777405D01*
X64037249Y-33500000D01*
X67462751Y-33500000D01*
X67481725Y-33777405D01*
X67481726Y-33777407D01*
X67538294Y-34049631D01*
X67538299Y-34049648D01*
X67631411Y-34311640D01*
X67631412Y-34311642D01*
X67759335Y-34558522D01*
X67919683Y-34785683D01*
X68109469Y-34988895D01*
X68109474Y-34988899D01*
X68109476Y-34988901D01*
X68325152Y-35164366D01*
X68325155Y-35164368D01*
X68325159Y-35164371D01*
X68366262Y-35189366D01*
X68562734Y-35308844D01*
X68736913Y-35384500D01*
X68817767Y-35419620D01*
X69085509Y-35494638D01*
X69327685Y-35527924D01*
X69360972Y-35532500D01*
X69360973Y-35532500D01*
X69639028Y-35532500D01*
X69668725Y-35528417D01*
X69914491Y-35494638D01*
X70182233Y-35419620D01*
X70437267Y-35308843D01*
X70674841Y-35164371D01*
X70890531Y-34988895D01*
X71080317Y-34785683D01*
X71240665Y-34558522D01*
X71368588Y-34311642D01*
X71461702Y-34049643D01*
X71461703Y-34049636D01*
X71461705Y-34049631D01*
X71513078Y-33802407D01*
X71518274Y-33777405D01*
X71535539Y-33525000D01*
X74962751Y-33525000D01*
X74981725Y-33802405D01*
X74981726Y-33802407D01*
X75038294Y-34074631D01*
X75038299Y-34074648D01*
X75122526Y-34311640D01*
X75131412Y-34336642D01*
X75259335Y-34583522D01*
X75419683Y-34810683D01*
X75609469Y-35013895D01*
X75609474Y-35013899D01*
X75609476Y-35013901D01*
X75825152Y-35189366D01*
X75825155Y-35189368D01*
X75825159Y-35189371D01*
X75949794Y-35265163D01*
X76062734Y-35333844D01*
X76236913Y-35409500D01*
X76317767Y-35444620D01*
X76585509Y-35519638D01*
X76827685Y-35552924D01*
X76860972Y-35557500D01*
X76860973Y-35557500D01*
X77139028Y-35557500D01*
X77168725Y-35553417D01*
X77414491Y-35519638D01*
X77682233Y-35444620D01*
X77937267Y-35333843D01*
X78174841Y-35189371D01*
X78390531Y-35013895D01*
X78580317Y-34810683D01*
X78740665Y-34583522D01*
X78868588Y-34336642D01*
X78961702Y-34074643D01*
X78961703Y-34074636D01*
X78961705Y-34074631D01*
X78987965Y-33948256D01*
X79018274Y-33802405D01*
X79037249Y-33525000D01*
X82462751Y-33525000D01*
X82481725Y-33802405D01*
X82481726Y-33802407D01*
X82538294Y-34074631D01*
X82538299Y-34074648D01*
X82622526Y-34311640D01*
X82631412Y-34336642D01*
X82759335Y-34583522D01*
X82919683Y-34810683D01*
X83109469Y-35013895D01*
X83109474Y-35013899D01*
X83109476Y-35013901D01*
X83325152Y-35189366D01*
X83325155Y-35189368D01*
X83325159Y-35189371D01*
X83449794Y-35265163D01*
X83562734Y-35333844D01*
X83736913Y-35409500D01*
X83817767Y-35444620D01*
X84085509Y-35519638D01*
X84327685Y-35552924D01*
X84360972Y-35557500D01*
X84360973Y-35557500D01*
X84639028Y-35557500D01*
X84668725Y-35553417D01*
X84914491Y-35519638D01*
X85182233Y-35444620D01*
X85437267Y-35333843D01*
X85674841Y-35189371D01*
X85890531Y-35013895D01*
X86080317Y-34810683D01*
X86240665Y-34583522D01*
X86368588Y-34336642D01*
X86461702Y-34074643D01*
X86461703Y-34074636D01*
X86461705Y-34074631D01*
X86487965Y-33948256D01*
X86518274Y-33802405D01*
X86537249Y-33525000D01*
X86535539Y-33500000D01*
X89962751Y-33500000D01*
X89981725Y-33777405D01*
X89981726Y-33777407D01*
X90038294Y-34049631D01*
X90038299Y-34049648D01*
X90131411Y-34311640D01*
X90131412Y-34311642D01*
X90259335Y-34558522D01*
X90419683Y-34785683D01*
X90609469Y-34988895D01*
X90609474Y-34988899D01*
X90609476Y-34988901D01*
X90825152Y-35164366D01*
X90825155Y-35164368D01*
X90825159Y-35164371D01*
X90866262Y-35189366D01*
X91062734Y-35308844D01*
X91236913Y-35384500D01*
X91317767Y-35419620D01*
X91585509Y-35494638D01*
X91827685Y-35527924D01*
X91860972Y-35532500D01*
X91860973Y-35532500D01*
X92139028Y-35532500D01*
X92168725Y-35528417D01*
X92414491Y-35494638D01*
X92682233Y-35419620D01*
X92937267Y-35308843D01*
X93174841Y-35164371D01*
X93390531Y-34988895D01*
X93580317Y-34785683D01*
X93740665Y-34558522D01*
X93868588Y-34311642D01*
X93961702Y-34049643D01*
X93961703Y-34049636D01*
X93961705Y-34049631D01*
X94013078Y-33802407D01*
X94018274Y-33777405D01*
X94037249Y-33500000D01*
X97462751Y-33500000D01*
X97481725Y-33777405D01*
X97481726Y-33777407D01*
X97538294Y-34049631D01*
X97538299Y-34049648D01*
X97631411Y-34311640D01*
X97631412Y-34311642D01*
X97759335Y-34558522D01*
X97919683Y-34785683D01*
X98109469Y-34988895D01*
X98109474Y-34988899D01*
X98109476Y-34988901D01*
X98325152Y-35164366D01*
X98325155Y-35164368D01*
X98325159Y-35164371D01*
X98366262Y-35189366D01*
X98562734Y-35308844D01*
X98736913Y-35384500D01*
X98817767Y-35419620D01*
X99085509Y-35494638D01*
X99327685Y-35527924D01*
X99360972Y-35532500D01*
X99360973Y-35532500D01*
X99639028Y-35532500D01*
X99668725Y-35528417D01*
X99914491Y-35494638D01*
X100182233Y-35419620D01*
X100437267Y-35308843D01*
X100674841Y-35164371D01*
X100890531Y-34988895D01*
X101080317Y-34785683D01*
X101240665Y-34558522D01*
X101368588Y-34311642D01*
X101461702Y-34049643D01*
X101461703Y-34049636D01*
X101461705Y-34049631D01*
X101513078Y-33802407D01*
X101518274Y-33777405D01*
X101537249Y-33500000D01*
X101518274Y-33222595D01*
X101498742Y-33128604D01*
X101461705Y-32950368D01*
X101461700Y-32950351D01*
X101368588Y-32688359D01*
X101368588Y-32688358D01*
X101240665Y-32441478D01*
X101080317Y-32214317D01*
X100890531Y-32011105D01*
X100890524Y-32011100D01*
X100890523Y-32011098D01*
X100674847Y-31835633D01*
X100674836Y-31835626D01*
X100437265Y-31691155D01*
X100182236Y-31580381D01*
X100182234Y-31580380D01*
X100182233Y-31580380D01*
X100106059Y-31559037D01*
X99914496Y-31505363D01*
X99914492Y-31505362D01*
X99914491Y-31505362D01*
X99776759Y-31486431D01*
X99639028Y-31467500D01*
X99639027Y-31467500D01*
X99360973Y-31467500D01*
X99360972Y-31467500D01*
X99085509Y-31505362D01*
X99085503Y-31505363D01*
X98817763Y-31580381D01*
X98562734Y-31691155D01*
X98325163Y-31835626D01*
X98325152Y-31835633D01*
X98109476Y-32011098D01*
X98109470Y-32011103D01*
X98109469Y-32011105D01*
X98086121Y-32036105D01*
X97919684Y-32214316D01*
X97759335Y-32441477D01*
X97631411Y-32688359D01*
X97538299Y-32950351D01*
X97538294Y-32950368D01*
X97481726Y-33222592D01*
X97481725Y-33222594D01*
X97462751Y-33500000D01*
X94037249Y-33500000D01*
X94018274Y-33222595D01*
X93998742Y-33128604D01*
X93961705Y-32950368D01*
X93961700Y-32950351D01*
X93868588Y-32688359D01*
X93868588Y-32688358D01*
X93740665Y-32441478D01*
X93580317Y-32214317D01*
X93390531Y-32011105D01*
X93390524Y-32011100D01*
X93390523Y-32011098D01*
X93174847Y-31835633D01*
X93174836Y-31835626D01*
X92937265Y-31691155D01*
X92682236Y-31580381D01*
X92682234Y-31580380D01*
X92682233Y-31580380D01*
X92606059Y-31559037D01*
X92414496Y-31505363D01*
X92414492Y-31505362D01*
X92414491Y-31505362D01*
X92276759Y-31486431D01*
X92139028Y-31467500D01*
X92139027Y-31467500D01*
X91860973Y-31467500D01*
X91860972Y-31467500D01*
X91585509Y-31505362D01*
X91585503Y-31505363D01*
X91317763Y-31580381D01*
X91062734Y-31691155D01*
X90825163Y-31835626D01*
X90825152Y-31835633D01*
X90609476Y-32011098D01*
X90609470Y-32011103D01*
X90609469Y-32011105D01*
X90586121Y-32036105D01*
X90419684Y-32214316D01*
X90259335Y-32441477D01*
X90131411Y-32688359D01*
X90038299Y-32950351D01*
X90038294Y-32950368D01*
X89981726Y-33222592D01*
X89981725Y-33222594D01*
X89962751Y-33500000D01*
X86535539Y-33500000D01*
X86518274Y-33247595D01*
X86498742Y-33153604D01*
X86461705Y-32975368D01*
X86461700Y-32975351D01*
X86368588Y-32713359D01*
X86368588Y-32713358D01*
X86240665Y-32466478D01*
X86080317Y-32239317D01*
X85890531Y-32036105D01*
X85890524Y-32036100D01*
X85890523Y-32036098D01*
X85674847Y-31860633D01*
X85674836Y-31860626D01*
X85437265Y-31716155D01*
X85182236Y-31605381D01*
X85182234Y-31605380D01*
X85182233Y-31605380D01*
X85093007Y-31580380D01*
X84914496Y-31530363D01*
X84914492Y-31530362D01*
X84914491Y-31530362D01*
X84776759Y-31511431D01*
X84639028Y-31492500D01*
X84639027Y-31492500D01*
X84360973Y-31492500D01*
X84360972Y-31492500D01*
X84085509Y-31530362D01*
X84085503Y-31530363D01*
X83817763Y-31605381D01*
X83562734Y-31716155D01*
X83325163Y-31860626D01*
X83325152Y-31860633D01*
X83109476Y-32036098D01*
X82919684Y-32239316D01*
X82759335Y-32466477D01*
X82631411Y-32713359D01*
X82538299Y-32975351D01*
X82538294Y-32975368D01*
X82481726Y-33247592D01*
X82481725Y-33247594D01*
X82462751Y-33525000D01*
X79037249Y-33525000D01*
X79018274Y-33247595D01*
X78998742Y-33153604D01*
X78961705Y-32975368D01*
X78961700Y-32975351D01*
X78868588Y-32713359D01*
X78868588Y-32713358D01*
X78740665Y-32466478D01*
X78580317Y-32239317D01*
X78390531Y-32036105D01*
X78390524Y-32036100D01*
X78390523Y-32036098D01*
X78174847Y-31860633D01*
X78174836Y-31860626D01*
X77937265Y-31716155D01*
X77682236Y-31605381D01*
X77682234Y-31605380D01*
X77682233Y-31605380D01*
X77593007Y-31580380D01*
X77414496Y-31530363D01*
X77414492Y-31530362D01*
X77414491Y-31530362D01*
X77276759Y-31511431D01*
X77139028Y-31492500D01*
X77139027Y-31492500D01*
X76860973Y-31492500D01*
X76860972Y-31492500D01*
X76585509Y-31530362D01*
X76585503Y-31530363D01*
X76317763Y-31605381D01*
X76062734Y-31716155D01*
X75825163Y-31860626D01*
X75825152Y-31860633D01*
X75609476Y-32036098D01*
X75419684Y-32239316D01*
X75259335Y-32466477D01*
X75131411Y-32713359D01*
X75038299Y-32975351D01*
X75038294Y-32975368D01*
X74981726Y-33247592D01*
X74981725Y-33247594D01*
X74962751Y-33525000D01*
X71535539Y-33525000D01*
X71537249Y-33500000D01*
X71518274Y-33222595D01*
X71498742Y-33128604D01*
X71461705Y-32950368D01*
X71461700Y-32950351D01*
X71368588Y-32688359D01*
X71368588Y-32688358D01*
X71240665Y-32441478D01*
X71080317Y-32214317D01*
X70890531Y-32011105D01*
X70890524Y-32011100D01*
X70890523Y-32011098D01*
X70674847Y-31835633D01*
X70674836Y-31835626D01*
X70437265Y-31691155D01*
X70182236Y-31580381D01*
X70182234Y-31580380D01*
X70182233Y-31580380D01*
X70106059Y-31559037D01*
X69914496Y-31505363D01*
X69914492Y-31505362D01*
X69914491Y-31505362D01*
X69776759Y-31486431D01*
X69639028Y-31467500D01*
X69639027Y-31467500D01*
X69360973Y-31467500D01*
X69360972Y-31467500D01*
X69085509Y-31505362D01*
X69085503Y-31505363D01*
X68817763Y-31580381D01*
X68562734Y-31691155D01*
X68325163Y-31835626D01*
X68325152Y-31835633D01*
X68109476Y-32011098D01*
X68109470Y-32011103D01*
X68109469Y-32011105D01*
X68086121Y-32036105D01*
X67919684Y-32214316D01*
X67759335Y-32441477D01*
X67631411Y-32688359D01*
X67538299Y-32950351D01*
X67538294Y-32950368D01*
X67481726Y-33222592D01*
X67481725Y-33222594D01*
X67462751Y-33500000D01*
X64037249Y-33500000D01*
X64018274Y-33222595D01*
X63998742Y-33128604D01*
X63961705Y-32950368D01*
X63961700Y-32950351D01*
X63868588Y-32688359D01*
X63868588Y-32688358D01*
X63740665Y-32441478D01*
X63580317Y-32214317D01*
X63390531Y-32011105D01*
X63390524Y-32011100D01*
X63390523Y-32011098D01*
X63174847Y-31835633D01*
X63174836Y-31835626D01*
X62937265Y-31691155D01*
X62682236Y-31580381D01*
X62682234Y-31580380D01*
X62682233Y-31580380D01*
X62606059Y-31559037D01*
X62414496Y-31505363D01*
X62414492Y-31505362D01*
X62414491Y-31505362D01*
X62276759Y-31486431D01*
X62139028Y-31467500D01*
X62139027Y-31467500D01*
X61860973Y-31467500D01*
X61860972Y-31467500D01*
X61585509Y-31505362D01*
X61585503Y-31505363D01*
X61317763Y-31580381D01*
X61062734Y-31691155D01*
X60825163Y-31835626D01*
X60825152Y-31835633D01*
X60609476Y-32011098D01*
X60609470Y-32011103D01*
X60609469Y-32011105D01*
X60586121Y-32036105D01*
X60419684Y-32214316D01*
X60259335Y-32441477D01*
X60131411Y-32688359D01*
X60038299Y-32950351D01*
X60038294Y-32950368D01*
X59981726Y-33222592D01*
X59981725Y-33222594D01*
X59962751Y-33500000D01*
X56537249Y-33500000D01*
X56518274Y-33222595D01*
X56498742Y-33128604D01*
X56461705Y-32950368D01*
X56461700Y-32950351D01*
X56368588Y-32688359D01*
X56368588Y-32688358D01*
X56240665Y-32441478D01*
X56080317Y-32214317D01*
X55890531Y-32011105D01*
X55890524Y-32011100D01*
X55890523Y-32011098D01*
X55674847Y-31835633D01*
X55674836Y-31835626D01*
X55437265Y-31691155D01*
X55182236Y-31580381D01*
X55182234Y-31580380D01*
X55182233Y-31580380D01*
X55106059Y-31559037D01*
X54914496Y-31505363D01*
X54914492Y-31505362D01*
X54914491Y-31505362D01*
X54776759Y-31486431D01*
X54639028Y-31467500D01*
X54639027Y-31467500D01*
X54360973Y-31467500D01*
X54360972Y-31467500D01*
X54085509Y-31505362D01*
X54085503Y-31505363D01*
X53817763Y-31580381D01*
X53562734Y-31691155D01*
X53325163Y-31835626D01*
X53325152Y-31835633D01*
X53109476Y-32011098D01*
X53109470Y-32011103D01*
X53109469Y-32011105D01*
X53086121Y-32036105D01*
X52919684Y-32214316D01*
X52759335Y-32441477D01*
X52631411Y-32688359D01*
X52538299Y-32950351D01*
X52538294Y-32950368D01*
X52481726Y-33222592D01*
X52481725Y-33222594D01*
X52462751Y-33500000D01*
X49037249Y-33500000D01*
X49018274Y-33222595D01*
X48998742Y-33128604D01*
X48961705Y-32950368D01*
X48961700Y-32950351D01*
X48868588Y-32688359D01*
X48868588Y-32688358D01*
X48740665Y-32441478D01*
X48580317Y-32214317D01*
X48390531Y-32011105D01*
X48390524Y-32011100D01*
X48390523Y-32011098D01*
X48174847Y-31835633D01*
X48174836Y-31835626D01*
X47937265Y-31691155D01*
X47682236Y-31580381D01*
X47682234Y-31580380D01*
X47682233Y-31580380D01*
X47606059Y-31559037D01*
X47414496Y-31505363D01*
X47414492Y-31505362D01*
X47414491Y-31505362D01*
X47276759Y-31486431D01*
X47139028Y-31467500D01*
X47139027Y-31467500D01*
X46860973Y-31467500D01*
X46860972Y-31467500D01*
X46585509Y-31505362D01*
X46585503Y-31505363D01*
X46317763Y-31580381D01*
X46062734Y-31691155D01*
X45825163Y-31835626D01*
X45825152Y-31835633D01*
X45609476Y-32011098D01*
X45609470Y-32011103D01*
X45609469Y-32011105D01*
X45586121Y-32036105D01*
X45419684Y-32214316D01*
X45259335Y-32441477D01*
X45131411Y-32688359D01*
X45038299Y-32950351D01*
X45038294Y-32950368D01*
X44981726Y-33222592D01*
X44981725Y-33222594D01*
X44962751Y-33500000D01*
X36000500Y-33500000D01*
X36000500Y-30582706D01*
X36000618Y-30577298D01*
X36003377Y-30514108D01*
X36017690Y-30186255D01*
X36018629Y-30175524D01*
X36069367Y-29790137D01*
X36071240Y-29779510D01*
X36155375Y-29400004D01*
X36158166Y-29389589D01*
X36275057Y-29018857D01*
X36278741Y-29008736D01*
X36427498Y-28649603D01*
X36432056Y-28639829D01*
X36611540Y-28295045D01*
X36616935Y-28285700D01*
X36825793Y-27957858D01*
X36831983Y-27949018D01*
X37068612Y-27640637D01*
X37075550Y-27632368D01*
X37338157Y-27345783D01*
X37345783Y-27338157D01*
X37632368Y-27075550D01*
X37640637Y-27068612D01*
X37949018Y-26831983D01*
X37957858Y-26825793D01*
X38285700Y-26616935D01*
X38295045Y-26611540D01*
X38639829Y-26432056D01*
X38649603Y-26427498D01*
X39008736Y-26278741D01*
X39018857Y-26275057D01*
X39389589Y-26158166D01*
X39400004Y-26155375D01*
X39779510Y-26071240D01*
X39790137Y-26069367D01*
X40175524Y-26018629D01*
X40186255Y-26017690D01*
X40564776Y-26001164D01*
X40577298Y-26000618D01*
X40582706Y-26000500D01*
X40645892Y-26000500D01*
X105354108Y-26000500D01*
X105417294Y-26000500D01*
X105422702Y-26000618D01*
G37*
%TD.AperFunction*%
%TD*%
M02*
