%TF.GenerationSoftware,KiCad,Pcbnew,8.0.1-rc1*%
%TF.CreationDate,2024-04-16T23:24:07-05:00*%
%TF.ProjectId,Emotion LED,456d6f74-696f-46e2-904c-45442e6b6963,rev?*%
%TF.SameCoordinates,Original*%
%TF.FileFunction,Drillmap*%
%TF.FilePolarity,Positive*%
%FSLAX45Y45*%
G04 Gerber Fmt 4.5, Leading zero omitted, Abs format (unit mm)*
G04 Created by KiCad (PCBNEW 8.0.1-rc1) date 2024-04-16 23:24:07*
%MOMM*%
%LPD*%
G01*
G04 APERTURE LIST*
%ADD10C,0.050000*%
%ADD11C,0.200000*%
%ADD12C,0.100000*%
G04 APERTURE END LIST*
D10*
X9192000Y-5800000D02*
X4058000Y-5800000D01*
X9700000Y-3258000D02*
X9700000Y-5292000D01*
X4058000Y-2750000D02*
X9192000Y-2750000D01*
X3550000Y-5292000D02*
X3550000Y-3258000D01*
X9700000Y-5292000D02*
G75*
G02*
X9192000Y-5800000I-508000J0D01*
G01*
X9192000Y-2750000D02*
G75*
G02*
X9700000Y-3258000I0J-508000D01*
G01*
X4058000Y-5800000D02*
G75*
G02*
X3550000Y-5292000I0J508000D01*
G01*
X3550000Y-3258000D02*
G75*
G02*
X4058000Y-2750000I508000J0D01*
G01*
D11*
D12*
X4961900Y-3311900D02*
X5038100Y-3388100D01*
X5038100Y-3311900D02*
X4961900Y-3388100D01*
X4961900Y-4461900D02*
X5038100Y-4538100D01*
X5038100Y-4461900D02*
X4961900Y-4538100D01*
X4961900Y-5461900D02*
X5038100Y-5538100D01*
X5038100Y-5461900D02*
X4961900Y-5538100D01*
X5461900Y-3311900D02*
X5538100Y-3388100D01*
X5538100Y-3311900D02*
X5461900Y-3388100D01*
X5461900Y-4461900D02*
X5538100Y-4538100D01*
X5538100Y-4461900D02*
X5461900Y-4538100D01*
X5461900Y-5461900D02*
X5538100Y-5538100D01*
X5538100Y-5461900D02*
X5461900Y-5538100D01*
X5961900Y-3311900D02*
X6038100Y-3388100D01*
X6038100Y-3311900D02*
X5961900Y-3388100D01*
X5961900Y-4461900D02*
X6038100Y-4538100D01*
X6038100Y-4461900D02*
X5961900Y-4538100D01*
X5961900Y-5461900D02*
X6038100Y-5538100D01*
X6038100Y-5461900D02*
X5961900Y-5538100D01*
X6461900Y-3311900D02*
X6538100Y-3388100D01*
X6538100Y-3311900D02*
X6461900Y-3388100D01*
X6461900Y-4461900D02*
X6538100Y-4538100D01*
X6538100Y-4461900D02*
X6461900Y-4538100D01*
X6461900Y-5461900D02*
X6538100Y-5538100D01*
X6538100Y-5461900D02*
X6461900Y-5538100D01*
X6961900Y-3311900D02*
X7038100Y-3388100D01*
X7038100Y-3311900D02*
X6961900Y-3388100D01*
X6961900Y-4461900D02*
X7038100Y-4538100D01*
X7038100Y-4461900D02*
X6961900Y-4538100D01*
X6961900Y-5461900D02*
X7038100Y-5538100D01*
X7038100Y-5461900D02*
X6961900Y-5538100D01*
X7461900Y-3311900D02*
X7538100Y-3388100D01*
X7538100Y-3311900D02*
X7461900Y-3388100D01*
X7461900Y-4461900D02*
X7538100Y-4538100D01*
X7538100Y-4461900D02*
X7461900Y-4538100D01*
X7461900Y-5461900D02*
X7538100Y-5538100D01*
X7538100Y-5461900D02*
X7461900Y-5538100D01*
X7961900Y-3311900D02*
X8038100Y-3388100D01*
X8038100Y-3311900D02*
X7961900Y-3388100D01*
X7961900Y-4461900D02*
X8038100Y-4538100D01*
X8038100Y-4461900D02*
X7961900Y-4538100D01*
X7961900Y-5461900D02*
X8038100Y-5538100D01*
X8038100Y-5461900D02*
X7961900Y-5538100D01*
X8461900Y-3311900D02*
X8538100Y-3388100D01*
X8538100Y-3311900D02*
X8461900Y-3388100D01*
X5045000Y-3821000D02*
G75*
G02*
X4955000Y-3821000I-45000J0D01*
G01*
X4955000Y-3821000D02*
G75*
G02*
X5045000Y-3821000I45000J0D01*
G01*
X5045000Y-4075000D02*
G75*
G02*
X4955000Y-4075000I-45000J0D01*
G01*
X4955000Y-4075000D02*
G75*
G02*
X5045000Y-4075000I45000J0D01*
G01*
X5545000Y-3821000D02*
G75*
G02*
X5455000Y-3821000I-45000J0D01*
G01*
X5455000Y-3821000D02*
G75*
G02*
X5545000Y-3821000I45000J0D01*
G01*
X5545000Y-4075000D02*
G75*
G02*
X5455000Y-4075000I-45000J0D01*
G01*
X5455000Y-4075000D02*
G75*
G02*
X5545000Y-4075000I45000J0D01*
G01*
X6045000Y-3821000D02*
G75*
G02*
X5955000Y-3821000I-45000J0D01*
G01*
X5955000Y-3821000D02*
G75*
G02*
X6045000Y-3821000I45000J0D01*
G01*
X6045000Y-4075000D02*
G75*
G02*
X5955000Y-4075000I-45000J0D01*
G01*
X5955000Y-4075000D02*
G75*
G02*
X6045000Y-4075000I45000J0D01*
G01*
X6545000Y-3821000D02*
G75*
G02*
X6455000Y-3821000I-45000J0D01*
G01*
X6455000Y-3821000D02*
G75*
G02*
X6545000Y-3821000I45000J0D01*
G01*
X6545000Y-4075000D02*
G75*
G02*
X6455000Y-4075000I-45000J0D01*
G01*
X6455000Y-4075000D02*
G75*
G02*
X6545000Y-4075000I45000J0D01*
G01*
X7045000Y-3821000D02*
G75*
G02*
X6955000Y-3821000I-45000J0D01*
G01*
X6955000Y-3821000D02*
G75*
G02*
X7045000Y-3821000I45000J0D01*
G01*
X7045000Y-4075000D02*
G75*
G02*
X6955000Y-4075000I-45000J0D01*
G01*
X6955000Y-4075000D02*
G75*
G02*
X7045000Y-4075000I45000J0D01*
G01*
X7545000Y-3821000D02*
G75*
G02*
X7455000Y-3821000I-45000J0D01*
G01*
X7455000Y-3821000D02*
G75*
G02*
X7545000Y-3821000I45000J0D01*
G01*
X7545000Y-4075000D02*
G75*
G02*
X7455000Y-4075000I-45000J0D01*
G01*
X7455000Y-4075000D02*
G75*
G02*
X7545000Y-4075000I45000J0D01*
G01*
X8045000Y-3821000D02*
G75*
G02*
X7955000Y-3821000I-45000J0D01*
G01*
X7955000Y-3821000D02*
G75*
G02*
X8045000Y-3821000I45000J0D01*
G01*
X8045000Y-4075000D02*
G75*
G02*
X7955000Y-4075000I-45000J0D01*
G01*
X7955000Y-4075000D02*
G75*
G02*
X8045000Y-4075000I45000J0D01*
G01*
D11*
X3808277Y-6113984D02*
X3808277Y-5913984D01*
X3808277Y-5913984D02*
X3855896Y-5913984D01*
X3855896Y-5913984D02*
X3884467Y-5923508D01*
X3884467Y-5923508D02*
X3903515Y-5942555D01*
X3903515Y-5942555D02*
X3913039Y-5961603D01*
X3913039Y-5961603D02*
X3922562Y-5999698D01*
X3922562Y-5999698D02*
X3922562Y-6028269D01*
X3922562Y-6028269D02*
X3913039Y-6066365D01*
X3913039Y-6066365D02*
X3903515Y-6085412D01*
X3903515Y-6085412D02*
X3884467Y-6104460D01*
X3884467Y-6104460D02*
X3855896Y-6113984D01*
X3855896Y-6113984D02*
X3808277Y-6113984D01*
X4008277Y-6113984D02*
X4008277Y-5980650D01*
X4008277Y-6018746D02*
X4017801Y-5999698D01*
X4017801Y-5999698D02*
X4027324Y-5990174D01*
X4027324Y-5990174D02*
X4046372Y-5980650D01*
X4046372Y-5980650D02*
X4065420Y-5980650D01*
X4132086Y-6113984D02*
X4132086Y-5980650D01*
X4132086Y-5913984D02*
X4122562Y-5923508D01*
X4122562Y-5923508D02*
X4132086Y-5933031D01*
X4132086Y-5933031D02*
X4141610Y-5923508D01*
X4141610Y-5923508D02*
X4132086Y-5913984D01*
X4132086Y-5913984D02*
X4132086Y-5933031D01*
X4255896Y-6113984D02*
X4236848Y-6104460D01*
X4236848Y-6104460D02*
X4227324Y-6085412D01*
X4227324Y-6085412D02*
X4227324Y-5913984D01*
X4360658Y-6113984D02*
X4341610Y-6104460D01*
X4341610Y-6104460D02*
X4332086Y-6085412D01*
X4332086Y-6085412D02*
X4332086Y-5913984D01*
X4589229Y-6113984D02*
X4589229Y-5913984D01*
X4589229Y-5913984D02*
X4655896Y-6056841D01*
X4655896Y-6056841D02*
X4722563Y-5913984D01*
X4722563Y-5913984D02*
X4722563Y-6113984D01*
X4903515Y-6113984D02*
X4903515Y-6009222D01*
X4903515Y-6009222D02*
X4893991Y-5990174D01*
X4893991Y-5990174D02*
X4874944Y-5980650D01*
X4874944Y-5980650D02*
X4836848Y-5980650D01*
X4836848Y-5980650D02*
X4817801Y-5990174D01*
X4903515Y-6104460D02*
X4884467Y-6113984D01*
X4884467Y-6113984D02*
X4836848Y-6113984D01*
X4836848Y-6113984D02*
X4817801Y-6104460D01*
X4817801Y-6104460D02*
X4808277Y-6085412D01*
X4808277Y-6085412D02*
X4808277Y-6066365D01*
X4808277Y-6066365D02*
X4817801Y-6047317D01*
X4817801Y-6047317D02*
X4836848Y-6037793D01*
X4836848Y-6037793D02*
X4884467Y-6037793D01*
X4884467Y-6037793D02*
X4903515Y-6028269D01*
X4998753Y-5980650D02*
X4998753Y-6180650D01*
X4998753Y-5990174D02*
X5017801Y-5980650D01*
X5017801Y-5980650D02*
X5055896Y-5980650D01*
X5055896Y-5980650D02*
X5074944Y-5990174D01*
X5074944Y-5990174D02*
X5084467Y-5999698D01*
X5084467Y-5999698D02*
X5093991Y-6018746D01*
X5093991Y-6018746D02*
X5093991Y-6075888D01*
X5093991Y-6075888D02*
X5084467Y-6094936D01*
X5084467Y-6094936D02*
X5074944Y-6104460D01*
X5074944Y-6104460D02*
X5055896Y-6113984D01*
X5055896Y-6113984D02*
X5017801Y-6113984D01*
X5017801Y-6113984D02*
X4998753Y-6104460D01*
X5179705Y-6094936D02*
X5189229Y-6104460D01*
X5189229Y-6104460D02*
X5179705Y-6113984D01*
X5179705Y-6113984D02*
X5170182Y-6104460D01*
X5170182Y-6104460D02*
X5179705Y-6094936D01*
X5179705Y-6094936D02*
X5179705Y-6113984D01*
X5179705Y-5990174D02*
X5189229Y-5999698D01*
X5189229Y-5999698D02*
X5179705Y-6009222D01*
X5179705Y-6009222D02*
X5170182Y-5999698D01*
X5170182Y-5999698D02*
X5179705Y-5990174D01*
X5179705Y-5990174D02*
X5179705Y-6009222D01*
D12*
X3471300Y-6404400D02*
X3547500Y-6480600D01*
X3547500Y-6404400D02*
X3471300Y-6480600D01*
D11*
X3846372Y-6333984D02*
X3865420Y-6333984D01*
X3865420Y-6333984D02*
X3884467Y-6343508D01*
X3884467Y-6343508D02*
X3893991Y-6353031D01*
X3893991Y-6353031D02*
X3903515Y-6372079D01*
X3903515Y-6372079D02*
X3913039Y-6410174D01*
X3913039Y-6410174D02*
X3913039Y-6457793D01*
X3913039Y-6457793D02*
X3903515Y-6495888D01*
X3903515Y-6495888D02*
X3893991Y-6514936D01*
X3893991Y-6514936D02*
X3884467Y-6524460D01*
X3884467Y-6524460D02*
X3865420Y-6533984D01*
X3865420Y-6533984D02*
X3846372Y-6533984D01*
X3846372Y-6533984D02*
X3827324Y-6524460D01*
X3827324Y-6524460D02*
X3817801Y-6514936D01*
X3817801Y-6514936D02*
X3808277Y-6495888D01*
X3808277Y-6495888D02*
X3798753Y-6457793D01*
X3798753Y-6457793D02*
X3798753Y-6410174D01*
X3798753Y-6410174D02*
X3808277Y-6372079D01*
X3808277Y-6372079D02*
X3817801Y-6353031D01*
X3817801Y-6353031D02*
X3827324Y-6343508D01*
X3827324Y-6343508D02*
X3846372Y-6333984D01*
X3998753Y-6514936D02*
X4008277Y-6524460D01*
X4008277Y-6524460D02*
X3998753Y-6533984D01*
X3998753Y-6533984D02*
X3989229Y-6524460D01*
X3989229Y-6524460D02*
X3998753Y-6514936D01*
X3998753Y-6514936D02*
X3998753Y-6533984D01*
X4074943Y-6333984D02*
X4208277Y-6333984D01*
X4208277Y-6333984D02*
X4122562Y-6533984D01*
X4370182Y-6333984D02*
X4332086Y-6333984D01*
X4332086Y-6333984D02*
X4313039Y-6343508D01*
X4313039Y-6343508D02*
X4303515Y-6353031D01*
X4303515Y-6353031D02*
X4284467Y-6381603D01*
X4284467Y-6381603D02*
X4274944Y-6419698D01*
X4274944Y-6419698D02*
X4274944Y-6495888D01*
X4274944Y-6495888D02*
X4284467Y-6514936D01*
X4284467Y-6514936D02*
X4293991Y-6524460D01*
X4293991Y-6524460D02*
X4313039Y-6533984D01*
X4313039Y-6533984D02*
X4351134Y-6533984D01*
X4351134Y-6533984D02*
X4370182Y-6524460D01*
X4370182Y-6524460D02*
X4379705Y-6514936D01*
X4379705Y-6514936D02*
X4389229Y-6495888D01*
X4389229Y-6495888D02*
X4389229Y-6448269D01*
X4389229Y-6448269D02*
X4379705Y-6429222D01*
X4379705Y-6429222D02*
X4370182Y-6419698D01*
X4370182Y-6419698D02*
X4351134Y-6410174D01*
X4351134Y-6410174D02*
X4313039Y-6410174D01*
X4313039Y-6410174D02*
X4293991Y-6419698D01*
X4293991Y-6419698D02*
X4284467Y-6429222D01*
X4284467Y-6429222D02*
X4274944Y-6448269D01*
X4465420Y-6353031D02*
X4474944Y-6343508D01*
X4474944Y-6343508D02*
X4493991Y-6333984D01*
X4493991Y-6333984D02*
X4541610Y-6333984D01*
X4541610Y-6333984D02*
X4560658Y-6343508D01*
X4560658Y-6343508D02*
X4570182Y-6353031D01*
X4570182Y-6353031D02*
X4579705Y-6372079D01*
X4579705Y-6372079D02*
X4579705Y-6391127D01*
X4579705Y-6391127D02*
X4570182Y-6419698D01*
X4570182Y-6419698D02*
X4455896Y-6533984D01*
X4455896Y-6533984D02*
X4579705Y-6533984D01*
X4665420Y-6533984D02*
X4665420Y-6400650D01*
X4665420Y-6419698D02*
X4674944Y-6410174D01*
X4674944Y-6410174D02*
X4693991Y-6400650D01*
X4693991Y-6400650D02*
X4722563Y-6400650D01*
X4722563Y-6400650D02*
X4741610Y-6410174D01*
X4741610Y-6410174D02*
X4751134Y-6429222D01*
X4751134Y-6429222D02*
X4751134Y-6533984D01*
X4751134Y-6429222D02*
X4760658Y-6410174D01*
X4760658Y-6410174D02*
X4779705Y-6400650D01*
X4779705Y-6400650D02*
X4808277Y-6400650D01*
X4808277Y-6400650D02*
X4827325Y-6410174D01*
X4827325Y-6410174D02*
X4836848Y-6429222D01*
X4836848Y-6429222D02*
X4836848Y-6533984D01*
X4932086Y-6533984D02*
X4932086Y-6400650D01*
X4932086Y-6419698D02*
X4941610Y-6410174D01*
X4941610Y-6410174D02*
X4960658Y-6400650D01*
X4960658Y-6400650D02*
X4989229Y-6400650D01*
X4989229Y-6400650D02*
X5008277Y-6410174D01*
X5008277Y-6410174D02*
X5017801Y-6429222D01*
X5017801Y-6429222D02*
X5017801Y-6533984D01*
X5017801Y-6429222D02*
X5027325Y-6410174D01*
X5027325Y-6410174D02*
X5046372Y-6400650D01*
X5046372Y-6400650D02*
X5074944Y-6400650D01*
X5074944Y-6400650D02*
X5093991Y-6410174D01*
X5093991Y-6410174D02*
X5103515Y-6429222D01*
X5103515Y-6429222D02*
X5103515Y-6533984D01*
X5493991Y-6324460D02*
X5322563Y-6581603D01*
X5751134Y-6333984D02*
X5770182Y-6333984D01*
X5770182Y-6333984D02*
X5789229Y-6343508D01*
X5789229Y-6343508D02*
X5798753Y-6353031D01*
X5798753Y-6353031D02*
X5808277Y-6372079D01*
X5808277Y-6372079D02*
X5817801Y-6410174D01*
X5817801Y-6410174D02*
X5817801Y-6457793D01*
X5817801Y-6457793D02*
X5808277Y-6495888D01*
X5808277Y-6495888D02*
X5798753Y-6514936D01*
X5798753Y-6514936D02*
X5789229Y-6524460D01*
X5789229Y-6524460D02*
X5770182Y-6533984D01*
X5770182Y-6533984D02*
X5751134Y-6533984D01*
X5751134Y-6533984D02*
X5732086Y-6524460D01*
X5732086Y-6524460D02*
X5722563Y-6514936D01*
X5722563Y-6514936D02*
X5713039Y-6495888D01*
X5713039Y-6495888D02*
X5703515Y-6457793D01*
X5703515Y-6457793D02*
X5703515Y-6410174D01*
X5703515Y-6410174D02*
X5713039Y-6372079D01*
X5713039Y-6372079D02*
X5722563Y-6353031D01*
X5722563Y-6353031D02*
X5732086Y-6343508D01*
X5732086Y-6343508D02*
X5751134Y-6333984D01*
X5903515Y-6514936D02*
X5913039Y-6524460D01*
X5913039Y-6524460D02*
X5903515Y-6533984D01*
X5903515Y-6533984D02*
X5893991Y-6524460D01*
X5893991Y-6524460D02*
X5903515Y-6514936D01*
X5903515Y-6514936D02*
X5903515Y-6533984D01*
X6036848Y-6333984D02*
X6055896Y-6333984D01*
X6055896Y-6333984D02*
X6074944Y-6343508D01*
X6074944Y-6343508D02*
X6084467Y-6353031D01*
X6084467Y-6353031D02*
X6093991Y-6372079D01*
X6093991Y-6372079D02*
X6103515Y-6410174D01*
X6103515Y-6410174D02*
X6103515Y-6457793D01*
X6103515Y-6457793D02*
X6093991Y-6495888D01*
X6093991Y-6495888D02*
X6084467Y-6514936D01*
X6084467Y-6514936D02*
X6074944Y-6524460D01*
X6074944Y-6524460D02*
X6055896Y-6533984D01*
X6055896Y-6533984D02*
X6036848Y-6533984D01*
X6036848Y-6533984D02*
X6017801Y-6524460D01*
X6017801Y-6524460D02*
X6008277Y-6514936D01*
X6008277Y-6514936D02*
X5998753Y-6495888D01*
X5998753Y-6495888D02*
X5989229Y-6457793D01*
X5989229Y-6457793D02*
X5989229Y-6410174D01*
X5989229Y-6410174D02*
X5998753Y-6372079D01*
X5998753Y-6372079D02*
X6008277Y-6353031D01*
X6008277Y-6353031D02*
X6017801Y-6343508D01*
X6017801Y-6343508D02*
X6036848Y-6333984D01*
X6170182Y-6333984D02*
X6293991Y-6333984D01*
X6293991Y-6333984D02*
X6227325Y-6410174D01*
X6227325Y-6410174D02*
X6255896Y-6410174D01*
X6255896Y-6410174D02*
X6274944Y-6419698D01*
X6274944Y-6419698D02*
X6284467Y-6429222D01*
X6284467Y-6429222D02*
X6293991Y-6448269D01*
X6293991Y-6448269D02*
X6293991Y-6495888D01*
X6293991Y-6495888D02*
X6284467Y-6514936D01*
X6284467Y-6514936D02*
X6274944Y-6524460D01*
X6274944Y-6524460D02*
X6255896Y-6533984D01*
X6255896Y-6533984D02*
X6198753Y-6533984D01*
X6198753Y-6533984D02*
X6179706Y-6524460D01*
X6179706Y-6524460D02*
X6170182Y-6514936D01*
X6417801Y-6333984D02*
X6436848Y-6333984D01*
X6436848Y-6333984D02*
X6455896Y-6343508D01*
X6455896Y-6343508D02*
X6465420Y-6353031D01*
X6465420Y-6353031D02*
X6474944Y-6372079D01*
X6474944Y-6372079D02*
X6484467Y-6410174D01*
X6484467Y-6410174D02*
X6484467Y-6457793D01*
X6484467Y-6457793D02*
X6474944Y-6495888D01*
X6474944Y-6495888D02*
X6465420Y-6514936D01*
X6465420Y-6514936D02*
X6455896Y-6524460D01*
X6455896Y-6524460D02*
X6436848Y-6533984D01*
X6436848Y-6533984D02*
X6417801Y-6533984D01*
X6417801Y-6533984D02*
X6398753Y-6524460D01*
X6398753Y-6524460D02*
X6389229Y-6514936D01*
X6389229Y-6514936D02*
X6379706Y-6495888D01*
X6379706Y-6495888D02*
X6370182Y-6457793D01*
X6370182Y-6457793D02*
X6370182Y-6410174D01*
X6370182Y-6410174D02*
X6379706Y-6372079D01*
X6379706Y-6372079D02*
X6389229Y-6353031D01*
X6389229Y-6353031D02*
X6398753Y-6343508D01*
X6398753Y-6343508D02*
X6417801Y-6333984D01*
X6608277Y-6333984D02*
X6627325Y-6333984D01*
X6627325Y-6333984D02*
X6646372Y-6343508D01*
X6646372Y-6343508D02*
X6655896Y-6353031D01*
X6655896Y-6353031D02*
X6665420Y-6372079D01*
X6665420Y-6372079D02*
X6674944Y-6410174D01*
X6674944Y-6410174D02*
X6674944Y-6457793D01*
X6674944Y-6457793D02*
X6665420Y-6495888D01*
X6665420Y-6495888D02*
X6655896Y-6514936D01*
X6655896Y-6514936D02*
X6646372Y-6524460D01*
X6646372Y-6524460D02*
X6627325Y-6533984D01*
X6627325Y-6533984D02*
X6608277Y-6533984D01*
X6608277Y-6533984D02*
X6589229Y-6524460D01*
X6589229Y-6524460D02*
X6579706Y-6514936D01*
X6579706Y-6514936D02*
X6570182Y-6495888D01*
X6570182Y-6495888D02*
X6560658Y-6457793D01*
X6560658Y-6457793D02*
X6560658Y-6410174D01*
X6560658Y-6410174D02*
X6570182Y-6372079D01*
X6570182Y-6372079D02*
X6579706Y-6353031D01*
X6579706Y-6353031D02*
X6589229Y-6343508D01*
X6589229Y-6343508D02*
X6608277Y-6333984D01*
X6751134Y-6333984D02*
X6751134Y-6372079D01*
X6827325Y-6333984D02*
X6827325Y-6372079D01*
X7122563Y-6610174D02*
X7113039Y-6600650D01*
X7113039Y-6600650D02*
X7093991Y-6572079D01*
X7093991Y-6572079D02*
X7084468Y-6553031D01*
X7084468Y-6553031D02*
X7074944Y-6524460D01*
X7074944Y-6524460D02*
X7065420Y-6476841D01*
X7065420Y-6476841D02*
X7065420Y-6438746D01*
X7065420Y-6438746D02*
X7074944Y-6391127D01*
X7074944Y-6391127D02*
X7084468Y-6362555D01*
X7084468Y-6362555D02*
X7093991Y-6343508D01*
X7093991Y-6343508D02*
X7113039Y-6314936D01*
X7113039Y-6314936D02*
X7122563Y-6305412D01*
X7189229Y-6353031D02*
X7198753Y-6343508D01*
X7198753Y-6343508D02*
X7217801Y-6333984D01*
X7217801Y-6333984D02*
X7265420Y-6333984D01*
X7265420Y-6333984D02*
X7284468Y-6343508D01*
X7284468Y-6343508D02*
X7293991Y-6353031D01*
X7293991Y-6353031D02*
X7303515Y-6372079D01*
X7303515Y-6372079D02*
X7303515Y-6391127D01*
X7303515Y-6391127D02*
X7293991Y-6419698D01*
X7293991Y-6419698D02*
X7179706Y-6533984D01*
X7179706Y-6533984D02*
X7303515Y-6533984D01*
X7379706Y-6353031D02*
X7389229Y-6343508D01*
X7389229Y-6343508D02*
X7408277Y-6333984D01*
X7408277Y-6333984D02*
X7455896Y-6333984D01*
X7455896Y-6333984D02*
X7474944Y-6343508D01*
X7474944Y-6343508D02*
X7484468Y-6353031D01*
X7484468Y-6353031D02*
X7493991Y-6372079D01*
X7493991Y-6372079D02*
X7493991Y-6391127D01*
X7493991Y-6391127D02*
X7484468Y-6419698D01*
X7484468Y-6419698D02*
X7370182Y-6533984D01*
X7370182Y-6533984D02*
X7493991Y-6533984D01*
X7732087Y-6533984D02*
X7732087Y-6333984D01*
X7817801Y-6533984D02*
X7817801Y-6429222D01*
X7817801Y-6429222D02*
X7808277Y-6410174D01*
X7808277Y-6410174D02*
X7789230Y-6400650D01*
X7789230Y-6400650D02*
X7760658Y-6400650D01*
X7760658Y-6400650D02*
X7741610Y-6410174D01*
X7741610Y-6410174D02*
X7732087Y-6419698D01*
X7941610Y-6533984D02*
X7922563Y-6524460D01*
X7922563Y-6524460D02*
X7913039Y-6514936D01*
X7913039Y-6514936D02*
X7903515Y-6495888D01*
X7903515Y-6495888D02*
X7903515Y-6438746D01*
X7903515Y-6438746D02*
X7913039Y-6419698D01*
X7913039Y-6419698D02*
X7922563Y-6410174D01*
X7922563Y-6410174D02*
X7941610Y-6400650D01*
X7941610Y-6400650D02*
X7970182Y-6400650D01*
X7970182Y-6400650D02*
X7989230Y-6410174D01*
X7989230Y-6410174D02*
X7998753Y-6419698D01*
X7998753Y-6419698D02*
X8008277Y-6438746D01*
X8008277Y-6438746D02*
X8008277Y-6495888D01*
X8008277Y-6495888D02*
X7998753Y-6514936D01*
X7998753Y-6514936D02*
X7989230Y-6524460D01*
X7989230Y-6524460D02*
X7970182Y-6533984D01*
X7970182Y-6533984D02*
X7941610Y-6533984D01*
X8122563Y-6533984D02*
X8103515Y-6524460D01*
X8103515Y-6524460D02*
X8093991Y-6505412D01*
X8093991Y-6505412D02*
X8093991Y-6333984D01*
X8274944Y-6524460D02*
X8255896Y-6533984D01*
X8255896Y-6533984D02*
X8217801Y-6533984D01*
X8217801Y-6533984D02*
X8198753Y-6524460D01*
X8198753Y-6524460D02*
X8189230Y-6505412D01*
X8189230Y-6505412D02*
X8189230Y-6429222D01*
X8189230Y-6429222D02*
X8198753Y-6410174D01*
X8198753Y-6410174D02*
X8217801Y-6400650D01*
X8217801Y-6400650D02*
X8255896Y-6400650D01*
X8255896Y-6400650D02*
X8274944Y-6410174D01*
X8274944Y-6410174D02*
X8284468Y-6429222D01*
X8284468Y-6429222D02*
X8284468Y-6448269D01*
X8284468Y-6448269D02*
X8189230Y-6467317D01*
X8360658Y-6524460D02*
X8379706Y-6533984D01*
X8379706Y-6533984D02*
X8417801Y-6533984D01*
X8417801Y-6533984D02*
X8436849Y-6524460D01*
X8436849Y-6524460D02*
X8446373Y-6505412D01*
X8446373Y-6505412D02*
X8446373Y-6495888D01*
X8446373Y-6495888D02*
X8436849Y-6476841D01*
X8436849Y-6476841D02*
X8417801Y-6467317D01*
X8417801Y-6467317D02*
X8389230Y-6467317D01*
X8389230Y-6467317D02*
X8370182Y-6457793D01*
X8370182Y-6457793D02*
X8360658Y-6438746D01*
X8360658Y-6438746D02*
X8360658Y-6429222D01*
X8360658Y-6429222D02*
X8370182Y-6410174D01*
X8370182Y-6410174D02*
X8389230Y-6400650D01*
X8389230Y-6400650D02*
X8417801Y-6400650D01*
X8417801Y-6400650D02*
X8436849Y-6410174D01*
X8513039Y-6610174D02*
X8522563Y-6600650D01*
X8522563Y-6600650D02*
X8541611Y-6572079D01*
X8541611Y-6572079D02*
X8551134Y-6553031D01*
X8551134Y-6553031D02*
X8560658Y-6524460D01*
X8560658Y-6524460D02*
X8570182Y-6476841D01*
X8570182Y-6476841D02*
X8570182Y-6438746D01*
X8570182Y-6438746D02*
X8560658Y-6391127D01*
X8560658Y-6391127D02*
X8551134Y-6362555D01*
X8551134Y-6362555D02*
X8541611Y-6343508D01*
X8541611Y-6343508D02*
X8522563Y-6314936D01*
X8522563Y-6314936D02*
X8513039Y-6305412D01*
D12*
X3547500Y-6706500D02*
G75*
G02*
X3457500Y-6706500I-45000J0D01*
G01*
X3457500Y-6706500D02*
G75*
G02*
X3547500Y-6706500I45000J0D01*
G01*
D11*
X3846372Y-6597984D02*
X3865420Y-6597984D01*
X3865420Y-6597984D02*
X3884467Y-6607508D01*
X3884467Y-6607508D02*
X3893991Y-6617031D01*
X3893991Y-6617031D02*
X3903515Y-6636079D01*
X3903515Y-6636079D02*
X3913039Y-6674174D01*
X3913039Y-6674174D02*
X3913039Y-6721793D01*
X3913039Y-6721793D02*
X3903515Y-6759888D01*
X3903515Y-6759888D02*
X3893991Y-6778936D01*
X3893991Y-6778936D02*
X3884467Y-6788460D01*
X3884467Y-6788460D02*
X3865420Y-6797984D01*
X3865420Y-6797984D02*
X3846372Y-6797984D01*
X3846372Y-6797984D02*
X3827324Y-6788460D01*
X3827324Y-6788460D02*
X3817801Y-6778936D01*
X3817801Y-6778936D02*
X3808277Y-6759888D01*
X3808277Y-6759888D02*
X3798753Y-6721793D01*
X3798753Y-6721793D02*
X3798753Y-6674174D01*
X3798753Y-6674174D02*
X3808277Y-6636079D01*
X3808277Y-6636079D02*
X3817801Y-6617031D01*
X3817801Y-6617031D02*
X3827324Y-6607508D01*
X3827324Y-6607508D02*
X3846372Y-6597984D01*
X3998753Y-6778936D02*
X4008277Y-6788460D01*
X4008277Y-6788460D02*
X3998753Y-6797984D01*
X3998753Y-6797984D02*
X3989229Y-6788460D01*
X3989229Y-6788460D02*
X3998753Y-6778936D01*
X3998753Y-6778936D02*
X3998753Y-6797984D01*
X4103515Y-6797984D02*
X4141610Y-6797984D01*
X4141610Y-6797984D02*
X4160658Y-6788460D01*
X4160658Y-6788460D02*
X4170182Y-6778936D01*
X4170182Y-6778936D02*
X4189229Y-6750365D01*
X4189229Y-6750365D02*
X4198753Y-6712269D01*
X4198753Y-6712269D02*
X4198753Y-6636079D01*
X4198753Y-6636079D02*
X4189229Y-6617031D01*
X4189229Y-6617031D02*
X4179705Y-6607508D01*
X4179705Y-6607508D02*
X4160658Y-6597984D01*
X4160658Y-6597984D02*
X4122562Y-6597984D01*
X4122562Y-6597984D02*
X4103515Y-6607508D01*
X4103515Y-6607508D02*
X4093991Y-6617031D01*
X4093991Y-6617031D02*
X4084467Y-6636079D01*
X4084467Y-6636079D02*
X4084467Y-6683698D01*
X4084467Y-6683698D02*
X4093991Y-6702746D01*
X4093991Y-6702746D02*
X4103515Y-6712269D01*
X4103515Y-6712269D02*
X4122562Y-6721793D01*
X4122562Y-6721793D02*
X4160658Y-6721793D01*
X4160658Y-6721793D02*
X4179705Y-6712269D01*
X4179705Y-6712269D02*
X4189229Y-6702746D01*
X4189229Y-6702746D02*
X4198753Y-6683698D01*
X4322563Y-6597984D02*
X4341610Y-6597984D01*
X4341610Y-6597984D02*
X4360658Y-6607508D01*
X4360658Y-6607508D02*
X4370182Y-6617031D01*
X4370182Y-6617031D02*
X4379705Y-6636079D01*
X4379705Y-6636079D02*
X4389229Y-6674174D01*
X4389229Y-6674174D02*
X4389229Y-6721793D01*
X4389229Y-6721793D02*
X4379705Y-6759888D01*
X4379705Y-6759888D02*
X4370182Y-6778936D01*
X4370182Y-6778936D02*
X4360658Y-6788460D01*
X4360658Y-6788460D02*
X4341610Y-6797984D01*
X4341610Y-6797984D02*
X4322563Y-6797984D01*
X4322563Y-6797984D02*
X4303515Y-6788460D01*
X4303515Y-6788460D02*
X4293991Y-6778936D01*
X4293991Y-6778936D02*
X4284467Y-6759888D01*
X4284467Y-6759888D02*
X4274944Y-6721793D01*
X4274944Y-6721793D02*
X4274944Y-6674174D01*
X4274944Y-6674174D02*
X4284467Y-6636079D01*
X4284467Y-6636079D02*
X4293991Y-6617031D01*
X4293991Y-6617031D02*
X4303515Y-6607508D01*
X4303515Y-6607508D02*
X4322563Y-6597984D01*
X4513039Y-6597984D02*
X4532086Y-6597984D01*
X4532086Y-6597984D02*
X4551134Y-6607508D01*
X4551134Y-6607508D02*
X4560658Y-6617031D01*
X4560658Y-6617031D02*
X4570182Y-6636079D01*
X4570182Y-6636079D02*
X4579705Y-6674174D01*
X4579705Y-6674174D02*
X4579705Y-6721793D01*
X4579705Y-6721793D02*
X4570182Y-6759888D01*
X4570182Y-6759888D02*
X4560658Y-6778936D01*
X4560658Y-6778936D02*
X4551134Y-6788460D01*
X4551134Y-6788460D02*
X4532086Y-6797984D01*
X4532086Y-6797984D02*
X4513039Y-6797984D01*
X4513039Y-6797984D02*
X4493991Y-6788460D01*
X4493991Y-6788460D02*
X4484467Y-6778936D01*
X4484467Y-6778936D02*
X4474944Y-6759888D01*
X4474944Y-6759888D02*
X4465420Y-6721793D01*
X4465420Y-6721793D02*
X4465420Y-6674174D01*
X4465420Y-6674174D02*
X4474944Y-6636079D01*
X4474944Y-6636079D02*
X4484467Y-6617031D01*
X4484467Y-6617031D02*
X4493991Y-6607508D01*
X4493991Y-6607508D02*
X4513039Y-6597984D01*
X4665420Y-6797984D02*
X4665420Y-6664650D01*
X4665420Y-6683698D02*
X4674944Y-6674174D01*
X4674944Y-6674174D02*
X4693991Y-6664650D01*
X4693991Y-6664650D02*
X4722563Y-6664650D01*
X4722563Y-6664650D02*
X4741610Y-6674174D01*
X4741610Y-6674174D02*
X4751134Y-6693222D01*
X4751134Y-6693222D02*
X4751134Y-6797984D01*
X4751134Y-6693222D02*
X4760658Y-6674174D01*
X4760658Y-6674174D02*
X4779705Y-6664650D01*
X4779705Y-6664650D02*
X4808277Y-6664650D01*
X4808277Y-6664650D02*
X4827325Y-6674174D01*
X4827325Y-6674174D02*
X4836848Y-6693222D01*
X4836848Y-6693222D02*
X4836848Y-6797984D01*
X4932086Y-6797984D02*
X4932086Y-6664650D01*
X4932086Y-6683698D02*
X4941610Y-6674174D01*
X4941610Y-6674174D02*
X4960658Y-6664650D01*
X4960658Y-6664650D02*
X4989229Y-6664650D01*
X4989229Y-6664650D02*
X5008277Y-6674174D01*
X5008277Y-6674174D02*
X5017801Y-6693222D01*
X5017801Y-6693222D02*
X5017801Y-6797984D01*
X5017801Y-6693222D02*
X5027325Y-6674174D01*
X5027325Y-6674174D02*
X5046372Y-6664650D01*
X5046372Y-6664650D02*
X5074944Y-6664650D01*
X5074944Y-6664650D02*
X5093991Y-6674174D01*
X5093991Y-6674174D02*
X5103515Y-6693222D01*
X5103515Y-6693222D02*
X5103515Y-6797984D01*
X5493991Y-6588460D02*
X5322563Y-6845603D01*
X5751134Y-6597984D02*
X5770182Y-6597984D01*
X5770182Y-6597984D02*
X5789229Y-6607508D01*
X5789229Y-6607508D02*
X5798753Y-6617031D01*
X5798753Y-6617031D02*
X5808277Y-6636079D01*
X5808277Y-6636079D02*
X5817801Y-6674174D01*
X5817801Y-6674174D02*
X5817801Y-6721793D01*
X5817801Y-6721793D02*
X5808277Y-6759888D01*
X5808277Y-6759888D02*
X5798753Y-6778936D01*
X5798753Y-6778936D02*
X5789229Y-6788460D01*
X5789229Y-6788460D02*
X5770182Y-6797984D01*
X5770182Y-6797984D02*
X5751134Y-6797984D01*
X5751134Y-6797984D02*
X5732086Y-6788460D01*
X5732086Y-6788460D02*
X5722563Y-6778936D01*
X5722563Y-6778936D02*
X5713039Y-6759888D01*
X5713039Y-6759888D02*
X5703515Y-6721793D01*
X5703515Y-6721793D02*
X5703515Y-6674174D01*
X5703515Y-6674174D02*
X5713039Y-6636079D01*
X5713039Y-6636079D02*
X5722563Y-6617031D01*
X5722563Y-6617031D02*
X5732086Y-6607508D01*
X5732086Y-6607508D02*
X5751134Y-6597984D01*
X5903515Y-6778936D02*
X5913039Y-6788460D01*
X5913039Y-6788460D02*
X5903515Y-6797984D01*
X5903515Y-6797984D02*
X5893991Y-6788460D01*
X5893991Y-6788460D02*
X5903515Y-6778936D01*
X5903515Y-6778936D02*
X5903515Y-6797984D01*
X6036848Y-6597984D02*
X6055896Y-6597984D01*
X6055896Y-6597984D02*
X6074944Y-6607508D01*
X6074944Y-6607508D02*
X6084467Y-6617031D01*
X6084467Y-6617031D02*
X6093991Y-6636079D01*
X6093991Y-6636079D02*
X6103515Y-6674174D01*
X6103515Y-6674174D02*
X6103515Y-6721793D01*
X6103515Y-6721793D02*
X6093991Y-6759888D01*
X6093991Y-6759888D02*
X6084467Y-6778936D01*
X6084467Y-6778936D02*
X6074944Y-6788460D01*
X6074944Y-6788460D02*
X6055896Y-6797984D01*
X6055896Y-6797984D02*
X6036848Y-6797984D01*
X6036848Y-6797984D02*
X6017801Y-6788460D01*
X6017801Y-6788460D02*
X6008277Y-6778936D01*
X6008277Y-6778936D02*
X5998753Y-6759888D01*
X5998753Y-6759888D02*
X5989229Y-6721793D01*
X5989229Y-6721793D02*
X5989229Y-6674174D01*
X5989229Y-6674174D02*
X5998753Y-6636079D01*
X5998753Y-6636079D02*
X6008277Y-6617031D01*
X6008277Y-6617031D02*
X6017801Y-6607508D01*
X6017801Y-6607508D02*
X6036848Y-6597984D01*
X6170182Y-6597984D02*
X6293991Y-6597984D01*
X6293991Y-6597984D02*
X6227325Y-6674174D01*
X6227325Y-6674174D02*
X6255896Y-6674174D01*
X6255896Y-6674174D02*
X6274944Y-6683698D01*
X6274944Y-6683698D02*
X6284467Y-6693222D01*
X6284467Y-6693222D02*
X6293991Y-6712269D01*
X6293991Y-6712269D02*
X6293991Y-6759888D01*
X6293991Y-6759888D02*
X6284467Y-6778936D01*
X6284467Y-6778936D02*
X6274944Y-6788460D01*
X6274944Y-6788460D02*
X6255896Y-6797984D01*
X6255896Y-6797984D02*
X6198753Y-6797984D01*
X6198753Y-6797984D02*
X6179706Y-6788460D01*
X6179706Y-6788460D02*
X6170182Y-6778936D01*
X6474944Y-6597984D02*
X6379706Y-6597984D01*
X6379706Y-6597984D02*
X6370182Y-6693222D01*
X6370182Y-6693222D02*
X6379706Y-6683698D01*
X6379706Y-6683698D02*
X6398753Y-6674174D01*
X6398753Y-6674174D02*
X6446372Y-6674174D01*
X6446372Y-6674174D02*
X6465420Y-6683698D01*
X6465420Y-6683698D02*
X6474944Y-6693222D01*
X6474944Y-6693222D02*
X6484467Y-6712269D01*
X6484467Y-6712269D02*
X6484467Y-6759888D01*
X6484467Y-6759888D02*
X6474944Y-6778936D01*
X6474944Y-6778936D02*
X6465420Y-6788460D01*
X6465420Y-6788460D02*
X6446372Y-6797984D01*
X6446372Y-6797984D02*
X6398753Y-6797984D01*
X6398753Y-6797984D02*
X6379706Y-6788460D01*
X6379706Y-6788460D02*
X6370182Y-6778936D01*
X6655896Y-6664650D02*
X6655896Y-6797984D01*
X6608277Y-6588460D02*
X6560658Y-6731317D01*
X6560658Y-6731317D02*
X6684467Y-6731317D01*
X6751134Y-6597984D02*
X6751134Y-6636079D01*
X6827325Y-6597984D02*
X6827325Y-6636079D01*
X7122563Y-6874174D02*
X7113039Y-6864650D01*
X7113039Y-6864650D02*
X7093991Y-6836079D01*
X7093991Y-6836079D02*
X7084468Y-6817031D01*
X7084468Y-6817031D02*
X7074944Y-6788460D01*
X7074944Y-6788460D02*
X7065420Y-6740841D01*
X7065420Y-6740841D02*
X7065420Y-6702746D01*
X7065420Y-6702746D02*
X7074944Y-6655127D01*
X7074944Y-6655127D02*
X7084468Y-6626555D01*
X7084468Y-6626555D02*
X7093991Y-6607508D01*
X7093991Y-6607508D02*
X7113039Y-6578936D01*
X7113039Y-6578936D02*
X7122563Y-6569412D01*
X7303515Y-6797984D02*
X7189229Y-6797984D01*
X7246372Y-6797984D02*
X7246372Y-6597984D01*
X7246372Y-6597984D02*
X7227325Y-6626555D01*
X7227325Y-6626555D02*
X7208277Y-6645603D01*
X7208277Y-6645603D02*
X7189229Y-6655127D01*
X7474944Y-6664650D02*
X7474944Y-6797984D01*
X7427325Y-6588460D02*
X7379706Y-6731317D01*
X7379706Y-6731317D02*
X7503515Y-6731317D01*
X7732087Y-6797984D02*
X7732087Y-6597984D01*
X7817801Y-6797984D02*
X7817801Y-6693222D01*
X7817801Y-6693222D02*
X7808277Y-6674174D01*
X7808277Y-6674174D02*
X7789230Y-6664650D01*
X7789230Y-6664650D02*
X7760658Y-6664650D01*
X7760658Y-6664650D02*
X7741610Y-6674174D01*
X7741610Y-6674174D02*
X7732087Y-6683698D01*
X7941610Y-6797984D02*
X7922563Y-6788460D01*
X7922563Y-6788460D02*
X7913039Y-6778936D01*
X7913039Y-6778936D02*
X7903515Y-6759888D01*
X7903515Y-6759888D02*
X7903515Y-6702746D01*
X7903515Y-6702746D02*
X7913039Y-6683698D01*
X7913039Y-6683698D02*
X7922563Y-6674174D01*
X7922563Y-6674174D02*
X7941610Y-6664650D01*
X7941610Y-6664650D02*
X7970182Y-6664650D01*
X7970182Y-6664650D02*
X7989230Y-6674174D01*
X7989230Y-6674174D02*
X7998753Y-6683698D01*
X7998753Y-6683698D02*
X8008277Y-6702746D01*
X8008277Y-6702746D02*
X8008277Y-6759888D01*
X8008277Y-6759888D02*
X7998753Y-6778936D01*
X7998753Y-6778936D02*
X7989230Y-6788460D01*
X7989230Y-6788460D02*
X7970182Y-6797984D01*
X7970182Y-6797984D02*
X7941610Y-6797984D01*
X8122563Y-6797984D02*
X8103515Y-6788460D01*
X8103515Y-6788460D02*
X8093991Y-6769412D01*
X8093991Y-6769412D02*
X8093991Y-6597984D01*
X8274944Y-6788460D02*
X8255896Y-6797984D01*
X8255896Y-6797984D02*
X8217801Y-6797984D01*
X8217801Y-6797984D02*
X8198753Y-6788460D01*
X8198753Y-6788460D02*
X8189230Y-6769412D01*
X8189230Y-6769412D02*
X8189230Y-6693222D01*
X8189230Y-6693222D02*
X8198753Y-6674174D01*
X8198753Y-6674174D02*
X8217801Y-6664650D01*
X8217801Y-6664650D02*
X8255896Y-6664650D01*
X8255896Y-6664650D02*
X8274944Y-6674174D01*
X8274944Y-6674174D02*
X8284468Y-6693222D01*
X8284468Y-6693222D02*
X8284468Y-6712269D01*
X8284468Y-6712269D02*
X8189230Y-6731317D01*
X8360658Y-6788460D02*
X8379706Y-6797984D01*
X8379706Y-6797984D02*
X8417801Y-6797984D01*
X8417801Y-6797984D02*
X8436849Y-6788460D01*
X8436849Y-6788460D02*
X8446373Y-6769412D01*
X8446373Y-6769412D02*
X8446373Y-6759888D01*
X8446373Y-6759888D02*
X8436849Y-6740841D01*
X8436849Y-6740841D02*
X8417801Y-6731317D01*
X8417801Y-6731317D02*
X8389230Y-6731317D01*
X8389230Y-6731317D02*
X8370182Y-6721793D01*
X8370182Y-6721793D02*
X8360658Y-6702746D01*
X8360658Y-6702746D02*
X8360658Y-6693222D01*
X8360658Y-6693222D02*
X8370182Y-6674174D01*
X8370182Y-6674174D02*
X8389230Y-6664650D01*
X8389230Y-6664650D02*
X8417801Y-6664650D01*
X8417801Y-6664650D02*
X8436849Y-6674174D01*
X8513039Y-6874174D02*
X8522563Y-6864650D01*
X8522563Y-6864650D02*
X8541611Y-6836079D01*
X8541611Y-6836079D02*
X8551134Y-6817031D01*
X8551134Y-6817031D02*
X8560658Y-6788460D01*
X8560658Y-6788460D02*
X8570182Y-6740841D01*
X8570182Y-6740841D02*
X8570182Y-6702746D01*
X8570182Y-6702746D02*
X8560658Y-6655127D01*
X8560658Y-6655127D02*
X8551134Y-6626555D01*
X8551134Y-6626555D02*
X8541611Y-6607508D01*
X8541611Y-6607508D02*
X8522563Y-6578936D01*
X8522563Y-6578936D02*
X8513039Y-6569412D01*
M02*
