%TF.GenerationSoftware,KiCad,Pcbnew,8.0.1-rc1*%
%TF.CreationDate,2024-04-18T22:24:46-05:00*%
%TF.ProjectId,Emotion LED,456d6f74-696f-46e2-904c-45442e6b6963,rev?*%
%TF.SameCoordinates,Original*%
%TF.FileFunction,Copper,L1,Top*%
%TF.FilePolarity,Positive*%
%FSLAX46Y46*%
G04 Gerber Fmt 4.6, Leading zero omitted, Abs format (unit mm)*
G04 Created by KiCad (PCBNEW 8.0.1-rc1) date 2024-04-18 22:24:46*
%MOMM*%
%LPD*%
G01*
G04 APERTURE LIST*
%ADD10C,0.400000*%
%TA.AperFunction,NonConductor*%
%ADD11C,0.400000*%
%TD*%
%ADD12C,0.375000*%
%TA.AperFunction,NonConductor*%
%ADD13C,0.375000*%
%TD*%
%TA.AperFunction,ComponentPad*%
%ADD14C,1.524000*%
%TD*%
%TA.AperFunction,ComponentPad*%
%ADD15C,1.800000*%
%TD*%
%TA.AperFunction,ComponentPad*%
%ADD16R,1.800000X1.800000*%
%TD*%
%TA.AperFunction,Conductor*%
%ADD17C,0.304800*%
%TD*%
%TA.AperFunction,Conductor*%
%ADD18C,0.200000*%
%TD*%
G04 APERTURE END LIST*
D10*
D11*
X59644109Y-29139200D02*
X59929823Y-29234438D01*
X59929823Y-29234438D02*
X60406014Y-29234438D01*
X60406014Y-29234438D02*
X60596490Y-29139200D01*
X60596490Y-29139200D02*
X60691728Y-29043961D01*
X60691728Y-29043961D02*
X60786966Y-28853485D01*
X60786966Y-28853485D02*
X60786966Y-28663009D01*
X60786966Y-28663009D02*
X60691728Y-28472533D01*
X60691728Y-28472533D02*
X60596490Y-28377295D01*
X60596490Y-28377295D02*
X60406014Y-28282057D01*
X60406014Y-28282057D02*
X60025061Y-28186819D01*
X60025061Y-28186819D02*
X59834585Y-28091580D01*
X59834585Y-28091580D02*
X59739347Y-27996342D01*
X59739347Y-27996342D02*
X59644109Y-27805866D01*
X59644109Y-27805866D02*
X59644109Y-27615390D01*
X59644109Y-27615390D02*
X59739347Y-27424914D01*
X59739347Y-27424914D02*
X59834585Y-27329676D01*
X59834585Y-27329676D02*
X60025061Y-27234438D01*
X60025061Y-27234438D02*
X60501252Y-27234438D01*
X60501252Y-27234438D02*
X60786966Y-27329676D01*
X62501252Y-29234438D02*
X62501252Y-28186819D01*
X62501252Y-28186819D02*
X62406014Y-27996342D01*
X62406014Y-27996342D02*
X62215538Y-27901104D01*
X62215538Y-27901104D02*
X61834585Y-27901104D01*
X61834585Y-27901104D02*
X61644109Y-27996342D01*
X62501252Y-29139200D02*
X62310776Y-29234438D01*
X62310776Y-29234438D02*
X61834585Y-29234438D01*
X61834585Y-29234438D02*
X61644109Y-29139200D01*
X61644109Y-29139200D02*
X61548871Y-28948723D01*
X61548871Y-28948723D02*
X61548871Y-28758247D01*
X61548871Y-28758247D02*
X61644109Y-28567771D01*
X61644109Y-28567771D02*
X61834585Y-28472533D01*
X61834585Y-28472533D02*
X62310776Y-28472533D01*
X62310776Y-28472533D02*
X62501252Y-28377295D01*
X64310776Y-29234438D02*
X64310776Y-27234438D01*
X64310776Y-29139200D02*
X64120300Y-29234438D01*
X64120300Y-29234438D02*
X63739347Y-29234438D01*
X63739347Y-29234438D02*
X63548871Y-29139200D01*
X63548871Y-29139200D02*
X63453633Y-29043961D01*
X63453633Y-29043961D02*
X63358395Y-28853485D01*
X63358395Y-28853485D02*
X63358395Y-28282057D01*
X63358395Y-28282057D02*
X63453633Y-28091580D01*
X63453633Y-28091580D02*
X63548871Y-27996342D01*
X63548871Y-27996342D02*
X63739347Y-27901104D01*
X63739347Y-27901104D02*
X64120300Y-27901104D01*
X64120300Y-27901104D02*
X64310776Y-27996342D01*
D10*
D11*
X52239347Y-29234438D02*
X52239347Y-27234438D01*
X52239347Y-28186819D02*
X53382204Y-28186819D01*
X53382204Y-29234438D02*
X53382204Y-27234438D01*
X55191728Y-29234438D02*
X55191728Y-28186819D01*
X55191728Y-28186819D02*
X55096490Y-27996342D01*
X55096490Y-27996342D02*
X54906014Y-27901104D01*
X54906014Y-27901104D02*
X54525061Y-27901104D01*
X54525061Y-27901104D02*
X54334585Y-27996342D01*
X55191728Y-29139200D02*
X55001252Y-29234438D01*
X55001252Y-29234438D02*
X54525061Y-29234438D01*
X54525061Y-29234438D02*
X54334585Y-29139200D01*
X54334585Y-29139200D02*
X54239347Y-28948723D01*
X54239347Y-28948723D02*
X54239347Y-28758247D01*
X54239347Y-28758247D02*
X54334585Y-28567771D01*
X54334585Y-28567771D02*
X54525061Y-28472533D01*
X54525061Y-28472533D02*
X55001252Y-28472533D01*
X55001252Y-28472533D02*
X55191728Y-28377295D01*
X56144109Y-27901104D02*
X56144109Y-29901104D01*
X56144109Y-27996342D02*
X56334585Y-27901104D01*
X56334585Y-27901104D02*
X56715538Y-27901104D01*
X56715538Y-27901104D02*
X56906014Y-27996342D01*
X56906014Y-27996342D02*
X57001252Y-28091580D01*
X57001252Y-28091580D02*
X57096490Y-28282057D01*
X57096490Y-28282057D02*
X57096490Y-28853485D01*
X57096490Y-28853485D02*
X57001252Y-29043961D01*
X57001252Y-29043961D02*
X56906014Y-29139200D01*
X56906014Y-29139200D02*
X56715538Y-29234438D01*
X56715538Y-29234438D02*
X56334585Y-29234438D01*
X56334585Y-29234438D02*
X56144109Y-29139200D01*
D10*
D11*
X74239347Y-29014550D02*
X74239347Y-27014550D01*
X74239347Y-27014550D02*
X75382204Y-29014550D01*
X75382204Y-29014550D02*
X75382204Y-27014550D01*
X77096490Y-28919312D02*
X76906014Y-29014550D01*
X76906014Y-29014550D02*
X76525061Y-29014550D01*
X76525061Y-29014550D02*
X76334585Y-28919312D01*
X76334585Y-28919312D02*
X76239347Y-28728835D01*
X76239347Y-28728835D02*
X76239347Y-27966931D01*
X76239347Y-27966931D02*
X76334585Y-27776454D01*
X76334585Y-27776454D02*
X76525061Y-27681216D01*
X76525061Y-27681216D02*
X76906014Y-27681216D01*
X76906014Y-27681216D02*
X77096490Y-27776454D01*
X77096490Y-27776454D02*
X77191728Y-27966931D01*
X77191728Y-27966931D02*
X77191728Y-28157407D01*
X77191728Y-28157407D02*
X76239347Y-28347883D01*
X78906014Y-27681216D02*
X78906014Y-29014550D01*
X78048871Y-27681216D02*
X78048871Y-28728835D01*
X78048871Y-28728835D02*
X78144109Y-28919312D01*
X78144109Y-28919312D02*
X78334585Y-29014550D01*
X78334585Y-29014550D02*
X78620300Y-29014550D01*
X78620300Y-29014550D02*
X78810776Y-28919312D01*
X78810776Y-28919312D02*
X78906014Y-28824073D01*
D10*
D11*
X67144109Y-28919312D02*
X67429823Y-29014550D01*
X67429823Y-29014550D02*
X67906014Y-29014550D01*
X67906014Y-29014550D02*
X68096490Y-28919312D01*
X68096490Y-28919312D02*
X68191728Y-28824073D01*
X68191728Y-28824073D02*
X68286966Y-28633597D01*
X68286966Y-28633597D02*
X68286966Y-28443121D01*
X68286966Y-28443121D02*
X68191728Y-28252645D01*
X68191728Y-28252645D02*
X68096490Y-28157407D01*
X68096490Y-28157407D02*
X67906014Y-28062169D01*
X67906014Y-28062169D02*
X67525061Y-27966931D01*
X67525061Y-27966931D02*
X67334585Y-27871692D01*
X67334585Y-27871692D02*
X67239347Y-27776454D01*
X67239347Y-27776454D02*
X67144109Y-27585978D01*
X67144109Y-27585978D02*
X67144109Y-27395502D01*
X67144109Y-27395502D02*
X67239347Y-27205026D01*
X67239347Y-27205026D02*
X67334585Y-27109788D01*
X67334585Y-27109788D02*
X67525061Y-27014550D01*
X67525061Y-27014550D02*
X68001252Y-27014550D01*
X68001252Y-27014550D02*
X68286966Y-27109788D01*
X70001252Y-27681216D02*
X70001252Y-29014550D01*
X69144109Y-27681216D02*
X69144109Y-28728835D01*
X69144109Y-28728835D02*
X69239347Y-28919312D01*
X69239347Y-28919312D02*
X69429823Y-29014550D01*
X69429823Y-29014550D02*
X69715538Y-29014550D01*
X69715538Y-29014550D02*
X69906014Y-28919312D01*
X69906014Y-28919312D02*
X70001252Y-28824073D01*
X70953633Y-29014550D02*
X70953633Y-27681216D01*
X70953633Y-28062169D02*
X71048871Y-27871692D01*
X71048871Y-27871692D02*
X71144109Y-27776454D01*
X71144109Y-27776454D02*
X71334585Y-27681216D01*
X71334585Y-27681216D02*
X71525062Y-27681216D01*
D12*
D13*
X45127662Y-28664309D02*
X46080043Y-28664309D01*
X44937186Y-29235738D02*
X45603852Y-27235738D01*
X45603852Y-27235738D02*
X46270519Y-29235738D01*
X46937186Y-27902404D02*
X46937186Y-29235738D01*
X46937186Y-28092880D02*
X47032424Y-27997642D01*
X47032424Y-27997642D02*
X47222900Y-27902404D01*
X47222900Y-27902404D02*
X47508615Y-27902404D01*
X47508615Y-27902404D02*
X47699091Y-27997642D01*
X47699091Y-27997642D02*
X47794329Y-28188119D01*
X47794329Y-28188119D02*
X47794329Y-29235738D01*
X49603853Y-27902404D02*
X49603853Y-29521452D01*
X49603853Y-29521452D02*
X49508615Y-29711928D01*
X49508615Y-29711928D02*
X49413377Y-29807166D01*
X49413377Y-29807166D02*
X49222900Y-29902404D01*
X49222900Y-29902404D02*
X48937186Y-29902404D01*
X48937186Y-29902404D02*
X48746710Y-29807166D01*
X49603853Y-29140500D02*
X49413377Y-29235738D01*
X49413377Y-29235738D02*
X49032424Y-29235738D01*
X49032424Y-29235738D02*
X48841948Y-29140500D01*
X48841948Y-29140500D02*
X48746710Y-29045261D01*
X48746710Y-29045261D02*
X48651472Y-28854785D01*
X48651472Y-28854785D02*
X48651472Y-28283357D01*
X48651472Y-28283357D02*
X48746710Y-28092880D01*
X48746710Y-28092880D02*
X48841948Y-27997642D01*
X48841948Y-27997642D02*
X49032424Y-27902404D01*
X49032424Y-27902404D02*
X49413377Y-27902404D01*
X49413377Y-27902404D02*
X49603853Y-27997642D01*
D10*
D11*
X89239347Y-29234438D02*
X89239347Y-27234438D01*
X89239347Y-27234438D02*
X89906014Y-28663009D01*
X89906014Y-28663009D02*
X90572680Y-27234438D01*
X90572680Y-27234438D02*
X90572680Y-29234438D01*
X91810775Y-29234438D02*
X91620299Y-29139200D01*
X91620299Y-29139200D02*
X91525061Y-29043961D01*
X91525061Y-29043961D02*
X91429823Y-28853485D01*
X91429823Y-28853485D02*
X91429823Y-28282057D01*
X91429823Y-28282057D02*
X91525061Y-28091580D01*
X91525061Y-28091580D02*
X91620299Y-27996342D01*
X91620299Y-27996342D02*
X91810775Y-27901104D01*
X91810775Y-27901104D02*
X92096490Y-27901104D01*
X92096490Y-27901104D02*
X92286966Y-27996342D01*
X92286966Y-27996342D02*
X92382204Y-28091580D01*
X92382204Y-28091580D02*
X92477442Y-28282057D01*
X92477442Y-28282057D02*
X92477442Y-28853485D01*
X92477442Y-28853485D02*
X92382204Y-29043961D01*
X92382204Y-29043961D02*
X92286966Y-29139200D01*
X92286966Y-29139200D02*
X92096490Y-29234438D01*
X92096490Y-29234438D02*
X91810775Y-29234438D01*
X94191728Y-27901104D02*
X94191728Y-29234438D01*
X93334585Y-27901104D02*
X93334585Y-28948723D01*
X93334585Y-28948723D02*
X93429823Y-29139200D01*
X93429823Y-29139200D02*
X93620299Y-29234438D01*
X93620299Y-29234438D02*
X93906014Y-29234438D01*
X93906014Y-29234438D02*
X94096490Y-29139200D01*
X94096490Y-29139200D02*
X94191728Y-29043961D01*
D10*
D11*
X82739347Y-28186819D02*
X83406014Y-28186819D01*
X83691728Y-29234438D02*
X82739347Y-29234438D01*
X82739347Y-29234438D02*
X82739347Y-27234438D01*
X82739347Y-27234438D02*
X83691728Y-27234438D01*
X84358395Y-27901104D02*
X84834585Y-29234438D01*
X85310776Y-27901104D02*
X84834585Y-29234438D01*
X84834585Y-29234438D02*
X84644109Y-29710628D01*
X84644109Y-29710628D02*
X84548871Y-29805866D01*
X84548871Y-29805866D02*
X84358395Y-29901104D01*
X86834586Y-29139200D02*
X86644110Y-29234438D01*
X86644110Y-29234438D02*
X86263157Y-29234438D01*
X86263157Y-29234438D02*
X86072681Y-29139200D01*
X86072681Y-29139200D02*
X85977443Y-28948723D01*
X85977443Y-28948723D02*
X85977443Y-28186819D01*
X85977443Y-28186819D02*
X86072681Y-27996342D01*
X86072681Y-27996342D02*
X86263157Y-27901104D01*
X86263157Y-27901104D02*
X86644110Y-27901104D01*
X86644110Y-27901104D02*
X86834586Y-27996342D01*
X86834586Y-27996342D02*
X86929824Y-28186819D01*
X86929824Y-28186819D02*
X86929824Y-28377295D01*
X86929824Y-28377295D02*
X85977443Y-28567771D01*
D14*
%TO.P,,1*%
%TO.N,N/C*%
X99500000Y-42000000D03*
%TD*%
%TO.P,,1*%
%TO.N,N/C*%
X99500000Y-50000000D03*
%TD*%
%TO.P,REF\u002A\u002A,1*%
%TO.N,N/C*%
X47000000Y-45000000D03*
%TO.P,REF\u002A\u002A,2*%
X47000000Y-55000000D03*
%TD*%
D15*
%TO.P,REF\u002A\u002A,2*%
%TO.N,N/C*%
X77000000Y-38235000D03*
D16*
%TO.P,REF\u002A\u002A,1*%
X77000000Y-40775000D03*
%TD*%
D14*
%TO.P,REF\u002A\u002A,2*%
%TO.N,N/C*%
X84500000Y-55025000D03*
%TO.P,REF\u002A\u002A,1*%
X84500000Y-45025000D03*
%TD*%
%TO.P,REF\u002A\u002A,2*%
%TO.N,N/C*%
X69500000Y-55000000D03*
%TO.P,REF\u002A\u002A,1*%
X69500000Y-45000000D03*
%TD*%
D15*
%TO.P,REF\u002A\u002A,2*%
%TO.N,N/C*%
X84500000Y-38235000D03*
D16*
%TO.P,REF\u002A\u002A,1*%
X84500000Y-40775000D03*
%TD*%
%TO.P,REF\u002A\u002A,1*%
%TO.N,N/C*%
X47000000Y-40750000D03*
D15*
%TO.P,REF\u002A\u002A,2*%
X47000000Y-38210000D03*
%TD*%
D14*
%TO.P,REF\u002A\u002A,2*%
%TO.N,N/C*%
X62000000Y-55000000D03*
%TO.P,REF\u002A\u002A,1*%
X62000000Y-45000000D03*
%TD*%
%TO.P,,2*%
%TO.N,N/C*%
X99500000Y-33500000D03*
%TD*%
%TO.P,,1*%
%TO.N,N/C*%
X69500000Y-33500000D03*
%TD*%
%TO.P,,1*%
%TO.N,N/C*%
X62000000Y-33500000D03*
%TD*%
%TO.P,,1*%
%TO.N,N/C*%
X47000000Y-33500000D03*
%TD*%
D16*
%TO.P,REF\u002A\u002A,1*%
%TO.N,N/C*%
X62000000Y-40750000D03*
D15*
%TO.P,REF\u002A\u002A,2*%
X62000000Y-38210000D03*
%TD*%
D14*
%TO.P,,1*%
%TO.N,N/C*%
X84500000Y-33525000D03*
%TD*%
%TO.P,,1*%
%TO.N,N/C*%
X77000000Y-33525000D03*
%TD*%
%TO.P,,1*%
%TO.N,N/C*%
X54500000Y-33500000D03*
%TD*%
D15*
%TO.P,REF\u002A\u002A,2*%
%TO.N,N/C*%
X92000000Y-38210000D03*
D16*
%TO.P,REF\u002A\u002A,1*%
X92000000Y-40750000D03*
%TD*%
D15*
%TO.P,REF\u002A\u002A,2*%
%TO.N,N/C*%
X69500000Y-38210000D03*
D16*
%TO.P,REF\u002A\u002A,1*%
X69500000Y-40750000D03*
%TD*%
D14*
%TO.P,,1*%
%TO.N,N/C*%
X92000000Y-33500000D03*
%TD*%
D16*
%TO.P,REF\u002A\u002A,1*%
%TO.N,N/C*%
X54500000Y-40750000D03*
D15*
%TO.P,REF\u002A\u002A,2*%
X54500000Y-38210000D03*
%TD*%
D14*
%TO.P,REF\u002A\u002A,2*%
%TO.N,N/C*%
X77000000Y-55025000D03*
%TO.P,REF\u002A\u002A,1*%
X77000000Y-45025000D03*
%TD*%
%TO.P,REF\u002A\u002A,1*%
%TO.N,N/C*%
X54500000Y-45000000D03*
%TO.P,REF\u002A\u002A,2*%
X54500000Y-55000000D03*
%TD*%
%TO.P,REF\u002A\u002A,2*%
%TO.N,N/C*%
X92000000Y-55000000D03*
%TO.P,REF\u002A\u002A,1*%
X92000000Y-45000000D03*
%TD*%
D17*
%TO.N,*%
X77000000Y-33525000D02*
X77000000Y-38235000D01*
X99500000Y-33500000D02*
X99500000Y-42000000D01*
X94500000Y-55000000D02*
X99500000Y-50000000D01*
D18*
X92000000Y-55000000D02*
X94500000Y-55000000D01*
D17*
X47000000Y-55000000D02*
X92000000Y-55000000D01*
X77000000Y-40775000D02*
X77000000Y-45025000D01*
X47000000Y-40750000D02*
X47000000Y-45000000D01*
X69500000Y-40750000D02*
X69500000Y-45000000D01*
X92000000Y-38210000D02*
X92000000Y-33500000D01*
X84500000Y-40775000D02*
X84500000Y-45025000D01*
X54500000Y-38210000D02*
X54500000Y-33500000D01*
X54500000Y-40750000D02*
X54500000Y-45000000D01*
X62000000Y-38210000D02*
X62000000Y-33500000D01*
X62000000Y-40750000D02*
X62000000Y-45000000D01*
X92000000Y-40750000D02*
X92000000Y-45000000D01*
X47000000Y-38210000D02*
X47000000Y-33500000D01*
X84500000Y-38235000D02*
X84500000Y-33525000D01*
X69500000Y-38210000D02*
X69500000Y-33500000D01*
%TD*%
%TA.AperFunction,Conductor*%
%TO.N,GRD*%
G36*
X43415066Y-26020185D02*
G01*
X43460821Y-26072989D01*
X43472027Y-26124500D01*
X43472027Y-31367563D01*
X46210999Y-31367563D01*
X46278038Y-31387248D01*
X46323793Y-31440052D01*
X46333737Y-31509210D01*
X46304712Y-31572766D01*
X46260401Y-31605297D01*
X46062734Y-31691155D01*
X45825163Y-31835626D01*
X45825152Y-31835633D01*
X45609476Y-32011098D01*
X45609470Y-32011103D01*
X45609469Y-32011105D01*
X45586121Y-32036105D01*
X45419684Y-32214316D01*
X45259335Y-32441477D01*
X45131411Y-32688359D01*
X45038299Y-32950351D01*
X45038294Y-32950368D01*
X44981726Y-33222592D01*
X44981725Y-33222594D01*
X44962751Y-33500000D01*
X44981725Y-33777405D01*
X44981726Y-33777407D01*
X45038294Y-34049631D01*
X45038299Y-34049648D01*
X45131411Y-34311640D01*
X45131412Y-34311642D01*
X45259335Y-34558522D01*
X45419683Y-34785683D01*
X45543724Y-34918499D01*
X45575095Y-34980929D01*
X45577100Y-35003135D01*
X45577100Y-36510565D01*
X45557415Y-36577604D01*
X45531356Y-36606752D01*
X45515060Y-36620009D01*
X45312378Y-36837029D01*
X45141153Y-37079600D01*
X45141149Y-37079606D01*
X45004539Y-37343253D01*
X44905105Y-37623032D01*
X44905100Y-37623049D01*
X44844691Y-37913757D01*
X44844690Y-37913759D01*
X44824428Y-38210000D01*
X44844690Y-38506240D01*
X44844691Y-38506242D01*
X44905100Y-38796950D01*
X44905105Y-38796967D01*
X45004539Y-39076746D01*
X45004540Y-39076749D01*
X45006800Y-39081111D01*
X45020162Y-39149691D01*
X44998630Y-39208769D01*
X44990528Y-39220464D01*
X44895949Y-39428684D01*
X44840070Y-39650447D01*
X44829500Y-39784747D01*
X44829500Y-41715238D01*
X44829501Y-41715253D01*
X44838748Y-41832764D01*
X44840070Y-41849553D01*
X44895949Y-42071316D01*
X44907305Y-42096316D01*
X44990528Y-42279537D01*
X44990531Y-42279543D01*
X45120759Y-42467514D01*
X45120763Y-42467519D01*
X45120766Y-42467523D01*
X45282477Y-42629234D01*
X45282481Y-42629237D01*
X45282485Y-42629240D01*
X45423961Y-42727255D01*
X45470464Y-42759472D01*
X45504380Y-42774877D01*
X45557277Y-42820522D01*
X45577100Y-42887521D01*
X45577100Y-43496864D01*
X45557415Y-43563903D01*
X45543724Y-43581500D01*
X45419680Y-43714320D01*
X45419674Y-43714327D01*
X45259339Y-43941470D01*
X45259335Y-43941476D01*
X45131411Y-44188359D01*
X45038299Y-44450351D01*
X45038294Y-44450368D01*
X44981726Y-44722592D01*
X44981725Y-44722594D01*
X44962751Y-45000000D01*
X44981725Y-45277405D01*
X44981726Y-45277407D01*
X45038294Y-45549631D01*
X45038299Y-45549648D01*
X45131411Y-45811640D01*
X45131412Y-45811642D01*
X45259335Y-46058522D01*
X45419683Y-46285683D01*
X45609469Y-46488895D01*
X45609474Y-46488899D01*
X45609476Y-46488901D01*
X45825152Y-46664366D01*
X45825155Y-46664368D01*
X45825159Y-46664371D01*
X45866262Y-46689366D01*
X46062734Y-46808844D01*
X46236913Y-46884500D01*
X46317767Y-46919620D01*
X46585509Y-46994638D01*
X46827685Y-47027924D01*
X46860972Y-47032500D01*
X46860973Y-47032500D01*
X47139028Y-47032500D01*
X47168725Y-47028417D01*
X47414491Y-46994638D01*
X47682233Y-46919620D01*
X47937267Y-46808843D01*
X48174841Y-46664371D01*
X48390531Y-46488895D01*
X48580317Y-46285683D01*
X48740665Y-46058522D01*
X48868588Y-45811642D01*
X48961702Y-45549643D01*
X48961703Y-45549636D01*
X48961705Y-45549631D01*
X49013078Y-45302407D01*
X49018274Y-45277405D01*
X49037249Y-45000000D01*
X49018274Y-44722595D01*
X48998742Y-44628604D01*
X48961705Y-44450368D01*
X48961700Y-44450351D01*
X48868588Y-44188359D01*
X48868588Y-44188358D01*
X48740665Y-43941478D01*
X48740664Y-43941476D01*
X48740660Y-43941470D01*
X48580325Y-43714327D01*
X48580319Y-43714320D01*
X48580317Y-43714317D01*
X48456276Y-43581500D01*
X48424904Y-43519069D01*
X48422900Y-43496864D01*
X48422900Y-42887776D01*
X48442585Y-42820737D01*
X48495389Y-42774982D01*
X48529536Y-42759472D01*
X48717523Y-42629234D01*
X48879234Y-42467523D01*
X48907477Y-42426756D01*
X49009468Y-42279543D01*
X49009471Y-42279537D01*
X49009472Y-42279536D01*
X49104051Y-42071316D01*
X49159930Y-41849553D01*
X49170500Y-41715247D01*
X49170499Y-39784754D01*
X49159930Y-39650447D01*
X49104051Y-39428684D01*
X49009472Y-39220464D01*
X49001369Y-39208768D01*
X48979373Y-39142450D01*
X48993205Y-39081099D01*
X48995459Y-39076750D01*
X49094896Y-38796962D01*
X49094897Y-38796955D01*
X49094899Y-38796950D01*
X49122942Y-38661994D01*
X49155309Y-38506240D01*
X49175572Y-38210000D01*
X49155309Y-37913760D01*
X49134451Y-37813388D01*
X49094899Y-37623049D01*
X49094894Y-37623032D01*
X48995460Y-37343253D01*
X48995461Y-37343253D01*
X48858850Y-37079606D01*
X48858846Y-37079600D01*
X48687621Y-36837029D01*
X48687617Y-36837025D01*
X48687616Y-36837023D01*
X48484944Y-36620014D01*
X48484942Y-36620012D01*
X48484939Y-36620009D01*
X48468644Y-36606752D01*
X48429064Y-36549174D01*
X48422900Y-36510565D01*
X48422900Y-35003135D01*
X48442585Y-34936096D01*
X48456271Y-34918503D01*
X48580317Y-34785683D01*
X48740665Y-34558522D01*
X48868588Y-34311642D01*
X48961702Y-34049643D01*
X48961703Y-34049636D01*
X48961705Y-34049631D01*
X49013078Y-33802407D01*
X49018274Y-33777405D01*
X49037249Y-33500000D01*
X49018274Y-33222595D01*
X48998742Y-33128604D01*
X48961705Y-32950368D01*
X48961700Y-32950351D01*
X48868588Y-32688359D01*
X48868588Y-32688358D01*
X48740665Y-32441478D01*
X48580317Y-32214317D01*
X48390531Y-32011105D01*
X48390524Y-32011100D01*
X48390523Y-32011098D01*
X48174847Y-31835633D01*
X48174836Y-31835626D01*
X47937265Y-31691155D01*
X47739599Y-31605297D01*
X47685952Y-31560534D01*
X47665023Y-31493872D01*
X47683455Y-31426478D01*
X47735398Y-31379748D01*
X47789001Y-31367563D01*
X50703444Y-31367563D01*
X50734234Y-31376604D01*
X53690185Y-31376604D01*
X53757224Y-31396289D01*
X53802979Y-31449093D01*
X53812923Y-31518251D01*
X53783898Y-31581807D01*
X53739587Y-31614338D01*
X53562734Y-31691155D01*
X53325163Y-31835626D01*
X53325152Y-31835633D01*
X53109476Y-32011098D01*
X53109470Y-32011103D01*
X53109469Y-32011105D01*
X53086121Y-32036105D01*
X52919684Y-32214316D01*
X52759335Y-32441477D01*
X52631411Y-32688359D01*
X52538299Y-32950351D01*
X52538294Y-32950368D01*
X52481726Y-33222592D01*
X52481725Y-33222594D01*
X52462751Y-33500000D01*
X52481725Y-33777405D01*
X52481726Y-33777407D01*
X52538294Y-34049631D01*
X52538299Y-34049648D01*
X52631411Y-34311640D01*
X52631412Y-34311642D01*
X52759335Y-34558522D01*
X52919683Y-34785683D01*
X53043724Y-34918499D01*
X53075095Y-34980929D01*
X53077100Y-35003135D01*
X53077100Y-36510565D01*
X53057415Y-36577604D01*
X53031356Y-36606752D01*
X53015060Y-36620009D01*
X52812378Y-36837029D01*
X52641153Y-37079600D01*
X52641149Y-37079606D01*
X52504539Y-37343253D01*
X52405105Y-37623032D01*
X52405100Y-37623049D01*
X52344691Y-37913757D01*
X52344690Y-37913759D01*
X52324428Y-38210000D01*
X52344690Y-38506240D01*
X52344691Y-38506242D01*
X52405100Y-38796950D01*
X52405105Y-38796967D01*
X52504539Y-39076746D01*
X52504540Y-39076749D01*
X52506800Y-39081111D01*
X52520162Y-39149691D01*
X52498630Y-39208769D01*
X52490528Y-39220464D01*
X52395949Y-39428684D01*
X52340070Y-39650447D01*
X52329500Y-39784747D01*
X52329500Y-41715238D01*
X52329501Y-41715253D01*
X52338748Y-41832764D01*
X52340070Y-41849553D01*
X52395949Y-42071316D01*
X52407305Y-42096316D01*
X52490528Y-42279537D01*
X52490531Y-42279543D01*
X52620759Y-42467514D01*
X52620763Y-42467519D01*
X52620766Y-42467523D01*
X52782477Y-42629234D01*
X52782481Y-42629237D01*
X52782485Y-42629240D01*
X52923961Y-42727255D01*
X52970464Y-42759472D01*
X53004380Y-42774877D01*
X53057277Y-42820522D01*
X53077100Y-42887521D01*
X53077100Y-43496864D01*
X53057415Y-43563903D01*
X53043724Y-43581500D01*
X52919680Y-43714320D01*
X52919674Y-43714327D01*
X52759339Y-43941470D01*
X52759335Y-43941476D01*
X52631411Y-44188359D01*
X52538299Y-44450351D01*
X52538294Y-44450368D01*
X52481726Y-44722592D01*
X52481725Y-44722594D01*
X52462751Y-45000000D01*
X52481725Y-45277405D01*
X52481726Y-45277407D01*
X52538294Y-45549631D01*
X52538299Y-45549648D01*
X52631411Y-45811640D01*
X52631412Y-45811642D01*
X52759335Y-46058522D01*
X52919683Y-46285683D01*
X53109469Y-46488895D01*
X53109474Y-46488899D01*
X53109476Y-46488901D01*
X53325152Y-46664366D01*
X53325155Y-46664368D01*
X53325159Y-46664371D01*
X53366262Y-46689366D01*
X53562734Y-46808844D01*
X53736913Y-46884500D01*
X53817767Y-46919620D01*
X54085509Y-46994638D01*
X54327685Y-47027924D01*
X54360972Y-47032500D01*
X54360973Y-47032500D01*
X54639028Y-47032500D01*
X54668725Y-47028417D01*
X54914491Y-46994638D01*
X55182233Y-46919620D01*
X55437267Y-46808843D01*
X55674841Y-46664371D01*
X55890531Y-46488895D01*
X56080317Y-46285683D01*
X56240665Y-46058522D01*
X56368588Y-45811642D01*
X56461702Y-45549643D01*
X56461703Y-45549636D01*
X56461705Y-45549631D01*
X56513078Y-45302407D01*
X56518274Y-45277405D01*
X56537249Y-45000000D01*
X56518274Y-44722595D01*
X56498742Y-44628604D01*
X56461705Y-44450368D01*
X56461700Y-44450351D01*
X56368588Y-44188359D01*
X56368588Y-44188358D01*
X56240665Y-43941478D01*
X56240664Y-43941476D01*
X56240660Y-43941470D01*
X56080325Y-43714327D01*
X56080319Y-43714320D01*
X56080317Y-43714317D01*
X55956276Y-43581500D01*
X55924904Y-43519069D01*
X55922900Y-43496864D01*
X55922900Y-42887776D01*
X55942585Y-42820737D01*
X55995389Y-42774982D01*
X56029536Y-42759472D01*
X56217523Y-42629234D01*
X56379234Y-42467523D01*
X56407477Y-42426756D01*
X56509468Y-42279543D01*
X56509471Y-42279537D01*
X56509472Y-42279536D01*
X56604051Y-42071316D01*
X56659930Y-41849553D01*
X56670500Y-41715247D01*
X56670499Y-39784754D01*
X56659930Y-39650447D01*
X56604051Y-39428684D01*
X56509472Y-39220464D01*
X56501369Y-39208768D01*
X56479373Y-39142450D01*
X56493205Y-39081099D01*
X56495459Y-39076750D01*
X56594896Y-38796962D01*
X56594897Y-38796955D01*
X56594899Y-38796950D01*
X56622942Y-38661994D01*
X56655309Y-38506240D01*
X56675572Y-38210000D01*
X59824428Y-38210000D01*
X59844690Y-38506240D01*
X59844691Y-38506242D01*
X59905100Y-38796950D01*
X59905105Y-38796967D01*
X60004539Y-39076746D01*
X60004540Y-39076749D01*
X60006800Y-39081111D01*
X60020162Y-39149691D01*
X59998630Y-39208769D01*
X59990528Y-39220464D01*
X59895949Y-39428684D01*
X59840070Y-39650447D01*
X59829500Y-39784747D01*
X59829500Y-41715238D01*
X59829501Y-41715253D01*
X59838748Y-41832764D01*
X59840070Y-41849553D01*
X59895949Y-42071316D01*
X59907305Y-42096316D01*
X59990528Y-42279537D01*
X59990531Y-42279543D01*
X60120759Y-42467514D01*
X60120763Y-42467519D01*
X60120766Y-42467523D01*
X60282477Y-42629234D01*
X60282481Y-42629237D01*
X60282485Y-42629240D01*
X60423961Y-42727255D01*
X60470464Y-42759472D01*
X60504380Y-42774877D01*
X60557277Y-42820522D01*
X60577100Y-42887521D01*
X60577100Y-43496864D01*
X60557415Y-43563903D01*
X60543724Y-43581500D01*
X60419680Y-43714320D01*
X60419674Y-43714327D01*
X60259339Y-43941470D01*
X60259335Y-43941476D01*
X60131411Y-44188359D01*
X60038299Y-44450351D01*
X60038294Y-44450368D01*
X59981726Y-44722592D01*
X59981725Y-44722594D01*
X59962751Y-45000000D01*
X59981725Y-45277405D01*
X59981726Y-45277407D01*
X60038294Y-45549631D01*
X60038299Y-45549648D01*
X60131411Y-45811640D01*
X60131412Y-45811642D01*
X60259335Y-46058522D01*
X60419683Y-46285683D01*
X60609469Y-46488895D01*
X60609474Y-46488899D01*
X60609476Y-46488901D01*
X60825152Y-46664366D01*
X60825155Y-46664368D01*
X60825159Y-46664371D01*
X60866262Y-46689366D01*
X61062734Y-46808844D01*
X61236913Y-46884500D01*
X61317767Y-46919620D01*
X61585509Y-46994638D01*
X61827685Y-47027924D01*
X61860972Y-47032500D01*
X61860973Y-47032500D01*
X62139028Y-47032500D01*
X62168725Y-47028417D01*
X62414491Y-46994638D01*
X62682233Y-46919620D01*
X62937267Y-46808843D01*
X63174841Y-46664371D01*
X63390531Y-46488895D01*
X63580317Y-46285683D01*
X63740665Y-46058522D01*
X63868588Y-45811642D01*
X63961702Y-45549643D01*
X63961703Y-45549636D01*
X63961705Y-45549631D01*
X64013078Y-45302407D01*
X64018274Y-45277405D01*
X64037249Y-45000000D01*
X64018274Y-44722595D01*
X63998742Y-44628604D01*
X63961705Y-44450368D01*
X63961700Y-44450351D01*
X63868588Y-44188359D01*
X63868588Y-44188358D01*
X63740665Y-43941478D01*
X63740664Y-43941476D01*
X63740660Y-43941470D01*
X63580325Y-43714327D01*
X63580319Y-43714320D01*
X63580317Y-43714317D01*
X63456276Y-43581500D01*
X63424904Y-43519069D01*
X63422900Y-43496864D01*
X63422900Y-42887776D01*
X63442585Y-42820737D01*
X63495389Y-42774982D01*
X63529536Y-42759472D01*
X63717523Y-42629234D01*
X63879234Y-42467523D01*
X63907477Y-42426756D01*
X64009468Y-42279543D01*
X64009471Y-42279537D01*
X64009472Y-42279536D01*
X64104051Y-42071316D01*
X64159930Y-41849553D01*
X64170500Y-41715247D01*
X64170499Y-39784754D01*
X64159930Y-39650447D01*
X64104051Y-39428684D01*
X64009472Y-39220464D01*
X64001369Y-39208768D01*
X63979373Y-39142450D01*
X63993205Y-39081099D01*
X63995459Y-39076750D01*
X64094896Y-38796962D01*
X64094897Y-38796955D01*
X64094899Y-38796950D01*
X64122942Y-38661994D01*
X64155309Y-38506240D01*
X64175572Y-38210000D01*
X67324428Y-38210000D01*
X67344690Y-38506240D01*
X67344691Y-38506242D01*
X67405100Y-38796950D01*
X67405105Y-38796967D01*
X67504539Y-39076746D01*
X67504540Y-39076749D01*
X67506800Y-39081111D01*
X67520162Y-39149691D01*
X67498630Y-39208769D01*
X67490528Y-39220464D01*
X67395949Y-39428684D01*
X67340070Y-39650447D01*
X67329500Y-39784747D01*
X67329500Y-41715238D01*
X67329501Y-41715253D01*
X67338748Y-41832764D01*
X67340070Y-41849553D01*
X67395949Y-42071316D01*
X67407305Y-42096316D01*
X67490528Y-42279537D01*
X67490531Y-42279543D01*
X67620759Y-42467514D01*
X67620763Y-42467519D01*
X67620766Y-42467523D01*
X67782477Y-42629234D01*
X67782481Y-42629237D01*
X67782485Y-42629240D01*
X67923961Y-42727255D01*
X67970464Y-42759472D01*
X68004380Y-42774877D01*
X68057277Y-42820522D01*
X68077100Y-42887521D01*
X68077100Y-43496864D01*
X68057415Y-43563903D01*
X68043724Y-43581500D01*
X67919680Y-43714320D01*
X67919674Y-43714327D01*
X67759339Y-43941470D01*
X67759335Y-43941476D01*
X67631411Y-44188359D01*
X67538299Y-44450351D01*
X67538294Y-44450368D01*
X67481726Y-44722592D01*
X67481725Y-44722594D01*
X67462751Y-45000000D01*
X67481725Y-45277405D01*
X67481726Y-45277407D01*
X67538294Y-45549631D01*
X67538299Y-45549648D01*
X67631411Y-45811640D01*
X67631412Y-45811642D01*
X67759335Y-46058522D01*
X67919683Y-46285683D01*
X68109469Y-46488895D01*
X68109474Y-46488899D01*
X68109476Y-46488901D01*
X68325152Y-46664366D01*
X68325155Y-46664368D01*
X68325159Y-46664371D01*
X68366262Y-46689366D01*
X68562734Y-46808844D01*
X68736913Y-46884500D01*
X68817767Y-46919620D01*
X69085509Y-46994638D01*
X69327685Y-47027924D01*
X69360972Y-47032500D01*
X69360973Y-47032500D01*
X69639028Y-47032500D01*
X69668725Y-47028417D01*
X69914491Y-46994638D01*
X70182233Y-46919620D01*
X70437267Y-46808843D01*
X70674841Y-46664371D01*
X70890531Y-46488895D01*
X71080317Y-46285683D01*
X71240665Y-46058522D01*
X71368588Y-45811642D01*
X71461702Y-45549643D01*
X71461703Y-45549636D01*
X71461705Y-45549631D01*
X71513078Y-45302407D01*
X71518274Y-45277405D01*
X71537249Y-45000000D01*
X71518274Y-44722595D01*
X71498742Y-44628604D01*
X71461705Y-44450368D01*
X71461700Y-44450351D01*
X71368588Y-44188359D01*
X71368588Y-44188358D01*
X71240665Y-43941478D01*
X71240664Y-43941476D01*
X71240660Y-43941470D01*
X71080325Y-43714327D01*
X71080319Y-43714320D01*
X71080317Y-43714317D01*
X70956276Y-43581500D01*
X70924904Y-43519069D01*
X70922900Y-43496864D01*
X70922900Y-42887776D01*
X70942585Y-42820737D01*
X70995389Y-42774982D01*
X71029536Y-42759472D01*
X71217523Y-42629234D01*
X71379234Y-42467523D01*
X71407477Y-42426756D01*
X71509468Y-42279543D01*
X71509471Y-42279537D01*
X71509472Y-42279536D01*
X71604051Y-42071316D01*
X71659930Y-41849553D01*
X71670500Y-41715247D01*
X71670499Y-39784754D01*
X71659930Y-39650447D01*
X71604051Y-39428684D01*
X71509472Y-39220464D01*
X71501369Y-39208768D01*
X71479373Y-39142450D01*
X71493205Y-39081099D01*
X71495459Y-39076750D01*
X71594896Y-38796962D01*
X71594897Y-38796955D01*
X71594899Y-38796950D01*
X71622942Y-38661994D01*
X71655309Y-38506240D01*
X71673862Y-38235000D01*
X74824428Y-38235000D01*
X74844690Y-38531240D01*
X74844691Y-38531242D01*
X74905100Y-38821950D01*
X74905105Y-38821967D01*
X75004539Y-39101746D01*
X75004540Y-39101749D01*
X75006800Y-39106111D01*
X75020162Y-39174691D01*
X74998630Y-39233769D01*
X74990528Y-39245464D01*
X74895949Y-39453684D01*
X74840070Y-39675447D01*
X74829500Y-39809747D01*
X74829500Y-41740238D01*
X74829501Y-41740253D01*
X74838103Y-41849552D01*
X74840070Y-41874553D01*
X74889650Y-42071315D01*
X74895949Y-42096315D01*
X74990528Y-42304537D01*
X74990531Y-42304543D01*
X75120759Y-42492514D01*
X75120763Y-42492519D01*
X75120766Y-42492523D01*
X75282477Y-42654234D01*
X75282481Y-42654237D01*
X75282485Y-42654240D01*
X75423961Y-42752255D01*
X75470464Y-42784472D01*
X75504380Y-42799877D01*
X75557277Y-42845522D01*
X75577100Y-42912521D01*
X75577100Y-43521864D01*
X75557415Y-43588903D01*
X75543724Y-43606500D01*
X75419680Y-43739320D01*
X75419674Y-43739327D01*
X75259339Y-43966470D01*
X75259335Y-43966476D01*
X75131411Y-44213359D01*
X75038299Y-44475351D01*
X75038294Y-44475368D01*
X74981726Y-44747592D01*
X74981725Y-44747594D01*
X74962751Y-45025000D01*
X74981725Y-45302405D01*
X74981726Y-45302407D01*
X75038294Y-45574631D01*
X75038299Y-45574648D01*
X75122526Y-45811640D01*
X75131412Y-45836642D01*
X75259335Y-46083522D01*
X75419683Y-46310683D01*
X75609469Y-46513895D01*
X75609474Y-46513899D01*
X75609476Y-46513901D01*
X75825152Y-46689366D01*
X75825155Y-46689368D01*
X75825159Y-46689371D01*
X75949794Y-46765163D01*
X76062734Y-46833844D01*
X76236913Y-46909500D01*
X76317767Y-46944620D01*
X76585509Y-47019638D01*
X76827685Y-47052924D01*
X76860972Y-47057500D01*
X76860973Y-47057500D01*
X77139028Y-47057500D01*
X77168725Y-47053417D01*
X77414491Y-47019638D01*
X77682233Y-46944620D01*
X77937267Y-46833843D01*
X78174841Y-46689371D01*
X78390531Y-46513895D01*
X78580317Y-46310683D01*
X78740665Y-46083522D01*
X78868588Y-45836642D01*
X78961702Y-45574643D01*
X78961703Y-45574636D01*
X78961705Y-45574631D01*
X78987965Y-45448256D01*
X79018274Y-45302405D01*
X79037249Y-45025000D01*
X79018274Y-44747595D01*
X78998742Y-44653604D01*
X78961705Y-44475368D01*
X78961700Y-44475351D01*
X78868588Y-44213359D01*
X78868588Y-44213358D01*
X78740665Y-43966478D01*
X78740664Y-43966476D01*
X78740660Y-43966470D01*
X78580325Y-43739327D01*
X78580319Y-43739320D01*
X78580317Y-43739317D01*
X78456276Y-43606500D01*
X78424904Y-43544069D01*
X78422900Y-43521864D01*
X78422900Y-42912776D01*
X78442585Y-42845737D01*
X78495389Y-42799982D01*
X78529536Y-42784472D01*
X78717523Y-42654234D01*
X78879234Y-42492523D01*
X78907477Y-42451756D01*
X79009468Y-42304543D01*
X79009471Y-42304537D01*
X79009472Y-42304536D01*
X79104051Y-42096316D01*
X79159930Y-41874553D01*
X79170500Y-41740247D01*
X79170499Y-39809754D01*
X79159930Y-39675447D01*
X79104051Y-39453684D01*
X79009472Y-39245464D01*
X79001369Y-39233768D01*
X78979373Y-39167450D01*
X78993205Y-39106099D01*
X78995459Y-39101750D01*
X79002799Y-39081099D01*
X79094894Y-38821967D01*
X79094896Y-38821962D01*
X79094897Y-38821955D01*
X79094899Y-38821950D01*
X79122942Y-38686994D01*
X79155309Y-38531240D01*
X79175572Y-38235000D01*
X79155309Y-37938760D01*
X79134451Y-37838388D01*
X79094899Y-37648049D01*
X79094894Y-37648032D01*
X78995460Y-37368253D01*
X78995461Y-37368253D01*
X78858850Y-37104606D01*
X78858846Y-37104600D01*
X78687621Y-36862029D01*
X78687617Y-36862025D01*
X78687616Y-36862023D01*
X78484944Y-36645014D01*
X78484942Y-36645012D01*
X78484939Y-36645009D01*
X78468644Y-36631752D01*
X78429064Y-36574174D01*
X78422900Y-36535565D01*
X78422900Y-35028135D01*
X78442585Y-34961096D01*
X78456271Y-34943503D01*
X78580317Y-34810683D01*
X78740665Y-34583522D01*
X78868588Y-34336642D01*
X78961702Y-34074643D01*
X78961703Y-34074636D01*
X78961705Y-34074631D01*
X78987965Y-33948256D01*
X79018274Y-33802405D01*
X79037249Y-33525000D01*
X79018274Y-33247595D01*
X78998742Y-33153604D01*
X78961705Y-32975368D01*
X78961700Y-32975351D01*
X78868588Y-32713359D01*
X78868588Y-32713358D01*
X78740665Y-32466478D01*
X78580317Y-32239317D01*
X78390531Y-32036105D01*
X78390524Y-32036100D01*
X78390523Y-32036098D01*
X78174847Y-31860633D01*
X78174836Y-31860626D01*
X77937265Y-31716155D01*
X77682236Y-31605381D01*
X77682234Y-31605380D01*
X77682233Y-31605380D01*
X77593007Y-31580380D01*
X77414496Y-31530363D01*
X77414492Y-31530362D01*
X77414491Y-31530362D01*
X77260600Y-31509210D01*
X77139028Y-31492500D01*
X77139027Y-31492500D01*
X76860973Y-31492500D01*
X76860972Y-31492500D01*
X76585509Y-31530362D01*
X76585503Y-31530363D01*
X76317763Y-31605381D01*
X76062734Y-31716155D01*
X75825163Y-31860626D01*
X75825152Y-31860633D01*
X75609476Y-32036098D01*
X75419684Y-32239316D01*
X75259335Y-32466477D01*
X75131411Y-32713359D01*
X75038299Y-32975351D01*
X75038294Y-32975368D01*
X74981726Y-33247592D01*
X74981725Y-33247594D01*
X74962751Y-33525000D01*
X74981725Y-33802405D01*
X74981726Y-33802407D01*
X75038294Y-34074631D01*
X75038299Y-34074648D01*
X75122526Y-34311640D01*
X75131412Y-34336642D01*
X75259335Y-34583522D01*
X75419683Y-34810683D01*
X75543724Y-34943499D01*
X75575095Y-35005929D01*
X75577100Y-35028135D01*
X75577100Y-36535565D01*
X75557415Y-36602604D01*
X75531356Y-36631752D01*
X75515060Y-36645009D01*
X75312378Y-36862029D01*
X75141153Y-37104600D01*
X75141149Y-37104606D01*
X75004539Y-37368253D01*
X74905105Y-37648032D01*
X74905100Y-37648049D01*
X74844691Y-37938757D01*
X74844690Y-37938759D01*
X74824428Y-38235000D01*
X71673862Y-38235000D01*
X71675572Y-38210000D01*
X71655309Y-37913760D01*
X71634451Y-37813388D01*
X71594899Y-37623049D01*
X71594894Y-37623032D01*
X71495460Y-37343253D01*
X71495461Y-37343253D01*
X71358850Y-37079606D01*
X71358846Y-37079600D01*
X71187621Y-36837029D01*
X71187617Y-36837025D01*
X71187616Y-36837023D01*
X70984944Y-36620014D01*
X70984942Y-36620012D01*
X70984939Y-36620009D01*
X70968644Y-36606752D01*
X70929064Y-36549174D01*
X70922900Y-36510565D01*
X70922900Y-35003135D01*
X70942585Y-34936096D01*
X70956271Y-34918503D01*
X71080317Y-34785683D01*
X71240665Y-34558522D01*
X71368588Y-34311642D01*
X71461702Y-34049643D01*
X71461703Y-34049636D01*
X71461705Y-34049631D01*
X71513078Y-33802407D01*
X71518274Y-33777405D01*
X71537249Y-33500000D01*
X71518274Y-33222595D01*
X71498742Y-33128604D01*
X71461705Y-32950368D01*
X71461700Y-32950351D01*
X71368588Y-32688359D01*
X71368588Y-32688358D01*
X71240665Y-32441478D01*
X71080317Y-32214317D01*
X70890531Y-32011105D01*
X70890524Y-32011100D01*
X70890523Y-32011098D01*
X70674847Y-31835633D01*
X70674836Y-31835626D01*
X70437265Y-31691155D01*
X70182236Y-31580381D01*
X70182234Y-31580380D01*
X70182233Y-31580380D01*
X70106059Y-31559037D01*
X69914496Y-31505363D01*
X69914492Y-31505362D01*
X69914491Y-31505362D01*
X69776759Y-31486431D01*
X69639028Y-31467500D01*
X69639027Y-31467500D01*
X69360973Y-31467500D01*
X69360972Y-31467500D01*
X69085509Y-31505362D01*
X69085503Y-31505363D01*
X68817763Y-31580381D01*
X68562734Y-31691155D01*
X68325163Y-31835626D01*
X68325152Y-31835633D01*
X68109476Y-32011098D01*
X68109470Y-32011103D01*
X68109469Y-32011105D01*
X68086121Y-32036105D01*
X67919684Y-32214316D01*
X67759335Y-32441477D01*
X67631411Y-32688359D01*
X67538299Y-32950351D01*
X67538294Y-32950368D01*
X67481726Y-33222592D01*
X67481725Y-33222594D01*
X67462751Y-33500000D01*
X67481725Y-33777405D01*
X67481726Y-33777407D01*
X67538294Y-34049631D01*
X67538299Y-34049648D01*
X67631411Y-34311640D01*
X67631412Y-34311642D01*
X67759335Y-34558522D01*
X67919683Y-34785683D01*
X68043724Y-34918499D01*
X68075095Y-34980929D01*
X68077100Y-35003135D01*
X68077100Y-36510565D01*
X68057415Y-36577604D01*
X68031356Y-36606752D01*
X68015060Y-36620009D01*
X67812378Y-36837029D01*
X67641153Y-37079600D01*
X67641149Y-37079606D01*
X67504539Y-37343253D01*
X67405105Y-37623032D01*
X67405100Y-37623049D01*
X67344691Y-37913757D01*
X67344690Y-37913759D01*
X67324428Y-38210000D01*
X64175572Y-38210000D01*
X64155309Y-37913760D01*
X64134451Y-37813388D01*
X64094899Y-37623049D01*
X64094894Y-37623032D01*
X63995460Y-37343253D01*
X63995461Y-37343253D01*
X63858850Y-37079606D01*
X63858846Y-37079600D01*
X63687621Y-36837029D01*
X63687617Y-36837025D01*
X63687616Y-36837023D01*
X63484944Y-36620014D01*
X63484942Y-36620012D01*
X63484939Y-36620009D01*
X63468644Y-36606752D01*
X63429064Y-36549174D01*
X63422900Y-36510565D01*
X63422900Y-35003135D01*
X63442585Y-34936096D01*
X63456271Y-34918503D01*
X63580317Y-34785683D01*
X63740665Y-34558522D01*
X63868588Y-34311642D01*
X63961702Y-34049643D01*
X63961703Y-34049636D01*
X63961705Y-34049631D01*
X64013078Y-33802407D01*
X64018274Y-33777405D01*
X64037249Y-33500000D01*
X64018274Y-33222595D01*
X63998742Y-33128604D01*
X63961705Y-32950368D01*
X63961700Y-32950351D01*
X63868588Y-32688359D01*
X63868588Y-32688358D01*
X63740665Y-32441478D01*
X63580317Y-32214317D01*
X63390531Y-32011105D01*
X63390524Y-32011100D01*
X63390523Y-32011098D01*
X63174847Y-31835633D01*
X63174836Y-31835626D01*
X62937265Y-31691155D01*
X62682236Y-31580381D01*
X62682234Y-31580380D01*
X62682233Y-31580380D01*
X62606059Y-31559037D01*
X62414496Y-31505363D01*
X62414492Y-31505362D01*
X62414491Y-31505362D01*
X62276759Y-31486431D01*
X62139028Y-31467500D01*
X62139027Y-31467500D01*
X61860973Y-31467500D01*
X61860972Y-31467500D01*
X61585509Y-31505362D01*
X61585503Y-31505363D01*
X61317763Y-31580381D01*
X61062734Y-31691155D01*
X60825163Y-31835626D01*
X60825152Y-31835633D01*
X60609476Y-32011098D01*
X60609470Y-32011103D01*
X60609469Y-32011105D01*
X60586121Y-32036105D01*
X60419684Y-32214316D01*
X60259335Y-32441477D01*
X60131411Y-32688359D01*
X60038299Y-32950351D01*
X60038294Y-32950368D01*
X59981726Y-33222592D01*
X59981725Y-33222594D01*
X59962751Y-33500000D01*
X59981725Y-33777405D01*
X59981726Y-33777407D01*
X60038294Y-34049631D01*
X60038299Y-34049648D01*
X60131411Y-34311640D01*
X60131412Y-34311642D01*
X60259335Y-34558522D01*
X60419683Y-34785683D01*
X60543724Y-34918499D01*
X60575095Y-34980929D01*
X60577100Y-35003135D01*
X60577100Y-36510565D01*
X60557415Y-36577604D01*
X60531356Y-36606752D01*
X60515060Y-36620009D01*
X60312378Y-36837029D01*
X60141153Y-37079600D01*
X60141149Y-37079606D01*
X60004539Y-37343253D01*
X59905105Y-37623032D01*
X59905100Y-37623049D01*
X59844691Y-37913757D01*
X59844690Y-37913759D01*
X59824428Y-38210000D01*
X56675572Y-38210000D01*
X56655309Y-37913760D01*
X56634451Y-37813388D01*
X56594899Y-37623049D01*
X56594894Y-37623032D01*
X56495460Y-37343253D01*
X56495461Y-37343253D01*
X56358850Y-37079606D01*
X56358846Y-37079600D01*
X56187621Y-36837029D01*
X56187617Y-36837025D01*
X56187616Y-36837023D01*
X55984944Y-36620014D01*
X55984942Y-36620012D01*
X55984939Y-36620009D01*
X55968644Y-36606752D01*
X55929064Y-36549174D01*
X55922900Y-36510565D01*
X55922900Y-35003135D01*
X55942585Y-34936096D01*
X55956271Y-34918503D01*
X56080317Y-34785683D01*
X56240665Y-34558522D01*
X56368588Y-34311642D01*
X56461702Y-34049643D01*
X56461703Y-34049636D01*
X56461705Y-34049631D01*
X56513078Y-33802407D01*
X56518274Y-33777405D01*
X56537249Y-33500000D01*
X56518274Y-33222595D01*
X56498742Y-33128604D01*
X56461705Y-32950368D01*
X56461700Y-32950351D01*
X56368588Y-32688359D01*
X56368588Y-32688358D01*
X56240665Y-32441478D01*
X56080317Y-32214317D01*
X55890531Y-32011105D01*
X55890524Y-32011100D01*
X55890523Y-32011098D01*
X55674847Y-31835633D01*
X55674836Y-31835626D01*
X55437265Y-31691155D01*
X55260413Y-31614338D01*
X55206766Y-31569575D01*
X55185837Y-31502914D01*
X55204269Y-31435519D01*
X55256212Y-31388789D01*
X55309815Y-31376604D01*
X58574294Y-31376604D01*
X58574294Y-30836242D01*
X58593979Y-30769203D01*
X58646783Y-30723448D01*
X58698294Y-30712242D01*
X65788581Y-30712242D01*
X65788581Y-30616354D01*
X65808266Y-30549315D01*
X65861070Y-30503560D01*
X65912581Y-30492354D01*
X72708029Y-30492354D01*
X72711693Y-30493430D01*
X72760467Y-30493430D01*
X80381515Y-30493430D01*
X80381515Y-26124500D01*
X80401200Y-26057461D01*
X80454004Y-26011706D01*
X80505515Y-26000500D01*
X81139847Y-26000500D01*
X81206886Y-26020185D01*
X81252641Y-26072989D01*
X81263847Y-26124500D01*
X81263847Y-31378908D01*
X83742436Y-31378908D01*
X83809475Y-31398593D01*
X83855230Y-31451397D01*
X83865174Y-31520555D01*
X83836149Y-31584111D01*
X83791838Y-31616642D01*
X83562734Y-31716155D01*
X83325163Y-31860626D01*
X83325152Y-31860633D01*
X83109476Y-32036098D01*
X82919684Y-32239316D01*
X82759335Y-32466477D01*
X82631411Y-32713359D01*
X82538299Y-32975351D01*
X82538294Y-32975368D01*
X82481726Y-33247592D01*
X82481725Y-33247594D01*
X82462751Y-33525000D01*
X82481725Y-33802405D01*
X82481726Y-33802407D01*
X82538294Y-34074631D01*
X82538299Y-34074648D01*
X82622526Y-34311640D01*
X82631412Y-34336642D01*
X82759335Y-34583522D01*
X82919683Y-34810683D01*
X83043724Y-34943499D01*
X83075095Y-35005929D01*
X83077100Y-35028135D01*
X83077100Y-36535565D01*
X83057415Y-36602604D01*
X83031356Y-36631752D01*
X83015060Y-36645009D01*
X82812378Y-36862029D01*
X82641153Y-37104600D01*
X82641149Y-37104606D01*
X82504539Y-37368253D01*
X82405105Y-37648032D01*
X82405100Y-37648049D01*
X82344691Y-37938757D01*
X82344690Y-37938759D01*
X82324428Y-38235000D01*
X82344690Y-38531240D01*
X82344691Y-38531242D01*
X82405100Y-38821950D01*
X82405105Y-38821967D01*
X82504539Y-39101746D01*
X82504540Y-39101749D01*
X82506800Y-39106111D01*
X82520162Y-39174691D01*
X82498630Y-39233769D01*
X82490528Y-39245464D01*
X82395949Y-39453684D01*
X82340070Y-39675447D01*
X82329500Y-39809747D01*
X82329500Y-41740238D01*
X82329501Y-41740253D01*
X82338103Y-41849552D01*
X82340070Y-41874553D01*
X82389650Y-42071315D01*
X82395949Y-42096315D01*
X82490528Y-42304537D01*
X82490531Y-42304543D01*
X82620759Y-42492514D01*
X82620763Y-42492519D01*
X82620766Y-42492523D01*
X82782477Y-42654234D01*
X82782481Y-42654237D01*
X82782485Y-42654240D01*
X82923961Y-42752255D01*
X82970464Y-42784472D01*
X83004380Y-42799877D01*
X83057277Y-42845522D01*
X83077100Y-42912521D01*
X83077100Y-43521864D01*
X83057415Y-43588903D01*
X83043724Y-43606500D01*
X82919680Y-43739320D01*
X82919674Y-43739327D01*
X82759339Y-43966470D01*
X82759335Y-43966476D01*
X82631411Y-44213359D01*
X82538299Y-44475351D01*
X82538294Y-44475368D01*
X82481726Y-44747592D01*
X82481725Y-44747594D01*
X82462751Y-45025000D01*
X82481725Y-45302405D01*
X82481726Y-45302407D01*
X82538294Y-45574631D01*
X82538299Y-45574648D01*
X82622526Y-45811640D01*
X82631412Y-45836642D01*
X82759335Y-46083522D01*
X82919683Y-46310683D01*
X83109469Y-46513895D01*
X83109474Y-46513899D01*
X83109476Y-46513901D01*
X83325152Y-46689366D01*
X83325155Y-46689368D01*
X83325159Y-46689371D01*
X83449794Y-46765163D01*
X83562734Y-46833844D01*
X83736913Y-46909500D01*
X83817767Y-46944620D01*
X84085509Y-47019638D01*
X84327685Y-47052924D01*
X84360972Y-47057500D01*
X84360973Y-47057500D01*
X84639028Y-47057500D01*
X84668725Y-47053417D01*
X84914491Y-47019638D01*
X85182233Y-46944620D01*
X85437267Y-46833843D01*
X85674841Y-46689371D01*
X85890531Y-46513895D01*
X86080317Y-46310683D01*
X86240665Y-46083522D01*
X86368588Y-45836642D01*
X86461702Y-45574643D01*
X86461703Y-45574636D01*
X86461705Y-45574631D01*
X86487965Y-45448256D01*
X86518274Y-45302405D01*
X86537249Y-45025000D01*
X86518274Y-44747595D01*
X86498742Y-44653604D01*
X86461705Y-44475368D01*
X86461700Y-44475351D01*
X86368588Y-44213359D01*
X86368588Y-44213358D01*
X86240665Y-43966478D01*
X86240664Y-43966476D01*
X86240660Y-43966470D01*
X86080325Y-43739327D01*
X86080319Y-43739320D01*
X86080317Y-43739317D01*
X85956276Y-43606500D01*
X85924904Y-43544069D01*
X85922900Y-43521864D01*
X85922900Y-42912776D01*
X85942585Y-42845737D01*
X85995389Y-42799982D01*
X86029536Y-42784472D01*
X86217523Y-42654234D01*
X86379234Y-42492523D01*
X86407477Y-42451756D01*
X86509468Y-42304543D01*
X86509471Y-42304537D01*
X86509472Y-42304536D01*
X86604051Y-42096316D01*
X86659930Y-41874553D01*
X86670500Y-41740247D01*
X86670499Y-39809754D01*
X86659930Y-39675447D01*
X86604051Y-39453684D01*
X86509472Y-39245464D01*
X86501369Y-39233768D01*
X86479373Y-39167450D01*
X86493205Y-39106099D01*
X86495459Y-39101750D01*
X86502799Y-39081099D01*
X86594894Y-38821967D01*
X86594896Y-38821962D01*
X86594897Y-38821955D01*
X86594899Y-38821950D01*
X86622942Y-38686994D01*
X86655309Y-38531240D01*
X86675572Y-38235000D01*
X86673862Y-38210000D01*
X89824428Y-38210000D01*
X89844690Y-38506240D01*
X89844691Y-38506242D01*
X89905100Y-38796950D01*
X89905105Y-38796967D01*
X90004539Y-39076746D01*
X90004540Y-39076749D01*
X90006800Y-39081111D01*
X90020162Y-39149691D01*
X89998630Y-39208769D01*
X89990528Y-39220464D01*
X89895949Y-39428684D01*
X89840070Y-39650447D01*
X89829500Y-39784747D01*
X89829500Y-41715238D01*
X89829501Y-41715253D01*
X89838748Y-41832764D01*
X89840070Y-41849553D01*
X89895949Y-42071316D01*
X89907305Y-42096316D01*
X89990528Y-42279537D01*
X89990531Y-42279543D01*
X90120759Y-42467514D01*
X90120763Y-42467519D01*
X90120766Y-42467523D01*
X90282477Y-42629234D01*
X90282481Y-42629237D01*
X90282485Y-42629240D01*
X90423961Y-42727255D01*
X90470464Y-42759472D01*
X90504380Y-42774877D01*
X90557277Y-42820522D01*
X90577100Y-42887521D01*
X90577100Y-43496864D01*
X90557415Y-43563903D01*
X90543724Y-43581500D01*
X90419680Y-43714320D01*
X90419674Y-43714327D01*
X90259339Y-43941470D01*
X90259335Y-43941476D01*
X90131411Y-44188359D01*
X90038299Y-44450351D01*
X90038294Y-44450368D01*
X89981726Y-44722592D01*
X89981725Y-44722594D01*
X89962751Y-45000000D01*
X89981725Y-45277405D01*
X89981726Y-45277407D01*
X90038294Y-45549631D01*
X90038299Y-45549648D01*
X90131411Y-45811640D01*
X90131412Y-45811642D01*
X90259335Y-46058522D01*
X90419683Y-46285683D01*
X90609469Y-46488895D01*
X90609474Y-46488899D01*
X90609476Y-46488901D01*
X90825152Y-46664366D01*
X90825155Y-46664368D01*
X90825159Y-46664371D01*
X90866262Y-46689366D01*
X91062734Y-46808844D01*
X91236913Y-46884500D01*
X91317767Y-46919620D01*
X91585509Y-46994638D01*
X91827685Y-47027924D01*
X91860972Y-47032500D01*
X91860973Y-47032500D01*
X92139028Y-47032500D01*
X92168725Y-47028417D01*
X92414491Y-46994638D01*
X92682233Y-46919620D01*
X92937267Y-46808843D01*
X93174841Y-46664371D01*
X93390531Y-46488895D01*
X93580317Y-46285683D01*
X93740665Y-46058522D01*
X93868588Y-45811642D01*
X93961702Y-45549643D01*
X93961703Y-45549636D01*
X93961705Y-45549631D01*
X94013078Y-45302407D01*
X94018274Y-45277405D01*
X94037249Y-45000000D01*
X94018274Y-44722595D01*
X93998742Y-44628604D01*
X93961705Y-44450368D01*
X93961700Y-44450351D01*
X93868588Y-44188359D01*
X93868588Y-44188358D01*
X93740665Y-43941478D01*
X93740664Y-43941476D01*
X93740660Y-43941470D01*
X93580325Y-43714327D01*
X93580319Y-43714320D01*
X93580317Y-43714317D01*
X93456276Y-43581500D01*
X93424904Y-43519069D01*
X93422900Y-43496864D01*
X93422900Y-42887776D01*
X93442585Y-42820737D01*
X93495389Y-42774982D01*
X93529536Y-42759472D01*
X93717523Y-42629234D01*
X93879234Y-42467523D01*
X93907477Y-42426756D01*
X94009468Y-42279543D01*
X94009471Y-42279537D01*
X94009472Y-42279536D01*
X94104051Y-42071316D01*
X94122021Y-42000000D01*
X97462751Y-42000000D01*
X97481725Y-42277405D01*
X97481726Y-42277407D01*
X97538294Y-42549631D01*
X97538299Y-42549648D01*
X97627230Y-42799876D01*
X97631412Y-42811642D01*
X97759335Y-43058522D01*
X97919683Y-43285683D01*
X98109469Y-43488895D01*
X98109474Y-43488899D01*
X98109476Y-43488901D01*
X98325152Y-43664366D01*
X98325155Y-43664368D01*
X98325159Y-43664371D01*
X98407292Y-43714317D01*
X98562734Y-43808844D01*
X98736913Y-43884500D01*
X98817767Y-43919620D01*
X99085509Y-43994638D01*
X99327685Y-44027924D01*
X99360972Y-44032500D01*
X99360973Y-44032500D01*
X99639028Y-44032500D01*
X99668725Y-44028417D01*
X99914491Y-43994638D01*
X100182233Y-43919620D01*
X100437267Y-43808843D01*
X100674841Y-43664371D01*
X100890531Y-43488895D01*
X101080317Y-43285683D01*
X101240665Y-43058522D01*
X101368588Y-42811642D01*
X101461702Y-42549643D01*
X101461703Y-42549636D01*
X101461705Y-42549631D01*
X101487965Y-42423256D01*
X101518274Y-42277405D01*
X101537249Y-42000000D01*
X101518274Y-41722595D01*
X101498742Y-41628604D01*
X101461705Y-41450368D01*
X101461700Y-41450351D01*
X101368588Y-41188359D01*
X101368588Y-41188358D01*
X101240665Y-40941478D01*
X101240664Y-40941476D01*
X101240660Y-40941470D01*
X101080325Y-40714327D01*
X101080319Y-40714320D01*
X101080317Y-40714317D01*
X100956276Y-40581500D01*
X100924904Y-40519069D01*
X100922900Y-40496864D01*
X100922900Y-35003135D01*
X100942585Y-34936096D01*
X100956271Y-34918503D01*
X101080317Y-34785683D01*
X101240665Y-34558522D01*
X101368588Y-34311642D01*
X101461702Y-34049643D01*
X101461703Y-34049636D01*
X101461705Y-34049631D01*
X101513078Y-33802407D01*
X101518274Y-33777405D01*
X101537249Y-33500000D01*
X101518274Y-33222595D01*
X101498742Y-33128604D01*
X101461705Y-32950368D01*
X101461700Y-32950351D01*
X101368588Y-32688359D01*
X101368588Y-32688358D01*
X101240665Y-32441478D01*
X101080317Y-32214317D01*
X100890531Y-32011105D01*
X100890524Y-32011100D01*
X100890523Y-32011098D01*
X100674847Y-31835633D01*
X100674836Y-31835626D01*
X100437265Y-31691155D01*
X100182236Y-31580381D01*
X100182234Y-31580380D01*
X100182233Y-31580380D01*
X100106059Y-31559037D01*
X99914496Y-31505363D01*
X99914492Y-31505362D01*
X99914491Y-31505362D01*
X99776759Y-31486431D01*
X99639028Y-31467500D01*
X99639027Y-31467500D01*
X99360973Y-31467500D01*
X99360972Y-31467500D01*
X99085509Y-31505362D01*
X99085503Y-31505363D01*
X98817763Y-31580381D01*
X98562734Y-31691155D01*
X98325163Y-31835626D01*
X98325152Y-31835633D01*
X98109476Y-32011098D01*
X98109470Y-32011103D01*
X98109469Y-32011105D01*
X98086121Y-32036105D01*
X97919684Y-32214316D01*
X97759335Y-32441477D01*
X97631411Y-32688359D01*
X97538299Y-32950351D01*
X97538294Y-32950368D01*
X97481726Y-33222592D01*
X97481725Y-33222594D01*
X97462751Y-33500000D01*
X97481725Y-33777405D01*
X97481726Y-33777407D01*
X97538294Y-34049631D01*
X97538299Y-34049648D01*
X97631411Y-34311640D01*
X97631412Y-34311642D01*
X97759335Y-34558522D01*
X97919683Y-34785683D01*
X98043724Y-34918499D01*
X98075095Y-34980929D01*
X98077100Y-35003135D01*
X98077100Y-40496864D01*
X98057415Y-40563903D01*
X98043724Y-40581500D01*
X97919680Y-40714320D01*
X97919674Y-40714327D01*
X97759339Y-40941470D01*
X97759335Y-40941476D01*
X97631411Y-41188359D01*
X97538299Y-41450351D01*
X97538294Y-41450368D01*
X97481726Y-41722592D01*
X97481725Y-41722594D01*
X97462751Y-42000000D01*
X94122021Y-42000000D01*
X94159930Y-41849553D01*
X94170500Y-41715247D01*
X94170499Y-39784754D01*
X94159930Y-39650447D01*
X94104051Y-39428684D01*
X94009472Y-39220464D01*
X94001369Y-39208768D01*
X93979373Y-39142450D01*
X93993205Y-39081099D01*
X93995459Y-39076750D01*
X94094896Y-38796962D01*
X94094897Y-38796955D01*
X94094899Y-38796950D01*
X94122942Y-38661994D01*
X94155309Y-38506240D01*
X94175572Y-38210000D01*
X94155309Y-37913760D01*
X94134451Y-37813388D01*
X94094899Y-37623049D01*
X94094894Y-37623032D01*
X93995460Y-37343253D01*
X93995461Y-37343253D01*
X93858850Y-37079606D01*
X93858846Y-37079600D01*
X93687621Y-36837029D01*
X93687617Y-36837025D01*
X93687616Y-36837023D01*
X93484944Y-36620014D01*
X93484942Y-36620012D01*
X93484939Y-36620009D01*
X93468644Y-36606752D01*
X93429064Y-36549174D01*
X93422900Y-36510565D01*
X93422900Y-35003135D01*
X93442585Y-34936096D01*
X93456271Y-34918503D01*
X93580317Y-34785683D01*
X93740665Y-34558522D01*
X93868588Y-34311642D01*
X93961702Y-34049643D01*
X93961703Y-34049636D01*
X93961705Y-34049631D01*
X94013078Y-33802407D01*
X94018274Y-33777405D01*
X94037249Y-33500000D01*
X94018274Y-33222595D01*
X93998742Y-33128604D01*
X93961705Y-32950368D01*
X93961700Y-32950351D01*
X93868588Y-32688359D01*
X93868588Y-32688358D01*
X93740665Y-32441478D01*
X93580317Y-32214317D01*
X93390531Y-32011105D01*
X93390524Y-32011100D01*
X93390523Y-32011098D01*
X93174847Y-31835633D01*
X93174836Y-31835626D01*
X92937265Y-31691155D01*
X92682236Y-31580381D01*
X92682234Y-31580380D01*
X92682233Y-31580380D01*
X92606059Y-31559037D01*
X92414496Y-31505363D01*
X92414492Y-31505362D01*
X92414491Y-31505362D01*
X92276759Y-31486431D01*
X92139028Y-31467500D01*
X92139027Y-31467500D01*
X91860973Y-31467500D01*
X91860972Y-31467500D01*
X91585509Y-31505362D01*
X91585503Y-31505363D01*
X91317763Y-31580381D01*
X91062734Y-31691155D01*
X90825163Y-31835626D01*
X90825152Y-31835633D01*
X90609476Y-32011098D01*
X90609470Y-32011103D01*
X90609469Y-32011105D01*
X90586121Y-32036105D01*
X90419684Y-32214316D01*
X90259335Y-32441477D01*
X90131411Y-32688359D01*
X90038299Y-32950351D01*
X90038294Y-32950368D01*
X89981726Y-33222592D01*
X89981725Y-33222594D01*
X89962751Y-33500000D01*
X89981725Y-33777405D01*
X89981726Y-33777407D01*
X90038294Y-34049631D01*
X90038299Y-34049648D01*
X90131411Y-34311640D01*
X90131412Y-34311642D01*
X90259335Y-34558522D01*
X90419683Y-34785683D01*
X90543724Y-34918499D01*
X90575095Y-34980929D01*
X90577100Y-35003135D01*
X90577100Y-36510565D01*
X90557415Y-36577604D01*
X90531356Y-36606752D01*
X90515060Y-36620009D01*
X90312378Y-36837029D01*
X90141153Y-37079600D01*
X90141149Y-37079606D01*
X90004539Y-37343253D01*
X89905105Y-37623032D01*
X89905100Y-37623049D01*
X89844691Y-37913757D01*
X89844690Y-37913759D01*
X89824428Y-38210000D01*
X86673862Y-38210000D01*
X86655309Y-37938760D01*
X86634451Y-37838388D01*
X86594899Y-37648049D01*
X86594894Y-37648032D01*
X86495460Y-37368253D01*
X86495461Y-37368253D01*
X86358850Y-37104606D01*
X86358846Y-37104600D01*
X86187621Y-36862029D01*
X86187617Y-36862025D01*
X86187616Y-36862023D01*
X85984944Y-36645014D01*
X85984942Y-36645012D01*
X85984939Y-36645009D01*
X85968644Y-36631752D01*
X85929064Y-36574174D01*
X85922900Y-36535565D01*
X85922900Y-35028135D01*
X85942585Y-34961096D01*
X85956271Y-34943503D01*
X86080317Y-34810683D01*
X86240665Y-34583522D01*
X86368588Y-34336642D01*
X86461702Y-34074643D01*
X86461703Y-34074636D01*
X86461705Y-34074631D01*
X86487965Y-33948256D01*
X86518274Y-33802405D01*
X86537249Y-33525000D01*
X86518274Y-33247595D01*
X86498742Y-33153604D01*
X86461705Y-32975368D01*
X86461700Y-32975351D01*
X86368588Y-32713359D01*
X86368588Y-32713358D01*
X86240665Y-32466478D01*
X86080317Y-32239317D01*
X85890531Y-32036105D01*
X85890524Y-32036100D01*
X85890523Y-32036098D01*
X85674847Y-31860633D01*
X85674836Y-31860626D01*
X85437265Y-31716155D01*
X85208162Y-31616642D01*
X85154515Y-31571879D01*
X85133586Y-31505217D01*
X85152018Y-31437823D01*
X85203961Y-31391093D01*
X85257564Y-31378908D01*
X88409147Y-31378908D01*
X88409147Y-30836242D01*
X88428832Y-30769203D01*
X88481636Y-30723448D01*
X88533147Y-30712242D01*
X95667229Y-30712242D01*
X95667229Y-26124500D01*
X95686914Y-26057461D01*
X95739718Y-26011706D01*
X95791229Y-26000500D01*
X105354108Y-26000500D01*
X105417294Y-26000500D01*
X105422702Y-26000618D01*
X105435819Y-26001190D01*
X105813742Y-26017690D01*
X105824477Y-26018630D01*
X106209859Y-26069366D01*
X106220493Y-26071241D01*
X106599990Y-26155374D01*
X106610416Y-26158168D01*
X106981135Y-26275055D01*
X106991270Y-26278744D01*
X107350387Y-26427495D01*
X107360178Y-26432061D01*
X107704942Y-26611534D01*
X107714309Y-26616941D01*
X107984434Y-26789030D01*
X108042130Y-26825786D01*
X108050991Y-26831991D01*
X108359353Y-27068605D01*
X108367640Y-27075559D01*
X108654204Y-27338146D01*
X108661853Y-27345795D01*
X108924440Y-27632359D01*
X108931394Y-27640646D01*
X109168008Y-27949008D01*
X109174213Y-27957869D01*
X109383057Y-28285689D01*
X109388465Y-28295057D01*
X109567935Y-28639814D01*
X109572507Y-28649618D01*
X109721249Y-29008714D01*
X109724949Y-29018879D01*
X109841828Y-29389572D01*
X109844628Y-29400021D01*
X109928756Y-29779498D01*
X109930634Y-29790151D01*
X109981367Y-30175499D01*
X109982310Y-30186276D01*
X109999382Y-30577297D01*
X109999500Y-30582706D01*
X109999500Y-52917293D01*
X109999382Y-52922702D01*
X109982310Y-53313723D01*
X109981367Y-53324500D01*
X109930634Y-53709848D01*
X109928756Y-53720501D01*
X109844628Y-54099978D01*
X109841828Y-54110427D01*
X109724949Y-54481120D01*
X109721249Y-54491285D01*
X109572507Y-54850381D01*
X109567935Y-54860185D01*
X109388465Y-55204942D01*
X109383057Y-55214310D01*
X109174213Y-55542130D01*
X109168008Y-55550991D01*
X108931394Y-55859353D01*
X108924440Y-55867640D01*
X108661853Y-56154204D01*
X108654204Y-56161853D01*
X108367640Y-56424440D01*
X108359353Y-56431394D01*
X108050991Y-56668008D01*
X108042130Y-56674213D01*
X107714310Y-56883057D01*
X107704942Y-56888465D01*
X107360185Y-57067935D01*
X107350381Y-57072507D01*
X106991285Y-57221249D01*
X106981120Y-57224949D01*
X106610427Y-57341828D01*
X106599978Y-57344628D01*
X106220501Y-57428756D01*
X106209848Y-57430634D01*
X105824500Y-57481367D01*
X105813723Y-57482310D01*
X105422703Y-57499382D01*
X105417294Y-57499500D01*
X40582706Y-57499500D01*
X40577297Y-57499382D01*
X40186276Y-57482310D01*
X40175501Y-57481367D01*
X40086792Y-57469688D01*
X39790151Y-57430634D01*
X39779498Y-57428756D01*
X39400021Y-57344628D01*
X39389572Y-57341828D01*
X39018879Y-57224949D01*
X39008714Y-57221249D01*
X38649618Y-57072507D01*
X38639814Y-57067935D01*
X38295057Y-56888465D01*
X38285689Y-56883057D01*
X37957869Y-56674213D01*
X37949008Y-56668008D01*
X37640646Y-56431394D01*
X37632359Y-56424440D01*
X37345795Y-56161853D01*
X37338146Y-56154204D01*
X37075559Y-55867640D01*
X37068605Y-55859353D01*
X36831991Y-55550991D01*
X36825786Y-55542130D01*
X36616942Y-55214310D01*
X36611534Y-55204942D01*
X36504848Y-55000000D01*
X44962751Y-55000000D01*
X44981725Y-55277405D01*
X44981726Y-55277407D01*
X45038294Y-55549631D01*
X45038299Y-55549648D01*
X45131411Y-55811640D01*
X45131412Y-55811642D01*
X45259335Y-56058522D01*
X45419683Y-56285683D01*
X45609469Y-56488895D01*
X45609474Y-56488899D01*
X45609476Y-56488901D01*
X45825152Y-56664366D01*
X45825155Y-56664368D01*
X45825159Y-56664371D01*
X45866262Y-56689366D01*
X46062734Y-56808844D01*
X46233591Y-56883057D01*
X46317767Y-56919620D01*
X46585509Y-56994638D01*
X46827685Y-57027924D01*
X46860972Y-57032500D01*
X46860973Y-57032500D01*
X47139028Y-57032500D01*
X47168725Y-57028417D01*
X47414491Y-56994638D01*
X47682233Y-56919620D01*
X47937267Y-56808843D01*
X48174841Y-56664371D01*
X48390531Y-56488895D01*
X48415404Y-56462263D01*
X48415405Y-56462262D01*
X48475550Y-56426704D01*
X48506027Y-56422900D01*
X52993973Y-56422900D01*
X53061012Y-56442585D01*
X53084595Y-56462262D01*
X53109471Y-56488897D01*
X53325152Y-56664366D01*
X53325155Y-56664368D01*
X53325159Y-56664371D01*
X53366262Y-56689366D01*
X53562734Y-56808844D01*
X53733591Y-56883057D01*
X53817767Y-56919620D01*
X54085509Y-56994638D01*
X54327685Y-57027924D01*
X54360972Y-57032500D01*
X54360973Y-57032500D01*
X54639028Y-57032500D01*
X54668725Y-57028417D01*
X54914491Y-56994638D01*
X55182233Y-56919620D01*
X55437267Y-56808843D01*
X55674841Y-56664371D01*
X55890531Y-56488895D01*
X55915404Y-56462263D01*
X55915405Y-56462262D01*
X55975550Y-56426704D01*
X56006027Y-56422900D01*
X60493973Y-56422900D01*
X60561012Y-56442585D01*
X60584595Y-56462262D01*
X60609471Y-56488897D01*
X60825152Y-56664366D01*
X60825155Y-56664368D01*
X60825159Y-56664371D01*
X60866262Y-56689366D01*
X61062734Y-56808844D01*
X61233591Y-56883057D01*
X61317767Y-56919620D01*
X61585509Y-56994638D01*
X61827685Y-57027924D01*
X61860972Y-57032500D01*
X61860973Y-57032500D01*
X62139028Y-57032500D01*
X62168725Y-57028417D01*
X62414491Y-56994638D01*
X62682233Y-56919620D01*
X62937267Y-56808843D01*
X63174841Y-56664371D01*
X63390531Y-56488895D01*
X63415404Y-56462263D01*
X63415405Y-56462262D01*
X63475550Y-56426704D01*
X63506027Y-56422900D01*
X67993973Y-56422900D01*
X68061012Y-56442585D01*
X68084595Y-56462262D01*
X68109471Y-56488897D01*
X68325152Y-56664366D01*
X68325155Y-56664368D01*
X68325159Y-56664371D01*
X68366262Y-56689366D01*
X68562734Y-56808844D01*
X68733591Y-56883057D01*
X68817767Y-56919620D01*
X69085509Y-56994638D01*
X69327685Y-57027924D01*
X69360972Y-57032500D01*
X69360973Y-57032500D01*
X69639028Y-57032500D01*
X69668725Y-57028417D01*
X69914491Y-56994638D01*
X70182233Y-56919620D01*
X70437267Y-56808843D01*
X70674841Y-56664371D01*
X70890531Y-56488895D01*
X70915404Y-56462263D01*
X70915405Y-56462262D01*
X70975550Y-56426704D01*
X71006027Y-56422900D01*
X75470625Y-56422900D01*
X75537664Y-56442585D01*
X75561247Y-56462262D01*
X75609469Y-56513895D01*
X75693169Y-56581989D01*
X75825152Y-56689366D01*
X75825155Y-56689368D01*
X75825159Y-56689371D01*
X75949794Y-56765163D01*
X76062734Y-56833844D01*
X76182725Y-56885963D01*
X76317767Y-56944620D01*
X76585509Y-57019638D01*
X76827685Y-57052924D01*
X76860972Y-57057500D01*
X76860973Y-57057500D01*
X77139028Y-57057500D01*
X77168725Y-57053417D01*
X77414491Y-57019638D01*
X77682233Y-56944620D01*
X77937267Y-56833843D01*
X78174841Y-56689371D01*
X78390531Y-56513895D01*
X78438752Y-56462263D01*
X78498896Y-56426704D01*
X78529375Y-56422900D01*
X82970625Y-56422900D01*
X83037664Y-56442585D01*
X83061247Y-56462262D01*
X83109469Y-56513895D01*
X83193169Y-56581989D01*
X83325152Y-56689366D01*
X83325155Y-56689368D01*
X83325159Y-56689371D01*
X83449794Y-56765163D01*
X83562734Y-56833844D01*
X83682725Y-56885963D01*
X83817767Y-56944620D01*
X84085509Y-57019638D01*
X84327685Y-57052924D01*
X84360972Y-57057500D01*
X84360973Y-57057500D01*
X84639028Y-57057500D01*
X84668725Y-57053417D01*
X84914491Y-57019638D01*
X85182233Y-56944620D01*
X85437267Y-56833843D01*
X85674841Y-56689371D01*
X85890531Y-56513895D01*
X85938752Y-56462263D01*
X85998896Y-56426704D01*
X86029375Y-56422900D01*
X90493973Y-56422900D01*
X90561012Y-56442585D01*
X90584595Y-56462262D01*
X90609471Y-56488897D01*
X90825152Y-56664366D01*
X90825155Y-56664368D01*
X90825159Y-56664371D01*
X90866262Y-56689366D01*
X91062734Y-56808844D01*
X91233591Y-56883057D01*
X91317767Y-56919620D01*
X91585509Y-56994638D01*
X91827685Y-57027924D01*
X91860972Y-57032500D01*
X91860973Y-57032500D01*
X92139028Y-57032500D01*
X92168725Y-57028417D01*
X92414491Y-56994638D01*
X92682233Y-56919620D01*
X92937267Y-56808843D01*
X93174841Y-56664371D01*
X93390531Y-56488895D01*
X93464342Y-56409863D01*
X93524486Y-56374304D01*
X93554965Y-56370500D01*
X94093726Y-56370500D01*
X94132044Y-56376568D01*
X94143245Y-56380208D01*
X94166803Y-56387863D01*
X94277409Y-56405381D01*
X94388015Y-56422900D01*
X94388016Y-56422900D01*
X94611984Y-56422900D01*
X94611985Y-56422900D01*
X94833196Y-56387863D01*
X95046204Y-56318653D01*
X95245762Y-56216974D01*
X95426957Y-56085328D01*
X99443466Y-52068819D01*
X99504789Y-52035334D01*
X99531147Y-52032500D01*
X99639028Y-52032500D01*
X99668725Y-52028417D01*
X99914491Y-51994638D01*
X100182233Y-51919620D01*
X100437267Y-51808843D01*
X100674841Y-51664371D01*
X100890531Y-51488895D01*
X101080317Y-51285683D01*
X101240665Y-51058522D01*
X101368588Y-50811642D01*
X101461702Y-50549643D01*
X101461703Y-50549636D01*
X101461705Y-50549631D01*
X101487965Y-50423256D01*
X101518274Y-50277405D01*
X101537249Y-50000000D01*
X101518274Y-49722595D01*
X101498742Y-49628604D01*
X101461705Y-49450368D01*
X101461700Y-49450351D01*
X101368588Y-49188359D01*
X101368588Y-49188358D01*
X101240665Y-48941478D01*
X101080317Y-48714317D01*
X100890531Y-48511105D01*
X100890524Y-48511100D01*
X100890523Y-48511098D01*
X100674847Y-48335633D01*
X100674836Y-48335626D01*
X100437265Y-48191155D01*
X100182236Y-48080381D01*
X100182234Y-48080380D01*
X100182233Y-48080380D01*
X100106059Y-48059037D01*
X99914496Y-48005363D01*
X99914492Y-48005362D01*
X99914491Y-48005362D01*
X99776759Y-47986431D01*
X99639028Y-47967500D01*
X99639027Y-47967500D01*
X99360973Y-47967500D01*
X99360972Y-47967500D01*
X99085509Y-48005362D01*
X99085503Y-48005363D01*
X98817763Y-48080381D01*
X98562734Y-48191155D01*
X98325163Y-48335626D01*
X98325152Y-48335633D01*
X98109476Y-48511098D01*
X97919684Y-48714316D01*
X97759335Y-48941477D01*
X97631411Y-49188359D01*
X97538299Y-49450351D01*
X97538294Y-49450368D01*
X97481726Y-49722592D01*
X97481725Y-49722594D01*
X97464089Y-49980435D01*
X97439875Y-50045975D01*
X97428059Y-50059654D01*
X93894534Y-53593181D01*
X93833211Y-53626666D01*
X93806853Y-53629500D01*
X93554965Y-53629500D01*
X93487926Y-53609815D01*
X93464342Y-53590137D01*
X93416380Y-53538783D01*
X93390531Y-53511105D01*
X93342241Y-53471818D01*
X93174847Y-53335633D01*
X93174836Y-53335626D01*
X92937265Y-53191155D01*
X92682236Y-53080381D01*
X92682234Y-53080380D01*
X92682233Y-53080380D01*
X92606059Y-53059037D01*
X92414496Y-53005363D01*
X92414492Y-53005362D01*
X92414491Y-53005362D01*
X92276759Y-52986431D01*
X92139028Y-52967500D01*
X92139027Y-52967500D01*
X91860973Y-52967500D01*
X91860972Y-52967500D01*
X91585509Y-53005362D01*
X91585503Y-53005363D01*
X91317763Y-53080381D01*
X91062734Y-53191155D01*
X90825163Y-53335626D01*
X90825152Y-53335633D01*
X90609471Y-53511102D01*
X90584595Y-53537738D01*
X90524450Y-53573296D01*
X90493973Y-53577100D01*
X85982679Y-53577100D01*
X85915640Y-53557415D01*
X85892059Y-53537740D01*
X85890541Y-53536115D01*
X85890535Y-53536109D01*
X85890531Y-53536105D01*
X85859802Y-53511105D01*
X85674847Y-53360633D01*
X85674836Y-53360626D01*
X85437265Y-53216155D01*
X85182236Y-53105381D01*
X85182234Y-53105380D01*
X85182233Y-53105380D01*
X85093007Y-53080380D01*
X84914496Y-53030363D01*
X84914492Y-53030362D01*
X84914491Y-53030362D01*
X84776759Y-53011431D01*
X84639028Y-52992500D01*
X84639027Y-52992500D01*
X84360973Y-52992500D01*
X84360972Y-52992500D01*
X84085509Y-53030362D01*
X84085503Y-53030363D01*
X83817763Y-53105381D01*
X83562734Y-53216155D01*
X83325163Y-53360626D01*
X83325152Y-53360633D01*
X83109475Y-53536099D01*
X83109458Y-53536115D01*
X83107941Y-53537740D01*
X83107335Y-53538097D01*
X83106374Y-53538996D01*
X83106175Y-53538783D01*
X83047796Y-53573297D01*
X83017321Y-53577100D01*
X78482679Y-53577100D01*
X78415640Y-53557415D01*
X78392059Y-53537740D01*
X78390541Y-53536115D01*
X78390535Y-53536109D01*
X78390531Y-53536105D01*
X78359802Y-53511105D01*
X78174847Y-53360633D01*
X78174836Y-53360626D01*
X77937265Y-53216155D01*
X77682236Y-53105381D01*
X77682234Y-53105380D01*
X77682233Y-53105380D01*
X77593007Y-53080380D01*
X77414496Y-53030363D01*
X77414492Y-53030362D01*
X77414491Y-53030362D01*
X77276759Y-53011431D01*
X77139028Y-52992500D01*
X77139027Y-52992500D01*
X76860973Y-52992500D01*
X76860972Y-52992500D01*
X76585509Y-53030362D01*
X76585503Y-53030363D01*
X76317763Y-53105381D01*
X76062734Y-53216155D01*
X75825163Y-53360626D01*
X75825152Y-53360633D01*
X75609475Y-53536099D01*
X75609458Y-53536115D01*
X75607941Y-53537740D01*
X75607335Y-53538097D01*
X75606374Y-53538996D01*
X75606175Y-53538783D01*
X75547796Y-53573297D01*
X75517321Y-53577100D01*
X71006027Y-53577100D01*
X70938988Y-53557415D01*
X70915405Y-53537738D01*
X70890528Y-53511102D01*
X70674847Y-53335633D01*
X70674836Y-53335626D01*
X70437265Y-53191155D01*
X70182236Y-53080381D01*
X70182234Y-53080380D01*
X70182233Y-53080380D01*
X70106059Y-53059037D01*
X69914496Y-53005363D01*
X69914492Y-53005362D01*
X69914491Y-53005362D01*
X69776759Y-52986431D01*
X69639028Y-52967500D01*
X69639027Y-52967500D01*
X69360973Y-52967500D01*
X69360972Y-52967500D01*
X69085509Y-53005362D01*
X69085503Y-53005363D01*
X68817763Y-53080381D01*
X68562734Y-53191155D01*
X68325163Y-53335626D01*
X68325152Y-53335633D01*
X68109471Y-53511102D01*
X68084595Y-53537738D01*
X68024450Y-53573296D01*
X67993973Y-53577100D01*
X63506027Y-53577100D01*
X63438988Y-53557415D01*
X63415405Y-53537738D01*
X63390528Y-53511102D01*
X63174847Y-53335633D01*
X63174836Y-53335626D01*
X62937265Y-53191155D01*
X62682236Y-53080381D01*
X62682234Y-53080380D01*
X62682233Y-53080380D01*
X62606059Y-53059037D01*
X62414496Y-53005363D01*
X62414492Y-53005362D01*
X62414491Y-53005362D01*
X62276759Y-52986431D01*
X62139028Y-52967500D01*
X62139027Y-52967500D01*
X61860973Y-52967500D01*
X61860972Y-52967500D01*
X61585509Y-53005362D01*
X61585503Y-53005363D01*
X61317763Y-53080381D01*
X61062734Y-53191155D01*
X60825163Y-53335626D01*
X60825152Y-53335633D01*
X60609471Y-53511102D01*
X60584595Y-53537738D01*
X60524450Y-53573296D01*
X60493973Y-53577100D01*
X56006027Y-53577100D01*
X55938988Y-53557415D01*
X55915405Y-53537738D01*
X55890528Y-53511102D01*
X55674847Y-53335633D01*
X55674836Y-53335626D01*
X55437265Y-53191155D01*
X55182236Y-53080381D01*
X55182234Y-53080380D01*
X55182233Y-53080380D01*
X55106059Y-53059037D01*
X54914496Y-53005363D01*
X54914492Y-53005362D01*
X54914491Y-53005362D01*
X54776759Y-52986431D01*
X54639028Y-52967500D01*
X54639027Y-52967500D01*
X54360973Y-52967500D01*
X54360972Y-52967500D01*
X54085509Y-53005362D01*
X54085503Y-53005363D01*
X53817763Y-53080381D01*
X53562734Y-53191155D01*
X53325163Y-53335626D01*
X53325152Y-53335633D01*
X53109471Y-53511102D01*
X53084595Y-53537738D01*
X53024450Y-53573296D01*
X52993973Y-53577100D01*
X48506027Y-53577100D01*
X48438988Y-53557415D01*
X48415405Y-53537738D01*
X48390528Y-53511102D01*
X48174847Y-53335633D01*
X48174836Y-53335626D01*
X47937265Y-53191155D01*
X47682236Y-53080381D01*
X47682234Y-53080380D01*
X47682233Y-53080380D01*
X47606059Y-53059037D01*
X47414496Y-53005363D01*
X47414492Y-53005362D01*
X47414491Y-53005362D01*
X47276759Y-52986431D01*
X47139028Y-52967500D01*
X47139027Y-52967500D01*
X46860973Y-52967500D01*
X46860972Y-52967500D01*
X46585509Y-53005362D01*
X46585503Y-53005363D01*
X46317763Y-53080381D01*
X46062734Y-53191155D01*
X45825163Y-53335626D01*
X45825152Y-53335633D01*
X45609476Y-53511098D01*
X45609470Y-53511103D01*
X45609469Y-53511105D01*
X45535659Y-53590137D01*
X45419684Y-53714316D01*
X45259335Y-53941477D01*
X45131411Y-54188359D01*
X45038299Y-54450351D01*
X45038294Y-54450368D01*
X44981726Y-54722592D01*
X44981725Y-54722594D01*
X44962751Y-55000000D01*
X36504848Y-55000000D01*
X36432061Y-54860178D01*
X36427492Y-54850381D01*
X36278744Y-54491270D01*
X36275055Y-54481135D01*
X36158168Y-54110416D01*
X36155374Y-54099990D01*
X36071241Y-53720493D01*
X36069365Y-53709848D01*
X36058414Y-53626666D01*
X36018630Y-53324477D01*
X36017690Y-53313742D01*
X36000618Y-52922701D01*
X36000500Y-52917293D01*
X36000500Y-30582706D01*
X36000618Y-30577298D01*
X36003837Y-30503560D01*
X36017690Y-30186255D01*
X36018629Y-30175524D01*
X36069367Y-29790137D01*
X36071240Y-29779510D01*
X36155375Y-29400004D01*
X36158166Y-29389589D01*
X36275057Y-29018857D01*
X36278741Y-29008736D01*
X36427498Y-28649603D01*
X36432056Y-28639829D01*
X36611540Y-28295045D01*
X36616935Y-28285700D01*
X36825793Y-27957858D01*
X36831983Y-27949018D01*
X37068612Y-27640637D01*
X37075550Y-27632368D01*
X37338157Y-27345783D01*
X37345783Y-27338157D01*
X37632368Y-27075550D01*
X37640637Y-27068612D01*
X37949018Y-26831983D01*
X37957858Y-26825793D01*
X38285700Y-26616935D01*
X38295045Y-26611540D01*
X38639829Y-26432056D01*
X38649603Y-26427498D01*
X39008736Y-26278741D01*
X39018857Y-26275057D01*
X39389589Y-26158166D01*
X39400004Y-26155375D01*
X39779510Y-26071240D01*
X39790137Y-26069367D01*
X40175524Y-26018629D01*
X40186255Y-26017690D01*
X40564776Y-26001164D01*
X40577298Y-26000618D01*
X40582706Y-26000500D01*
X40645892Y-26000500D01*
X43348027Y-26000500D01*
X43415066Y-26020185D01*
G37*
%TD.AperFunction*%
%TD*%
M02*
