%TF.GenerationSoftware,KiCad,Pcbnew,8.0.1-rc1*%
%TF.CreationDate,2024-04-18T22:24:46-05:00*%
%TF.ProjectId,Emotion LED,456d6f74-696f-46e2-904c-45442e6b6963,rev?*%
%TF.SameCoordinates,Original*%
%TF.FileFunction,Legend,Top*%
%TF.FilePolarity,Positive*%
%FSLAX46Y46*%
G04 Gerber Fmt 4.6, Leading zero omitted, Abs format (unit mm)*
G04 Created by KiCad (PCBNEW 8.0.1-rc1) date 2024-04-18 22:24:46*
%MOMM*%
%LPD*%
G01*
G04 APERTURE LIST*
%ADD10C,0.120000*%
G04 APERTURE END LIST*
D10*
%TO.C,REF\u002A\u002A*%
X78079836Y-38463871D02*
G75*
G02*
X78079999Y-40545960I-1079836J-1041129D01*
G01*
X78078608Y-37832666D02*
G75*
G02*
X78235515Y-41064999I-1078608J-1672334D01*
G01*
X75920001Y-40545960D02*
G75*
G02*
X75920164Y-38463871I1079999J1040960D01*
G01*
X75764485Y-41064999D02*
G75*
G02*
X75921392Y-37832666I1235515J1559999D01*
G01*
X78080000Y-41065000D02*
X78236000Y-41065000D01*
X75764000Y-41065000D02*
X75920000Y-41065000D01*
X85579836Y-38463871D02*
G75*
G02*
X85579999Y-40545960I-1079836J-1041129D01*
G01*
X85578608Y-37832666D02*
G75*
G02*
X85735515Y-41064999I-1078608J-1672334D01*
G01*
X83420001Y-40545960D02*
G75*
G02*
X83420164Y-38463871I1079999J1040960D01*
G01*
X83264485Y-41064999D02*
G75*
G02*
X83421392Y-37832666I1235515J1559999D01*
G01*
X85580000Y-41065000D02*
X85736000Y-41065000D01*
X83264000Y-41065000D02*
X83420000Y-41065000D01*
X45764000Y-41040000D02*
X45920000Y-41040000D01*
X48080000Y-41040000D02*
X48236000Y-41040000D01*
X45764485Y-41039999D02*
G75*
G02*
X45921392Y-37807666I1235515J1559999D01*
G01*
X45920001Y-40520960D02*
G75*
G02*
X45920164Y-38438871I1079999J1040960D01*
G01*
X48078608Y-37807666D02*
G75*
G02*
X48235515Y-41039999I-1078608J-1672334D01*
G01*
X48079836Y-38438871D02*
G75*
G02*
X48079999Y-40520960I-1079836J-1041129D01*
G01*
X60764000Y-41040000D02*
X60920000Y-41040000D01*
X63080000Y-41040000D02*
X63236000Y-41040000D01*
X60764485Y-41039999D02*
G75*
G02*
X60921392Y-37807666I1235515J1559999D01*
G01*
X60920001Y-40520960D02*
G75*
G02*
X60920164Y-38438871I1079999J1040960D01*
G01*
X63078608Y-37807666D02*
G75*
G02*
X63235515Y-41039999I-1078608J-1672334D01*
G01*
X63079836Y-38438871D02*
G75*
G02*
X63079999Y-40520960I-1079836J-1041129D01*
G01*
X93079836Y-38438871D02*
G75*
G02*
X93079999Y-40520960I-1079836J-1041129D01*
G01*
X93078608Y-37807666D02*
G75*
G02*
X93235515Y-41039999I-1078608J-1672334D01*
G01*
X90920001Y-40520960D02*
G75*
G02*
X90920164Y-38438871I1079999J1040960D01*
G01*
X90764485Y-41039999D02*
G75*
G02*
X90921392Y-37807666I1235515J1559999D01*
G01*
X93080000Y-41040000D02*
X93236000Y-41040000D01*
X90764000Y-41040000D02*
X90920000Y-41040000D01*
X70579836Y-38438871D02*
G75*
G02*
X70579999Y-40520960I-1079836J-1041129D01*
G01*
X70578608Y-37807666D02*
G75*
G02*
X70735515Y-41039999I-1078608J-1672334D01*
G01*
X68420001Y-40520960D02*
G75*
G02*
X68420164Y-38438871I1079999J1040960D01*
G01*
X68264485Y-41039999D02*
G75*
G02*
X68421392Y-37807666I1235515J1559999D01*
G01*
X70580000Y-41040000D02*
X70736000Y-41040000D01*
X68264000Y-41040000D02*
X68420000Y-41040000D01*
X53264000Y-41040000D02*
X53420000Y-41040000D01*
X55580000Y-41040000D02*
X55736000Y-41040000D01*
X53264485Y-41039999D02*
G75*
G02*
X53421392Y-37807666I1235515J1559999D01*
G01*
X53420001Y-40520960D02*
G75*
G02*
X53420164Y-38438871I1079999J1040960D01*
G01*
X55578608Y-37807666D02*
G75*
G02*
X55735515Y-41039999I-1078608J-1672334D01*
G01*
X55579836Y-38438871D02*
G75*
G02*
X55579999Y-40520960I-1079836J-1041129D01*
G01*
%TD*%
M02*
