%TF.GenerationSoftware,KiCad,Pcbnew,8.0.1-rc1*%
%TF.CreationDate,2024-04-19T00:03:45-05:00*%
%TF.ProjectId,voltage_converter,766f6c74-6167-4655-9f63-6f6e76657274,rev?*%
%TF.SameCoordinates,Original*%
%TF.FileFunction,Drillmap*%
%TF.FilePolarity,Positive*%
%FSLAX45Y45*%
G04 Gerber Fmt 4.5, Leading zero omitted, Abs format (unit mm)*
G04 Created by KiCad (PCBNEW 8.0.1-rc1) date 2024-04-19 00:03:45*
%MOMM*%
%LPD*%
G01*
G04 APERTURE LIST*
%ADD10C,0.050000*%
%ADD11C,0.200000*%
%ADD12C,0.330200*%
G04 APERTURE END LIST*
D10*
X13025110Y-12341360D02*
G75*
G02*
X12517110Y-11833360I0J508000D01*
G01*
X12517110Y-9167360D02*
G75*
G02*
X13025110Y-8659360I508000J0D01*
G01*
X16675110Y-8659360D02*
G75*
G02*
X17183110Y-9167360I0J-508000D01*
G01*
X17183110Y-11833360D02*
G75*
G02*
X16675110Y-12341360I-508000J0D01*
G01*
X13025110Y-12341360D02*
X16675110Y-12341360D01*
X17183110Y-11833360D02*
X17183110Y-9167360D01*
X16675110Y-8659360D02*
X13025110Y-8659360D01*
X12517110Y-9167360D02*
X12517110Y-11833360D01*
D11*
D12*
X12733010Y-8874260D02*
X13063210Y-9204460D01*
X13063210Y-8874260D02*
X12733010Y-9204460D01*
X12733010Y-11795260D02*
X13063210Y-12125460D01*
X13063210Y-11795260D02*
X12733010Y-12125460D01*
X16634900Y-8874260D02*
X16965100Y-9204460D01*
X16965100Y-8874260D02*
X16634900Y-9204460D01*
X16634900Y-11795260D02*
X16965100Y-12125460D01*
X16965100Y-11795260D02*
X16634900Y-12125460D01*
D11*
X12775387Y-12655344D02*
X12775387Y-12455344D01*
X12775387Y-12455344D02*
X12823006Y-12455344D01*
X12823006Y-12455344D02*
X12851577Y-12464868D01*
X12851577Y-12464868D02*
X12870625Y-12483915D01*
X12870625Y-12483915D02*
X12880149Y-12502963D01*
X12880149Y-12502963D02*
X12889672Y-12541058D01*
X12889672Y-12541058D02*
X12889672Y-12569629D01*
X12889672Y-12569629D02*
X12880149Y-12607725D01*
X12880149Y-12607725D02*
X12870625Y-12626772D01*
X12870625Y-12626772D02*
X12851577Y-12645820D01*
X12851577Y-12645820D02*
X12823006Y-12655344D01*
X12823006Y-12655344D02*
X12775387Y-12655344D01*
X12975387Y-12655344D02*
X12975387Y-12522010D01*
X12975387Y-12560106D02*
X12984911Y-12541058D01*
X12984911Y-12541058D02*
X12994434Y-12531534D01*
X12994434Y-12531534D02*
X13013482Y-12522010D01*
X13013482Y-12522010D02*
X13032530Y-12522010D01*
X13099196Y-12655344D02*
X13099196Y-12522010D01*
X13099196Y-12455344D02*
X13089672Y-12464868D01*
X13089672Y-12464868D02*
X13099196Y-12474391D01*
X13099196Y-12474391D02*
X13108720Y-12464868D01*
X13108720Y-12464868D02*
X13099196Y-12455344D01*
X13099196Y-12455344D02*
X13099196Y-12474391D01*
X13223006Y-12655344D02*
X13203958Y-12645820D01*
X13203958Y-12645820D02*
X13194434Y-12626772D01*
X13194434Y-12626772D02*
X13194434Y-12455344D01*
X13327768Y-12655344D02*
X13308720Y-12645820D01*
X13308720Y-12645820D02*
X13299196Y-12626772D01*
X13299196Y-12626772D02*
X13299196Y-12455344D01*
X13556339Y-12655344D02*
X13556339Y-12455344D01*
X13556339Y-12455344D02*
X13623006Y-12598201D01*
X13623006Y-12598201D02*
X13689672Y-12455344D01*
X13689672Y-12455344D02*
X13689672Y-12655344D01*
X13870625Y-12655344D02*
X13870625Y-12550582D01*
X13870625Y-12550582D02*
X13861101Y-12531534D01*
X13861101Y-12531534D02*
X13842053Y-12522010D01*
X13842053Y-12522010D02*
X13803958Y-12522010D01*
X13803958Y-12522010D02*
X13784911Y-12531534D01*
X13870625Y-12645820D02*
X13851577Y-12655344D01*
X13851577Y-12655344D02*
X13803958Y-12655344D01*
X13803958Y-12655344D02*
X13784911Y-12645820D01*
X13784911Y-12645820D02*
X13775387Y-12626772D01*
X13775387Y-12626772D02*
X13775387Y-12607725D01*
X13775387Y-12607725D02*
X13784911Y-12588677D01*
X13784911Y-12588677D02*
X13803958Y-12579153D01*
X13803958Y-12579153D02*
X13851577Y-12579153D01*
X13851577Y-12579153D02*
X13870625Y-12569629D01*
X13965863Y-12522010D02*
X13965863Y-12722010D01*
X13965863Y-12531534D02*
X13984911Y-12522010D01*
X13984911Y-12522010D02*
X14023006Y-12522010D01*
X14023006Y-12522010D02*
X14042053Y-12531534D01*
X14042053Y-12531534D02*
X14051577Y-12541058D01*
X14051577Y-12541058D02*
X14061101Y-12560106D01*
X14061101Y-12560106D02*
X14061101Y-12617248D01*
X14061101Y-12617248D02*
X14051577Y-12636296D01*
X14051577Y-12636296D02*
X14042053Y-12645820D01*
X14042053Y-12645820D02*
X14023006Y-12655344D01*
X14023006Y-12655344D02*
X13984911Y-12655344D01*
X13984911Y-12655344D02*
X13965863Y-12645820D01*
X14146815Y-12636296D02*
X14156339Y-12645820D01*
X14156339Y-12645820D02*
X14146815Y-12655344D01*
X14146815Y-12655344D02*
X14137292Y-12645820D01*
X14137292Y-12645820D02*
X14146815Y-12636296D01*
X14146815Y-12636296D02*
X14146815Y-12655344D01*
X14146815Y-12531534D02*
X14156339Y-12541058D01*
X14156339Y-12541058D02*
X14146815Y-12550582D01*
X14146815Y-12550582D02*
X14137292Y-12541058D01*
X14137292Y-12541058D02*
X14146815Y-12531534D01*
X14146815Y-12531534D02*
X14146815Y-12550582D01*
X12314610Y-12883860D02*
X12514610Y-13083860D01*
X12514610Y-12883860D02*
X12314610Y-13083860D01*
X12756339Y-12875344D02*
X12880149Y-12875344D01*
X12880149Y-12875344D02*
X12813482Y-12951534D01*
X12813482Y-12951534D02*
X12842053Y-12951534D01*
X12842053Y-12951534D02*
X12861101Y-12961058D01*
X12861101Y-12961058D02*
X12870625Y-12970582D01*
X12870625Y-12970582D02*
X12880149Y-12989629D01*
X12880149Y-12989629D02*
X12880149Y-13037248D01*
X12880149Y-13037248D02*
X12870625Y-13056296D01*
X12870625Y-13056296D02*
X12861101Y-13065820D01*
X12861101Y-13065820D02*
X12842053Y-13075344D01*
X12842053Y-13075344D02*
X12784911Y-13075344D01*
X12784911Y-13075344D02*
X12765863Y-13065820D01*
X12765863Y-13065820D02*
X12756339Y-13056296D01*
X12965863Y-13056296D02*
X12975387Y-13065820D01*
X12975387Y-13065820D02*
X12965863Y-13075344D01*
X12965863Y-13075344D02*
X12956339Y-13065820D01*
X12956339Y-13065820D02*
X12965863Y-13056296D01*
X12965863Y-13056296D02*
X12965863Y-13075344D01*
X13042053Y-12875344D02*
X13165863Y-12875344D01*
X13165863Y-12875344D02*
X13099196Y-12951534D01*
X13099196Y-12951534D02*
X13127768Y-12951534D01*
X13127768Y-12951534D02*
X13146815Y-12961058D01*
X13146815Y-12961058D02*
X13156339Y-12970582D01*
X13156339Y-12970582D02*
X13165863Y-12989629D01*
X13165863Y-12989629D02*
X13165863Y-13037248D01*
X13165863Y-13037248D02*
X13156339Y-13056296D01*
X13156339Y-13056296D02*
X13146815Y-13065820D01*
X13146815Y-13065820D02*
X13127768Y-13075344D01*
X13127768Y-13075344D02*
X13070625Y-13075344D01*
X13070625Y-13075344D02*
X13051577Y-13065820D01*
X13051577Y-13065820D02*
X13042053Y-13056296D01*
X13289672Y-12875344D02*
X13308720Y-12875344D01*
X13308720Y-12875344D02*
X13327768Y-12884868D01*
X13327768Y-12884868D02*
X13337292Y-12894391D01*
X13337292Y-12894391D02*
X13346815Y-12913439D01*
X13346815Y-12913439D02*
X13356339Y-12951534D01*
X13356339Y-12951534D02*
X13356339Y-12999153D01*
X13356339Y-12999153D02*
X13346815Y-13037248D01*
X13346815Y-13037248D02*
X13337292Y-13056296D01*
X13337292Y-13056296D02*
X13327768Y-13065820D01*
X13327768Y-13065820D02*
X13308720Y-13075344D01*
X13308720Y-13075344D02*
X13289672Y-13075344D01*
X13289672Y-13075344D02*
X13270625Y-13065820D01*
X13270625Y-13065820D02*
X13261101Y-13056296D01*
X13261101Y-13056296D02*
X13251577Y-13037248D01*
X13251577Y-13037248D02*
X13242053Y-12999153D01*
X13242053Y-12999153D02*
X13242053Y-12951534D01*
X13242053Y-12951534D02*
X13251577Y-12913439D01*
X13251577Y-12913439D02*
X13261101Y-12894391D01*
X13261101Y-12894391D02*
X13270625Y-12884868D01*
X13270625Y-12884868D02*
X13289672Y-12875344D01*
X13432530Y-12894391D02*
X13442053Y-12884868D01*
X13442053Y-12884868D02*
X13461101Y-12875344D01*
X13461101Y-12875344D02*
X13508720Y-12875344D01*
X13508720Y-12875344D02*
X13527768Y-12884868D01*
X13527768Y-12884868D02*
X13537292Y-12894391D01*
X13537292Y-12894391D02*
X13546815Y-12913439D01*
X13546815Y-12913439D02*
X13546815Y-12932487D01*
X13546815Y-12932487D02*
X13537292Y-12961058D01*
X13537292Y-12961058D02*
X13423006Y-13075344D01*
X13423006Y-13075344D02*
X13546815Y-13075344D01*
X13632530Y-13075344D02*
X13632530Y-12942010D01*
X13632530Y-12961058D02*
X13642053Y-12951534D01*
X13642053Y-12951534D02*
X13661101Y-12942010D01*
X13661101Y-12942010D02*
X13689673Y-12942010D01*
X13689673Y-12942010D02*
X13708720Y-12951534D01*
X13708720Y-12951534D02*
X13718244Y-12970582D01*
X13718244Y-12970582D02*
X13718244Y-13075344D01*
X13718244Y-12970582D02*
X13727768Y-12951534D01*
X13727768Y-12951534D02*
X13746815Y-12942010D01*
X13746815Y-12942010D02*
X13775387Y-12942010D01*
X13775387Y-12942010D02*
X13794434Y-12951534D01*
X13794434Y-12951534D02*
X13803958Y-12970582D01*
X13803958Y-12970582D02*
X13803958Y-13075344D01*
X13899196Y-13075344D02*
X13899196Y-12942010D01*
X13899196Y-12961058D02*
X13908720Y-12951534D01*
X13908720Y-12951534D02*
X13927768Y-12942010D01*
X13927768Y-12942010D02*
X13956339Y-12942010D01*
X13956339Y-12942010D02*
X13975387Y-12951534D01*
X13975387Y-12951534D02*
X13984911Y-12970582D01*
X13984911Y-12970582D02*
X13984911Y-13075344D01*
X13984911Y-12970582D02*
X13994434Y-12951534D01*
X13994434Y-12951534D02*
X14013482Y-12942010D01*
X14013482Y-12942010D02*
X14042053Y-12942010D01*
X14042053Y-12942010D02*
X14061101Y-12951534D01*
X14061101Y-12951534D02*
X14070625Y-12970582D01*
X14070625Y-12970582D02*
X14070625Y-13075344D01*
X14461101Y-12865820D02*
X14289673Y-13122963D01*
X14718244Y-12875344D02*
X14737292Y-12875344D01*
X14737292Y-12875344D02*
X14756339Y-12884868D01*
X14756339Y-12884868D02*
X14765863Y-12894391D01*
X14765863Y-12894391D02*
X14775387Y-12913439D01*
X14775387Y-12913439D02*
X14784911Y-12951534D01*
X14784911Y-12951534D02*
X14784911Y-12999153D01*
X14784911Y-12999153D02*
X14775387Y-13037248D01*
X14775387Y-13037248D02*
X14765863Y-13056296D01*
X14765863Y-13056296D02*
X14756339Y-13065820D01*
X14756339Y-13065820D02*
X14737292Y-13075344D01*
X14737292Y-13075344D02*
X14718244Y-13075344D01*
X14718244Y-13075344D02*
X14699196Y-13065820D01*
X14699196Y-13065820D02*
X14689673Y-13056296D01*
X14689673Y-13056296D02*
X14680149Y-13037248D01*
X14680149Y-13037248D02*
X14670625Y-12999153D01*
X14670625Y-12999153D02*
X14670625Y-12951534D01*
X14670625Y-12951534D02*
X14680149Y-12913439D01*
X14680149Y-12913439D02*
X14689673Y-12894391D01*
X14689673Y-12894391D02*
X14699196Y-12884868D01*
X14699196Y-12884868D02*
X14718244Y-12875344D01*
X14870625Y-13056296D02*
X14880149Y-13065820D01*
X14880149Y-13065820D02*
X14870625Y-13075344D01*
X14870625Y-13075344D02*
X14861101Y-13065820D01*
X14861101Y-13065820D02*
X14870625Y-13056296D01*
X14870625Y-13056296D02*
X14870625Y-13075344D01*
X15070625Y-13075344D02*
X14956339Y-13075344D01*
X15013482Y-13075344D02*
X15013482Y-12875344D01*
X15013482Y-12875344D02*
X14994435Y-12903915D01*
X14994435Y-12903915D02*
X14975387Y-12922963D01*
X14975387Y-12922963D02*
X14956339Y-12932487D01*
X15137292Y-12875344D02*
X15261101Y-12875344D01*
X15261101Y-12875344D02*
X15194435Y-12951534D01*
X15194435Y-12951534D02*
X15223006Y-12951534D01*
X15223006Y-12951534D02*
X15242054Y-12961058D01*
X15242054Y-12961058D02*
X15251577Y-12970582D01*
X15251577Y-12970582D02*
X15261101Y-12989629D01*
X15261101Y-12989629D02*
X15261101Y-13037248D01*
X15261101Y-13037248D02*
X15251577Y-13056296D01*
X15251577Y-13056296D02*
X15242054Y-13065820D01*
X15242054Y-13065820D02*
X15223006Y-13075344D01*
X15223006Y-13075344D02*
X15165863Y-13075344D01*
X15165863Y-13075344D02*
X15146816Y-13065820D01*
X15146816Y-13065820D02*
X15137292Y-13056296D01*
X15384911Y-12875344D02*
X15403958Y-12875344D01*
X15403958Y-12875344D02*
X15423006Y-12884868D01*
X15423006Y-12884868D02*
X15432530Y-12894391D01*
X15432530Y-12894391D02*
X15442054Y-12913439D01*
X15442054Y-12913439D02*
X15451577Y-12951534D01*
X15451577Y-12951534D02*
X15451577Y-12999153D01*
X15451577Y-12999153D02*
X15442054Y-13037248D01*
X15442054Y-13037248D02*
X15432530Y-13056296D01*
X15432530Y-13056296D02*
X15423006Y-13065820D01*
X15423006Y-13065820D02*
X15403958Y-13075344D01*
X15403958Y-13075344D02*
X15384911Y-13075344D01*
X15384911Y-13075344D02*
X15365863Y-13065820D01*
X15365863Y-13065820D02*
X15356339Y-13056296D01*
X15356339Y-13056296D02*
X15346816Y-13037248D01*
X15346816Y-13037248D02*
X15337292Y-12999153D01*
X15337292Y-12999153D02*
X15337292Y-12951534D01*
X15337292Y-12951534D02*
X15346816Y-12913439D01*
X15346816Y-12913439D02*
X15356339Y-12894391D01*
X15356339Y-12894391D02*
X15365863Y-12884868D01*
X15365863Y-12884868D02*
X15384911Y-12875344D01*
X15575387Y-12875344D02*
X15594435Y-12875344D01*
X15594435Y-12875344D02*
X15613482Y-12884868D01*
X15613482Y-12884868D02*
X15623006Y-12894391D01*
X15623006Y-12894391D02*
X15632530Y-12913439D01*
X15632530Y-12913439D02*
X15642054Y-12951534D01*
X15642054Y-12951534D02*
X15642054Y-12999153D01*
X15642054Y-12999153D02*
X15632530Y-13037248D01*
X15632530Y-13037248D02*
X15623006Y-13056296D01*
X15623006Y-13056296D02*
X15613482Y-13065820D01*
X15613482Y-13065820D02*
X15594435Y-13075344D01*
X15594435Y-13075344D02*
X15575387Y-13075344D01*
X15575387Y-13075344D02*
X15556339Y-13065820D01*
X15556339Y-13065820D02*
X15546816Y-13056296D01*
X15546816Y-13056296D02*
X15537292Y-13037248D01*
X15537292Y-13037248D02*
X15527768Y-12999153D01*
X15527768Y-12999153D02*
X15527768Y-12951534D01*
X15527768Y-12951534D02*
X15537292Y-12913439D01*
X15537292Y-12913439D02*
X15546816Y-12894391D01*
X15546816Y-12894391D02*
X15556339Y-12884868D01*
X15556339Y-12884868D02*
X15575387Y-12875344D01*
X15718244Y-12875344D02*
X15718244Y-12913439D01*
X15794435Y-12875344D02*
X15794435Y-12913439D01*
X16089673Y-13151534D02*
X16080149Y-13142010D01*
X16080149Y-13142010D02*
X16061101Y-13113439D01*
X16061101Y-13113439D02*
X16051578Y-13094391D01*
X16051578Y-13094391D02*
X16042054Y-13065820D01*
X16042054Y-13065820D02*
X16032530Y-13018201D01*
X16032530Y-13018201D02*
X16032530Y-12980106D01*
X16032530Y-12980106D02*
X16042054Y-12932487D01*
X16042054Y-12932487D02*
X16051578Y-12903915D01*
X16051578Y-12903915D02*
X16061101Y-12884868D01*
X16061101Y-12884868D02*
X16080149Y-12856296D01*
X16080149Y-12856296D02*
X16089673Y-12846772D01*
X16251578Y-12942010D02*
X16251578Y-13075344D01*
X16203958Y-12865820D02*
X16156339Y-13008677D01*
X16156339Y-13008677D02*
X16280149Y-13008677D01*
X16508720Y-13075344D02*
X16508720Y-12875344D01*
X16594435Y-13075344D02*
X16594435Y-12970582D01*
X16594435Y-12970582D02*
X16584911Y-12951534D01*
X16584911Y-12951534D02*
X16565863Y-12942010D01*
X16565863Y-12942010D02*
X16537292Y-12942010D01*
X16537292Y-12942010D02*
X16518244Y-12951534D01*
X16518244Y-12951534D02*
X16508720Y-12961058D01*
X16718244Y-13075344D02*
X16699197Y-13065820D01*
X16699197Y-13065820D02*
X16689673Y-13056296D01*
X16689673Y-13056296D02*
X16680149Y-13037248D01*
X16680149Y-13037248D02*
X16680149Y-12980106D01*
X16680149Y-12980106D02*
X16689673Y-12961058D01*
X16689673Y-12961058D02*
X16699197Y-12951534D01*
X16699197Y-12951534D02*
X16718244Y-12942010D01*
X16718244Y-12942010D02*
X16746816Y-12942010D01*
X16746816Y-12942010D02*
X16765863Y-12951534D01*
X16765863Y-12951534D02*
X16775387Y-12961058D01*
X16775387Y-12961058D02*
X16784911Y-12980106D01*
X16784911Y-12980106D02*
X16784911Y-13037248D01*
X16784911Y-13037248D02*
X16775387Y-13056296D01*
X16775387Y-13056296D02*
X16765863Y-13065820D01*
X16765863Y-13065820D02*
X16746816Y-13075344D01*
X16746816Y-13075344D02*
X16718244Y-13075344D01*
X16899197Y-13075344D02*
X16880149Y-13065820D01*
X16880149Y-13065820D02*
X16870625Y-13046772D01*
X16870625Y-13046772D02*
X16870625Y-12875344D01*
X17051578Y-13065820D02*
X17032530Y-13075344D01*
X17032530Y-13075344D02*
X16994435Y-13075344D01*
X16994435Y-13075344D02*
X16975387Y-13065820D01*
X16975387Y-13065820D02*
X16965863Y-13046772D01*
X16965863Y-13046772D02*
X16965863Y-12970582D01*
X16965863Y-12970582D02*
X16975387Y-12951534D01*
X16975387Y-12951534D02*
X16994435Y-12942010D01*
X16994435Y-12942010D02*
X17032530Y-12942010D01*
X17032530Y-12942010D02*
X17051578Y-12951534D01*
X17051578Y-12951534D02*
X17061102Y-12970582D01*
X17061102Y-12970582D02*
X17061102Y-12989629D01*
X17061102Y-12989629D02*
X16965863Y-13008677D01*
X17137292Y-13065820D02*
X17156340Y-13075344D01*
X17156340Y-13075344D02*
X17194435Y-13075344D01*
X17194435Y-13075344D02*
X17213483Y-13065820D01*
X17213483Y-13065820D02*
X17223006Y-13046772D01*
X17223006Y-13046772D02*
X17223006Y-13037248D01*
X17223006Y-13037248D02*
X17213483Y-13018201D01*
X17213483Y-13018201D02*
X17194435Y-13008677D01*
X17194435Y-13008677D02*
X17165863Y-13008677D01*
X17165863Y-13008677D02*
X17146816Y-12999153D01*
X17146816Y-12999153D02*
X17137292Y-12980106D01*
X17137292Y-12980106D02*
X17137292Y-12970582D01*
X17137292Y-12970582D02*
X17146816Y-12951534D01*
X17146816Y-12951534D02*
X17165863Y-12942010D01*
X17165863Y-12942010D02*
X17194435Y-12942010D01*
X17194435Y-12942010D02*
X17213483Y-12951534D01*
X17289673Y-13151534D02*
X17299197Y-13142010D01*
X17299197Y-13142010D02*
X17318244Y-13113439D01*
X17318244Y-13113439D02*
X17327768Y-13094391D01*
X17327768Y-13094391D02*
X17337292Y-13065820D01*
X17337292Y-13065820D02*
X17346816Y-13018201D01*
X17346816Y-13018201D02*
X17346816Y-12980106D01*
X17346816Y-12980106D02*
X17337292Y-12932487D01*
X17337292Y-12932487D02*
X17327768Y-12903915D01*
X17327768Y-12903915D02*
X17318244Y-12884868D01*
X17318244Y-12884868D02*
X17299197Y-12856296D01*
X17299197Y-12856296D02*
X17289673Y-12846772D01*
X17651578Y-13151534D02*
X17642054Y-13142010D01*
X17642054Y-13142010D02*
X17623006Y-13113439D01*
X17623006Y-13113439D02*
X17613483Y-13094391D01*
X17613483Y-13094391D02*
X17603959Y-13065820D01*
X17603959Y-13065820D02*
X17594435Y-13018201D01*
X17594435Y-13018201D02*
X17594435Y-12980106D01*
X17594435Y-12980106D02*
X17603959Y-12932487D01*
X17603959Y-12932487D02*
X17613483Y-12903915D01*
X17613483Y-12903915D02*
X17623006Y-12884868D01*
X17623006Y-12884868D02*
X17642054Y-12856296D01*
X17642054Y-12856296D02*
X17651578Y-12846772D01*
X17727768Y-12942010D02*
X17727768Y-13075344D01*
X17727768Y-12961058D02*
X17737292Y-12951534D01*
X17737292Y-12951534D02*
X17756340Y-12942010D01*
X17756340Y-12942010D02*
X17784911Y-12942010D01*
X17784911Y-12942010D02*
X17803959Y-12951534D01*
X17803959Y-12951534D02*
X17813483Y-12970582D01*
X17813483Y-12970582D02*
X17813483Y-13075344D01*
X17937292Y-13075344D02*
X17918244Y-13065820D01*
X17918244Y-13065820D02*
X17908721Y-13056296D01*
X17908721Y-13056296D02*
X17899197Y-13037248D01*
X17899197Y-13037248D02*
X17899197Y-12980106D01*
X17899197Y-12980106D02*
X17908721Y-12961058D01*
X17908721Y-12961058D02*
X17918244Y-12951534D01*
X17918244Y-12951534D02*
X17937292Y-12942010D01*
X17937292Y-12942010D02*
X17965864Y-12942010D01*
X17965864Y-12942010D02*
X17984911Y-12951534D01*
X17984911Y-12951534D02*
X17994435Y-12961058D01*
X17994435Y-12961058D02*
X18003959Y-12980106D01*
X18003959Y-12980106D02*
X18003959Y-13037248D01*
X18003959Y-13037248D02*
X17994435Y-13056296D01*
X17994435Y-13056296D02*
X17984911Y-13065820D01*
X17984911Y-13065820D02*
X17965864Y-13075344D01*
X17965864Y-13075344D02*
X17937292Y-13075344D01*
X18061102Y-12942010D02*
X18137292Y-12942010D01*
X18089673Y-12875344D02*
X18089673Y-13046772D01*
X18089673Y-13046772D02*
X18099197Y-13065820D01*
X18099197Y-13065820D02*
X18118244Y-13075344D01*
X18118244Y-13075344D02*
X18137292Y-13075344D01*
X18356340Y-12942010D02*
X18356340Y-13142010D01*
X18356340Y-12951534D02*
X18375387Y-12942010D01*
X18375387Y-12942010D02*
X18413483Y-12942010D01*
X18413483Y-12942010D02*
X18432530Y-12951534D01*
X18432530Y-12951534D02*
X18442054Y-12961058D01*
X18442054Y-12961058D02*
X18451578Y-12980106D01*
X18451578Y-12980106D02*
X18451578Y-13037248D01*
X18451578Y-13037248D02*
X18442054Y-13056296D01*
X18442054Y-13056296D02*
X18432530Y-13065820D01*
X18432530Y-13065820D02*
X18413483Y-13075344D01*
X18413483Y-13075344D02*
X18375387Y-13075344D01*
X18375387Y-13075344D02*
X18356340Y-13065820D01*
X18565864Y-13075344D02*
X18546816Y-13065820D01*
X18546816Y-13065820D02*
X18537292Y-13046772D01*
X18537292Y-13046772D02*
X18537292Y-12875344D01*
X18727768Y-13075344D02*
X18727768Y-12970582D01*
X18727768Y-12970582D02*
X18718245Y-12951534D01*
X18718245Y-12951534D02*
X18699197Y-12942010D01*
X18699197Y-12942010D02*
X18661102Y-12942010D01*
X18661102Y-12942010D02*
X18642054Y-12951534D01*
X18727768Y-13065820D02*
X18708721Y-13075344D01*
X18708721Y-13075344D02*
X18661102Y-13075344D01*
X18661102Y-13075344D02*
X18642054Y-13065820D01*
X18642054Y-13065820D02*
X18632530Y-13046772D01*
X18632530Y-13046772D02*
X18632530Y-13027725D01*
X18632530Y-13027725D02*
X18642054Y-13008677D01*
X18642054Y-13008677D02*
X18661102Y-12999153D01*
X18661102Y-12999153D02*
X18708721Y-12999153D01*
X18708721Y-12999153D02*
X18727768Y-12989629D01*
X18794435Y-12942010D02*
X18870625Y-12942010D01*
X18823006Y-12875344D02*
X18823006Y-13046772D01*
X18823006Y-13046772D02*
X18832530Y-13065820D01*
X18832530Y-13065820D02*
X18851578Y-13075344D01*
X18851578Y-13075344D02*
X18870625Y-13075344D01*
X19013483Y-13065820D02*
X18994435Y-13075344D01*
X18994435Y-13075344D02*
X18956340Y-13075344D01*
X18956340Y-13075344D02*
X18937292Y-13065820D01*
X18937292Y-13065820D02*
X18927768Y-13046772D01*
X18927768Y-13046772D02*
X18927768Y-12970582D01*
X18927768Y-12970582D02*
X18937292Y-12951534D01*
X18937292Y-12951534D02*
X18956340Y-12942010D01*
X18956340Y-12942010D02*
X18994435Y-12942010D01*
X18994435Y-12942010D02*
X19013483Y-12951534D01*
X19013483Y-12951534D02*
X19023006Y-12970582D01*
X19023006Y-12970582D02*
X19023006Y-12989629D01*
X19023006Y-12989629D02*
X18927768Y-13008677D01*
X19194435Y-13075344D02*
X19194435Y-12875344D01*
X19194435Y-13065820D02*
X19175387Y-13075344D01*
X19175387Y-13075344D02*
X19137292Y-13075344D01*
X19137292Y-13075344D02*
X19118245Y-13065820D01*
X19118245Y-13065820D02*
X19108721Y-13056296D01*
X19108721Y-13056296D02*
X19099197Y-13037248D01*
X19099197Y-13037248D02*
X19099197Y-12980106D01*
X19099197Y-12980106D02*
X19108721Y-12961058D01*
X19108721Y-12961058D02*
X19118245Y-12951534D01*
X19118245Y-12951534D02*
X19137292Y-12942010D01*
X19137292Y-12942010D02*
X19175387Y-12942010D01*
X19175387Y-12942010D02*
X19194435Y-12951534D01*
X19270626Y-13151534D02*
X19280149Y-13142010D01*
X19280149Y-13142010D02*
X19299197Y-13113439D01*
X19299197Y-13113439D02*
X19308721Y-13094391D01*
X19308721Y-13094391D02*
X19318245Y-13065820D01*
X19318245Y-13065820D02*
X19327768Y-13018201D01*
X19327768Y-13018201D02*
X19327768Y-12980106D01*
X19327768Y-12980106D02*
X19318245Y-12932487D01*
X19318245Y-12932487D02*
X19308721Y-12903915D01*
X19308721Y-12903915D02*
X19299197Y-12884868D01*
X19299197Y-12884868D02*
X19280149Y-12856296D01*
X19280149Y-12856296D02*
X19270626Y-12846772D01*
M02*
